

<svg version="1.1"  xmlns="http://www.w3.org/2000/svg" xmlns:xlink="http://www.w3.org/1999/xlink" x="0px" y="0px"
	 viewBox="0 0 552.4 561.3" style="enable-background:new 0 0 552.4 561.3;" xml:space="preserve">
<style type="text/css">
	.st0{fill:#EC6585;}
	.st1{fill:none;}
</style>
<path class="st0" d="M302.3,552.7c-45.6,0-86-12.1-117.5-35.2c-19.4-14.3-37.1-26.3-52.7-36.9c-41-27.9-68.1-46.3-79.9-72.6
	c-11.9-26.5-7.4-59.9,15.7-115.3c28.8-69.2,66-111.6,110.6-126.2c33.8-11,71.4-4.8,108.7,17.8c24.6,15,46.5,24.4,65.8,32.8
	c42,18.2,75.2,32.6,106.6,89.7c12.1,22,22.9,32.6,31.6,41.2c15.5,15.3,25.7,25.4,28,77c1.4,31.1-27.4,65.5-77,92.1
	c-38.9,20.8-84.4,33.4-128,35.3C310.2,552.6,306.3,552.7,302.3,552.7z M212.7,168.1c-10.9,0-21.6,1.7-32,5.1
	c-20.4,6.6-39.5,19.8-56.9,39.3c-18.5,20.7-35.2,48.6-49.5,82.9c-22.3,53.4-26.8,85.2-15.8,109.7c11,24.5,37.5,42.5,77.5,69.7
	c15.7,10.7,33.4,22.7,52.9,37.1c32.9,24.2,76.1,35.8,124.9,33.6c42.6-1.9,87-14.2,125-34.5c46.5-24.9,74.6-57.7,73.3-85.6
	c-2.2-48.8-11.2-57.7-26-72.3c-9-8.9-20.2-20-32.8-42.8c-30.3-55-60.9-68.3-103.3-86.6c-19.5-8.5-41.6-18-66.6-33.3
	C259.2,175.5,235.5,168.1,212.7,168.1z"/>
<path class="st0" d="M264.2,403.4c-4.1,0-8.2-0.2-12.3-0.4l0.4-7c3.9,0.2,7.9,0.4,11.9,0.4L264.2,403.4z M276.5,403.2l-0.3-7
	c3.9-0.2,7.9-0.4,11.9-0.7l0.6,7C284.6,402.8,280.5,403,276.5,403.2z M239.7,401.9c-4.1-0.4-8.2-1-12.2-1.7l1.1-6.9
	c3.9,0.6,7.8,1.2,11.8,1.6L239.7,401.9z M300.9,401.1l-0.9-6.9c3.9-0.5,7.9-1.1,11.8-1.7l1.2,6.9C309,400,304.9,400.6,300.9,401.1z
	 M215.5,397.9c-4-0.9-8-1.9-11.9-3.1l2-6.7c3.8,1.1,7.6,2.1,11.5,3L215.5,397.9z M325.1,397.1l-1.4-6.8c3.9-0.8,7.8-1.7,11.7-2.7
	l1.7,6.8C333.1,395.3,329.1,396.2,325.1,397.1z M348.9,391.1l-2-6.7c3.8-1.1,7.7-2.3,11.4-3.6l2.2,6.6
	C356.7,388.7,352.8,389.9,348.9,391.1z M191.8,391c-3.9-1.4-7.7-3-11.4-4.6l2.8-6.4c3.6,1.6,7.3,3.1,11,4.4L191.8,391z M372.1,383.3
	l-2.5-6.5c3.7-1.4,7.5-2.9,11.1-4.5l2.7,6.4C379.7,380.3,375.9,381.8,372.1,383.3z M169.3,381c-3.6-1.9-7.2-4-10.7-6.2l3.7-5.9
	c3.3,2.1,6.8,4.1,10.3,5.9L169.3,381z M394.6,373.7l-3-6.3c3.6-1.7,7.2-3.5,10.7-5.4l3.3,6.2C402,370,398.3,371.9,394.6,373.7z
	 M148.4,367.8c-3.3-2.4-6.6-4.8-9.8-7.1l4.1-5.7c3.2,2.3,6.5,4.7,9.8,7.1L148.4,367.8z M416.3,362.1l-3.6-6
	c3.5-2.1,6.9-4.2,10.1-6.3l3.9,5.8C423.3,357.8,419.8,360,416.3,362.1z M128.8,353.7c-3.4-2.4-6.7-4.7-9.9-6.9l4-5.8
	c3.2,2.3,6.6,4.6,9.9,6.9L128.8,353.7z M436.7,348.5l-4.2-5.6c3.2-2.4,6.4-4.9,9.3-7.4l4.5,5.3C443.3,343.4,440.1,346,436.7,348.5z
	 M108.9,339.9c-3.4-2.3-6.7-4.6-10-6.8l3.9-5.8c3.3,2.2,6.6,4.5,10,6.8L108.9,339.9z M455.5,332.5l-4.9-5c2.9-2.9,5.6-5.8,8-8.7
	l5.4,4.5C461.3,326.4,458.5,329.4,455.5,332.5z M88.9,326.3c-3.4-2.3-6.8-4.6-10-6.9l4-5.8c3.2,2.2,6.5,4.5,10,6.8L88.9,326.3z
	 M471.4,313.3l-5.8-3.8c2.2-3.4,4.1-6.8,5.7-10.1l6.4,2.9C475.8,305.9,473.8,309.6,471.4,313.3z M69,312.5c-3.6-2.6-6.8-4.9-9.8-7.2
	l4.2-5.6c3,2.2,6.1,4.5,9.7,7.1L69,312.5z M49.5,297.8c-3.4-2.8-6.5-5.4-9.3-8l4.7-5.2c2.7,2.5,5.7,5,9,7.7L49.5,297.8z
	 M481.8,290.3l-6.8-1.6c0.9-3.6,1.3-7.3,1.3-10.8l0-0.4l7-0.1l0,0.4C483.3,281.9,482.8,286.1,481.8,290.3z M31.4,281
	c-2.9-3.2-5.6-6.5-7.9-9.7l5.7-4c2.1,3,4.6,6,7.3,9.1L31.4,281z M475.6,265.7c-0.3-4.2-0.7-8.2-1.2-11.8l6.9-0.9
	c0.5,3.8,0.9,7.9,1.2,12.2L475.6,265.7z M17,260.4c-1.8-3.8-3.4-7.8-4.5-11.9l6.7-1.9c1,3.7,2.4,7.3,4,10.7L17,260.4z M472.6,242.2
	c-0.9-4.2-1.9-7.8-3-11.2l6.6-2.3c1.3,3.7,2.4,7.6,3.3,12.1L472.6,242.2z M10.2,236.1c-0.3-2.9-0.4-5.9-0.4-9c0-1.2,0-2.4,0.1-3.6
	l7,0.2c0,1.1-0.1,2.2-0.1,3.3c0,2.8,0.1,5.6,0.4,8.3L10.2,236.1z M464.8,220.7c-1.8-3.1-4-6-6.8-9.1l5.2-4.7
	c3.1,3.5,5.5,6.7,7.6,10.2L464.8,220.7z M17.9,212.1l-6.9-1c0.5-3.9,1.3-8,2.2-12.2l6.8,1.5C19.2,204.5,18.4,208.4,17.9,212.1z
	 M449.7,203.1c-2.8-2.8-5.6-5.5-8.5-8.8l5.2-4.7c2.9,3.1,5.6,5.8,8.3,8.5L449.7,203.1z M23,189l-6.7-1.9c1.1-3.7,2.3-7.7,3.6-11.7
	l6.6,2.2C25.2,181.5,24,185.3,23,189z M433.2,184.9c-2.5-3.2-4.9-6.5-7.2-10l5.8-3.9c2.3,3.4,4.5,6.5,6.9,9.6L433.2,184.9z
	 M30.4,166.2l-6.6-2.4c1.3-3.6,2.8-7.5,4.4-11.4l6.5,2.6C33.2,158.9,31.7,162.6,30.4,166.2z M419.5,164.4c-0.7-1.2-1.3-2.4-2-3.6
	c-1.3-2.4-2.6-4.7-3.9-6.9l6-3.6c1.3,2.3,2.7,4.7,4,7.1c0.7,1.2,1.3,2.3,2,3.5L419.5,164.4z M39.3,143.9l-6.4-2.7
	c1.6-3.8,3.3-7.5,4.9-11.2l6.4,2.9C42.5,136.4,40.8,140.1,39.3,143.9z M407.3,143.9c-2.2-3.4-4.5-6.6-6.8-9.7l5.6-4.2
	c2.4,3.2,4.8,6.6,7.1,10L407.3,143.9z M393,124.9c-2.6-3-5.3-5.9-8.1-8.6l4.9-5c2.9,2.8,5.7,5.9,8.5,9L393,124.9z M49.2,122
	l-6.3-3.1c1.8-3.7,3.7-7.3,5.6-10.9l6.2,3.3C52.9,114.8,51,118.4,49.2,122z M376.2,108.4c-3-2.5-6.1-4.9-9.4-7.2l4-5.7
	c3.4,2.4,6.7,4.9,9.8,7.5L376.2,108.4z M60.6,101l-6-3.5c2.1-3.6,4.3-7.1,6.4-10.4l5.9,3.8C64.8,94.1,62.6,97.5,60.6,101z
	 M356.9,94.8c-3.3-2-6.7-3.8-10.4-5.8l3.2-6.2c3.8,2,7.4,3.9,10.7,6L356.9,94.8z M335.7,83.8c-3.2-1.5-6.7-3.1-10.9-5l2.8-6.4
	c4.3,1.9,7.8,3.5,11.1,5L335.7,83.8z M73.6,80.9l-5.7-4.1c2.4-3.4,4.9-6.7,7.4-9.8l5.5,4.4C78.4,74.4,75.9,77.6,73.6,80.9z
	 M313.7,74c-3.6-1.6-7.3-3.2-11.1-4.8l2.8-6.4c3.8,1.7,7.5,3.3,11.1,4.8L313.7,74z M291.5,64.2c-3.9-1.8-7.5-3.5-11-5.2l3.1-6.3
	c3.5,1.7,7,3.4,10.9,5.1L291.5,64.2z M88.5,62.4l-5.2-4.7c2.8-3.1,5.7-6.1,8.6-8.9l4.9,5C93.9,56.5,91.2,59.4,88.5,62.4z
	 M269.7,53.5c-3.6-1.9-7.2-3.9-10.7-5.8l3.4-6.1c3.4,1.9,7,3.9,10.5,5.7L269.7,53.5z M105.5,45.9l-4.5-5.4c3.2-2.7,6.5-5.2,9.9-7.5
	l4,5.8C111.8,41,108.6,43.4,105.5,45.9z M248.4,41.5l-0.9-0.5c-3.4-2.1-6.9-4.1-10.3-5.9l3.3-6.2c3.6,1.9,7.2,3.9,10.7,6.1l0.8,0.5
	L248.4,41.5z M124.9,32.5l-3.4-6.1c3.7-2.1,7.4-3.9,11.2-5.5l2.8,6.4C131.9,28.9,128.3,30.6,124.9,32.5z M226.5,30
	c-3.7-1.6-7.4-3.1-11-4.3l2.3-6.6c3.8,1.3,7.7,2.8,11.5,4.5L226.5,30z M146.4,23.3l-2.1-6.7c4-1.2,8.1-2.2,12.1-3l1.3,6.9
	C153.9,21.2,150.1,22.1,146.4,23.3z M204.2,22.3c-3.8-1-7.7-1.7-11.5-2.3l1-6.9c4,0.6,8.1,1.4,12.2,2.4L204.2,22.3z M169.3,19
	l-0.5-7c4.1-0.3,8.3-0.3,12.5-0.2l-0.3,7C177.1,18.7,173.2,18.8,169.3,19z"/>
<g>
	<path class="st0" d="M266.2,403.4c-45.1,0-85.6-12-117.3-35.3c-19.4-14.3-37.1-26.3-52.7-36.9c-11.5-7.9-22.4-15.3-32-22.2
		l-2.2-1.6l1-2.5c1.5-4,3.2-8.1,4.9-12.3c28.8-69.2,66-111.6,110.6-126.2c33.8-11,71.4-4.8,108.7,17.8c24.6,15,46.5,24.4,65.8,32.8
		c42,18.2,75.2,32.6,106.6,89.7c2,3.6,4.1,7.1,6.1,10.4l1.3,2.1l-1.6,1.9c-27.1,33.9-82.4,63.7-140.9,75.9
		C304.5,401.4,284.9,403.4,266.2,403.4z M70.5,304.9c8.9,6.4,19,13.3,29.6,20.5c15.7,10.7,33.4,22.7,52.9,37.1
		c25.1,18.4,80.5,46.5,170.2,27.8c55.9-11.7,108.6-39.6,135.3-71.5c-1.7-2.8-3.4-5.7-5-8.6c-30.3-55-60.9-68.3-103.3-86.6
		c-19.5-8.5-41.6-18-66.6-33.3c-36-21.9-70.6-27.7-102.9-17.2c-20.4,6.6-39.5,19.8-56.9,39.3c-18.5,20.7-35.2,48.6-49.5,82.9
		C73,298.6,71.7,301.8,70.5,304.9z"/>
</g>
<g>
	<path class="st0" d="M166.9,501.6l-4.2-5.6c0.1-0.1,1.8-1.4,5-3.6l4,5.8C168.6,500.3,166.9,501.6,166.9,501.6z"/>
	<path class="st0" d="M446.8,500.2c-3.9-0.6-8-1.4-12.2-2.2l1.4-6.9c4.1,0.8,8.1,1.6,11.9,2.2L446.8,500.2z M422.5,495.3
		c-3.9-0.9-8-2-12-3.1l1.8-6.8c3.9,1.1,7.9,2.1,11.8,3L422.5,495.3z M181.8,491.7l-3.7-6c3.5-2.1,7.1-4.3,10.7-6.3l3.4,6.1
		C188.7,487.5,185.2,489.6,181.8,491.7z M398.7,488.7c-3.9-1.2-7.8-2.4-11.8-3.8l2.2-6.6c3.9,1.3,7.8,2.5,11.6,3.7L398.7,488.7z
		 M375.3,480.9c-3.8-1.4-7.7-2.9-11.5-4.4l2.5-6.5c3.8,1.5,7.6,2.9,11.4,4.3L375.3,480.9z M202.9,479.8l-3.2-6.2
		c3.7-1.9,7.5-3.7,11.2-5.4l2.9,6.4C210.2,476.2,206.5,478,202.9,479.8z M352.3,471.9c-3.8-1.6-7.6-3.2-11.3-4.9l2.8-6.4
		c3.7,1.6,7.5,3.3,11.2,4.8L352.3,471.9z M224.9,469.8l-2.6-6.5c3.9-1.6,7.8-3,11.7-4.3l2.3,6.6
		C232.5,466.9,228.7,468.3,224.9,469.8z M329.9,462.3c-3.7-1.4-7.5-2.5-11.3-3.5l1.7-6.8c4.1,1,8.2,2.3,12.1,3.7L329.9,462.3z
		 M247.8,462l-1.9-6.7c4.1-1.1,8.1-2.1,12.1-3l1.5,6.8C255.6,460,251.7,460.9,247.8,462z M271.2,457.1l-1-6.9
		c4.2-0.6,8.4-1,12.5-1.2l0.4,7C279.3,456.1,275.3,456.5,271.2,457.1z M306.9,456.7c-3.9-0.5-7.8-0.8-11.9-1l0.2-7
		c4.2,0.1,8.5,0.5,12.6,1L306.9,456.7z"/>
	<path class="st0" d="M465.3,502.3c-0.1,0-2.2-0.1-6.2-0.5l0.7-7c3.7,0.4,5.7,0.5,5.7,0.5L465.3,502.3z"/>
</g>
<g>
	<path class="st0" d="M505.3,322.1c0-10.1,8.2-18.4,18.4-18.4v36.8c10.1,0,18.4-8.2,18.4-18.4"/>
	<path class="st0" d="M523.7,344c-12.1,0-21.9-9.8-21.9-21.9s9.8-21.9,21.9-21.9c12.1,0,21.9,9.8,21.9,21.9S535.8,344,523.7,344z
		 M523.7,307.2c-8.2,0-14.9,6.7-14.9,14.9s6.7,14.9,14.9,14.9s14.9-6.7,14.9-14.9S531.9,307.2,523.7,307.2z"/>
</g>
<polygon class="st0" points="180.4,427.6 196.1,455.7 164.8,455.7 "/>
<polygon class="st0" points="60.2,150.5 75.9,178.7 67.6,178.7 60.2,165.7 53.2,178.7 44.6,178.7 "/>
<g>
	<g>
		<path class="st0" d="M203.8,123.4l0-1.1l7.5-0.2l0,1.1l-3.5,0.5l-0.5,0L203.8,123.4z M208.3,138.7l3.5,0.3l0,1.1l-7.5,0.2l0-1.1
			l3.5-0.5L208.3,138.7z M206.6,130.6c-0.1-2.8-0.2-5.5-0.4-8.3l2.6-0.1c0,2.7,0.1,5.5,0.2,8.3l0,1.3c0.1,2.8,0.2,5.5,0.4,8.3
			l-2.6,0.1c0-2.7-0.1-5.5-0.2-8.3L206.6,130.6z"/>
		<path class="st0" d="M213.9,138.8l2.8-0.3l0.5,0l3.1,0.5l0,1.1l-6.4-0.2L213.9,138.8z M216.1,122.8l1.6,0.7l-3.2-0.5l0-1.1l4,0.2
			l10.5,15.7l-0.1,2.8l-0.9,0L216.1,122.8z M216.8,122l1.3,1.1l-0.6,16.8l-1.3,0L216.8,122z M225.6,122.3l6.4,0.2l0,1.1l-2.7,0.3
			l-0.5,0l-3.2-0.5L225.6,122.3z M228.4,122.4l1.3,0.1l-0.7,18.1l-1.3-1.4L228.4,122.4z"/>
		<path class="st0" d="M236,124.4l1.4-1.1l-1.5,4.6l-1.5-0.2l0.9-4.7l14.5,2.1l-0.5,4.7l-1.5-0.2l-0.1-4.8l1,1.5L236,124.4z
			 M240.4,140.3l3.6,0.9l-0.2,1.1l-7.9-1.2l0.2-1.1l3.8,0.2L240.4,140.3z M240.1,132c0.4-2.7,0.8-5.5,1.1-8.2l2.5,0.4
			c-0.5,2.7-0.9,5.4-1.3,8.2l-0.2,1.3c-0.4,2.7-0.8,5.5-1.1,8.2l-2.5-0.4c0.5-2.7,0.9-5.4,1.3-8.2L240.1,132z"/>
		<path class="st0" d="M252.5,142.7l-0.4,1.4l-3.6-1l0.3-1l3.5,0.6L252.5,142.7z M253.6,134.5c0.8-2.6,1.6-5.3,2.2-8l2.5,0.7
			c-0.8,2.6-1.6,5.2-2.4,7.9l-0.3,1c-0.9,3-1.6,5.6-2.3,8.3l-2.5-0.7c0.8-2.6,1.6-5.2,2.4-7.9L253.6,134.5z M263.2,142.4l-1.5,4.5
			l-9.7-2.8l0.4-1.3l8.8,2.6l-1.5,0.9l2.1-4.3L263.2,142.4z M253.2,126.9l0.3-1l3.6,1l-0.4,1.4l-0.3-0.1L253.2,126.9z M260.2,137.6
			l-5.8-1.7l0.3-1.2l5.8,1.7L260.2,137.6z M264.2,129l0.8,1.6l-8.3-2.4l0.4-1.3l9.2,2.7l-1.2,4.6l-1.4-0.4L264.2,129z M259.7,136.4
			l1.2-2.6l1.2,0.3l-1.8,6.1l-1.2-0.3l0.4-3L259.7,136.4z"/>
		<path class="st0" d="M267.4,148l2.9,1.9l-0.5,1l-6.7-3.4l0.5-1l3.3,1.2L267.4,148z M269.9,140c1.3-2.5,2.5-4.9,3.7-7.4l2.3,1.2
			c-1.3,2.4-2.5,4.8-4,7.6l-0.4,0.7c-1.4,2.7-2.7,5.2-3.8,7.7l-2.3-1.2c1.3-2.4,2.6-4.8,3.9-7.3L269.9,140z M270.9,140.7l3,1.5
			c2.6,1.3,4.5,0.6,5.5-1.4c1-2,0.5-3.6-2-4.9l-3.2-1.7l0.6-1.1l3.3,1.7c3.6,1.9,5,4.5,3.6,7.2c-1,2-3.6,3-6.8,1.7l0.2-0.2
			c1.6,1,2.3,2.4,1.8,4.8l-0.9,4.6l-0.5-0.8l2.3,1.5l-0.5,1c-0.5-0.1-1.1-0.3-1.8-0.6c-1.5-0.8-1.9-1.5-1.6-2.7l1-4.4
			c0.5-2.2-0.2-3-2.2-4l-2.3-1.2L270.9,140.7z M270.9,132.5l0.5-1l3.3,1.7l-0.7,1.3l-0.2-0.1L270.9,132.5z"/>
		<path class="st0" d="M297.9,145.1l-0.4,0.8L279.8,156l-1.8-0.9l0.4-0.8l17.6-10L297.9,145.1z M292.4,157.1l-2.4,4.1l-11.1-5.7
			l0.6-1.2l10.3,5.3l-1.9,0.5l3.1-3.8L292.4,157.1z M284.3,143.5l2.4-4.1l10.4,5.3l-0.6,1.2l-9.5-4.9l1.9-0.5l-3.1,3.8L284.3,143.5z
			"/>
		<path class="st0" d="M310.4,161.6c-2.7,5.2-7.8,6.5-11.5,4.6c-3.7-1.9-5.8-6.6-3-12.1c2.7-5.2,7.9-6.5,11.6-4.6
			S313.2,156.2,310.4,161.6z M299.5,165.1c3.4,1.7,6.6-1.1,8.4-4.7c1.8-3.6,2.3-7.9-1.1-9.6c-3.4-1.7-6.6,1.1-8.4,4.7
			C296.5,159,296.1,163.3,299.5,165.1z"/>
		<path class="st0" d="M308.9,169.7l2.7,0.9l0.5,0.2l2.6,1.8l-0.5,1l-5.7-2.9L308.9,169.7z M318.6,155.8l0.7,1.6l-7.7,15l-1.2-0.6
			L318.6,155.8z M317.7,156.2l1.2,1.3l-2.7-1.8l0.5-1l3.6,1.8l2.9,18.7l-1.3,2.5l-0.8-0.4L317.7,156.2z M329,161.1l1.2,0.6
			l-8.3,16.1l-0.6-1.8L329,161.1z M326.5,159.8l5.7,2.9l-0.5,1l-2.6-0.9l-0.5-0.2l-2.7-1.8L326.5,159.8z"/>
		<path class="st0" d="M330.1,180.1l-0.7,1.3l-3.3-1.7l0.5-1l3.3,1.2L330.1,180.1z M332.7,172.3c1.3-2.5,2.5-4.9,3.7-7.4l2.3,1.2
			c-1.3,2.4-2.6,4.8-3.8,7.4l-0.5,0.9c-1.4,2.7-2.7,5.2-3.8,7.7l-2.3-1.2c1.3-2.4,2.6-4.8,3.8-7.4L332.7,172.3z M340.7,181.8
			l-2.3,4.2l-9-4.6l0.6-1.2l8.2,4.2l-1.7,0.6l2.9-3.9L340.7,181.8z M338.7,176.6l-5.4-2.7l0.6-1.1l5.4,2.7L338.7,176.6z
			 M333.7,164.7l0.5-1l3.3,1.7l-0.7,1.3l-0.2-0.1L333.7,164.7z M344.1,168.8l0.5,1.7l-7.7-3.9l0.6-1.2l8.5,4.3l-2,4.3l-1.3-0.7
			L344.1,168.8z M338.3,175.3l1.6-2.3l1.1,0.5l-2.9,5.6l-1.1-0.5l1-2.8L338.3,175.3z"/>
	</g>
</g>
<g>
	<path class="st1" d="M380.4,237.2L225,392.6c2.9,0.5,5.8,1,8.8,1.5l153.3-153.3C384.9,239.5,382.7,238.3,380.4,237.2z"/>
	<path class="st1" d="M392.6,243.8L241.4,395c3.1,0.3,6.2,0.6,9.4,0.8l148.1-148.1C396.8,246.4,394.7,245.1,392.6,243.8z"/>
	<path class="st1" d="M360.6,379.8l84.3-84.3c-1.4-2.1-2.7-4.2-4.1-6.2l-95.3,95.3C350.6,383.1,355.6,381.5,360.6,379.8z"/>
	<path class="st1" d="M432.8,278.6L320.7,390.7c0.8-0.2,1.7-0.3,2.5-0.5c3.6-0.7,7.1-1.6,10.7-2.4l103.3-103.3
		C435.8,282.4,434.3,280.4,432.8,278.6z"/>
	<path class="st1" d="M449.8,328.1l1.7-1.7c2.5-2.5,4.9-5.1,7-7.7c-1.2-2-2.4-4-3.6-6.1l-44.7,44.7
		C425.6,348.5,439.1,338.6,449.8,328.1z"/>
	<path class="st1" d="M392.4,366.8l59.6-59.6c-1.3-2.2-2.5-4.4-3.8-6.5l-74.1,74.1C380.3,372.3,386.4,369.6,392.4,366.8z"/>
	<path class="st1" d="M424,268.6L298.3,394.3c3.9-0.5,7.9-1.1,12-1.7L428.9,274C427.3,272.1,425.7,270.3,424,268.6z"/>
	<path class="st1" d="M414.4,259.4L277.8,396c3.6-0.2,7.3-0.4,11-0.7l131-131C418,262.6,416.2,261,414.4,259.4z"/>
	<path class="st1" d="M403.9,251.2l-145,145c3.3,0.1,6.7,0.1,10.2,0.1l140.7-140.7C407.9,254,405.9,252.6,403.9,251.2z"/>
	<path class="st1" d="M224.1,168.5L80.7,311.9c2,1.4,4,2.8,6.1,4.2L233,169.8C230,169.3,227,168.8,224.1,168.5z"/>
	<path class="st1" d="M240,171.3L91.8,319.6c2,1.4,4,2.8,6.1,4.2L248,173.6C245.3,172.8,242.6,172,240,171.3z"/>
	<path class="st1" d="M254.3,175.8L102.9,327.2c2,1.4,4,2.8,6.1,4.2l152.6-152.6C259.2,177.7,256.7,176.7,254.3,175.8z"/>
	<path class="st1" d="M267.5,181.4L114.1,334.8c2,1.4,4,2.8,6.1,4.2l154.1-154.1C272,183.6,269.7,182.5,267.5,181.4z"/>
	<path class="st1" d="M205.7,168.1L71.5,302.3c-0.3,0.8-0.7,1.6-1,2.4c1.7,1.2,3.4,2.4,5.2,3.7L216.1,168
		C212.6,167.9,209.1,167.9,205.7,168.1z"/>
	<path class="st1" d="M283.6,190.2c-1.3-0.8-2.6-1.5-3.9-2.3L125.2,342.4c2,1.4,4,2.8,6,4.2l155-155
		C285.3,191.2,284.5,190.7,283.6,190.2z"/>
	<path class="st1" d="M139.1,197.2l-16.6,16.6c-9,10.3-17.5,22.2-25.6,35.8l72-72C158.6,182.4,148.6,189,139.1,197.2z"/>
	<path class="st1" d="M182.7,172.4l-95.9,95.9c-3.1,6.2-6.2,12.7-9.2,19.4l118.5-118.5C191.6,170,187.1,171,182.7,172.4z"/>
	<path class="st1" d="M354.7,225.4L195.5,384.6c2.5,0.9,5,1.8,7.7,2.6l158.7-158.7C359.5,227.4,357.2,226.4,354.7,225.4z"/>
	<path class="st1" d="M341.7,219.7L182.1,379.2c2.3,1,4.7,2.1,7.2,3.1l159.5-159.5C346.5,221.8,344.1,220.7,341.7,219.7z"/>
	<path class="st1" d="M328.7,213.9L169.6,372.9c2.1,1.2,4.4,2.4,6.7,3.5l159.4-159.4C333.5,216,331.1,215,328.7,213.9z"/>
	<path class="st1" d="M291.5,194.8L136.2,350.2c2,1.4,4,2.8,6,4.3l155.9-155.9C295.9,197.3,293.7,196.1,291.5,194.8z"/>
	<path class="st1" d="M367.7,231.1l-158,158c2.7,0.7,5.4,1.4,8.2,2l156.8-156.8C372.4,233.3,370.1,232.2,367.7,231.1z"/>
	<path class="st1" d="M316,207.9l-158,158c1.9,1.3,4,2.7,6.3,4l158.6-158.6C320.6,210.1,318.3,209,316,207.9z"/>
	<path class="st1" d="M303.6,201.5L147.1,358c2,1.4,3.9,2.9,5.9,4.3L310.3,205C308.1,203.9,305.9,202.7,303.6,201.5z"/>
	<path class="st0" d="M123.9,212.3c-0.5,0.5-0.9,1-1.3,1.5l16.6-16.6C133.9,201.7,128.8,206.7,123.9,212.3z"/>
	<path class="st0" d="M180.7,173c-4,1.3-7.9,2.8-11.8,4.6l-72,72c-3.5,5.9-6.9,12.2-10.2,18.7l95.9-95.9
		C182,172.6,181.4,172.8,180.7,173z"/>
	<path class="st0" d="M196.1,169.2L77.6,287.8c-1.1,2.4-2.1,4.9-3.2,7.4c-1,2.4-2,4.8-2.9,7.2l134.2-134.2
		C202.5,168.4,199.3,168.7,196.1,169.2z"/>
	<path class="st0" d="M216.1,168L75.7,308.4c1.6,1.2,3.3,2.3,5,3.5l143.4-143.4C221.4,168.2,218.8,168.1,216.1,168z"/>
	<path class="st0" d="M233,169.8L86.7,316.1c1.7,1.1,3.3,2.3,5,3.4L240,171.3C237.7,170.8,235.3,170.3,233,169.8z"/>
	<path class="st0" d="M248,173.6L97.9,323.7c0.7,0.5,1.5,1,2.2,1.5c0.9,0.6,1.9,1.3,2.8,1.9l151.4-151.4
		C252.2,175,250.1,174.3,248,173.6z"/>
	<path class="st0" d="M261.6,178.7L109,331.3c1.7,1.1,3.3,2.3,5,3.4l153.4-153.4C265.5,180.4,263.6,179.6,261.6,178.7z"/>
	<path class="st0" d="M274.3,184.8L120.1,339c1.7,1.1,3.3,2.3,5,3.5l154.6-154.6C277.9,186.8,276.1,185.8,274.3,184.8z"/>
	<path class="st0" d="M286.2,191.7l-155,155c1.6,1.2,3.3,2.3,5,3.5l155.3-155.3C289.7,193.8,288,192.8,286.2,191.7z"/>
	<path class="st0" d="M298.1,198.5L142.2,354.4c1.6,1.2,3.3,2.3,4.9,3.6l156.5-156.5C301.8,200.5,299.9,199.6,298.1,198.5z"/>
	<path class="st0" d="M310.3,205L153,362.3c0,0,0,0,0,0c1.5,1.1,3.2,2.3,5,3.5l158-158C314.1,206.9,312.2,206,310.3,205z"/>
	<path class="st0" d="M322.9,211.2L164.3,369.8c1.7,1,3.5,2.1,5.4,3.1l159.1-159.1C326.8,213,324.9,212.1,322.9,211.2z"/>
	<path class="st0" d="M335.8,217.1L176.4,376.5c1.9,0.9,3.8,1.8,5.8,2.7l159.5-159.5C339.7,218.8,337.8,218,335.8,217.1z"/>
	<path class="st0" d="M350.2,223.4c-0.5-0.2-0.9-0.4-1.4-0.6L189.3,382.3c2,0.8,4,1.6,6.2,2.3l159.2-159.2
		C353.3,224.7,351.8,224.1,350.2,223.4z"/>
	<path class="st0" d="M361.9,228.5L203.2,387.2c2.1,0.7,4.3,1.3,6.6,1.9l158-158C365.8,230.2,363.9,229.4,361.9,228.5z"/>
	<path class="st0" d="M374.7,234.4L218,391.1c2.3,0.5,4.6,1,7,1.5l155.4-155.4C378.6,236.2,376.7,235.3,374.7,234.4z"/>
	<path class="st0" d="M387.2,240.7L233.8,394c2.5,0.4,5,0.7,7.5,0.9l151.2-151.2C390.8,242.7,389,241.7,387.2,240.7z"/>
	<path class="st0" d="M398.9,247.7L250.8,395.8c2.7,0.2,5.3,0.3,8.1,0.4l145-145C402.3,250,400.6,248.8,398.9,247.7z"/>
	<path class="st0" d="M409.8,255.6L269.1,396.3c2.9,0,5.8-0.1,8.7-0.3l136.6-136.6C412.9,258.1,411.3,256.8,409.8,255.6z"/>
	<path class="st0" d="M419.8,264.3l-131,131c3.1-0.3,6.3-0.6,9.5-1L424,268.6C422.6,267.1,421.2,265.7,419.8,264.3z"/>
	<path class="st0" d="M428.9,274L310.3,392.6c3.4-0.6,6.9-1.2,10.4-1.9l112.1-112.1C431.5,277,430.2,275.4,428.9,274z"/>
	<path class="st0" d="M440.8,289.3c-1.2-1.7-2.4-3.3-3.5-4.9L333.9,387.7c3.9-1,7.8-2,11.6-3.1L440.8,289.3z"/>
	<path class="st0" d="M374.1,374.8l74.1-74.1c-1.1-1.8-2.2-3.5-3.3-5.2l-84.3,84.3C365.1,378.3,369.6,376.6,374.1,374.8z"/>
	<path class="st0" d="M410.3,357.3l44.7-44.7c-0.5-0.9-1-1.7-1.5-2.6c-0.5-1-1.1-1.9-1.6-2.8l-59.6,59.6
		C398.6,363.8,404.5,360.6,410.3,357.3z"/>
	<path class="st0" d="M451.5,326.4l-1.7,1.7C450.4,327.5,451,326.9,451.5,326.4z"/>
</g>
</svg>
