<?xml version="1.0" encoding="UTF-8" standalone="no"?>
<!-- Generator: Adobe Illustrator 24.0.2, SVG Export Plug-In . SVG Version: 6.00 Build 0)  -->

<svg
   xmlns:dc="http://purl.org/dc/elements/1.1/"
   xmlns:cc="http://creativecommons.org/ns#"
   xmlns:rdf="http://www.w3.org/1999/02/22-rdf-syntax-ns#"
   xmlns:svg="http://www.w3.org/2000/svg"
   xmlns="http://www.w3.org/2000/svg"
   xmlns:sodipodi="http://sodipodi.sourceforge.net/DTD/sodipodi-0.dtd"
   xmlns:inkscape="http://www.inkscape.org/namespaces/inkscape"
   version="1.1"
   id="Calque_1"
   x="0px"
   y="0px"
   viewBox="0 0 196.1 196.1"
   style="enable-background:new 0 0 196.1 196.1;"
   xml:space="preserve"
   sodipodi:docname="logo_empty_jaune.svg"
   inkscape:version="0.92.4 (5da689c313, 2019-01-14)"><metadata
   id="metadata33"><rdf:RDF><cc:Work
       rdf:about=""><dc:format>image/svg+xml</dc:format><dc:type
         rdf:resource="http://purl.org/dc/dcmitype/StillImage" /><dc:title></dc:title></cc:Work></rdf:RDF></metadata><defs
   id="defs31" /><sodipodi:namedview
   pagecolor="#ffffff"
   bordercolor="#666666"
   borderopacity="1"
   objecttolerance="10"
   gridtolerance="10"
   guidetolerance="10"
   inkscape:pageopacity="0"
   inkscape:pageshadow="2"
   inkscape:window-width="933"
   inkscape:window-height="480"
   id="namedview29"
   showgrid="false"
   inkscape:zoom="1.2034676"
   inkscape:cx="10.802119"
   inkscape:cy="98.050003"
   inkscape:window-x="0"
   inkscape:window-y="27"
   inkscape:window-maximized="0"
   inkscape:current-layer="Calque_1" />
<style
   type="text/css"
   id="style2">
	.st0{fill:#73C7D3;}
</style>
<g
   id="g14">
	
		<rect
   x="13"
   y="69.7"
   transform="matrix(6.123234e-17 -1 1 6.123234e-17 -56.6931 139.386)"
   class="st0"
   width="56.7"
   height="56.7"
   id="rect4" />
	
		<rect
   x="126.4"
   y="13"
   transform="matrix(6.123234e-17 -1 1 6.123234e-17 113.3856 196.0789)"
   class="st0"
   width="56.7"
   height="56.7"
   id="rect6" />
	
		<rect
   x="69.7"
   y="126.4"
   transform="matrix(6.123234e-17 -1 1 6.123234e-17 -56.6931 252.7718)"
   class="st0"
   width="56.7"
   height="56.7"
   id="rect8" />
	
		<rect
   x="13"
   y="13"
   transform="matrix(6.123234e-17 -1 1 6.123234e-17 -1.885960e-04 82.6931)"
   class="st0"
   width="56.7"
   height="56.7"
   id="rect10" />
	<path
   class="st0"
   d="M183.1,13v170.1H13V13H183.1 M183.1,0H13C5.8,0,0,5.8,0,13v170.1c0,7.2,5.8,13,13,13h170.1c7.2,0,13-5.8,13-13   V13C196.1,5.8,190.3,0,183.1,0L183.1,0z"
   id="path12" />
</g>
<g
   id="g26"
   style="fill:#fcc857;fill-opacity:1">
	
		<rect
   x="13"
   y="69.7"
   transform="matrix(6.123234e-17 -1 1 6.123234e-17 -56.6931 139.386)"
   class="st0"
   width="56.7"
   height="56.7"
   id="rect16"
   style="fill:#fcc857;fill-opacity:1" />
	
		<rect
   x="126.4"
   y="13"
   transform="matrix(6.123234e-17 -1 1 6.123234e-17 113.3856 196.0789)"
   class="st0"
   width="56.7"
   height="56.7"
   id="rect18"
   style="fill:#fcc857;fill-opacity:1" />
	
		<rect
   x="69.7"
   y="126.4"
   transform="matrix(6.123234e-17 -1 1 6.123234e-17 -56.6931 252.7718)"
   class="st0"
   width="56.7"
   height="56.7"
   id="rect20"
   style="fill:#fcc857;fill-opacity:1" />
	
		<rect
   x="13"
   y="13"
   transform="matrix(6.123234e-17 -1 1 6.123234e-17 -1.885960e-04 82.6931)"
   class="st0"
   width="56.7"
   height="56.7"
   id="rect22"
   style="fill:#fcc857;fill-opacity:1" />
	<path
   class="st0"
   d="M183.1,13v170.1H13V13H183.1 M183.1,0H13C5.8,0,0,5.8,0,13v170.1c0,7.2,5.8,13,13,13h170.1c7.2,0,13-5.8,13-13   V13C196.1,5.8,190.3,0,183.1,0L183.1,0z"
   id="path24"
   style="fill:#fcc857;fill-opacity:1" />
</g>
</svg>