

<svg version="1.1"  xmlns="http://www.w3.org/2000/svg" xmlns:xlink="http://www.w3.org/1999/xlink" x="0px" y="0px"
	 viewBox="0 0 841.9 1190.6" style="enable-background:new 0 0 841.9 1190.6;" xml:space="preserve">
<style type="text/css">
	.st0{fill:#FCC857;}
</style>
<path class="st0" d="M471.2,546.5L471.2,546.5L471.2,546.5C471.2,546.5,471.2,546.5,471.2,546.5
	C471.2,546.5,471.2,546.5,471.2,546.5l-38.7-22.4l0-21.8c0-0.6-0.3-1.2-0.9-1.5l0,0l-19.8-11.4c-0.5-0.3-1.2-0.3-1.7,0l-19.8,11.4
	l0,0c-0.5,0.3-0.9,0.9-0.9,1.5l0,21.8L370.6,535c-0.5,0.3-0.9,0.9-0.9,1.5l0,22.8c0,0.6,0.3,1.2,0.9,1.5l19.8,11.4
	c0.3,0.2,0.6,0.2,0.9,0.2s0.6-0.1,0.9-0.2l17.2-9.9l0,19.9c0,0.6,0.3,1.2,0.9,1.5L430,595c0.3,0.2,0.6,0.2,0.9,0.2
	c0.3,0,0.6-0.1,0.9-0.2l39.6-22.8c0.5-0.3,0.9-0.9,0.9-1.5V548C472.1,547.4,471.8,546.8,471.2,546.5z M430.8,545.9l-16.4-9.4
	l16.4-9.4l16.4,9.5L430.8,545.9z M429.1,524.1l-16.4,9.5l-0.2-18.7l16.6-9.6L429.1,524.1z M452.3,539.5L467,548l-14.6,8.5V539.5z
	 M411.1,492.8l16.4,9.4l-16.6,9.6l-16.1-9.6L411.1,492.8z M389.6,544.9l-14.6-8.5l14.6-8.5V544.9z M393,550.9l14.6,8.5l-14.6,8.5
	V550.9z M389.6,567.8l-16.4-9.4l0-18.9l16.4,9.4V567.8z M411.9,557.8L393,546.9v-21.8h0l0-19.8l16.1,9.6l0.3,21.7
	c0,0.6,0.3,1.2,0.9,1.5l18.9,10.9v41.7l-16.4-9.4l0-21.8C412.8,558.7,412.4,558.1,411.9,557.8z M468.7,569.8l-36.1,20.8v-41.7
	l16.4-9.4v19.9c0,0.6,0.3,1.2,0.9,1.5c0.5,0.3,1.2,0.3,1.7,0l17.2-9.9V569.8z"/>
</svg>
