

<svg version="1.1"  xmlns="http://www.w3.org/2000/svg" xmlns:xlink="http://www.w3.org/1999/xlink" x="0px" y="0px"
	 viewBox="0 0 841.9 1190.6" style="enable-background:new 0 0 841.9 1190.6;" xml:space="preserve">
<style type="text/css">
	.st0{fill:#302F42;}
	.st1{fill:#73C7D3;}
</style>
<g>
	<g>
		<g>
			<path class="st0" d="M426.3,585.3c-0.9,0-1.9-0.4-2.8-1.1l-2.3-2c-1.1,0-2.1-0.2-3-0.6c-1-0.4-1.8-1-2.5-1.8
				c-0.7-0.8-1.2-1.8-1.6-2.9c-0.3-1.1-0.5-2.4-0.5-3.9c0-1.4,0.2-2.7,0.5-3.8c0.3-1.1,0.9-2.1,1.5-2.9c0.7-0.8,1.5-1.4,2.5-1.9
				c1-0.4,2.1-0.6,3.3-0.6c1.2,0,2.4,0.2,3.4,0.6c1,0.4,1.8,1.1,2.5,1.9c0.7,0.8,1.2,1.8,1.5,2.9c0.3,1.1,0.5,2.4,0.5,3.8
				c0,1-0.1,1.9-0.2,2.7c-0.2,0.9-0.4,1.7-0.7,2.3c-0.3,0.7-0.7,1.3-1.2,1.8c-0.2,0.2-0.4,0.4-0.7,0.6c0.9,0.6,1.7,0.8,2.4,0.8
				c0.2,0,0.4,0.1,0.5,0.2c0.1,0.1,0.2,0.3,0.2,0.5c0,1-0.3,1.8-0.9,2.4C428.2,584.9,427.4,585.3,426.3,585.3z M421.6,564.9
				c-1.1,0-2,0.2-2.8,0.5c-0.8,0.3-1.5,0.9-2,1.5c-0.6,0.7-1,1.5-1.3,2.5c-0.3,1-0.4,2.2-0.4,3.5c0,1.3,0.2,2.5,0.5,3.5
				c0.3,1,0.7,1.8,1.3,2.5c0.5,0.6,1.2,1.1,2,1.5c0.8,0.3,1.7,0.5,2.7,0.5c0.2,0,0.3,0.1,0.4,0.2l2.5,2.1c0.7,0.5,1.3,0.8,1.9,0.8
				c0.6,0,1.1-0.2,1.4-0.5c0.2-0.3,0.4-0.6,0.5-1c-0.9-0.1-1.7-0.5-2.7-1.2l-0.6-0.4c-0.2-0.1-0.3-0.4-0.3-0.6
				c0-0.2,0.2-0.5,0.4-0.5c0.5-0.2,0.8-0.4,1.2-0.8c0.4-0.4,0.7-0.9,1-1.5c0.3-0.6,0.5-1.3,0.6-2c0.1-0.8,0.2-1.6,0.2-2.5
				c0-1.3-0.1-2.4-0.4-3.4c-0.3-1-0.7-1.8-1.3-2.5c-0.5-0.7-1.2-1.2-2-1.5C423.6,565.1,422.6,564.9,421.6,564.9z M439,582.1
				c-2.3,0-4-0.6-5.3-1.9c-1.3-1.2-1.9-3-1.9-5.2v-10.4c0-0.2,0.1-0.3,0.2-0.5l0.2-0.2c0.1-0.1,0.3-0.2,0.5-0.2h1.4
				c1.9,0,3,1.1,3,3.1v8.2c0,1,0.2,1.7,0.5,2.1c0.3,0.4,0.8,0.6,1.5,0.6c0.8,0,1.2-0.2,1.5-0.6c0.3-0.4,0.5-1.1,0.5-2.1v-10.5
				c0-0.3,0.2-0.6,0.5-0.6c0.5-0.1,1.2-0.2,2-0.2c0.8,0,1.5,0.1,2,0.2c0.3,0.1,0.5,0.3,0.5,0.6V575c0,2.2-0.6,4-1.9,5.2
				C443,581.5,441.3,582.1,439,582.1z M433.1,565.1v9.9c0,1.9,0.5,3.3,1.5,4.3c1,1,2.5,1.5,4.4,1.5c1.9,0,3.4-0.5,4.4-1.5
				c1-1,1.5-2.4,1.5-4.3v-9.8c-0.4,0-0.8-0.1-1.3-0.1c-0.5,0-0.9,0-1.3,0.1v9.9c0,1.3-0.2,2.2-0.7,2.9c-0.5,0.7-1.4,1.1-2.6,1.1
				c-1.2,0-2.1-0.4-2.6-1.1c-0.5-0.7-0.7-1.6-0.7-2.9v-8.2c0-1.3-0.5-1.8-1.6-1.8H433.1z M400.4,582c-0.8,0-1.4-0.2-1.8-0.7
				c-0.4-0.4-0.7-1.1-1-2l-0.9-2.5c-0.1-0.4-0.3-0.6-0.5-0.8c-0.2-0.1-0.5-0.2-0.9-0.2h-0.3v5.4c0,0.3-0.2,0.6-0.5,0.6
				c-0.6,0.1-1.2,0.2-2.1,0.2c-0.8,0-1.5-0.1-2-0.2c-0.3-0.1-0.5-0.3-0.5-0.6v-16.4c0-0.2,0.1-0.3,0.2-0.5l0.2-0.2
				c0.1-0.1,0.3-0.2,0.5-0.2c1.4,0,2.6-0.1,3.5-0.1c1,0,1.7,0,2.3,0c0.9,0,1.8,0.1,2.6,0.4c0.8,0.2,1.5,0.6,2.1,1.1
				c0.6,0.5,1,1.1,1.4,1.9c0,0,0,0,0,0c0.3,0.7,0.5,1.6,0.5,2.6c0,0.6-0.1,1.2-0.3,1.7c-0.2,0.5-0.4,1-0.7,1.4
				c-0.3,0.4-0.7,0.8-1.1,1.1c-0.1,0.1-0.2,0.1-0.2,0.2c0.5,0.5,0.9,1.1,1.2,2l0.7,2c0.2,0.7,0.6,1.2,1,1.5c0.1,0.1,0.2,0.3,0.3,0.4
				c0,0.2,0,0.4-0.1,0.5c-0.3,0.4-0.8,0.8-1.3,1C401.7,581.8,401.1,582,400.4,582z M394.2,574.4h1c0.8,0,1.3,0.2,1.8,0.5
				c0.4,0.3,0.7,0.8,0.9,1.4l0.9,2.5c0.3,0.9,0.6,1.3,0.7,1.5c0.2,0.2,0.5,0.3,0.9,0.3c0.5,0,0.9-0.1,1.3-0.3
				c0.1-0.1,0.3-0.1,0.4-0.2c-0.4-0.4-0.7-0.9-0.9-1.6l-0.7-2c-0.3-1-0.8-1.6-1.5-1.8c-0.3-0.1-0.4-0.3-0.4-0.6
				c0-0.3,0.2-0.5,0.4-0.6c0.3-0.1,0.6-0.3,0.9-0.5c0.3-0.2,0.6-0.5,0.8-0.8c0.2-0.3,0.4-0.7,0.6-1.1c0.1-0.4,0.2-0.8,0.2-1.3
				c0-0.8-0.1-1.5-0.4-2l0,0c-0.2-0.6-0.6-1-1-1.4c-0.4-0.4-1-0.7-1.6-0.8c-0.7-0.2-1.4-0.3-2.2-0.3c-0.5,0-1.3,0-2.2,0
				c-0.8,0-1.9,0-3.1,0.1v15.3c0.4,0,0.8,0.1,1.2,0.1c0.5,0,0.9,0,1.3-0.1v-5.5C393.6,574.7,393.9,574.4,394.2,574.4z M408.4,581.9
				c-0.8,0-1.5-0.1-2.1-0.2c-0.3-0.1-0.5-0.3-0.5-0.6v-16.5c0-0.3,0.2-0.6,0.5-0.6c0.5-0.1,1.2-0.2,2.1-0.2c0.8,0,1.5,0.1,2.1,0.2
				c0.3,0.1,0.5,0.3,0.5,0.6v16.5c0,0.3-0.2,0.6-0.5,0.6C410,581.9,409.3,581.9,408.4,581.9z M407.2,580.5c0.4,0,0.8,0.1,1.3,0.1
				c0.5,0,0.9,0,1.3-0.1v-15.3c-0.4,0-0.8-0.1-1.3-0.1c-0.5,0-0.9,0-1.3,0.1V580.5z M380.5,581.9c-0.6,0-1.4,0-2.4,0
				c-1,0-2.2,0-3.6-0.1c-0.2,0-0.3-0.1-0.5-0.2l-0.2-0.2c-0.1-0.1-0.2-0.3-0.2-0.5v-16.2c0-0.2,0.1-0.3,0.2-0.5l0.2-0.2
				c0.1-0.1,0.3-0.2,0.4-0.2c1.3,0,2.4-0.1,3.3-0.1c0.9,0,1.7,0,2.2,0c1.9,0,3.4,0.4,4.5,1.2c1.2,0.9,1.8,2.1,1.8,3.8
				c0,0.8-0.2,1.6-0.7,2.3c-0.2,0.3-0.5,0.6-0.8,0.9c0.1,0.1,0.2,0.1,0.2,0.2c0.4,0.3,0.8,0.7,1.1,1.1c0.3,0.4,0.5,0.9,0.7,1.4
				c0.2,0.5,0.3,1,0.3,1.6c0,1.9-0.6,3.3-1.8,4.2C384.2,581.5,382.5,581.9,380.5,581.9z M375,580.5c1.2,0,2.2,0,3.1,0.1
				c1,0,1.8,0,2.4,0c1.8,0,3.1-0.4,4.1-1.1c0.9-0.7,1.3-1.7,1.3-3.2c0-0.4-0.1-0.8-0.2-1.1c-0.1-0.4-0.3-0.7-0.5-1.1
				c-0.2-0.3-0.5-0.6-0.8-0.8c-0.3-0.2-0.6-0.4-0.9-0.5c-0.3-0.1-0.4-0.3-0.5-0.6c0-0.3,0.1-0.5,0.4-0.6c0.5-0.2,0.9-0.6,1.3-1.1
				c0.3-0.5,0.5-1,0.5-1.6c0-1.3-0.4-2.2-1.2-2.8c-0.9-0.6-2.1-1-3.8-1c-0.6,0-1.3,0-2.2,0c-0.8,0-1.8,0-2.9,0.1V580.5z
				 M458.8,581.8h-6.4c-0.9,0-1.6-0.3-2.1-0.8c-0.5-0.5-0.8-1.2-0.8-2.1v-14.1c0-0.2,0.1-0.3,0.2-0.5l0.2-0.2
				c0.1-0.1,0.3-0.2,0.5-0.2h10.4c0.3,0,0.6,0.2,0.6,0.5c0.1,0.5,0.2,1.1,0.2,1.7c0,0.6-0.1,1.3-0.4,1.9c-0.1,0.3-0.3,0.4-0.6,0.4
				h-5.9l0,2.1c0.3,0,0.6,0,1,0h3.7c0.3,0,0.5,0.2,0.6,0.5c0.2,0.5,0.2,1.1,0.2,1.7c0,0.6-0.1,1.2-0.2,1.8c-0.1,0.3-0.3,0.5-0.6,0.5
				h-4.7l0,2.3c0.4,0,0.8,0,1.1,0h5.6c0.4,0,0.7,0.3,0.7,0.7c0,0.6,0,1.1-0.1,1.5C461.7,581,460.6,581.8,458.8,581.8z M450.8,565.3
				v13.7c0,0.5,0.1,0.9,0.4,1.2c0.3,0.3,0.6,0.4,1.2,0.4h6.4c1.4,0,1.7-0.7,1.8-1.3c0-0.2,0-0.4,0.1-0.6h-4.9c-0.4,0-1,0-1.8,0
				c-0.2,0-0.4-0.1-0.5-0.2c-0.1-0.1-0.2-0.3-0.2-0.5l0-1.8v-1.8c0-0.4,0.3-0.7,0.7-0.7h4.8c0.1-0.3,0.1-0.6,0.1-0.9
				c0-0.3,0-0.6-0.1-0.9h-3.2c-0.7,0-1.2,0-1.6,0c-0.2,0-0.4-0.1-0.5-0.2c-0.1-0.1-0.2-0.3-0.2-0.5v-1.7l0-1.7
				c0-0.2,0.1-0.3,0.2-0.5c0.1-0.1,0.3-0.2,0.5-0.2h6.1c0.1-0.4,0.2-0.7,0.2-1.1c0-0.3,0-0.6,0-0.9H450.8z M379.8,579.2
				c-0.1,0-0.2,0-0.2,0c-0.5,0-1,0-1.4,0c-0.2,0-0.4-0.1-0.5-0.2c-0.1-0.1-0.2-0.3-0.2-0.5v-4.7c0-0.4,0.3-0.7,0.7-0.7h2
				c1,0,1.8,0.3,2.4,0.9l0,0c0.5,0.6,0.7,1.3,0.7,2.1c0,0.8-0.2,1.5-0.6,2c-0.4,0.5-0.9,0.8-1.5,0.9
				C380.8,579.2,380.3,579.2,379.8,579.2z M378.9,577.9c0.2,0,0.5,0,0.8,0c0.5,0,0.9,0,1.3-0.1c0.3-0.1,0.5-0.2,0.8-0.5
				c0.2-0.2,0.3-0.6,0.3-1.1c0-0.5-0.1-0.9-0.4-1.2c0,0,0,0,0,0c-0.3-0.3-0.7-0.5-1.4-0.5h-1.3L378.9,577.9
				C378.8,577.9,378.9,577.9,378.9,577.9z M421.6,579.2c-1.8,0-3.9-1.1-3.9-6.3c0-5.2,2.1-6.3,3.9-6.3c2.6,0,3.9,2.1,3.9,6.3
				C425.4,577,424.1,579.2,421.6,579.2z M421.6,567.9c-0.6,0-2.6,0-2.6,5c0,5,2,5,2.6,5c0.6,0,2.6,0,2.6-5
				C424.1,567.9,422.2,567.9,421.6,567.9z M394.2,572.8c-0.4,0-0.7-0.3-0.7-0.7v-4.8c0-0.2,0.1-0.4,0.2-0.5c0.1-0.1,0.3-0.2,0.5-0.2
				c0.2,0,0.5,0,0.7,0h1c1.9,0,2.9,1.1,2.9,3c0,0.7-0.1,1.2-0.3,1.6c-0.2,0.4-0.6,0.8-1,1c-0.4,0.2-0.9,0.3-1.5,0.4
				C395.6,572.7,395,572.8,394.2,572.8z M394.9,568v3.4c0.4,0,0.8,0,1.2,0c0.4,0,0.7-0.1,1-0.2c0.2-0.1,0.3-0.3,0.4-0.4
				c0.1-0.1,0.2-0.4,0.2-1c0-1.2-0.5-1.7-1.6-1.7h-1C395,568,394.9,568,394.9,568z M379.9,571.7h-1.7c-0.4,0-0.7-0.3-0.7-0.7v-3.9
				c0-0.2,0.1-0.4,0.2-0.5c0.1-0.1,0.3-0.2,0.5-0.2c0.2,0,0.4,0,0.7,0h1c0.9,0,1.7,0.3,2.1,0.8c0.4,0.5,0.6,1.1,0.6,1.8
				c0,0.7-0.2,1.3-0.6,1.8C381.6,571.5,380.9,571.7,379.9,571.7z M378.8,570.4h1c0.4,0,0.9-0.1,1.1-0.3c0.2-0.3,0.3-0.6,0.3-1
				c0-0.4-0.1-0.7-0.3-0.9c-0.2-0.3-0.7-0.3-1.1-0.3h-1c0,0,0,0-0.1,0V570.4z"/>
			<path class="st0" d="M434,646.1h1.4c0-0.1,0-0.2,0-0.3c0-0.1,0-0.2,0-0.3h-1l-0.4,0v-0.6l0-0.4h1.7c0-0.1,0.1-0.2,0.1-0.3
				c0-0.1,0-0.2,0-0.3h-2.4l0,0v3.5c0,0.1,0,0.3,0.1,0.3c0.1,0.1,0.2,0.1,0.3,0.1h1.6c0.3,0,0.5-0.1,0.5-0.4c0-0.1,0-0.2,0-0.3h-1.4
				l-0.4,0l0-0.4V646.1z M431,647.2v-2.9c0-0.2,0-0.3-0.1-0.4c-0.1-0.1-0.2-0.1-0.3-0.1h-0.3l0,0v3.5c0,0.1,0,0.3,0.1,0.3
				c0.1,0.1,0.2,0.1,0.3,0.1h1.4c0.3,0,0.5-0.1,0.5-0.4c0-0.1,0-0.2,0-0.3h-1.1C431.4,647.1,431.2,647.1,431,647.2 M427.9,644.4
				c0.1,0,0.3,0,0.4,0c0.1,0,0.2,0.1,0.2,0.2c0.1,0.1,0.1,0.2,0.1,0.3c0,0.4-0.2,0.5-0.6,0.5h-0.5v-1.1
				C427.6,644.4,427.8,644.4,427.9,644.4 M428.4,646.1c0.1,0,0.2,0.1,0.2,0.1c0.1,0.1,0.1,0.1,0.1,0.2c0,0.1,0,0.2,0,0.2
				c0,0.1,0,0.2-0.1,0.3c0,0.1-0.1,0.1-0.2,0.2c-0.1,0.1-0.1,0.1-0.2,0.1c-0.1,0-0.2,0-0.3,0c-0.1,0-0.2,0-0.3,0c-0.1,0-0.2,0-0.3,0
				V646h0.6C428.2,646,428.3,646,428.4,646.1 M426.7,643.8v3.9l0,0c0.3,0,0.6,0,0.8,0c0.2,0,0.4,0,0.6,0c0.5,0,0.8-0.1,1.1-0.3
				c0.2-0.2,0.4-0.5,0.4-0.9c0-0.1,0-0.2-0.1-0.3c0-0.1-0.1-0.2-0.2-0.3c-0.1-0.1-0.1-0.2-0.2-0.2c-0.1-0.1-0.2-0.1-0.3-0.1
				c0.2-0.1,0.3-0.2,0.4-0.3c0.1-0.1,0.1-0.3,0.1-0.5c0-0.3-0.1-0.6-0.3-0.8c-0.2-0.2-0.6-0.3-1-0.3c-0.1,0-0.3,0-0.5,0
				C427.3,643.8,427,643.8,426.7,643.8L426.7,643.8z M422.2,647.8c0.1,0,0.3,0,0.4,0l0.1-1.9c0-0.4,0-0.8,0-1.3h0l0.7,2.5
				c0.1,0,0.3,0,0.4,0c0.1,0,0.3,0,0.4,0l0.7-2.5h0c0,0.4,0,0.8,0,1.3l0.1,1.9c0.1,0,0.2,0,0.4,0c0.1,0,0.3,0,0.4,0l-0.3-4
				c-0.2,0-0.3,0-0.5,0c-0.2,0-0.4,0-0.5,0l-0.4,1.6c-0.1,0.5-0.2,0.8-0.2,1h0c0-0.2-0.1-0.5-0.2-1l-0.4-1.6c-0.2,0-0.3,0-0.5,0
				c-0.2,0-0.4,0-0.5,0l-0.3,4C421.9,647.8,422,647.8,422.2,647.8 M419.3,646.1h1.4c0-0.1,0-0.2,0-0.3c0-0.1,0-0.2,0-0.3h-1l-0.4,0
				v-0.6l0-0.4h1.7c0-0.1,0.1-0.2,0.1-0.3c0-0.1,0-0.2,0-0.3h-2.4l0,0v3.5c0,0.1,0,0.3,0.1,0.3c0.1,0.1,0.2,0.1,0.3,0.1h1.6
				c0.3,0,0.5-0.1,0.5-0.4c0-0.1,0-0.2,0-0.3h-1.4l-0.4,0l0-0.4V646.1z M416.4,647.9c0.3,0,0.5,0,0.7-0.1c0.2-0.1,0.3-0.1,0.5-0.3
				c0.1-0.1,0.2-0.2,0.3-0.4c0.1-0.1,0.1-0.3,0.1-0.5c0-0.2-0.1-0.5-0.2-0.7c-0.2-0.2-0.4-0.3-0.6-0.5l-0.7-0.3
				c-0.3-0.1-0.4-0.3-0.4-0.4c0-0.1,0-0.2,0.1-0.3c0.1-0.1,0.2-0.1,0.4-0.1c0.3,0,0.6,0.1,1,0.3c0.2-0.2,0.3-0.4,0.3-0.6
				c-0.4-0.2-0.8-0.3-1.3-0.3c-0.2,0-0.4,0-0.6,0.1c-0.2,0.1-0.3,0.1-0.4,0.2c-0.1,0.1-0.2,0.2-0.3,0.4c-0.1,0.1-0.1,0.3-0.1,0.5
				c0,0.2,0.1,0.4,0.2,0.6c0.1,0.2,0.3,0.3,0.6,0.4l0.7,0.3c0.3,0.1,0.4,0.3,0.4,0.5c0,0.1-0.1,0.2-0.2,0.3
				c-0.1,0.1-0.3,0.1-0.4,0.1c-0.4,0-0.8-0.1-1.2-0.4c-0.1,0.1-0.1,0.2-0.2,0.3c-0.1,0.1-0.1,0.2-0.1,0.3
				C415.4,647.7,415.9,647.9,416.4,647.9 M414.1,643.8c-0.2,0-0.3,0-0.3,0.1c-0.1,0.1-0.1,0.2-0.1,0.4v1.1c0,0.5,0,1,0.1,1.6l0,0
				l-0.4-0.9l-1.1-2.3c-0.1,0-0.3,0-0.5,0c-0.2,0-0.3,0-0.4,0v4c0.1,0,0.2,0,0.4,0c0.1,0,0.3,0,0.4,0v-1.5c0-0.5,0-1-0.1-1.6l0,0
				c0.1,0.2,0.2,0.5,0.3,0.8l1.1,2.3c0.1,0,0.3,0,0.5,0c0.2,0,0.3,0,0.5,0v-4l0,0H414.1z M408.8,646.1h1.4c0-0.1,0-0.2,0-0.3
				c0-0.1,0-0.2,0-0.3h-1l-0.4,0v-0.6l0-0.4h1.7c0-0.1,0.1-0.2,0.1-0.3c0-0.1,0-0.2,0-0.3H408l0,0v3.5c0,0.1,0,0.3,0.1,0.3
				c0.1,0.1,0.2,0.1,0.3,0.1h1.6c0.3,0,0.5-0.1,0.5-0.4c0-0.1,0-0.2,0-0.3h-1.4l-0.4,0l0-0.4V646.1z M403.6,646.1h1.4
				c0-0.1,0-0.2,0-0.3c0-0.1,0-0.2,0-0.3h-1l-0.4,0v-0.6l0-0.4h1.7c0-0.1,0.1-0.2,0.1-0.3c0-0.1,0-0.2,0-0.3h-2.4l0,0v3.5
				c0,0.1,0,0.3,0.1,0.3c0.1,0.1,0.2,0.1,0.3,0.1h1.6c0.3,0,0.5-0.1,0.5-0.4c0-0.1,0-0.2,0-0.3H404l-0.4,0l0-0.4V646.1z
				 M400.3,644.4h0.3c0.4,0,0.6,0.2,0.6,0.6c0,0.4-0.2,0.6-0.6,0.6c-0.2,0-0.3,0-0.5,0v-1.3C400.1,644.4,400.2,644.4,400.3,644.4
				 M401.6,644.1c-0.2-0.2-0.6-0.3-1-0.3c-0.1,0-0.3,0-0.5,0c-0.2,0-0.5,0-0.8,0l0,0v4c0.1,0,0.2,0,0.4,0c0.1,0,0.1,0,0.2,0
				c0.1,0,0.1,0,0.2,0v-1.5h0.4c0.2,0,0.3,0,0.4,0.1c0.1,0.1,0.1,0.2,0.2,0.3l0.2,0.7c0.1,0.2,0.1,0.3,0.2,0.4
				c0.1,0.1,0.2,0.1,0.3,0.1c0.1,0,0.2,0,0.3-0.1c0.1,0,0.2-0.1,0.2-0.2c-0.1,0-0.1-0.1-0.2-0.2c0-0.1-0.1-0.2-0.1-0.3l-0.2-0.6
				c-0.1-0.1-0.1-0.2-0.2-0.3c-0.1-0.1-0.2-0.1-0.3-0.2c0.1,0,0.2-0.1,0.3-0.2c0.1-0.1,0.2-0.1,0.2-0.2c0.1-0.1,0.1-0.2,0.2-0.3
				c0-0.1,0.1-0.2,0.1-0.4C402,644.6,401.9,644.3,401.6,644.1 M397.9,647.8c0.2,0,0.3,0,0.4,0v-4c-0.1,0-0.2,0-0.4,0
				c-0.2,0-0.3,0-0.4,0v4C397.6,647.8,397.7,647.8,397.9,647.8 M394.9,645.5c0.1-0.5,0.2-0.8,0.3-1h0c0.1,0.3,0.2,0.7,0.3,1.1
				l0.2,0.6l-0.2,0h-0.5l-0.3,0L394.9,645.5z M396,647.4c0,0.2,0.1,0.3,0.2,0.3c0.1,0.1,0.2,0.1,0.3,0.1c0.2,0,0.3,0,0.4-0.1
				l-1.3-3.9c-0.1,0-0.3,0-0.4,0c-0.2,0-0.3,0-0.5,0l-1.3,3.9l0,0c0.1,0,0.2,0.1,0.4,0.1c0.1,0,0.3,0,0.3,0l0.3-0.9l0.3,0h0.8l0.3,0
				L396,647.4z M391.9,646.1h1.3c0-0.1,0-0.2,0-0.3s0-0.2,0-0.3h-1.3v-0.4l0-0.6h1.3c0.1,0,0.3,0,0.3-0.1c0.1-0.1,0.1-0.1,0.1-0.3
				s0-0.2,0-0.3h-2.4l0,0v4c0.1,0,0.2,0,0.4,0c0.2,0,0.3,0,0.4,0V646.1z M388,643.8c-0.2,0-0.3,0-0.4,0v2.6c0,0.6-0.2,0.9-0.7,0.9
				c-0.5,0-0.7-0.3-0.7-0.9v-2.1c0-0.2,0-0.3-0.1-0.4c-0.1-0.1-0.2-0.1-0.3-0.1h-0.3l0,0v2.5c0,0.5,0.1,0.9,0.4,1.1
				c0.3,0.3,0.6,0.4,1.1,0.4c0.5,0,0.9-0.1,1.1-0.4c0.3-0.3,0.4-0.6,0.4-1.1v-2.6C388.3,643.8,388.1,643.8,388,643.8 M383.8,645.3
				c0,0.1,0,0.3,0,0.5c0,0.1,0,0.3,0,0.4c0,0.1,0,0.3-0.1,0.4c0,0.1-0.1,0.2-0.1,0.3c-0.1,0.1-0.1,0.2-0.2,0.2c-0.1,0-0.1,0-0.2,0.1
				c-0.1,0-0.2,0-0.3,0c-0.1,0-0.2,0-0.3,0c-0.1,0-0.2,0-0.3,0v-2.8c0.1,0,0.2,0,0.3,0h0.4c0.4,0,0.6,0.2,0.7,0.5
				C383.7,645,383.8,645.2,383.8,645.3 M384.5,646.8c0.1-0.3,0.1-0.6,0.1-1c0-0.3,0-0.5-0.1-0.8c-0.1-0.2-0.1-0.5-0.3-0.6
				c-0.1-0.2-0.3-0.3-0.5-0.4c-0.2-0.1-0.5-0.2-0.8-0.2c-0.2,0-0.5,0-0.7,0c-0.2,0-0.5,0-0.7,0l0,0v3.9l0,0c0.3,0,0.6,0,0.8,0
				c0.2,0,0.4,0,0.5,0c0.2,0,0.4,0,0.6-0.1c0.2,0,0.4-0.1,0.5-0.2C384.2,647.4,384.4,647.1,384.5,646.8 M377.1,646.1h1.4
				c0-0.1,0-0.2,0-0.3c0-0.1,0-0.2,0-0.3h-1l-0.4,0v-0.6l0-0.4h1.7c0-0.1,0.1-0.2,0.1-0.3c0-0.1,0-0.2,0-0.3h-2.4l0,0v3.5
				c0,0.1,0,0.3,0.1,0.3c0.1,0.1,0.2,0.1,0.3,0.1h1.6c0.3,0,0.5-0.1,0.5-0.4c0-0.1,0-0.2,0-0.3h-1.4l-0.4,0l0-0.4V646.1z
				 M373.8,644.4h0.3c0.4,0,0.6,0.2,0.6,0.6c0,0.4-0.2,0.6-0.6,0.6c-0.2,0-0.3,0-0.5,0v-1.3C373.7,644.4,373.7,644.4,373.8,644.4
				 M375.2,644.1c-0.2-0.2-0.6-0.3-1-0.3c-0.1,0-0.3,0-0.5,0c-0.2,0-0.5,0-0.8,0l0,0v4c0.1,0,0.2,0,0.4,0c0.1,0,0.1,0,0.2,0
				c0.1,0,0.1,0,0.2,0v-1.5h0.4c0.2,0,0.3,0,0.4,0.1c0.1,0.1,0.1,0.2,0.2,0.3l0.2,0.7c0.1,0.2,0.1,0.3,0.2,0.4
				c0.1,0.1,0.2,0.1,0.3,0.1c0.1,0,0.2,0,0.3-0.1c0.1,0,0.2-0.1,0.2-0.2c-0.1,0-0.1-0.1-0.2-0.2c0-0.1-0.1-0.2-0.1-0.3l-0.2-0.6
				c-0.1-0.1-0.1-0.2-0.2-0.3c-0.1-0.1-0.2-0.1-0.3-0.2c0.1,0,0.2-0.1,0.3-0.2c0.1-0.1,0.2-0.1,0.2-0.2c0.1-0.1,0.1-0.2,0.2-0.3
				c0-0.1,0.1-0.2,0.1-0.4C375.6,644.6,375.4,644.3,375.2,644.1 M371.5,643.8c-0.2,0-0.3,0-0.4,0v2.6c0,0.6-0.2,0.9-0.7,0.9
				c-0.5,0-0.7-0.3-0.7-0.9v-2.1c0-0.2,0-0.3-0.1-0.4c-0.1-0.1-0.2-0.1-0.3-0.1h-0.3l0,0v2.5c0,0.5,0.1,0.9,0.4,1.1
				c0.3,0.3,0.6,0.4,1.1,0.4c0.5,0,0.9-0.1,1.1-0.4c0.3-0.3,0.4-0.6,0.4-1.1v-2.6C371.8,643.8,371.7,643.8,371.5,643.8 M367.4,644.5
				l0.4,0h0.3c0.1,0,0.3,0,0.3-0.1c0.1-0.1,0.1-0.1,0.1-0.3c0-0.1,0-0.2,0-0.3h-2.8c0,0.1,0,0.2,0,0.3c0,0.1,0,0.2,0,0.3h0.6l0.4,0
				l0,0.4v2.9c0.1,0,0.2,0,0.4,0c0.2,0,0.3,0,0.4,0v-2.9L367.4,644.5z M364.3,647.2v-2.9c0-0.2,0-0.3-0.1-0.4
				c-0.1-0.1-0.2-0.1-0.3-0.1h-0.3l0,0v3.5c0,0.1,0,0.3,0.1,0.3c0.1,0.1,0.2,0.1,0.3,0.1h1.4c0.3,0,0.5-0.1,0.5-0.4
				c0-0.1,0-0.2,0-0.3h-1.1C364.7,647.1,364.5,647.1,364.3,647.2 M362.2,643.8c-0.2,0-0.3,0-0.4,0v2.6c0,0.6-0.2,0.9-0.7,0.9
				c-0.5,0-0.7-0.3-0.7-0.9v-2.1c0-0.2,0-0.3-0.1-0.4c-0.1-0.1-0.2-0.1-0.3-0.1h-0.3l0,0v2.5c0,0.5,0.1,0.9,0.4,1.1
				c0.3,0.3,0.6,0.4,1.1,0.4c0.5,0,0.9-0.1,1.1-0.4c0.3-0.3,0.4-0.6,0.4-1.1v-2.6C362.5,643.8,362.4,643.8,362.2,643.8 M358.4,645.3
				c0.1,0,0.1,0,0.1,0c0.3,0,0.4-0.1,0.4-0.4c0-0.2,0-0.3-0.1-0.5c-0.1-0.1-0.2-0.3-0.3-0.4c-0.1-0.1-0.3-0.2-0.5-0.3
				c-0.2-0.1-0.4-0.1-0.6-0.1c-0.2,0-0.4,0-0.6,0.1c-0.2,0.1-0.4,0.2-0.5,0.4c-0.1,0.2-0.3,0.4-0.3,0.7c-0.1,0.3-0.1,0.6-0.1,0.9
				c0,0.3,0,0.5,0.1,0.8c0.1,0.2,0.1,0.5,0.3,0.7c0.1,0.2,0.3,0.3,0.5,0.5c0.2,0.1,0.4,0.2,0.7,0.2c0.1,0,0.3,0,0.4,0
				c0.1,0,0.3-0.1,0.4-0.1c0.1-0.1,0.3-0.1,0.4-0.2c0.1-0.1,0.2-0.2,0.3-0.2c0-0.1-0.1-0.2-0.1-0.3c-0.1-0.1-0.2-0.2-0.2-0.2
				c-0.2,0.1-0.4,0.3-0.5,0.3c-0.2,0.1-0.3,0.1-0.5,0.1c-0.3,0-0.5-0.1-0.6-0.3c-0.2-0.2-0.2-0.5-0.2-1c0-0.5,0.1-0.9,0.2-1.2
				c0.1-0.3,0.3-0.4,0.6-0.4c0.1,0,0.2,0,0.3,0.1c0.1,0,0.2,0.1,0.2,0.2c0.1,0.1,0.1,0.2,0.1,0.3c0,0.1,0,0.2,0,0.4v0.1
				C358.3,645.3,358.3,645.3,358.4,645.3 M351.6,645.5c0.1-0.5,0.2-0.8,0.3-1h0c0.1,0.3,0.2,0.7,0.3,1.1l0.2,0.6l-0.2,0h-0.5l-0.3,0
				L351.6,645.5z M352.8,647.4c0,0.2,0.1,0.3,0.2,0.3c0.1,0.1,0.2,0.1,0.3,0.1c0.2,0,0.3,0,0.4-0.1l-1.3-3.9c-0.1,0-0.3,0-0.4,0
				c-0.2,0-0.3,0-0.5,0l-1.3,3.9l0,0c0.1,0,0.2,0.1,0.4,0.1c0.2,0,0.3,0,0.3,0l0.3-0.9l0.3,0h0.8l0.3,0L352.8,647.4z M348.4,647.2
				v-2.9c0-0.2,0-0.3-0.1-0.4c-0.1-0.1-0.2-0.1-0.3-0.1h-0.3l0,0v3.5c0,0.1,0,0.3,0.1,0.3c0.1,0.1,0.2,0.1,0.3,0.1h1.4
				c0.3,0,0.5-0.1,0.5-0.4c0-0.1,0-0.2,0-0.3h-1.1C348.7,647.1,348.5,647.1,348.4,647.2"/>
			<path class="st0" d="M386.7,560c-2.3,0-4-0.6-5.3-1.9c-1.3-1.2-1.9-3-1.9-5.2v-10.4c0-0.2,0.1-0.3,0.2-0.5l0.2-0.2
				c0.1-0.1,0.3-0.2,0.5-0.2h1.4c1.9,0,3,1.1,3,3.1v8.2c0,1,0.2,1.7,0.5,2.1c0.3,0.4,0.8,0.6,1.5,0.6c0.8,0,1.2-0.2,1.5-0.6
				c0.3-0.4,0.5-1.1,0.5-2.1v-10.5c0-0.3,0.2-0.6,0.5-0.6c0.5-0.1,1.2-0.2,2-0.2c0.8,0,1.5,0.1,2,0.2c0.3,0.1,0.5,0.3,0.5,0.6v10.4
				c0,2.2-0.6,4-1.9,5.2C390.8,559.3,389,560,386.7,560z M380.8,542.9v9.9c0,1.9,0.5,3.3,1.5,4.3c1,1,2.5,1.5,4.4,1.5
				c1.9,0,3.4-0.5,4.4-1.5c1-1,1.5-2.4,1.5-4.3V543c-0.4,0-0.8-0.1-1.3-0.1c-0.5,0-0.9,0-1.3,0.1v9.9c0,1.3-0.2,2.2-0.7,2.9
				c-0.5,0.7-1.4,1.1-2.6,1.1c-1.2,0-2.1-0.4-2.6-1.1c-0.5-0.7-0.7-1.6-0.7-2.9v-8.2c0-1.3-0.5-1.8-1.6-1.8H380.8z M421.4,559.8
				c-0.8,0-1.4-0.2-1.8-0.7c-0.4-0.4-0.7-1.1-1-2l-0.9-2.5c-0.1-0.4-0.3-0.6-0.5-0.8c-0.2-0.1-0.5-0.2-0.9-0.2h-0.3v5.4
				c0,0.3-0.2,0.6-0.5,0.6c-0.6,0.1-1.2,0.2-2.1,0.2c-0.8,0-1.5-0.1-2-0.2c-0.3-0.1-0.5-0.3-0.5-0.6v-16.4c0-0.2,0.1-0.3,0.2-0.5
				l0.2-0.2c0.1-0.1,0.3-0.2,0.5-0.2c1.4,0,2.6-0.1,3.5-0.1c1,0,1.7,0,2.3,0c0.9,0,1.8,0.1,2.6,0.4c0.8,0.2,1.5,0.6,2.1,1.1
				c0.6,0.5,1,1.1,1.4,1.9c0,0,0,0,0,0c0.3,0.7,0.5,1.6,0.5,2.6c0,0.6-0.1,1.2-0.3,1.7c-0.2,0.5-0.4,1-0.7,1.4
				c-0.3,0.4-0.7,0.8-1.1,1.1c-0.1,0.1-0.2,0.1-0.2,0.2c0.5,0.5,0.9,1.1,1.2,2l0.7,2c0.2,0.7,0.6,1.2,1,1.5c0.1,0.1,0.2,0.3,0.3,0.4
				c0,0.2,0,0.4-0.1,0.5c-0.3,0.4-0.8,0.8-1.3,1C422.7,559.7,422.1,559.8,421.4,559.8z M415.2,552.2h1c0.8,0,1.3,0.2,1.8,0.5
				c0.4,0.3,0.7,0.8,0.9,1.4l0.9,2.5c0.3,0.9,0.6,1.3,0.7,1.5c0.2,0.2,0.5,0.3,0.9,0.3c0.5,0,0.9-0.1,1.3-0.3
				c0.1-0.1,0.3-0.1,0.4-0.2c-0.4-0.4-0.7-0.9-0.9-1.6l-0.7-2c-0.3-1-0.8-1.6-1.5-1.8c-0.3-0.1-0.4-0.3-0.4-0.6
				c0-0.3,0.2-0.5,0.4-0.6c0.3-0.1,0.6-0.3,0.9-0.5c0.3-0.2,0.6-0.5,0.8-0.8c0.2-0.3,0.4-0.7,0.6-1.1c0.1-0.4,0.2-0.8,0.2-1.3
				c0-0.8-0.1-1.5-0.4-2c-0.2-0.6-0.6-1-1-1.4c-0.4-0.4-1-0.7-1.6-0.8c-0.7-0.2-1.4-0.3-2.2-0.3c-0.5,0-1.3,0-2.2,0
				c-0.8,0-1.9,0-3.1,0.1v15.3c0.4,0,0.8,0.1,1.2,0.1c0.5,0,0.9,0,1.3-0.1v-5.5C414.6,552.5,414.9,552.2,415.2,552.2z M375.3,559.8
				c-1,0-1.7-0.2-2.2-0.6c-0.4-0.4-0.8-1-1.1-2l-0.3-1.1c-0.1,0-0.3,0-0.5,0h-3.4c-0.2,0-0.3,0-0.5,0l-0.9,3
				c-0.1,0.2-0.2,0.4-0.5,0.5c-0.4,0.1-1,0.2-1.8,0.2c-0.9,0-1.5-0.1-2.1-0.3c-0.1-0.1-0.3-0.1-0.3-0.3l-0.1-0.2
				c-0.1-0.2-0.1-0.4-0.1-0.6l5.3-16.2c0.1-0.2,0.3-0.4,0.5-0.4c0.7-0.1,1.4-0.2,2.3-0.2c1,0,1.8,0.1,2.4,0.2c0.2,0,0.4,0.2,0.5,0.4
				l5.2,16.2c0.1,0.3,0,0.6-0.3,0.8C376.8,559.6,376.1,559.8,375.3,559.8z M372.2,554.8c0.3,0,0.6,0.2,0.6,0.5l0.5,1.6
				c0.3,0.9,0.5,1.2,0.7,1.3c0.1,0.1,0.5,0.3,1.3,0.3c0.4,0,0.8-0.1,1.1-0.2l-4.9-15.3c-0.5-0.1-1.1-0.1-1.8-0.1
				c-0.6,0-1.2,0-1.7,0.1l-5,15.3c0.3,0.1,0.7,0.1,1.2,0.1c0.4,0,0.8,0,1.1-0.1l0.9-3.1c0.1-0.3,0.4-0.5,0.7-0.5c0.2,0,0.5,0,0.9,0
				h3.4C371.7,554.8,372,554.8,372.2,554.8C372.2,554.8,372.2,554.8,372.2,554.8z M402.2,559.7c-0.8,0-1.5-0.1-2-0.2
				c-0.3-0.1-0.5-0.3-0.5-0.6v-12.6l-0.9,0h-2.5c-0.3,0-0.6-0.2-0.6-0.5c-0.1-0.5-0.2-1.1-0.2-1.7c0-0.6,0.1-1.2,0.2-1.7
				c0.1-0.3,0.3-0.5,0.6-0.5h11.9c0.3,0,0.5,0.2,0.6,0.5c0.1,0.5,0.2,1.1,0.2,1.7c0,0.8-0.2,1.4-0.7,1.8c-0.4,0.4-1.1,0.6-2,0.6
				l-1.6,0l0,1.1v11.5c0,0.3-0.2,0.6-0.5,0.6C403.7,559.7,403,559.7,402.2,559.7z M401,558.4c0.4,0,0.8,0.1,1.2,0.1
				c0.5,0,0.9,0,1.3-0.1v-10.9l0-1.8c0-0.2,0.1-0.3,0.2-0.5c0.1-0.1,0.3-0.2,0.5-0.2c0,0,0,0,0,0l2.2,0c0.7,0,1-0.2,1.1-0.2
				c0.2-0.1,0.2-0.4,0.2-0.8c0-0.3,0-0.6-0.1-0.9h-10.8c0,0.3,0,0.6,0,1s0,0.7,0,1h1.9l1.5,0c0.2,0,0.3,0.1,0.5,0.2
				c0.1,0.1,0.2,0.3,0.2,0.5V558.4z M436.1,559.7h-6.4c-0.9,0-1.6-0.3-2.1-0.8c-0.5-0.5-0.8-1.2-0.8-2.1v-14.1
				c0-0.2,0.1-0.3,0.2-0.5l0.2-0.2c0.1-0.1,0.3-0.2,0.5-0.2H438c0.3,0,0.6,0.2,0.6,0.5c0.1,0.5,0.2,1.1,0.2,1.7
				c0,0.6-0.1,1.3-0.4,1.9c-0.1,0.3-0.3,0.4-0.6,0.4h-5.9l0,2.1c0.3,0,0.6,0,1,0h3.7c0.3,0,0.5,0.2,0.6,0.5c0.2,0.5,0.2,1.1,0.2,1.7
				c0,0.6-0.1,1.2-0.2,1.8c-0.1,0.3-0.3,0.5-0.6,0.5h-4.7l0,2.3c0.4,0,0.8,0,1.1,0h5.6c0.4,0,0.7,0.3,0.7,0.7c0,0.6,0,1.1-0.1,1.5
				C438.9,558.8,437.8,559.7,436.1,559.7z M428.1,543.1v13.7c0,0.5,0.1,0.9,0.4,1.2c0.3,0.3,0.6,0.4,1.2,0.4h6.4
				c1.4,0,1.7-0.7,1.8-1.3c0-0.2,0-0.4,0.1-0.6H433c-0.4,0-1,0-1.8,0c-0.2,0-0.4-0.1-0.5-0.2c-0.1-0.1-0.2-0.3-0.2-0.5l0-1.8v-1.8
				c0-0.4,0.3-0.7,0.7-0.7h4.8c0.1-0.3,0.1-0.6,0.1-0.9c0-0.3,0-0.6-0.1-0.9h-3.2c-0.7,0-1.2,0-1.6,0c-0.2,0-0.4-0.1-0.5-0.2
				c-0.1-0.1-0.2-0.3-0.2-0.5v-1.7l0-1.7c0-0.2,0.1-0.3,0.2-0.5c0.1-0.1,0.3-0.2,0.5-0.2h6.1c0.1-0.4,0.2-0.7,0.2-1.1
				c0-0.3,0-0.6,0-0.9H428.1z M354.3,559.7h-5.5c-0.9,0-1.6-0.3-2.1-0.8c-0.5-0.5-0.8-1.2-0.8-2.1v-14.3c0-0.2,0.1-0.3,0.2-0.5
				l0.2-0.2c0.1-0.1,0.3-0.2,0.5-0.2h1.4c1.9,0,2.9,1.1,2.9,3.1v10.3c0.5,0,1.1,0,1.6,0h4.2c0.4,0,0.7,0.3,0.7,0.7
				c0,0.7,0,1.3-0.1,1.8c-0.1,0.6-0.5,1.2-1,1.6C355.8,559.5,355.1,559.7,354.3,559.7z M347.2,542.9v13.8c0,0.5,0.1,0.9,0.4,1.2
				c0.3,0.3,0.7,0.4,1.2,0.4h5.5c0.6,0,1-0.1,1.3-0.4c0.3-0.2,0.5-0.5,0.5-0.8c0-0.3,0.1-0.6,0.1-0.9h-3.5c-0.8,0-1.5,0-2.2,0.1
				c-0.2,0-0.4,0-0.5-0.2c-0.1-0.1-0.2-0.3-0.2-0.5v-11c0-1.6-0.8-1.8-1.6-1.8H347.2z M367.8,553.1c-0.2,0-0.4-0.1-0.5-0.3
				c-0.1-0.2-0.2-0.4-0.1-0.6l0.6-1.9c0.6-2.3,1-3.9,1.1-4.6c0.1-0.3,0.3-0.5,0.6-0.5h0.1c0.3,0,0.6,0.2,0.6,0.5
				c0.5,1.9,0.9,3.6,1.3,5l0.4,1.5c0.1,0.2,0,0.4-0.1,0.6c-0.1,0.2-0.3,0.3-0.5,0.3c-0.1,0-0.3,0-0.5,0c-0.2,0-0.3,0-0.4,0h-1.8
				L367.8,553.1C367.8,553.1,367.8,553.1,367.8,553.1z M369.6,548.4c-0.2,0.7-0.4,1.4-0.6,2.3c0,0,0,0,0,0l-0.3,1l0.1,0l1.8,0
				l-0.2-0.6C370.1,550.3,369.8,549.4,369.6,548.4z M415.2,550.6c-0.4,0-0.7-0.3-0.7-0.7v-4.8c0-0.2,0.1-0.4,0.2-0.5
				c0.1-0.1,0.3-0.2,0.5-0.2c0.2,0,0.5,0,0.7,0h1c1.9,0,2.9,1.1,2.9,3c0,0.7-0.1,1.2-0.3,1.6c-0.2,0.4-0.6,0.8-1,1
				c-0.4,0.2-0.9,0.3-1.5,0.4C416.6,550.6,416,550.6,415.2,550.6z M415.9,545.9v3.4c0.4,0,0.8,0,1.2,0c0.4,0,0.7-0.1,1-0.2
				c0.2-0.1,0.3-0.3,0.4-0.4c0.1-0.1,0.2-0.4,0.2-1c0-1.2-0.5-1.7-1.6-1.7h-1C416,545.9,415.9,545.9,415.9,545.9z M357.9,547.9
				c-0.1,0-0.2,0-0.3-0.1c-0.4-0.2-0.7-0.5-0.9-0.9c-0.2-0.4-0.3-0.8-0.3-1.3l0-0.2c0-0.3,0.2-0.6,0.5-0.6c0.2-0.1,0.4-0.1,0.6-0.2
				c0.2-0.1,0.4-0.2,0.5-0.4c0.1-0.1,0.2-0.2,0.3-0.3c-0.2-0.1-0.4-0.2-0.6-0.3c-0.1-0.1-0.2-0.2-0.2-0.3c-0.2-0.4-0.3-0.7-0.3-1
				c0-0.2,0-0.5,0-0.8c0-0.7,0.1-1.3,0.4-1.8c0.1-0.1,0.2-0.2,0.3-0.3c0.4-0.2,0.8-0.4,1.1-0.4c0.3-0.1,0.7-0.1,1-0.1
				c0.9,0,1.6,0.2,2.2,0.5c0.1,0.1,0.2,0.2,0.3,0.3c0.2,0.6,0.4,1.3,0.4,2.1c0,1.3-0.4,2.5-1.2,3.6c-0.8,1-2,1.8-3.4,2.2
				C358,547.9,357.9,547.9,357.9,547.9z M357.7,545.9c0,0.1,0.1,0.2,0.1,0.3c0,0.1,0.1,0.2,0.2,0.2c1.1-0.3,1.9-0.9,2.5-1.6
				c0.6-0.8,0.9-1.7,0.9-2.8c0-0.6-0.1-1-0.2-1.4c-0.3-0.2-0.8-0.2-1.3-0.2c-0.3,0-0.6,0-0.8,0.1c-0.2,0-0.3,0.1-0.6,0.2
				c-0.1,0.3-0.1,0.6-0.1,0.9c0,0.2,0,0.4,0,0.6c0,0.1,0,0.2,0.1,0.4c0.2,0.1,0.4,0.1,0.6,0.1c0.3,0,0.6,0.3,0.6,0.7
				c0,0.4-0.1,0.7-0.3,1c-0.2,0.3-0.4,0.5-0.6,0.7c-0.2,0.2-0.5,0.4-0.8,0.5C358,545.8,357.8,545.9,357.7,545.9z"/>
		</g>
		<g>
			<path class="st1" d="M367.9,618.1"/>
			<g>
				<path class="st1" d="M438.5,640.1h-93c-0.5,0-0.9-0.4-0.9-0.9v-29.8c0-0.5,0.4-0.9,0.9-0.9h93c0.5,0,0.9,0.4,0.9,0.9v29.8
					C439.4,639.7,439,640.1,438.5,640.1z M346.3,638.3h91.3v-28.1h-91.3V638.3z"/>
			</g>
			
				<rect x="434.3" y="627.8" transform="matrix(0.7281 -0.6855 0.6855 0.7281 -308.6669 479.2267)" class="st1" width="30.8" height="1.8"/>
			
				<rect x="434.4" y="597.8" transform="matrix(0.7281 -0.6855 0.6855 0.7281 -288.0941 471.1601)" class="st1" width="30.8" height="1.8"/>
			<g>
				
					<rect x="341.4" y="597.8" transform="matrix(0.7281 -0.6855 0.6855 0.7281 -313.4016 407.3634)" class="st1" width="30.8" height="1.8"/>
				<path class="st1" d="M346.2,639.1c-0.2,0-0.4-0.1-0.5-0.2c-0.2-0.3-0.2-0.7,0-0.9l4.3-4c0.3-0.2,0.7-0.2,0.9,0
					c0.2,0.3,0.2,0.7,0,0.9l-4.3,4C346.5,639.1,346.4,639.1,346.2,639.1z M354.8,631.1c-0.2,0-0.4-0.1-0.5-0.2
					c-0.2-0.3-0.2-0.7,0-0.9l4.3-4c0.3-0.2,0.7-0.2,0.9,0c0.2,0.3,0.2,0.7,0,0.9l-4.3,4C355.1,631,354.9,631.1,354.8,631.1z
					 M363.3,623c-0.2,0-0.4-0.1-0.5-0.2c-0.2-0.3-0.2-0.7,0-0.9l4.3-4c0.3-0.2,0.7-0.2,0.9,0c0.2,0.3,0.2,0.7,0,0.9l-4.3,4
					C363.7,623,363.5,623,363.3,623z"/>
			</g>
			<path class="st1" d="M367.9,618.4c-0.4,0-0.7-0.3-0.7-0.7V612c0-0.4,0.3-0.7,0.7-0.7s0.7,0.3,0.7,0.7v5.8
				C368.5,618.1,368.2,618.4,367.9,618.4z M367.9,606.8c-0.4,0-0.7-0.3-0.7-0.7v-5.8c0-0.4,0.3-0.7,0.7-0.7s0.7,0.3,0.7,0.7v5.8
				C368.5,606.5,368.2,606.8,367.9,606.8z M367.9,595.3c-0.4,0-0.7-0.3-0.7-0.7v-5.8c0-0.4,0.3-0.7,0.7-0.7s0.7,0.3,0.7,0.7v5.8
				C368.5,595,368.2,595.3,367.9,595.3z"/>
			<path class="st1" d="M460.9,619c-0.5,0-0.9-0.4-0.9-0.9v-29h-92.2c-0.5,0-0.9-0.4-0.9-0.9s0.4-0.9,0.9-0.9h93
				c0.5,0,0.9,0.4,0.9,0.9v29.8C461.8,618.6,461.4,619,460.9,619z"/>
			<path class="st1" d="M460.9,618.8h-5.5c-0.4,0-0.7-0.3-0.7-0.7s0.3-0.7,0.7-0.7h5.5c0.4,0,0.7,0.3,0.7,0.7
				S461.3,618.8,460.9,618.8z M450,618.8h-5.5c-0.4,0-0.7-0.3-0.7-0.7s0.3-0.7,0.7-0.7h5.5c0.4,0,0.7,0.3,0.7,0.7
				S450.3,618.8,450,618.8z M439,618.8h-5.5c-0.4,0-0.7-0.3-0.7-0.7s0.3-0.7,0.7-0.7h5.5c0.4,0,0.7,0.3,0.7,0.7
				S439.4,618.8,439,618.8z M428.1,618.8h-5.5c-0.4,0-0.7-0.3-0.7-0.7s0.3-0.7,0.7-0.7h5.5c0.4,0,0.7,0.3,0.7,0.7
				S428.4,618.8,428.1,618.8z M417.1,618.8h-5.5c-0.4,0-0.7-0.3-0.7-0.7s0.3-0.7,0.7-0.7h5.5c0.4,0,0.7,0.3,0.7,0.7
				S417.5,618.8,417.1,618.8z M406.2,618.8h-5.5c-0.4,0-0.7-0.3-0.7-0.7s0.3-0.7,0.7-0.7h5.5c0.4,0,0.7,0.3,0.7,0.7
				S406.5,618.8,406.2,618.8z M395.2,618.8h-5.5c-0.4,0-0.7-0.3-0.7-0.7s0.3-0.7,0.7-0.7h5.5c0.4,0,0.7,0.3,0.7,0.7
				S395.6,618.8,395.2,618.8z M384.3,618.8h-5.5c-0.4,0-0.7-0.3-0.7-0.7s0.3-0.7,0.7-0.7h5.5c0.4,0,0.7,0.3,0.7,0.7
				S384.6,618.8,384.3,618.8z M373.3,618.8h-5.5c-0.4,0-0.7-0.3-0.7-0.7s0.3-0.7,0.7-0.7h5.5c0.4,0,0.7,0.3,0.7,0.7
				S373.7,618.8,373.3,618.8z"/>
			<path class="st1" d="M454.4,649.4c-4,0-8-0.6-11.9-1.9c-0.5-0.1-0.7-0.6-0.6-1.1c0.2-0.5,0.6-0.7,1.1-0.6
				c9.5,3.1,19.5,2.2,28.2-2.4c8.6-4.6,15-12.4,18.1-22.1c6.4-19.7-4.5-41-24.3-47.4c-0.5-0.1-0.7-0.6-0.6-1.1
				c0.2-0.5,0.6-0.7,1.1-0.6c20.7,6.7,32.1,29,25.4,49.6c-3.3,10.1-10,18.3-19,23.1C466.5,647.9,460.5,649.4,454.4,649.4z"/>
			<path class="st1" d="M444.8,651.3c-0.3,0-0.6-0.2-0.8-0.5l-2.1-3.7c-0.1-0.2-0.1-0.5-0.1-0.7c0.1-0.2,0.2-0.4,0.5-0.5l3.9-1.8
				c0.4-0.2,1,0,1.2,0.4c0.2,0.4,0,1-0.4,1.2l-3,1.4l1.6,2.9c0.2,0.4,0.1,1-0.3,1.2C445.1,651.3,445,651.3,444.8,651.3z"/>
		</g>
	</g>
</g>
</svg>
