

<svg version="1.1"  xmlns="http://www.w3.org/2000/svg" xmlns:xlink="http://www.w3.org/1999/xlink" x="0px" y="0px"
	 viewBox="0 0 841.9 1190.6" style="enable-background:new 0 0 841.9 1190.6;" xml:space="preserve">
<style type="text/css">
	.st0{fill:#FCC857;}
	.st1{fill:#302F42;}
</style>
<g>
	<path class="st0" d="M440.6,634.6v-44.4h6.8v38.4h23.9v6.1H440.6z"/>
	<g>
		<path class="st1" d="M441.5,651.5v-7.8h1.2v6.7h4.2v1.1H441.5z"/>
		<path class="st1" d="M453.2,650.4v1.1h-5.3v-7.8h5.2v1.1h-4v2.2h3.5v1h-3.5v2.4H453.2z"/>
		<path class="st1" d="M457.2,651.5v-7.8h5.2v1.1h-4v2.4h3.3v1h-3.3v3.4H457.2z"/>
		<path class="st1" d="M464.9,643.7h1.1l3.1,7.8h-1.3l-0.8-2.1h-3.1l-0.8,2.1h-1.3L464.9,643.7z M466.7,648.4l-1.2-3.4l-1.2,3.4
			H466.7z"/>
		<path class="st1" d="M476.1,649.5c0,0.4-0.1,0.8-0.3,1.1c-0.2,0.3-0.5,0.5-0.9,0.7c-0.4,0.2-0.8,0.2-1.2,0.2H470v-7.8h4
			c0.4,0,0.7,0.1,0.9,0.3c0.3,0.2,0.5,0.4,0.6,0.7c0.1,0.3,0.2,0.6,0.2,0.9c0,0.4-0.1,0.7-0.3,1.1c-0.2,0.3-0.5,0.6-0.8,0.7
			c0.4,0.1,0.8,0.4,1.1,0.7C476,648.6,476.1,649,476.1,649.5z M471.2,644.7v2.3h2.3c0.2,0,0.4,0,0.6-0.1c0.2-0.1,0.3-0.2,0.4-0.4
			c0.1-0.2,0.1-0.4,0.1-0.6c0-0.2,0-0.4-0.1-0.6c-0.1-0.2-0.2-0.3-0.4-0.4c-0.2-0.1-0.3-0.1-0.5-0.1H471.2z M474.9,649.2
			c0-0.2,0-0.4-0.1-0.6c-0.1-0.2-0.2-0.3-0.4-0.4c-0.2-0.1-0.3-0.2-0.6-0.2h-2.6v2.4h2.5c0.2,0,0.4-0.1,0.6-0.2
			c0.2-0.1,0.3-0.3,0.4-0.4C474.8,649.7,474.9,649.5,474.9,649.2z"/>
		<path class="st1" d="M477.4,651.5v-7.8h1.2v6.7h4.2v1.1H477.4z"/>
		<path class="st1" d="M486,643.7h1.1l3,7.8h-1.3l-0.8-2.1H485l-0.8,2.1H483L486,643.7z M487.9,648.4l-1.2-3.4l-1.2,3.4H487.9z"/>
		<path class="st1" d="M497.2,649.5c0,0.4-0.1,0.8-0.3,1.1c-0.2,0.3-0.5,0.5-0.9,0.7c-0.4,0.2-0.8,0.2-1.2,0.2h-3.7v-7.8h4
			c0.4,0,0.7,0.1,0.9,0.3c0.3,0.2,0.5,0.4,0.6,0.7c0.1,0.3,0.2,0.6,0.2,0.9c0,0.4-0.1,0.7-0.3,1.1c-0.2,0.3-0.5,0.6-0.8,0.7
			c0.4,0.1,0.8,0.4,1.1,0.7C497.1,648.6,497.2,649,497.2,649.5z M492.4,644.7v2.3h2.3c0.2,0,0.4,0,0.6-0.1c0.2-0.1,0.3-0.2,0.4-0.4
			c0.1-0.2,0.1-0.4,0.1-0.6c0-0.2,0-0.4-0.1-0.6c-0.1-0.2-0.2-0.3-0.4-0.4c-0.2-0.1-0.3-0.1-0.5-0.1H492.4z M496,649.2
			c0-0.2,0-0.4-0.1-0.6c-0.1-0.2-0.2-0.3-0.4-0.4c-0.2-0.1-0.3-0.2-0.6-0.2h-2.6v2.4h2.5c0.2,0,0.4-0.1,0.6-0.2
			c0.2-0.1,0.3-0.3,0.4-0.4C496,649.7,496,649.5,496,649.2z"/>
		<path class="st1" d="M501.3,651.5v-7.8h2.7c0.8,0,1.5,0.2,2.1,0.5c0.6,0.3,1,0.8,1.3,1.4c0.3,0.6,0.4,1.2,0.4,2
			c0,0.8-0.2,1.5-0.5,2.1c-0.3,0.6-0.7,1-1.3,1.4c-0.6,0.3-1.2,0.5-2,0.5H501.3z M506.6,647.6c0-0.5-0.1-1-0.3-1.5
			c-0.2-0.4-0.5-0.8-0.9-1c-0.4-0.2-0.8-0.4-1.4-0.4h-1.5v5.6h1.5c0.6,0,1-0.1,1.4-0.4c0.4-0.2,0.7-0.6,0.9-1
			C506.5,648.6,506.6,648.1,506.6,647.6z"/>
		<path class="st1" d="M514.4,650.4v1.1h-5.3v-7.8h5.2v1.1h-4v2.2h3.5v1h-3.5v2.4H514.4z"/>
		<path class="st1" d="M523.8,644.8h-2.6v6.7H520v-6.7h-2.6v-1.1h6.4V644.8z"/>
		<path class="st1" d="M527.8,651.5c-0.5,0-1-0.1-1.5-0.3c-0.5-0.2-0.8-0.5-1.2-0.9c-0.3-0.4-0.6-0.8-0.8-1.3
			c-0.2-0.5-0.3-1-0.3-1.4c0-0.5,0.1-1,0.3-1.5c0.2-0.5,0.5-0.9,0.8-1.3c0.3-0.4,0.7-0.7,1.2-0.9c0.5-0.2,0.9-0.3,1.5-0.3
			c0.6,0,1.1,0.1,1.5,0.3c0.5,0.2,0.8,0.5,1.2,0.9c0.3,0.4,0.6,0.8,0.7,1.3c0.2,0.5,0.3,0.9,0.3,1.4c0,0.5-0.1,1-0.3,1.5
			c-0.2,0.5-0.4,0.9-0.8,1.3c-0.3,0.4-0.7,0.7-1.2,0.9C528.9,651.4,528.4,651.5,527.8,651.5z M525.4,647.6c0,0.4,0.1,0.7,0.2,1.1
			c0.1,0.3,0.3,0.7,0.5,0.9c0.2,0.3,0.5,0.5,0.8,0.6c0.3,0.2,0.7,0.2,1,0.2c0.4,0,0.7-0.1,1.1-0.2c0.3-0.2,0.6-0.4,0.8-0.7
			c0.2-0.3,0.4-0.6,0.5-0.9c0.1-0.3,0.2-0.7,0.2-1c0-0.4-0.1-0.7-0.2-1.1c-0.1-0.3-0.3-0.7-0.5-0.9c-0.2-0.3-0.5-0.5-0.8-0.6
			c-0.3-0.2-0.6-0.2-1-0.2c-0.4,0-0.7,0.1-1.1,0.2c-0.3,0.2-0.6,0.4-0.8,0.7c-0.2,0.3-0.4,0.6-0.5,0.9
			C525.4,646.9,525.4,647.2,525.4,647.6z"/>
		<path class="st1" d="M536.1,651.5c-0.6,0-1.1-0.1-1.6-0.3c-0.4-0.2-0.8-0.5-1-0.9c-0.3-0.4-0.5-0.8-0.6-1.3
			c-0.1-0.5-0.2-0.9-0.2-1.4v-3.9h1.2v3.9c0,0.4,0,0.7,0.1,1c0.1,0.3,0.2,0.6,0.4,0.9c0.2,0.3,0.4,0.5,0.7,0.6
			c0.3,0.2,0.6,0.2,1,0.2c0.4,0,0.8-0.1,1-0.2c0.3-0.2,0.5-0.4,0.7-0.6s0.3-0.6,0.4-0.9c0.1-0.3,0.1-0.7,0.1-1v-3.9h1.2v3.9
			c0,0.5-0.1,1-0.2,1.5c-0.1,0.5-0.3,0.9-0.6,1.2c-0.3,0.4-0.6,0.6-1,0.8C537.2,651.4,536.7,651.5,536.1,651.5z"/>
		<path class="st1" d="M541.1,651.5v-7.8h3.4c0.3,0,0.7,0.1,1,0.2c0.3,0.1,0.5,0.3,0.8,0.6c0.2,0.2,0.4,0.5,0.5,0.8
			c0.1,0.3,0.2,0.6,0.2,0.9c0,0.3-0.1,0.7-0.2,1c-0.1,0.3-0.3,0.6-0.5,0.8c-0.2,0.2-0.5,0.4-0.8,0.5l1.8,3h-1.4l-1.7-2.7h-1.8v2.7
			H541.1z M542.3,647.7h2.2c0.2,0,0.4-0.1,0.6-0.2c0.2-0.1,0.3-0.3,0.4-0.5c0.1-0.2,0.1-0.5,0.1-0.7c0-0.3-0.1-0.5-0.2-0.7
			c-0.1-0.2-0.3-0.4-0.5-0.5c-0.2-0.1-0.4-0.2-0.6-0.2h-2.1V647.7z"/>
		<path class="st1" d="M552.9,645.5c-0.1-0.1-0.2-0.2-0.3-0.3c-0.1-0.1-0.3-0.2-0.5-0.3c-0.2-0.1-0.4-0.2-0.6-0.2
			c-0.2-0.1-0.5-0.1-0.7-0.1c-0.5,0-0.9,0.1-1.2,0.3c-0.3,0.2-0.4,0.5-0.4,0.8c0,0.2,0.1,0.4,0.2,0.6c0.1,0.1,0.4,0.3,0.6,0.4
			c0.3,0.1,0.6,0.2,1.1,0.3c0.5,0.1,1,0.3,1.4,0.4c0.4,0.2,0.7,0.4,0.9,0.7c0.2,0.3,0.3,0.7,0.3,1.1c0,0.4-0.1,0.7-0.2,1
			c-0.1,0.3-0.3,0.5-0.6,0.7c-0.3,0.2-0.6,0.3-0.9,0.4c-0.3,0.1-0.7,0.1-1.1,0.1c-0.4,0-0.8,0-1.1-0.1c-0.4-0.1-0.7-0.2-1.1-0.4
			c-0.3-0.2-0.7-0.3-1-0.6l0.6-1c0.1,0.1,0.2,0.2,0.4,0.3c0.2,0.1,0.4,0.2,0.6,0.3c0.2,0.1,0.5,0.2,0.8,0.3c0.3,0.1,0.6,0.1,0.9,0.1
			c0.5,0,0.9-0.1,1.1-0.3c0.3-0.2,0.4-0.4,0.4-0.8c0-0.3-0.1-0.5-0.3-0.6c-0.2-0.2-0.4-0.3-0.7-0.4s-0.7-0.2-1.2-0.3
			c-0.5-0.1-0.9-0.3-1.3-0.5c-0.3-0.2-0.6-0.4-0.8-0.6c-0.2-0.3-0.3-0.6-0.3-1c0-0.5,0.1-0.9,0.4-1.3c0.2-0.4,0.6-0.6,1-0.8
			c0.4-0.2,0.9-0.3,1.4-0.3c0.3,0,0.7,0,1,0.1c0.3,0.1,0.6,0.2,0.9,0.3c0.3,0.1,0.5,0.3,0.7,0.5L552.9,645.5z"/>
	</g>
	<g>
		<path class="st1" d="M440.3,582v-41.5h27.5v5.7h-21.2v12.6h17.8v5.3h-17.8v18H440.3z"/>
		<path class="st1" d="M491.4,582.2c-3.3,0-6.1-0.6-8.4-1.7c-2.3-1.1-4.1-2.7-5.5-4.6c-1.4-2-2.4-4.2-3.1-6.7c-0.6-2.5-1-5.1-1-7.7
			v-21.1h6.4v21.1c0,1.9,0.2,3.8,0.6,5.6c0.4,1.8,1,3.4,1.9,4.8c0.9,1.4,2,2.5,3.5,3.4c1.5,0.9,3.3,1.3,5.5,1.3
			c2.2,0,4.1-0.4,5.5-1.3c1.5-0.9,2.6-2,3.5-3.4c0.9-1.4,1.5-3,1.9-4.8c0.4-1.8,0.6-3.6,0.6-5.5v-21.1h6.4v21.1c0,2.8-0.3,5.5-1,8
			c-0.7,2.5-1.7,4.7-3.1,6.6c-1.4,1.9-3.3,3.4-5.5,4.5C497.4,581.7,494.6,582.2,491.4,582.2z"/>
		<path class="st1" d="M524.5,552.3V582h-6.4v-41.5h5.3l23.7,30.3v-30.2h6.4V582H548L524.5,552.3z"/>
	</g>
	<polygon class="st0" points="496.4,590.2 490,590.2 472.6,634.6 479.8,634.6 484.2,622.4 484.9,622.4 486.3,617.3 486.1,617.3 
		493.2,597.7 500.3,617.3 489.8,617.3 485.9,622.4 502.2,622.4 506.6,634.6 513.9,634.6 	"/>
	<path class="st0" d="M551.9,615.9c-1.5-2-3.5-3.4-6-4.1c2.1-0.9,3.7-2.3,4.8-4.3c1.1-1.9,1.6-3.9,1.6-6.1c0-1.9-0.4-3.7-1.2-5.4
		c-0.8-1.7-2-3.1-3.5-4.3c-1.5-1.1-3.3-1.7-5.4-1.7h-22.7v44.4h6.1l0.8-5.9v-13.8H541c1.2,0,2.2,0.3,3.2,1c0.9,0.6,1.7,1.5,2.2,2.6
		c0.5,1.1,0.8,2.2,0.8,3.5c0,1.2-0.3,2.3-0.9,3.3c-0.6,1-1.4,1.9-2.4,2.5c-1,0.6-2.1,1-3.3,1h-5.4l-6.8,5.9h12.1
		c2.5,0,4.8-0.5,6.8-1.4c2-0.9,3.7-2.3,4.9-3.9c1.2-1.7,1.8-3.7,1.8-6.1C554.1,620.3,553.3,617.9,551.9,615.9z M544.6,606.2
		c-0.5,1-1.3,1.8-2.2,2.4c-0.9,0.6-2,0.8-3.2,0.8h-13.1v-13.3h13.5c1.1,0,2.1,0.3,3,0.8c0.9,0.6,1.6,1.3,2.1,2.3
		c0.5,1,0.8,2.1,0.8,3.4C545.5,604,545.2,605.1,544.6,606.2z"/>
	<path class="st0" d="M408.7,600.4L408.7,600.4L408.7,600.4C408.7,600.4,408.7,600.4,408.7,600.4
		C408.7,600.4,408.7,600.4,408.7,600.4l-45.9-26.6l0-25.9c0-0.7-0.4-1.4-1-1.8l0,0l-23.5-13.6c-0.6-0.4-1.4-0.4-2,0L312.7,546l0,0
		c-0.6,0.4-1,1-1,1.8l0,25.9l-22.5,13c-0.6,0.4-1,1-1,1.8l0,27.1c0,0.7,0.4,1.4,1,1.8l23.5,13.6c0.3,0.2,0.7,0.3,1,0.3
		c0.4,0,0.7-0.1,1-0.3l20.4-11.8l0,23.6c0,0.7,0.4,1.4,1,1.8l23.5,13.6c0.3,0.2,0.7,0.3,1,0.3c0.3,0,0.7-0.1,1-0.3l47-27
		c0.6-0.4,1-1,1-1.8v-27.1C409.7,601.4,409.3,600.7,408.7,600.4z M360.7,599.7l-19.4-11.2l19.4-11.2l19.5,11.3L360.7,599.7z
		 M358.7,573.7L339.2,585l-0.3-22.2l19.7-11.4L358.7,573.7z M386.2,592l17.4,10.1l-17.4,10V592z M337.2,536.6l19.4,11.2l-19.7,11.4
		l-19.1-11.4L337.2,536.6z M311.7,598.5l-17.4-10l17.4-10V598.5z M315.8,605.5l17.4,10l-17.4,10V605.5z M311.7,625.6l-19.4-11.2
		l0-22.4l19.4,11.2V625.6z M338.2,613.8l-22.5-13v-25.9h0l0-23.5l19.1,11.4l0.3,25.8c0,0.7,0.4,1.4,1,1.7l22.5,13v49.5l-19.4-11.2
		l0-25.9C339.3,614.8,338.9,614.2,338.2,613.8z M405.6,628.1l-42.9,24.7v-49.5l19.4-11.1v23.6c0,0.7,0.4,1.4,1,1.8
		c0.6,0.4,1.4,0.4,2,0l20.4-11.8V628.1z"/>
</g>
</svg>
