<?xml version="1.0" encoding="utf-8"?>
<!-- Generator: Adobe Illustrator 24.0.2, SVG Export Plug-In . SVG Version: 6.00 Build 0)  -->
<svg version="1.1" id="Calque_1" xmlns="http://www.w3.org/2000/svg" xmlns:xlink="http://www.w3.org/1999/xlink" x="0px" y="0px"
	 viewBox="0 0 271.5 281.6" style="enable-background:new 0 0 271.5 281.6;" xml:space="preserve">
<style type="text/css">
	.st0{fill:#56BAA8;}
</style>
<g>
	<polygon class="st0" points="161.4,276.5 161.2,276.1 264.4,216.1 264.6,216.6 	"/>
	<g>
		<polygon class="st0" points="163.2,278.1 158.2,278.1 160.7,273.8 		"/>
	</g>
	<g>
		<polygon class="st0" points="265.1,218.9 267.6,214.5 262.6,214.6 		"/>
	</g>
</g>
<path class="st0" d="M158.1,278.3l-1.7-1.1l0.3-0.4l1.7,1.1L158.1,278.3z M154.7,276.1L153,275l0.3-0.4l1.7,1.1L154.7,276.1z
	 M151.3,273.9l-1.7-1.1l0.3-0.4l1.7,1.1L151.3,273.9z M148,271.8l-1.7-1.1l0.3-0.4l1.7,1.1L148,271.8z M144.6,269.6l-1.7-1.1
	l0.3-0.4l1.7,1.1L144.6,269.6z M141.3,267.4l-1.7-1.1l0.3-0.4l1.7,1.1L141.3,267.4z M137.9,265.3l-1.7-1.1l0.3-0.4l1.7,1.1
	L137.9,265.3z M134.5,263.1l-1.7-1.1l0.3-0.4l1.7,1.1L134.5,263.1z M131.2,260.9l-1.7-1.1l0.3-0.4l1.7,1.1L131.2,260.9z
	 M127.8,258.8l-1.7-1.1l0.3-0.4l1.7,1.1L127.8,258.8z"/>
<path class="st0" d="M267.5,214.7l-1.7-1.1l0.3-0.4l1.7,1.1L267.5,214.7z M264.1,212.6l-1.7-1.1l0.3-0.4l1.7,1.1L264.1,212.6z
	 M260.8,210.4l-1.7-1.1l0.3-0.4l1.7,1.1L260.8,210.4z M257.4,208.2l-1.7-1.1l0.3-0.4l1.7,1.1L257.4,208.2z M254,206.1l-1.7-1.1
	l0.3-0.4l1.7,1.1L254,206.1z M250.7,203.9l-1.7-1.1l0.3-0.4l1.7,1.1L250.7,203.9z M247.3,201.7l-1.7-1.1l0.3-0.4l1.7,1.1
	L247.3,201.7z M243.9,199.6l-1.7-1.1l0.3-0.4l1.7,1.1L243.9,199.6z M240.6,197.4l-1.7-1.1l0.3-0.4l1.7,1.1L240.6,197.4z
	 M237.2,195.2l-1.7-1.1l0.3-0.4l1.7,1.1L237.2,195.2z"/>
<g>
	
		<rect x="16.4" y="13.6" transform="matrix(0.8623 -0.5064 0.5064 0.8623 -2.3929 18.9627)" class="st0" width="34.6" height="0.5"/>
	<g>
		<polygon class="st0" points="46.7,3.3 51.7,3.3 49.2,7.6 		"/>
	</g>
	<g>
		<polygon class="st0" points="18.1,20.1 15.6,24.5 20.6,24.4 		"/>
	</g>
</g>
<path class="st0" d="M51.8,45.1l0-1.8l0.5,0l0,1.8L51.8,45.1z M51.7,41.3l0-2l0.5,0l0,2L51.7,41.3z M51.7,37.3l0-2l0.5,0l0,2
	L51.7,37.3z M51.7,33.3l0-2l0.5,0l0,2L51.7,33.3z M51.6,29.3l0-2l0.5,0l0,2L51.6,29.3z M51.6,25.3l0-2l0.5,0l0,2L51.6,25.3z
	 M51.6,21.3l0-2l0.5,0l0,2L51.6,21.3z M51.5,17.3l0-2l0.5,0l0,2L51.5,17.3z M51.5,13.3l0-2l0.5,0l0,2L51.5,13.3z M51.5,9.3l0-2
	l0.5,0l0,2L51.5,9.3z M51.5,5.3l0-2l0.5,0l0,2L51.5,5.3z"/>
<path class="st0" d="M15.7,66.3l0-1.8l0.5,0l0,1.8L15.7,66.3z M15.7,62.5l0-2l0.5,0l0,2L15.7,62.5z M15.7,58.5l0-2l0.5,0l0,2
	L15.7,58.5z M15.6,54.5l0-2l0.5,0l0,2L15.6,54.5z M15.6,50.5l0-2l0.5,0l0,2L15.6,50.5z M15.6,46.5l0-2l0.5,0l0,2L15.6,46.5z
	 M15.5,42.5l0-2l0.5,0l0,2L15.5,42.5z M15.5,38.5l0-2l0.5,0l0,2L15.5,38.5z M15.5,34.5l0-2l0.5,0l0,2L15.5,34.5z M15.4,30.5l0-2
	l0.5,0l0,2L15.4,30.5z M15.4,26.5l0-2l0.5,0l0,2L15.4,26.5z"/>
<g>
	<path class="st0" d="M125.4,2.8C125.4,2.8,125.4,2.8,125.4,2.8L125.4,2.8C125.3,2.8,125.3,2.8,125.4,2.8L125.4,2.8
		C125.3,2.8,125.3,2.8,125.4,2.8L125.4,2.8C125.3,2.8,125.3,2.8,125.4,2.8L125.4,2.8C125.3,2.8,125.3,2.8,125.4,2.8L125.4,2.8
		C125.3,2.8,125.3,2.8,125.4,2.8L125.4,2.8C125.3,2.8,125.3,2.8,125.4,2.8L125.4,2.8C125.3,2.8,125.3,2.8,125.4,2.8L125.4,2.8
		C125.3,2.8,125.3,2.8,125.4,2.8L125.4,2.8C125.3,2.8,125.3,2.8,125.4,2.8L125.4,2.8C125.3,2.8,125.3,2.8,125.4,2.8L125.4,2.8
		c-0.1,0.1-0.1,0.1-0.1,0.1l0,0c0,0,0,0,0,0l0,0c0,0,0,0,0,0l0,0c0,0,0,0,0,0l0,0c0,0,0,0,0,0l-1.6,0.9l0.5,0.9l1.2-0.7l1.6,0.9
		l0.5-0.9l-1.7-1l-0.1,0.2L125.4,2.8L125.4,2.8L125.4,2.8z M121.9,4.8c0,0-0.1,0.1-0.3,0.2l0,0c0,0,0,0-0.1,0l0,0c0,0,0,0,0,0l0,0
		c0,0,0,0,0,0l0,0c0,0,0,0,0,0l0,0c0,0,0,0,0,0l0,0c0,0,0,0,0,0l0,0c0,0,0,0,0,0l-1.3,0.8l0.5,0.9l1.7-1L121.9,4.8L121.9,4.8z
		 M118.4,6.8c0,0-0.2,0.1-0.5,0.3l0,0c0,0,0,0,0,0l0,0c0,0,0,0,0,0l0,0c0,0,0,0,0,0l0,0c0,0,0,0,0,0l0,0c0,0,0,0,0,0l0,0
		c0,0,0,0,0,0l0,0c0,0,0,0,0,0l0,0c0,0,0,0,0,0l0,0c0,0,0,0,0,0l-1,0.6l0.5,0.9l1.7-1L118.4,6.8L118.4,6.8z M115,8.8
		c0,0-0.4,0.2-0.8,0.5l0,0c0,0,0,0,0,0l0,0c0,0,0,0,0,0l0,0c0,0,0,0,0,0l0,0c0,0,0,0,0,0l0,0c0,0,0,0,0,0l-0.8,0.5l0.5,0.9l1.7-1
		L115,8.8L115,8.8z M111.5,10.8c0,0-0.6,0.4-1.1,0.6l0,0c0,0,0,0,0,0l0,0c0,0,0,0,0,0l0,0c0,0,0,0,0,0l0,0c0,0,0,0,0,0l-0.6,0.3
		l0.5,0.9l1.7-1L111.5,10.8L111.5,10.8z M108.1,12.8c0,0-0.9,0.5-1.4,0.8l0,0c0,0,0,0,0,0l0,0c0,0,0,0,0,0l0,0c0,0,0,0,0,0l0,0
		c0,0,0,0,0,0l0,0c0,0,0,0,0,0l0,0c0,0,0,0,0,0l-0.3,0.2l0.5,0.9l1.7-1L108.1,12.8L108.1,12.8z M104.6,14.8c0,0-1.3,0.8-1.7,1l0,0
		c0,0,0,0,0,0l0,0c0,0,0,0,0,0l0,0c0,0,0,0,0,0l0,0c0,0,0,0,0,0l0,0c0,0,0,0,0,0l0,0c0,0,0,0,0,0l0,0c0,0,0,0,0,0l0,0c0,0,0,0,0,0
		l0,0c0,0,0,0,0,0v0c0,0,0,0,0,0l0,0c0,0,0,0,0,0l0,0c0,0,0,0,0,0l0,0c0,0,0,0,0,0l0,0c0,0,0,0,0,0l0,0c0,0,0,0,0,0l0,0c0,0,0,0,0,0
		l0,0c0,0,0,0,0,0l0,0c0,0,0,0,0,0l0,0l0.5,0.9l1.7-1L104.6,14.8L104.6,14.8z M101.1,16.8l-1.7,1l0.5,0.9l1.7-1L101.1,16.8
		L101.1,16.8z M97.7,18.8l-1.7,1l0.5,0.9l1.7-1L97.7,18.8L97.7,18.8z M94.2,20.8l-1.7,1l0.5,0.9l1.7-1L94.2,20.8L94.2,20.8z
		 M90.7,22.8l-0.8,0.5c0,0,0,0,0,0l0,0c0,0,0,0,0,0l0,0c0,0,0,0,0,0l0,0c0,0,0,0,0,0l0,0c0,0,0,0,0,0l0,0c-0.4,0.2-0.8,0.5-0.8,0.5
		l0.5,0.9l1.7-1L90.7,22.8L90.7,22.8z M87.3,24.8l-0.6,0.3c0,0,0,0,0,0l0,0c0,0,0,0,0,0l0,0c0,0,0,0,0,0l0,0
		c-0.5,0.3-1.1,0.6-1.1,0.6l0.5,0.9l1.7-1L87.3,24.8L87.3,24.8z M83.8,26.8L83.5,27l0,0l0,0c0,0,0,0,0,0l0,0c0,0,0,0,0,0l0,0
		c0,0,0,0,0,0l0,0c0,0,0,0,0,0l0,0c0,0,0,0,0,0l0,0c0,0,0,0,0,0l0,0c-0.5,0.3-1.3,0.8-1.3,0.8l0.5,0.9l1.7-1L83.8,26.8L83.8,26.8z
		 M80.3,28.8l-0.1,0.1c0,0,0,0,0,0l0,0c0,0,0,0,0,0l0,0c0,0,0,0,0,0l0,0c0,0,0,0,0,0l0,0c0,0,0,0,0,0l0,0c0,0,0,0,0,0l0,0
		c0,0,0,0,0,0l0,0c0,0,0,0,0,0l0,0c0,0,0,0,0,0l0,0c0,0,0,0,0,0l0,0c0,0,0,0,0,0l0,0c0,0,0,0,0,0l0,0c0,0,0,0,0,0l0,0c0,0,0,0-0.1,0
		l0,0c-0.5,0.3-1.5,0.9-1.5,0.9l0.5,0.9l1.7-1L80.3,28.8L80.3,28.8z M76.9,30.8l-1.7,1l0.5,0.9l1.7-1L76.9,30.8L76.9,30.8z
		 M73.4,32.8l-1.7,1l0.5,0.9l1.7-1L73.4,32.8L73.4,32.8z M69.9,34.8l-1.7,1l0.5,0.9l1.7-1L69.9,34.8L69.9,34.8z M66.5,36.8l-1.7,1
		l0.5,0.9l1.7-1L66.5,36.8L66.5,36.8z M63,38.8c0,0-0.6,0.4-1.1,0.6l0,0c0,0,0,0,0,0l0,0c0,0,0,0,0,0l0,0c0,0,0,0,0,0l0,0
		c0,0,0,0,0,0l0,0c0,0,0,0,0,0l0,0c0,0,0,0,0,0l-0.5,0.3l0.5,0.9l1.7-1L63,38.8L63,38.8z M59.6,40.8c0,0-0.9,0.5-1.4,0.8l0,0
		c0,0,0,0,0,0l0,0c0,0,0,0,0,0l0,0c0,0,0,0,0,0l0,0c0,0,0,0,0,0l0,0c0,0,0,0,0,0l0,0c0,0,0,0,0,0l-0.3,0.2l0.5,0.9l1.7-1L59.6,40.8
		L59.6,40.8z M56.1,42.8c0,0-1.3,0.8-1.7,1l0,0c0,0,0,0,0,0l0,0c0,0,0,0,0,0l0,0c0,0,0,0,0,0l0,0c0,0,0,0,0,0l0,0c0,0,0,0,0,0l0,0
		c0,0,0,0,0,0l0,0c0,0,0,0,0,0l0,0c0,0,0,0,0,0l0,0c0,0,0,0,0,0l0,0c0,0,0,0,0,0l0,0c0,0,0,0,0,0l0,0c0,0,0,0,0,0l0,0c0,0,0,0,0,0
		l0,0c0,0,0,0,0,0l0,0c0,0,0,0,0,0l0,0c0,0,0,0,0,0l0,0c0,0,0,0,0,0l0,0l0.5,0.9l1.7-1L56.1,42.8L56.1,42.8z M52.6,44.8l-1.7,1
		l0.5,0.9l1.7-1L52.6,44.8L52.6,44.8z M49.2,46.8l-1.7,1l0.5,0.9l1.7-1L49.2,46.8L49.2,46.8z M45.7,48.8l-1.7,1l0.5,0.9l1.7-1
		L45.7,48.8L45.7,48.8z M42.2,50.8l-1.7,1l0.5,0.9l1.7-1L42.2,50.8L42.2,50.8z M38.8,52.8l-1.7,1l0.5,0.9l1.7-1L38.8,52.8L38.8,52.8
		z M35.3,54.8l-1.7,1l0.5,0.9l1.7-1L35.3,54.8L35.3,54.8z M31.8,56.8l-1.7,1l0.5,0.9l1.7-1L31.8,56.8L31.8,56.8z M28.4,58.8l-1.7,1
		l0.5,0.9l1.7-1L28.4,58.8L28.4,58.8z M24.9,60.8l-1.7,1l0.5,0.9l1.7-1L24.9,60.8L24.9,60.8z M21.5,62.8l-1.7,1l0.5,0.9l1.7-1
		L21.5,62.8L21.5,62.8z M18,64.8l-1.7,1l0.5,0.9l1.7-1L18,64.8L18,64.8z M16.3,67.2h-1v2h1V67.2L16.3,67.2z M16.3,71.2h-1v2h1V71.2
		L16.3,71.2z M16.3,75.2h-1v2h1V75.2L16.3,75.2z M16.3,79.2h-1v2h1V79.2L16.3,79.2z M16.3,83.2h-1v2h1V83.2L16.3,83.2z M16.3,87.2
		h-1v2h1V87.2L16.3,87.2z M16.3,91.2h-1v2h1V91.2L16.3,91.2z M16.3,95.2h-1v2h1V95.2L16.3,95.2z M16.3,99.2h-1v2h1V99.2L16.3,99.2z
		 M16.3,103.2h-1v2h1V103.2L16.3,103.2z M16.3,107.2h-1v2h1V107.2L16.3,107.2z M16.3,111.2h-1v2h1V111.2L16.3,111.2z M16.3,115.2h-1
		v2h1V115.2L16.3,115.2z M16.3,119.2h-1v2h1V119.2L16.3,119.2z M16.3,123.2h-1v2h1V123.2L16.3,123.2z M16.3,127.2h-1v2h1V127.2
		L16.3,127.2z M16.3,131.2h-1v2h1V131.2L16.3,131.2z M16.3,135.2h-1v2h1V135.2L16.3,135.2z M16.3,139.2h-1v2h1V139.2L16.3,139.2z
		 M16.3,143.2h-1v2h1V143.2L16.3,143.2z M16.3,147.2h-1v2h1V147.2L16.3,147.2z M16.3,151.2h-1v2h1V151.2L16.3,151.2z M16.3,155.2h-1
		v2h1V155.2L16.3,155.2z M16.3,159.2h-1v2h1V159.2L16.3,159.2z M16.3,163.2h-1v2h1V163.2L16.3,163.2z M16.3,167.2h-1v2h1V167.2
		L16.3,167.2z M16.3,171.2h-1v2h1V171.2L16.3,171.2z M16.3,175.2h-1v2h1V175.2L16.3,175.2z M16.3,179.2h-1v2h1V179.2L16.3,179.2z
		 M16.3,183.2h-1v2h1V183.2L16.3,183.2z M16.3,187.2h-1v2h1V187.2L16.3,187.2z M16.3,191.2h-1v2h1V191.2L16.3,191.2z M17.4,193.4
		l-0.5,0.9l1.7,1l0.5-0.9L17.4,193.4L17.4,193.4z M20.9,195.4l-0.5,0.9l1.7,1l0.5-0.9L20.9,195.4L20.9,195.4z M24.4,197.4l-0.5,0.9
		l1.7,1l0.5-0.9L24.4,197.4L24.4,197.4z M27.8,199.4l-0.5,0.9l1.7,1l0.5-0.9L27.8,199.4L27.8,199.4z M31.3,201.4l-0.5,0.9l1.7,1
		l0.5-0.9L31.3,201.4L31.3,201.4z M34.8,203.4l-0.5,0.9l1.7,1l0.5-0.9L34.8,203.4L34.8,203.4z M38.2,205.4l-0.5,0.9l1.7,1l0.5-0.9
		L38.2,205.4L38.2,205.4z M41.7,207.4l-0.5,0.9l1.7,1l0.5-0.9L41.7,207.4L41.7,207.4z M45.2,209.4l-0.5,0.9l1.7,1l0.5-0.9
		L45.2,209.4L45.2,209.4z M48.6,211.4l-0.5,0.9l1.7,1l0.5-0.9L48.6,211.4L48.6,211.4z M52.1,213.4l-0.5,0.9l1.7,1l0.5-0.9
		L52.1,213.4L52.1,213.4z M55.5,215.4l-0.5,0.9l1.7,1l0.5-0.9L55.5,215.4L55.5,215.4z M59,217.4l-0.5,0.9c0,0,0.4,0.2,0.8,0.5l0,0
		c0,0,0,0,0,0l0,0c0,0,0,0,0,0l0,0c0,0,0,0,0,0l0,0c0,0,0,0,0,0l0,0c0,0,0,0,0,0l0,0c0,0,0,0,0,0l0,0c0,0,0,0,0,0l0,0c0,0,0,0,0,0
		l0.8,0.5l0.5-0.9L59,217.4L59,217.4z M62.5,219.4l-0.5,0.9c0,0,0.4,0.2,0.8,0.5l0,0c0,0,0,0,0,0l0,0c0,0,0,0,0,0l0,0c0,0,0,0,0,0
		l0,0c0,0,0,0,0,0l0,0c0,0,0,0,0,0l0.9,0.5l0.5-0.9L62.5,219.4L62.5,219.4z M65.9,221.4l-0.5,0.9c0,0,0.4,0.2,0.7,0.4l0,0
		c0,0,0,0,0,0l0,0c0,0,0,0,0,0l0,0c0,0,0,0,0,0l1,0.6l0.5-0.9L65.9,221.4L65.9,221.4z M69.4,223.4l-0.5,0.9c0,0,0.3,0.2,0.7,0.4l0,0
		c0,0,0,0,0,0l0,0c0,0,0,0,0,0l0,0c0,0,0,0,0,0l0,0c0,0,0,0,0,0l0,0l0,0l1,0.6l0.5-0.9L69.4,223.4L69.4,223.4z M72.9,225.4l-0.5,0.9
		c0,0,0.3,0.2,0.6,0.4l0,0c0,0,0,0,0,0l0,0c0,0,0,0,0,0l0,0c0,0,0,0,0,0l0,0c0,0,0,0,0,0l0,0c0,0,0,0,0,0l1,0.6l0.5-0.9L72.9,225.4
		L72.9,225.4z M76.3,227.4l-0.5,0.9c0,0,0.2,0.1,0.5,0.3l0,0c0,0,0,0,0,0l0,0c0,0,0,0,0,0l0,0c0,0,0,0,0,0l0,0c0,0,0,0,0,0l0,0
		c0,0,0,0,0,0l0,0c0,0,0,0,0,0l1.1,0.6l0.5-0.9L76.3,227.4L76.3,227.4z M79.8,229.4l-0.5,0.9c0,0,0.2,0.1,0.5,0.3l0,0c0,0,0,0,0,0
		l0,0c0,0,0,0,0,0l0,0c0,0,0,0,0,0l0,0c0,0,0,0,0,0l1.2,0.7l0.5-0.9L79.8,229.4L79.8,229.4z M83.3,231.4l-0.5,0.9
		c0,0,0.2,0.1,0.5,0.3l0,0c0,0,0,0,0,0l0,0c0,0,0,0,0,0l0,0c0,0,0,0,0,0l0,0c0,0,0,0,0,0l0,0c0,0,0,0,0,0l0,0c0,0,0,0,0,0l0,0
		c0,0,0,0,0,0l1.2,0.7l0.5-0.9L83.3,231.4L83.3,231.4z M86.7,233.4l-0.5,0.9c0,0,0.2,0.1,0.4,0.2l0,0c0,0,0,0,0,0l0,0c0,0,0,0,0,0
		l0,0c0,0,0,0,0,0l0,0c0,0,0,0,0,0l0,0c0,0,0,0,0,0l0,0c0,0,0,0,0,0l0,0c0,0,0,0,0,0l1.3,0.7l0.5-0.9L86.7,233.4L86.7,233.4z
		 M90.2,235.4l-0.5,0.9c0,0,0.1,0.1,0.3,0.2l0,0c0,0,0,0,0,0l0,0c0,0,0,0,0,0l0,0c0,0,0,0,0,0l0,0c0,0,0,0,0,0l0,0c0,0,0,0,0,0l0,0
		c0,0,0,0,0,0l1.3,0.8l0.5-0.9L90.2,235.4L90.2,235.4z M93.7,237.4l-0.5,0.9c0,0,0.1,0.1,0.3,0.2l0,0c0,0,0,0,0,0l0,0c0,0,0,0,0,0
		l0,0c0,0,0,0,0,0l0,0c0,0,0,0,0,0l0,0c0,0,0,0,0,0l0,0c0,0,0,0,0,0l1.4,0.8l0.5-0.9L93.7,237.4L93.7,237.4z M97.1,239.4l-0.5,0.9
		c0,0,0.1,0,0.2,0.1l0,0c0,0,0,0,0,0l0,0c0,0,0,0,0,0l0,0c0,0,0,0,0,0l0,0c0,0,0,0,0,0l0,0c0,0,0,0,0,0l0,0l0,0l0,0c0,0,0,0,0,0
		l1.4,0.8l0.5-0.9L97.1,239.4L97.1,239.4z M100.6,241.4l-0.5,0.9l1.7,1l0.5-0.9L100.6,241.4L100.6,241.4z M104,243.4l-0.5,0.9l1.7,1
		l0.5-0.9L104,243.4L104,243.4z M107.5,245.4l-0.5,0.9l0,0c0,0,1.7,1,1.7,1l0.5-0.9L107.5,245.4L107.5,245.4z M111,247.4l-0.5,0.9
		l0,0c0,0,0,0,0,0l0,0c0,0,0,0,0,0l0,0c0,0,0,0,0,0l0,0c0,0,0,0,0,0l0,0c0,0,0,0,0,0h0c0,0,0,0,0,0l0,0c0,0,0,0,0,0h0c0,0,0,0,0,0
		l0,0c0,0,0,0,0,0l0,0c0,0,0,0,0,0l0,0c0.2,0.1,1.7,1,1.7,1l0.5-0.9L111,247.4L111,247.4z M114.4,249.4l-0.5,0.9l0,0h0l0,0
		c0,0,0,0,0,0l0,0c0,0,0,0,0,0l0,0c0,0,0,0,0,0l0,0c0,0,0,0,0,0l0,0c0,0,0,0,0,0l0,0c0,0,0,0,0,0l0,0c0,0,0,0,0,0l0,0c0,0,0,0,0,0
		l0,0c0,0,0,0,0,0l0,0c0,0,0,0,0,0l0,0c0,0,0,0,0,0l0,0c0,0,0,0,0,0h0c0,0,0,0,0,0l0,0c0,0,0,0,0,0l0,0c0,0,0,0,0,0l0,0
		c0.3,0.2,1.7,1,1.7,1l0.5-0.9L114.4,249.4L114.4,249.4z M117.9,251.4l-0.5,0.9l0,0h0l0,0c0,0,0,0,0,0l0,0h0l0,0c0,0,0,0,0,0l0,0
		c0,0,0,0,0,0l0,0c0,0,0,0,0,0l0,0c0,0,0,0,0,0l0,0c0,0,0,0,0,0l0,0c0,0,0,0,0,0l0,0c0,0,0,0,0,0l0,0c0,0,0,0,0,0l0,0
		c0.4,0.2,1.6,0.9,1.6,0.9l0.5-0.9L117.9,251.4L117.9,251.4z M121.4,253.4l-0.5,0.9l0.1,0.1c0,0,0,0,0,0l0,0c0,0,0,0,0,0l0,0
		c0,0,0,0,0,0l0,0c0,0,0,0,0,0l0,0c0,0,0,0,0,0l0,0c0,0,0,0,0,0l0,0c0,0,0,0,0,0l0,0c0,0,0,0,0,0l0,0h0l0,0c0,0,0,0,0,0l0,0
		c0,0,0,0,0,0l0,0c0.4,0.3,1.6,0.9,1.6,0.9l0.5-0.9L121.4,253.4L121.4,253.4z M124.8,255.4l-0.5,0.9l0.7,0.4c0,0,0,0,0,0l0,0
		c0,0,0,0,0,0l0,0c0,0,0,0,0,0l0,0c0,0,0,0,0,0l0,0c0,0,0,0,0,0l0,0c0,0,0,0,0,0l0,0c0,0,0,0,0,0l0,0c0,0,0,0,0,0l0,0c0,0,0,0,0,0
		l0,0c0,0,0,0,0,0l0,0c0,0,0,0,0,0l0,0c0,0,0,0,0,0l0,0c0,0,0,0,0,0l0,0c0,0,0,0,0,0l0,0c0,0,0,0,0,0l0,0c0,0,0,0,0,0l0,0
		c0,0,0,0,0,0l0,0c0,0,0,0,0,0l0,0c0,0,0,0,0,0l0,0c0,0,0,0,0.1,0l0,0c0,0,0,0,0,0l0,0c0,0,0,0,0,0l0,0c0,0,0,0,0,0l0,0c0,0,0,0,0,0
		l0,0c0,0,0,0,0,0l0,0c0,0,0,0,0,0l0,0c0,0,0,0,0,0l0.6-0.4l-0.2-0.4l0-0.1l0,0l0,0l0,0l-0.1-0.1l-0.2-0.3l-0.2,0.1L124.8,255.4
		L124.8,255.4z M129,253.6l-1.7,1l0.5,0.9c0,0,0.1-0.1,0.3-0.2l0,0c0,0,0,0,0,0l0,0c0,0,0,0,0,0l0,0c0,0,0,0,0,0l0,0c0,0,0,0,0,0
		l0,0c0,0,0,0,0,0l1.3-0.8L129,253.6L129,253.6z M132.5,251.6l-1.7,1l0.5,0.9c0,0,0.1-0.1,0.3-0.1l0,0c0,0,0,0,0,0l0,0c0,0,0,0,0,0
		l0,0c0,0,0,0,0,0l0,0c0,0,0,0,0,0l0,0c0,0,0,0,0,0l0,0c0,0,0,0,0,0l0,0c0,0,0,0,0,0l0,0c0,0,0,0,0,0l0,0c0,0,0,0,0,0l0,0
		c0,0,0,0,0,0l1.4-0.8L132.5,251.6L132.5,251.6z M136,249.6l-1.7,1l0.5,0.9c0,0,0.1,0,0.2-0.1l0,0c0,0,0,0,0,0l0,0c0,0,0,0,0,0l0,0
		c0,0,0,0,0,0l0,0c0,0,0,0,0,0l0,0c0,0,0,0,0,0l1.4-0.8L136,249.6L136,249.6z M139.4,247.6l-1.7,1l0.5,0.9c0,0,0.1,0,0.2-0.1l0,0
		c0,0,0,0,0,0l0,0c0,0,0,0,0,0l0,0c0,0,0,0,0,0l0,0c0,0,0,0,0,0l0,0c0,0,0,0,0,0l0,0c0,0,0,0,0,0l0,0c0,0,0,0,0,0l1.5-0.9
		L139.4,247.6L139.4,247.6z M142.9,245.6l-1.7,1l0.5,0.9c0,0,0.1,0,0.1-0.1l0,0c0,0,0,0,0,0l0,0c0,0,0,0,0,0l0,0c0,0,0,0,0,0l0,0
		c0,0,0,0,0,0l0,0c0,0,0,0,0,0l0,0c0,0,0,0,0,0l0,0c0,0,0,0,0,0l0,0c0,0,0,0,0,0l0,0c0,0,0,0,0,0l0,0c0,0,0,0,0,0l0,0c0,0,0,0,0,0
		l1.5-0.9L142.9,245.6L142.9,245.6z M146.3,243.6l-1.7,1l0.5,0.9c0,0,0,0,0.1,0l0,0c0,0,0,0,0,0l0,0c0,0,0,0,0,0l0,0c0,0,0,0,0,0
		l0,0c0,0,0,0,0,0l0,0c0,0,0,0,0,0l0,0c0,0,0,0,0,0l0,0c0,0,0,0,0,0l0,0c0,0,0,0,0,0l0,0c0,0,0,0,0,0l0,0c0,0,0,0,0,0l0,0
		c0,0,0,0,0,0l1.6-0.9L146.3,243.6L146.3,243.6z M149.8,241.6l-1.7,1l0.5,0.9l1.7-1L149.8,241.6L149.8,241.6z M153.3,239.6l-1.7,1
		l0.5,0.9l1.7-1L153.3,239.6L153.3,239.6z M156.7,237.6l-1.7,1l0.5,0.9l1.7-1L156.7,237.6L156.7,237.6z M160.2,235.6l-1.7,1l0.5,0.9
		l1.7-1L160.2,235.6L160.2,235.6z M163.7,233.6l-1.7,1l0.5,0.9l1.7-1L163.7,233.6L163.7,233.6z M167.1,231.6l-1.7,1l0.5,0.9l1.7-1
		L167.1,231.6L167.1,231.6z M170.6,229.6l-1.7,1l0.5,0.9l1.7-1L170.6,229.6L170.6,229.6z M174.1,227.6l-1.7,1l0.5,0.9l1.7-1
		L174.1,227.6L174.1,227.6z M177.5,225.6l-1.7,1l0.5,0.9l1.7-1L177.5,225.6L177.5,225.6z M181,223.6l-1.7,1l0.5,0.9l1.7-1L181,223.6
		L181,223.6z M184.5,221.6l-1.7,1l0.5,0.9l1.7-1L184.5,221.6L184.5,221.6z M187.9,219.6l-1.7,1l0.5,0.9l1.7-1L187.9,219.6
		L187.9,219.6z M191.4,217.6l-1.7,1l0.5,0.9l1.7-1L191.4,217.6L191.4,217.6z M194.8,215.6l-1.7,1l0.5,0.9l1.7-1L194.8,215.6
		L194.8,215.6z M198.3,213.6l-1.7,1l0.5,0.9l1.7-1L198.3,213.6L198.3,213.6z M201.8,211.6l-1.7,1l0.5,0.9l1.7-1L201.8,211.6
		L201.8,211.6z M205.2,209.6l-1.7,1l0.5,0.9c0,0,1.5-0.9,1.7-1l0,0c0,0,0,0,0,0l0,0c0,0,0,0,0,0l0,0c0,0,0,0,0,0h0c0,0,0,0,0,0h0
		l0,0h0L205.2,209.6L205.2,209.6z M208.7,207.6l-1.7,1l0.5,0.9c0,0,1.3-0.8,1.7-1l0,0c0,0,0,0,0,0l0,0c0,0,0,0,0,0l0,0c0,0,0,0,0,0
		l0,0c0,0,0,0,0,0l0,0c0,0,0,0,0,0l0,0c0,0,0,0,0,0l0,0c0,0,0,0,0,0l0,0c0,0,0,0,0,0l0,0c0,0,0,0,0,0l0,0c0,0,0,0,0,0l0,0
		c0,0,0,0,0,0l0,0c0,0,0,0,0,0l0,0c0,0,0,0,0,0l0,0c0,0,0,0,0,0l0,0c0,0,0,0,0,0l0,0c0,0,0,0,0,0l0,0c0,0,0,0,0,0l0,0c0,0,0,0,0,0
		l0,0c0,0,0,0,0,0l0,0c0,0,0,0,0,0l0,0l0,0l0,0L208.7,207.6L208.7,207.6z M212.2,205.6l-1.7,1l0.5,0.9c0,0,1.3-0.7,1.6-0.9h0
		c0,0,0,0,0,0l0,0c0,0,0,0,0,0l0,0c0,0,0,0,0,0l0,0c0,0,0,0,0,0l0,0c0,0,0,0,0,0l0,0c0,0,0,0,0,0l0,0c0,0,0,0,0,0l0,0c0,0,0,0,0,0
		l0,0c0,0,0,0,0,0l0,0c0,0,0,0,0,0l0,0c0,0,0,0,0,0l0,0c0,0,0,0,0,0l0,0c0,0,0,0,0,0l0,0c0,0,0,0,0,0l0,0c0,0,0,0,0,0l0,0
		c0,0,0,0,0,0l0,0c0,0,0,0,0,0l0,0c0,0,0,0,0,0l0,0L212.2,205.6L212.2,205.6z M215.6,203.6l-1.7,1l0.5,0.9c0,0,1.1-0.7,1.6-0.9l0,0
		c0,0,0,0,0,0l0,0c0,0,0,0,0,0l0,0c0,0,0,0,0,0l0,0c0,0,0,0,0,0l0,0c0,0,0,0,0,0l0,0c0,0,0,0,0,0l0,0c0,0,0,0,0,0l0,0c0,0,0,0,0,0
		l0,0c0,0,0,0,0,0l0.1-0.1L215.6,203.6L215.6,203.6z M219.1,201.6l-1.7,1l0.5,0.9c0,0,1.1-0.6,1.6-0.9l0,0c0,0,0,0,0,0l0,0
		c0,0,0,0,0,0l0,0c0,0,0,0,0,0l0,0c0,0,0,0,0,0l0,0c0,0,0,0,0,0l0,0c0,0,0,0,0,0l0,0c0,0,0,0,0,0l0,0c0,0,0,0,0,0l0,0c0,0,0,0,0,0
		l0,0c0,0,0,0,0,0l0,0c0,0,0,0,0,0l0.1-0.1L219.1,201.6L219.1,201.6z M222.6,199.6l-1.7,1l0.5,0.9c0,0,1-0.6,1.5-0.8l0,0
		c0,0,0,0,0,0l0,0c0,0,0,0,0,0l0,0c0,0,0,0,0,0l0,0c0,0,0,0,0,0l0,0c0,0,0,0,0,0l0,0c0,0,0,0,0,0l0,0c0,0,0,0,0,0l0,0c0,0,0,0,0,0
		l0,0c0,0,0,0,0,0l0,0c0,0,0,0,0,0l0,0c0,0,0,0,0,0l0.1-0.1L222.6,199.6L222.6,199.6z M226,197.6l-1.7,1l0.5,0.9c0,0,1-0.6,1.4-0.8
		l0,0c0,0,0,0,0,0l0,0c0,0,0,0,0,0l0,0c0,0,0,0,0,0l0,0c0,0,0,0,0,0l0,0c0,0,0,0,0,0l0,0c0,0,0,0,0,0l0,0c0,0,0,0,0,0l0,0
		c0,0,0,0,0,0l0,0c0,0,0,0,0,0l0,0c0,0,0,0,0,0l0,0l0,0l0.2-0.1L226,197.6L226,197.6z M229.5,195.6l-1.7,1l0.5,0.9
		c0,0,0.9-0.5,1.4-0.8l0,0c0,0,0,0,0,0l0,0c0,0,0,0,0,0l0,0c0,0,0,0,0,0l0,0c0,0,0,0,0,0l0,0c0,0,0,0,0,0l0,0c0,0,0,0,0,0l0.3-0.2
		L229.5,195.6L229.5,195.6z M232.9,193.6l-1.7,1l0.5,0.9c0,0,0.8-0.5,1.3-0.8l0,0c0,0,0,0,0,0l0,0c0,0,0,0,0,0l0,0c0,0,0,0,0,0l0,0
		c0,0,0,0,0,0l0.3-0.2L232.9,193.6L232.9,193.6z M235.4,191.6h-1v1.7h0.7l0,0h-0.7h0.7l0.1,0.1l0.2-0.1l0,0l0,0l0,0l0,0l0,0l0,0l0,0
		l0,0l0,0l0,0l0,0l0,0l0,0V191.6L235.4,191.6z M235.4,187.6h-1v2h1V187.6L235.4,187.6z M235.4,183.6h-1v2h1V183.6L235.4,183.6z
		 M235.4,179.6h-1v2h1V179.6L235.4,179.6z M235.4,175.6h-1v2h1V175.6L235.4,175.6z M235.4,171.6h-1v2h1V171.6L235.4,171.6z
		 M235.4,167.6h-1v2h1V167.6L235.4,167.6z M235.4,163.6h-1v2h1V163.6L235.4,163.6z M235.4,159.6h-1v2h1V159.6L235.4,159.6z
		 M235.4,155.6h-1v2h1V155.6L235.4,155.6z M235.4,151.6h-1v2h1V151.6L235.4,151.6z M235.4,147.6h-1v2h1V147.6L235.4,147.6z
		 M235.4,143.6h-1v2h1V143.6L235.4,143.6z M235.4,139.6h-1v2h1V139.6L235.4,139.6z M235.4,135.6h-1v2h1V135.6L235.4,135.6z
		 M235.4,131.6h-1v2h1V131.6L235.4,131.6z M235.4,127.6h-1v2h1V127.6L235.4,127.6z M235.4,123.6h-1v2h1V123.6L235.4,123.6z
		 M235.4,119.6h-1v2h1V119.6L235.4,119.6z M235.4,115.6h-1v2h1V115.6L235.4,115.6z M235.4,111.6h-1v2h1V111.6L235.4,111.6z
		 M235.4,107.6h-1v2h1V107.6L235.4,107.6z M235.4,103.6h-1v2h1V103.6L235.4,103.6z M235.4,99.6h-1v2h1V99.6L235.4,99.6z M235.4,95.6
		h-1v2h1V95.6L235.4,95.6z M235.4,91.6h-1v2h1V91.6L235.4,91.6z M235.4,87.6h-1v2h1V87.6L235.4,87.6z M235.4,83.6h-1v2h1V83.6
		L235.4,83.6z M235.4,79.6h-1v2h1V79.6L235.4,79.6z M235.4,75.6h-1v2h1V75.6L235.4,75.6z M235.4,71.6h-1v2h1V71.6L235.4,71.6z
		 M235.4,67.6h-1v2h1V67.6L235.4,67.6z M233.1,65l-0.5,0.9l1.7,1l0.5-0.9c0,0-0.7-0.4-1.2-0.7l0,0c0,0,0,0-0.1,0l0,0c0,0,0,0,0,0
		l0,0c0,0,0,0,0,0l0,0c0,0,0,0,0,0l0,0c0,0,0,0,0,0L233.1,65L233.1,65z M229.7,63l-0.5,0.9l1.7,1l0.5-0.9c0,0-0.6-0.4-1.1-0.6l0,0
		c0,0,0,0,0,0l0,0c0,0,0,0,0,0l0,0c0,0,0,0,0,0L229.7,63L229.7,63z M226.2,61l-0.5,0.9l1.7,1l0.5-0.9c0,0-0.5-0.3-0.9-0.5l0,0
		c0,0,0,0,0,0l0,0c0,0,0,0,0,0l0,0c0,0,0,0,0,0l0,0c0,0,0,0,0,0l0,0c0,0,0,0,0,0l0,0c0,0,0,0,0,0L226.2,61L226.2,61z M222.7,59
		l-0.5,0.9l1.7,1l0.5-0.9c0,0-0.4-0.2-0.8-0.5l0,0c0,0,0,0,0,0l0,0c0,0,0,0,0,0l0,0c0,0,0,0,0,0L222.7,59L222.7,59z M219.3,57
		l-0.5,0.9l1.7,1L221,58c0,0-0.3-0.2-0.7-0.4l0,0c0,0,0,0,0,0l0,0c0,0,0,0,0,0l0,0c0,0,0,0,0,0l0,0c0,0,0,0,0,0L219.3,57L219.3,57z
		 M215.8,55l-0.5,0.9l1.7,1l0.5-0.9c0,0-0.2-0.1-0.5-0.3l0,0c0,0,0,0,0,0l0,0c0,0,0,0,0,0l0,0c0,0,0,0,0,0l0,0c0,0,0,0,0,0l0,0
		c0,0,0,0,0,0l0,0c0,0,0,0,0,0l0,0c0,0,0,0,0,0l0,0c0,0,0,0,0,0L215.8,55L215.8,55z M212.3,53l-0.5,0.9l1.7,1l0.5-0.9
		c0,0-0.2-0.1-0.4-0.2l0,0c0,0,0,0,0,0l0,0c0,0,0,0,0,0l0,0c0,0,0,0,0,0l0,0c0,0,0,0,0,0l0,0c0,0,0,0,0,0L212.3,53L212.3,53z
		 M208.9,51l-0.5,0.9l1.7,1l0.5-0.9c0,0-0.1-0.1-0.3-0.2l0,0c0,0,0,0,0,0l0,0c0,0,0,0,0,0l0,0c0,0,0,0,0,0l0,0c0,0,0,0,0,0l0,0
		c0,0,0,0,0,0l0,0c0,0,0,0,0,0l0,0c0,0,0,0,0,0l0,0c0,0,0,0,0,0L208.9,51L208.9,51z M205.4,49l-0.5,0.9l1.7,1l0.5-0.9L205.4,49
		L205.4,49z M201.9,47l-0.5,0.9l1.7,1l0.5-0.9l0,0c0,0,0,0,0,0l0,0c0,0,0,0,0,0l0,0c0,0,0,0,0,0l0,0c0,0,0,0,0,0l0,0
		C203.5,47.8,201.9,47,201.9,47L201.9,47z M198.5,45l-0.5,0.9l1.7,1l0.5-0.9l0,0c0,0,0,0,0,0l0,0c0,0,0,0,0,0l0,0c0,0,0,0,0,0l0,0
		c0,0,0,0,0,0l0,0c0,0,0,0,0,0l0,0c0,0,0,0,0,0l0,0c0,0,0,0,0,0l0,0c0,0,0,0,0,0l0,0c0,0,0,0,0,0l0,0c0,0,0,0,0,0l0,0c0,0,0,0,0,0
		l0,0c0,0,0,0,0,0l0,0C199.6,45.6,198.5,45,198.5,45L198.5,45z M195,43l-0.5,0.9l1.7,1l0.5-0.9l-0.2-0.1c0,0,0,0,0,0l0,0
		c0,0,0,0,0,0l0,0c0,0,0,0,0,0l0,0c0,0,0,0,0,0l0,0c0,0,0,0,0,0l0,0c0,0,0,0,0,0l0,0c0,0,0,0,0,0l0,0c0,0,0,0,0,0l0,0c0,0,0,0,0,0
		l0,0c0,0,0,0,0,0l0,0c0,0,0,0,0,0l0,0c0,0,0,0,0,0l0,0c0,0,0,0,0,0l0,0c0,0,0,0,0,0l0,0c0,0,0,0,0,0l0,0c0,0,0,0,0,0l0,0
		c0,0,0,0,0,0l0,0C196,43.5,195,43,195,43L195,43z M191.5,41l-0.5,0.9l1.7,1l0.5-0.9l-0.3-0.2c0,0,0,0,0,0l0,0c0,0,0,0,0,0l0,0
		c0,0,0,0,0,0l0,0c0,0,0,0,0,0l0,0c0,0,0,0,0,0l0,0C192.4,41.4,191.5,41,191.5,41L191.5,41z M188.1,39l-0.5,0.9l1.7,1l0.5-0.9
		l-0.5-0.3c0,0,0,0,0,0l0,0c0,0,0,0,0,0l0,0c0,0,0,0,0,0l0,0c0,0,0,0,0,0l0,0c0,0,0,0,0,0l0,0C188.8,39.4,188.1,39,188.1,39
		L188.1,39z M184.6,37l-0.5,0.9l1.7,1l0.5-0.9l-0.6-0.4c0,0,0,0,0,0l0,0c0,0,0,0,0,0l0,0c0,0,0,0,0,0l0,0c0,0,0,0,0,0l0,0
		c0,0,0,0,0,0l0,0c0,0,0,0,0,0l0,0c0,0,0,0,0,0l0,0c0,0,0,0,0,0l0,0C185.2,37.3,184.6,37,184.6,37L184.6,37z M181.2,35l-0.5,0.9
		l1.7,1l0.5-0.9l-0.8-0.5c0,0,0,0,0,0l0,0c0,0,0,0,0,0l0,0c0,0,0,0,0,0l0,0c0,0,0,0,0,0l0,0c0,0,0,0,0,0l0,0c0,0,0,0,0,0l0,0
		C181.6,35.2,181.2,35,181.2,35L181.2,35z M177.7,33l-0.5,0.9l1.7,1l0.5-0.9l-0.9-0.5c0,0,0,0,0,0l0,0c0,0,0,0,0,0l0,0l0,0l0,0
		c0,0,0,0,0,0l0,0c0,0,0,0,0,0l0,0c0,0,0,0,0,0l0,0C178,33.2,177.7,33,177.7,33L177.7,33z M174.2,31l-0.5,0.9l1.7,1L176,32l-1-0.6
		c0,0,0,0,0,0l0,0c0,0,0,0,0,0l0,0c0,0,0,0,0,0h0c0,0,0,0,0,0l0,0c0,0,0,0,0,0l0,0c0,0,0,0,0,0l0,0c0,0,0,0,0,0l0,0c0,0,0,0,0,0l0,0
		C174.5,31.1,174.2,31,174.2,31L174.2,31z M170.8,29l-0.5,0.9l1.7,1l0.5-0.9l-1.2-0.7c0,0,0,0,0,0l0,0c0,0,0,0,0,0l0,0c0,0,0,0,0,0
		l0,0c0,0,0,0,0,0l0,0c0,0,0,0,0,0l0,0c0,0,0,0,0,0l0,0C171,29.1,170.8,29,170.8,29L170.8,29z M167.3,27l-0.5,0.9l1.7,1L169,28
		l-1.4-0.8c0,0,0,0,0,0l0,0c0,0,0,0,0,0l0,0c0,0,0,0,0,0l0,0c0,0,0,0,0,0l0,0c0,0,0,0,0,0l0,0c0,0,0,0,0,0l0,0c0,0,0,0,0,0l0,0
		c0,0,0,0,0,0l0,0c0,0,0,0,0,0l0,0C167.4,27,167.3,27,167.3,27L167.3,27z M163.8,25l-0.5,0.9l1.7,1l0.5-0.9L163.8,25L163.8,25z
		 M160.4,23l-0.5,0.9l1.7,1l0.5-0.9C162.1,24,160.4,23,160.4,23L160.4,23L160.4,23z M156.9,21l-0.5,0.9l1.7,1l0.5-0.9
		c0,0-1.2-0.7-1.6-0.9l0,0C157,21,157,21,156.9,21L156.9,21C157,21,157,21,156.9,21L156.9,21C157,21,157,21,156.9,21L156.9,21
		C157,21,157,21,156.9,21L156.9,21C157,21,157,21,156.9,21L156.9,21C157,21,157,21,156.9,21L156.9,21C157,21,157,21,156.9,21
		L156.9,21C157,21,157,21,156.9,21L156.9,21C156.9,21,156.9,21,156.9,21L156.9,21C156.9,21,156.9,21,156.9,21L156.9,21L156.9,21z
		 M153.4,19l-0.5,0.9l1.7,1l0.5-0.9c0,0-1-0.6-1.5-0.8l0,0c0,0,0,0,0,0l0,0c0,0,0,0,0,0l0,0c0,0,0,0,0,0l0,0c0,0,0,0,0,0l0,0
		c0,0,0,0,0,0l0,0c0,0,0,0,0,0l0,0c0,0,0,0,0,0l0,0c0,0,0,0,0,0l0,0c0,0,0,0,0,0L153.4,19L153.4,19z M150,17l-0.5,0.9l1.7,1l0.5-0.9
		c0,0-0.8-0.5-1.3-0.8l0,0c0,0,0,0,0,0l0,0c0,0,0,0,0,0l0,0c0,0,0,0,0,0l0,0c0,0,0,0,0,0l0,0c0,0,0,0,0,0l0,0c0,0,0,0,0,0L150,17
		L150,17z M146.5,15l-0.5,0.9l1.7,1l0.5-0.9c0,0-0.7-0.4-1.2-0.7l0,0c0,0,0,0,0,0l0,0c0,0,0,0,0,0l0,0c0,0,0,0,0,0l0,0c0,0,0,0,0,0
		l0,0c0,0,0,0,0,0l0,0c0,0,0,0,0,0l0,0c0,0,0,0,0,0L146.5,15L146.5,15z M143.1,13l-0.5,0.9l1.7,1l0.5-0.9c0,0-0.6-0.4-1.1-0.6l0,0
		c0,0,0,0,0,0l0,0c0,0,0,0,0,0l0,0c0,0,0,0,0,0l0,0c0,0,0,0,0,0L143.1,13L143.1,13z M139.6,11l-0.5,0.9l1.7,1l0.5-0.9
		c0,0-0.5-0.3-0.9-0.5l0,0c0,0,0,0,0,0l0,0c0,0,0,0,0,0L139.6,11L139.6,11z M136.1,9l-0.5,0.9l1.7,1l0.5-0.9c0,0-0.4-0.2-0.8-0.5
		l0,0c0,0,0,0,0,0l0,0c0,0,0,0,0,0l0,0c0,0,0,0,0,0L136.1,9L136.1,9z M132.7,7l-0.5,0.9l1.7,1l0.5-0.9c0,0-0.3-0.2-0.7-0.4l0,0
		c0,0,0,0,0,0l0,0c0,0,0,0,0,0l0,0c0,0,0,0,0,0l0,0c0,0,0,0,0,0l0,0c0,0,0,0,0,0L132.7,7L132.7,7z M129.2,5l-0.5,0.9l1.7,1l0.5-0.9
		L129.2,5L129.2,5z"/>
	<path class="st0" d="M199.2,215.4l-1.4-0.8l0.4-0.8v-0.5h1V215.4z M196.1,213.6l-1.7-1l0.5-0.9l1.7,1L196.1,213.6z M192.6,211.6
		l-1.7-1l0.5-0.9l1.7,1L192.6,211.6z M199.2,211.3h-1v-2h1V211.3z M189.1,209.6l-1.7-1l0.5-0.9l1.7,1L189.1,209.6z M185.7,207.6
		l-1.7-1l0.5-0.9l1.7,1L185.7,207.6z M199.2,207.3h-1v-2h1V207.3z M182.2,205.6l-1.7-1l0.5-0.9l1.7,1L182.2,205.6z M178.7,203.6
		l-1.7-1l0.5-0.9l1.7,1L178.7,203.6z M199.2,203.3h-1v-2h1V203.3z M175.3,201.6l-1.7-1l0.5-0.9l1.7,1L175.3,201.6z M171.8,199.6
		l-1.7-1l0.5-0.9l1.7,1L171.8,199.6z M199.2,199.3h-1v-2h1V199.3z M168.4,197.6l-1.7-1l0.5-0.9l1.7,1L168.4,197.6z M164.9,195.6
		l-1.7-1l0.5-0.9l1.7,1L164.9,195.6z M199.2,195.3h-1v-2h1V195.3z M161.4,193.6l-1.7-1l0.5-0.9l1.7,1L161.4,193.6z M158,191.6
		l-1.7-1l0.5-0.9l1.7,1L158,191.6z M199.2,191.3h-1v-2h1V191.3z M154.5,189.6l-1.7-1l0.5-0.9l1.7,1L154.5,189.6z M151,187.6l-1.7-1
		l0.5-0.9l1.7,1L151,187.6z M199.2,187.3h-1v-2h1V187.3z M147.6,185.6l-1.7-1l0.5-0.9l1.7,1L147.6,185.6z M144.1,183.6l-1.7-1
		l0.5-0.9l1.7,1L144.1,183.6z M199.2,183.3h-1v-2h1V183.3z M140.6,181.6l-1.7-1l0.5-0.9l1.7,1L140.6,181.6z M137.2,179.6l-1.7-1
		l0.5-0.9l1.7,1L137.2,179.6z M199.2,179.3h-1v-2h1V179.3z M133.7,177.6l-1.7-1l0.5-0.9l1.7,1L133.7,177.6z M130.3,175.6l-1.7-1
		l0.5-0.9l1.7,1L130.3,175.6z M199.2,175.3h-1v-2h1V175.3z M126.8,173.6l-1.7-1l0.5-0.9l1.7,1L126.8,173.6z M123.3,171.6l-1.7-1
		l0.5-0.9l1.7,1L123.3,171.6z M199.2,171.3h-1v-2h1V171.3z M119.9,169.6l-1.7-1l0.5-0.9l1.7,1L119.9,169.6z M116.4,167.6l-1.7-1
		l0.5-0.9l1.7,1L116.4,167.6z M199.2,167.3h-1v-2h1V167.3z M112.9,165.6l-1.7-1l0.5-0.9l1.7,1L112.9,165.6z M109.5,163.6l-1.7-1
		l0.5-0.9l1.7,1L109.5,163.6z M199.2,163.3h-1v-2h1V163.3z M106,161.6l-1.7-1l0.5-0.9l1.7,1L106,161.6z M102.5,159.6l-1.7-1l0.5-0.9
		l1.7,1L102.5,159.6z M199.2,159.3h-1v-2h1V159.3z M99.1,157.6l-1.7-1l0.5-0.9l1.7,1L99.1,157.6z M95.6,155.6l-1.7-1l0.5-0.9l1.7,1
		L95.6,155.6z M199.2,155.3h-1v-2h1V155.3z M92.1,153.6l-1.7-1l0.5-0.9l1.7,1L92.1,153.6z M88.7,151.6l-1.7-1l0.5-0.9l1.7,1
		L88.7,151.6z M15.6,151.4l-0.5-0.9l1.7-1l0.5,0.9L15.6,151.4z M199.2,151.3h-1v-2h1V151.3z M85.2,149.6l-1.7-1l0.5-0.9l1.7,1
		L85.2,149.6z M19,149.4l-0.5-0.9l1.7-1l0.5,0.9L19,149.4z M81.8,147.6l-1.7-1l0.5-0.9l1.7,1L81.8,147.6z M22.5,147.4l-0.5-0.9
		l1.7-1l0.5,0.9L22.5,147.4z M199.2,147.3h-1v-2h1V147.3z M78.3,145.6l-1.7-1l0.5-0.9l1.7,1L78.3,145.6z M26,145.4l-0.5-0.9l1.7-1
		l0.5,0.9L26,145.4z M74.8,143.6l-1.7-1l0.5-0.9l1.7,1L74.8,143.6z M29.4,143.4l-0.5-0.9l1.7-1l0.5,0.9L29.4,143.4z M199.2,143.3h-1
		v-2h1V143.3z M71.4,141.6l-1.7-1l0.5-0.9l1.7,1L71.4,141.6z M32.9,141.4l-0.5-0.9l1.7-1l0.5,0.9L32.9,141.4z M67.9,139.6l-1.7-1
		l0.5-0.9l1.7,1L67.9,139.6z M36.4,139.4l-0.5-0.9l1.7-1l0.5,0.9L36.4,139.4z M199.2,139.3h-1v-2h1V139.3z M64.4,137.6l-1.7-1
		l0.5-0.9l1.7,1L64.4,137.6z M39.8,137.4l-0.5-0.9l1.7-1l0.5,0.9L39.8,137.4z M61,135.6l-1.7-1l0.5-0.9l1.7,1L61,135.6z M43.3,135.4
		l-0.5-0.9l1.7-1l0.5,0.9L43.3,135.4z M199.2,135.3h-1v-2h1V135.3z M57.5,133.6l-1.7-1l0.5-0.9l1.7,1L57.5,133.6z M46.8,133.4
		l-0.5-0.9l1.7-1l0.5,0.9L46.8,133.4z M54,131.6l-1.7-1l0.5-0.9l1.7,1L54,131.6z M50.2,131.4l-0.5-0.9l1.7-1l0.5,0.9L50.2,131.4z
		 M199.2,131.3h-1v-2h1V131.3z M50.6,129.6l-1.7-1l0.5-0.9l1.7,1L50.6,129.6z M53.7,129.4l-0.5-0.9l1.7-1l0.5,0.9L53.7,129.4z
		 M47.1,127.6l-1.7-1l0.5-0.9l1.7,1L47.1,127.6z M57.1,127.4l-0.5-0.9l1.7-1l0.5,0.9L57.1,127.4z M199.2,127.3h-1v-2h1V127.3z
		 M43.6,125.6l-1.7-1l0.5-0.9l1.7,1L43.6,125.6z M60.6,125.4l-0.5-0.9l1.7-1l0.5,0.9L60.6,125.4z M40.2,123.6l-1.7-1l0.5-0.9l1.7,1
		L40.2,123.6z M64.1,123.4l-0.5-0.9l1.7-1l0.5,0.9L64.1,123.4z M199.2,123.3h-1v-2h1V123.3z M36.7,121.6l-1.7-1l0.5-0.9l1.7,1
		L36.7,121.6z M67.5,121.4l-0.5-0.9l1.7-1l0.5,0.9L67.5,121.4z M33.3,119.6l-1.7-1l0.5-0.9l1.7,1L33.3,119.6z M71,119.4l-0.5-0.9
		l1.7-1l0.5,0.9L71,119.4z M199.2,119.3h-1v-2h1V119.3z M29.8,117.6l-1.7-1l0.5-0.9l1.7,1L29.8,117.6z M74.5,117.4l-0.5-0.9l1.7-1
		l0.5,0.9L74.5,117.4z M26.3,115.6l-1.7-1l0.5-0.9l1.7,1L26.3,115.6z M77.9,115.4l-0.5-0.9l1.7-1l0.5,0.9L77.9,115.4z M199.2,115.3
		h-1v-2h1V115.3z M22.9,113.6l-1.7-1l0.5-0.9l1.7,1L22.9,113.6z M81.4,113.4l-0.5-0.9l1.7-1l0.5,0.9L81.4,113.4z M19.4,111.6l-1.7-1
		l0.5-0.9l1.7,1L19.4,111.6z M84.9,111.4l-0.5-0.9l1.7-1l0.5,0.9L84.9,111.4z M199.2,111.3h-1v-2h1V111.3z M15.9,109.6l-0.9-0.5
		l0.5-0.9l0.9,0.5L15.9,109.6z M88.3,109.4l-0.5-0.9l1.7-1l0.5,0.9L88.3,109.4z M91.8,107.4l-0.5-0.9l1.7-1l0.5,0.9L91.8,107.4z
		 M199.2,107.3h-1v-2h1V107.3z M95.3,105.4l-0.5-0.9l1.7-1l0.5,0.9L95.3,105.4z M98.7,103.4l-0.5-0.9l1.7-1l0.5,0.9L98.7,103.4z
		 M199.2,103.3h-1v-2h1V103.3z M102.2,101.4l-0.5-0.9l1.7-1l0.5,0.9L102.2,101.4z M105.6,99.4l-0.5-0.9l1.7-1l0.5,0.9L105.6,99.4z
		 M199.2,99.3h-1v-2h1V99.3z M109.1,97.4l-0.5-0.9l1.7-1l0.5,0.9L109.1,97.4z M112.6,95.4l-0.5-0.9l1.7-1l0.5,0.9L112.6,95.4z
		 M199.2,95.3h-1v-2h1V95.3z M116,93.4l-0.5-0.9l1.7-1l0.5,0.9L116,93.4z M119.5,91.4l-0.5-0.9l1.7-1l0.5,0.9L119.5,91.4z
		 M199.2,91.3h-1v-2h1V91.3z M123,89.4l-0.5-0.9l1.7-1l0.5,0.9L123,89.4z M126.4,87.4l-0.5-0.9l1.7-1l0.5,0.9L126.4,87.4z
		 M199.2,87.3h-1v-2h1V87.3z M129.9,85.4l-0.5-0.9l1.7-1l0.5,0.9L129.9,85.4z M133.4,83.4l-0.5-0.9l1.7-1l0.5,0.9L133.4,83.4z
		 M199.2,83.3h-1v-2h1V83.3z M136.8,81.4l-0.5-0.9l1.7-1l0.5,0.9L136.8,81.4z M140.3,79.4l-0.5-0.9l1.7-1l0.5,0.9L140.3,79.4z
		 M199.2,79.3h-1v-2h1V79.3z M143.8,77.4l-0.5-0.9l1.7-1l0.5,0.9L143.8,77.4z M147.2,75.4l-0.5-0.9l1.7-1l0.5,0.9L147.2,75.4z
		 M199.2,75.3h-1v-2h1V75.3z M150.7,73.4l-0.5-0.9l1.7-1l0.5,0.9L150.7,73.4z M154.1,71.4l-0.5-0.9l1.7-1l0.5,0.9L154.1,71.4z
		 M199.2,71.3h-1v-2h1V71.3z M157.6,69.4l-0.5-0.9l1.7-1l0.5,0.9L157.6,69.4z M161.1,67.4l-0.5-0.9l1.7-1l0.5,0.9L161.1,67.4z
		 M199.2,67.3h-1v-2h1V67.3z M164.5,65.4l-0.5-0.9l1.7-1l0.5,0.9L164.5,65.4z M168,63.4l-0.5-0.9l1.7-1l0.5,0.9L168,63.4z
		 M199.2,63.3h-1v-2h1V63.3z M171.5,61.4l-0.5-0.9l1.7-1l0.5,0.9L171.5,61.4z M174.9,59.4l-0.5-0.9l1.7-1l0.5,0.9L174.9,59.4z
		 M199.2,59.3h-1v-2h1V59.3z M178.4,57.4l-0.5-0.9l1.7-1l0.5,0.9L178.4,57.4z M181.9,55.4l-0.5-0.9l1.7-1l0.5,0.9L181.9,55.4z
		 M199.2,55.3h-1v-2h1V55.3z M185.3,53.4l-0.5-0.9l1.7-1l0.5,0.9L185.3,53.4z M188.8,51.4l-0.5-0.9l1.7-1l0.5,0.9L188.8,51.4z
		 M199.2,51.3h-1v-2h1V51.3z M192.2,49.4l-0.5-0.9l1.7-1l0.5,0.9L192.2,49.4z M195.7,47.4l-0.5-0.9l1.7-1l0.5,0.9L195.7,47.4z
		 M199.2,47.3h-1v-2h1V47.3z"/>
	<path class="st0" d="M15.6,193.8l-0.5-0.9l1.7-1l0.5,0.9L15.6,193.8z M19,191.8l-0.5-0.9l1.7-1l0.5,0.9L19,191.8z M22.5,189.8
		l-0.5-0.9l1.7-1l0.5,0.9L22.5,189.8z M26,187.8l-0.5-0.9l1.7-1l0.5,0.9L26,187.8z M29.4,185.8l-0.5-0.9l1.7-1l0.5,0.9L29.4,185.8z
		 M32.9,183.8l-0.5-0.9l1.7-1l0.5,0.9L32.9,183.8z M36.4,181.8l-0.5-0.9l1.7-1l0.5,0.9L36.4,181.8z M39.8,179.8l-0.5-0.9l1.7-1
		l0.5,0.9L39.8,179.8z M43.3,177.8l-0.5-0.9l1.7-1l0.5,0.9L43.3,177.8z M46.8,175.8l-0.5-0.9l1.7-1l0.5,0.9L46.8,175.8z M50.2,173.8
		l-0.5-0.9l1.7-1l0.5,0.9L50.2,173.8z M53.7,171.8l-0.5-0.9l1.7-1l0.5,0.9L53.7,171.8z M57.1,169.8l-0.5-0.9l1.7-1l0.5,0.9
		L57.1,169.8z M60.6,167.8l-0.5-0.9l1.7-1l0.5,0.9L60.6,167.8z M64.1,165.8l-0.5-0.9l1.7-1l0.5,0.9L64.1,165.8z M67.5,163.8
		l-0.5-0.9l1.7-1l0.5,0.9L67.5,163.8z M71,161.8l-0.5-0.9l1.7-1l0.5,0.9L71,161.8z M74.5,159.8l-0.5-0.9l1.7-1l0.5,0.9L74.5,159.8z
		 M77.9,157.8l-0.5-0.9l1.7-1l0.5,0.9L77.9,157.8z M81.4,155.8l-0.5-0.9l1.7-1l0.5,0.9L81.4,155.8z M84.9,153.8l-0.5-0.9l1.7-1
		l0.5,0.9L84.9,153.8z M88.3,151.8l-0.5-0.9l1.7-1l0.5,0.9L88.3,151.8z M91.8,149.8l-0.5-0.9l1.7-1l0.5,0.9L91.8,149.8z M95.3,147.8
		l-0.5-0.9l1.7-1l0.5,0.9L95.3,147.8z M98.7,145.8l-0.5-0.9l1.7-1l0.5,0.9L98.7,145.8z M102.2,143.8l-0.5-0.9l1.7-1l0.5,0.9
		L102.2,143.8z M105.6,141.8l-0.5-0.9l1.7-1l0.5,0.9L105.6,141.8z M109.1,139.8l-0.5-0.9l1.7-1l0.5,0.9L109.1,139.8z M112.6,137.8
		l-0.5-0.9l1.7-1l0.5,0.9L112.6,137.8z M116,135.8l-0.5-0.9l1.7-1l0.5,0.9L116,135.8z M119.5,133.8l-0.5-0.9l1.7-1l0.5,0.9
		L119.5,133.8z M123,131.8l-0.5-0.9l1.7-1l0.5,0.9L123,131.8z M126.4,129.8l-0.5-0.9l1.7-1l0.5,0.9L126.4,129.8z M129.9,127.8
		l-0.5-0.9l1.7-1l0.5,0.9L129.9,127.8z M133.4,125.8l-0.5-0.9l1.7-1l0.5,0.9L133.4,125.8z M136.8,123.8l-0.5-0.9l1.7-1l0.5,0.9
		L136.8,123.8z M140.3,121.8l-0.5-0.9l1.7-1l0.5,0.9L140.3,121.8z M143.8,119.8l-0.5-0.9l1.7-1l0.5,0.9L143.8,119.8z M147.2,117.8
		l-0.5-0.9l1.7-1l0.5,0.9L147.2,117.8z M150.7,115.8l-0.5-0.9l1.7-1l0.5,0.9L150.7,115.8z M154.1,113.8l-0.5-0.9l1.7-1l0.5,0.9
		L154.1,113.8z M157.6,111.8l-0.5-0.9l1.7-1l0.5,0.9L157.6,111.8z M161.1,109.8l-0.5-0.9l1.7-1l0.5,0.9L161.1,109.8z M164.5,107.8
		l-0.5-0.9l1.7-1l0.5,0.9L164.5,107.8z M168,105.8l-0.5-0.9l1.7-1l0.5,0.9L168,105.8z M171.5,103.8l-0.5-0.9l1.7-1l0.5,0.9
		L171.5,103.8z M174.9,101.8l-0.5-0.9l1.7-1l0.5,0.9L174.9,101.8z M178.4,99.8l-0.5-0.9l1.7-1l0.5,0.9L178.4,99.8z M181.9,97.8
		l-0.5-0.9l1.7-1l0.5,0.9L181.9,97.8z M185.3,95.8l-0.5-0.9l1.7-1l0.5,0.9L185.3,95.8z M188.8,93.8l-0.5-0.9l1.7-1l0.5,0.9
		L188.8,93.8z M192.2,91.8l-0.5-0.9l1.7-1l0.5,0.9L192.2,91.8z M195.7,89.8l-0.5-0.9l1.7-1l0.5,0.9L195.7,89.8z M199.2,87.8
		l-0.5-0.9l1.7-1l0.5,0.9L199.2,87.8z M202.6,85.8l-0.5-0.9l1.7-1l0.5,0.9L202.6,85.8z M206.1,83.8l-0.5-0.9l1.7-1l0.5,0.9
		L206.1,83.8z M209.6,81.8l-0.5-0.9l1.7-1l0.5,0.9L209.6,81.8z M213,79.8l-0.5-0.9l1.7-1l0.5,0.9L213,79.8z M216.5,77.8l-0.5-0.9
		l1.7-1l0.5,0.9L216.5,77.8z M220,75.8l-0.5-0.9l1.7-1l0.5,0.9L220,75.8z M223.4,73.8l-0.5-0.9l1.7-1l0.5,0.9L223.4,73.8z
		 M226.9,71.8l-0.5-0.9l1.7-1l0.5,0.9L226.9,71.8z M230.4,69.8l-0.5-0.9l1.7-1l0.5,0.9L230.4,69.8z M233.8,67.8l-0.5-0.9l1.7-1
		l0.5,0.9L233.8,67.8z"/>
	<path class="st0" d="M52.3,215l-0.5-0.9l1.7-1L54,214L52.3,215z M55.7,213l-0.5-0.9l1.7-1l0.5,0.9L55.7,213z M59.2,211l-0.5-0.9
		l1.7-1l0.5,0.9L59.2,211z M62.7,209l-0.5-0.9l1.7-1l0.5,0.9L62.7,209z M66.1,207l-0.5-0.9l1.7-1l0.5,0.9L66.1,207z M69.6,205
		l-0.5-0.9l1.7-1l0.5,0.9L69.6,205z M73,203l-0.5-0.9l1.7-1l0.5,0.9L73,203z M76.5,201l-0.5-0.9l1.7-1l0.5,0.9L76.5,201z M80,199
		l-0.5-0.9l1.7-1l0.5,0.9L80,199z M83.4,197l-0.5-0.9l1.7-1l0.5,0.9L83.4,197z M86.9,195l-0.5-0.9l1.7-1l0.5,0.9L86.9,195z
		 M90.4,193l-0.5-0.9l1.7-1l0.5,0.9L90.4,193z M93.8,191l-0.5-0.9l1.7-1l0.5,0.9L93.8,191z M97.3,189l-0.5-0.9l1.7-1L99,188
		L97.3,189z M100.8,187l-0.5-0.9l1.7-1l0.5,0.9L100.8,187z M104.2,185l-0.5-0.9l1.7-1l0.5,0.9L104.2,185z M107.7,183l-0.5-0.9l1.7-1
		l0.5,0.9L107.7,183z M111.2,181l-0.5-0.9l1.7-1l0.5,0.9L111.2,181z M114.6,179l-0.5-0.9l1.7-1l0.5,0.9L114.6,179z M118.1,177
		l-0.5-0.9l1.7-1l0.5,0.9L118.1,177z M121.5,175l-0.5-0.9l1.7-1l0.5,0.9L121.5,175z M125,173l-0.5-0.9l1.7-1l0.5,0.9L125,173z
		 M128.5,171l-0.5-0.9l1.7-1l0.5,0.9L128.5,171z M131.9,169l-0.5-0.9l1.7-1l0.5,0.9L131.9,169z M135.4,167l-0.5-0.9l1.7-1l0.5,0.9
		L135.4,167z M138.9,165l-0.5-0.9l1.7-1l0.5,0.9L138.9,165z M142.3,163l-0.5-0.9l1.7-1l0.5,0.9L142.3,163z M145.8,161l-0.5-0.9
		l1.7-1l0.5,0.9L145.8,161z M149.3,159l-0.5-0.9l1.7-1l0.5,0.9L149.3,159z M152.7,157l-0.5-0.9l1.7-1l0.5,0.9L152.7,157z M156.2,155
		l-0.5-0.9l1.7-1l0.5,0.9L156.2,155z M159.6,153l-0.5-0.9l1.7-1l0.5,0.9L159.6,153z M163.1,151l-0.5-0.9l1.7-1l0.5,0.9L163.1,151z
		 M166.6,149l-0.5-0.9l1.7-1l0.5,0.9L166.6,149z M170,147l-0.5-0.9l1.7-1l0.5,0.9L170,147z M173.5,145l-0.5-0.9l1.7-1l0.5,0.9
		L173.5,145z M177,143l-0.5-0.9l1.7-1l0.5,0.9L177,143z M180.4,141l-0.5-0.9l1.7-1l0.5,0.9L180.4,141z M183.9,139l-0.5-0.9l1.7-1
		l0.5,0.9L183.9,139z M187.4,137l-0.5-0.9l1.7-1l0.5,0.9L187.4,137z M190.8,135l-0.5-0.9l1.7-1l0.5,0.9L190.8,135z M194.3,133
		l-0.5-0.9l1.7-1l0.5,0.9L194.3,133z M197.8,131l-0.5-0.9l1.7-1l0.5,0.9L197.8,131z M201.2,129l-0.5-0.9l1.7-1l0.5,0.9L201.2,129z
		 M204.7,127l-0.5-0.9l1.7-1l0.5,0.9L204.7,127z M208.1,125l-0.5-0.9l1.7-1l0.5,0.9L208.1,125z M211.6,123l-0.5-0.9l1.7-1l0.5,0.9
		L211.6,123z M215.1,121l-0.5-0.9l1.7-1l0.5,0.9L215.1,121z M218.5,119l-0.5-0.9l1.7-1l0.5,0.9L218.5,119z M222,117l-0.5-0.9l1.7-1
		l0.5,0.9L222,117z M225.5,115l-0.5-0.9l1.7-1l0.5,0.9L225.5,115z M228.9,113l-0.5-0.9l1.7-1l0.5,0.9L228.9,113z M232.4,111
		l-0.5-0.9l1.7-1l0.5,0.9L232.4,111z"/>
	<path class="st0" d="M88.9,236.1l-0.5-0.9l1.7-1l0.5,0.9L88.9,236.1z M92.4,234.1l-0.5-0.9l1.7-1l0.5,0.9L92.4,234.1z M95.9,232.1
		l-0.5-0.9l1.7-1l0.5,0.9L95.9,232.1z M99.3,230.1l-0.5-0.9l1.7-1l0.5,0.9L99.3,230.1z M102.8,228.1l-0.5-0.9l1.7-1l0.5,0.9
		L102.8,228.1z M106.3,226.1l-0.5-0.9l1.7-1l0.5,0.9L106.3,226.1z M109.7,224.1l-0.5-0.9l1.7-1l0.5,0.9L109.7,224.1z M113.2,222.1
		l-0.5-0.9l1.7-1l0.5,0.9L113.2,222.1z M116.7,220.1l-0.5-0.9l1.7-1l0.5,0.9L116.7,220.1z M120.1,218.1l-0.5-0.9l1.7-1l0.5,0.9
		L120.1,218.1z M123.6,216.1l-0.5-0.9l1.7-1l0.5,0.9L123.6,216.1z M127,214.1l-0.5-0.9l1.7-1l0.5,0.9L127,214.1z M130.5,212.1
		l-0.5-0.9l1.7-1l0.5,0.9L130.5,212.1z M134,210.1l-0.5-0.9l1.7-1l0.5,0.9L134,210.1z M137.4,208.1l-0.5-0.9l1.7-1l0.5,0.9
		L137.4,208.1z M140.9,206.1l-0.5-0.9l1.7-1l0.5,0.9L140.9,206.1z M144.4,204.1l-0.5-0.9l1.7-1l0.5,0.9L144.4,204.1z M147.8,202.1
		l-0.5-0.9l1.7-1l0.5,0.9L147.8,202.1z M151.3,200.1l-0.5-0.9l1.7-1l0.5,0.9L151.3,200.1z M154.8,198.1l-0.5-0.9l1.7-1l0.5,0.9
		L154.8,198.1z M158.2,196.1l-0.5-0.9l1.7-1l0.5,0.9L158.2,196.1z M161.7,194.1l-0.5-0.9l1.7-1l0.5,0.9L161.7,194.1z M165.2,192.1
		l-0.5-0.9l1.7-1l0.5,0.9L165.2,192.1z M168.6,190.1l-0.5-0.9l1.7-1l0.5,0.9L168.6,190.1z M172.1,188.1l-0.5-0.9l1.7-1l0.5,0.9
		L172.1,188.1z M175.5,186.1l-0.5-0.9l1.7-1l0.5,0.9L175.5,186.1z M179,184.1l-0.5-0.9l1.7-1l0.5,0.9L179,184.1z M182.5,182.1
		l-0.5-0.9l1.7-1l0.5,0.9L182.5,182.1z M185.9,180.1l-0.5-0.9l1.7-1l0.5,0.9L185.9,180.1z M189.4,178.1l-0.5-0.9l1.7-1l0.5,0.9
		L189.4,178.1z M192.9,176.2l-0.5-0.9l1.7-1l0.5,0.9L192.9,176.2z M196.3,174.2l-0.5-0.9l1.7-1l0.5,0.9L196.3,174.2z M199.8,172.2
		l-0.5-0.9l1.7-1l0.5,0.9L199.8,172.2z M203.3,170.2l-0.5-0.9l1.7-1l0.5,0.9L203.3,170.2z M206.7,168.2l-0.5-0.9l1.7-1l0.5,0.9
		L206.7,168.2z M210.2,166.2l-0.5-0.9l1.7-1l0.5,0.9L210.2,166.2z M213.7,164.2l-0.5-0.9l1.7-1l0.5,0.9L213.7,164.2z M217.1,162.2
		l-0.5-0.9l1.7-1l0.5,0.9L217.1,162.2z M220.6,160.2l-0.5-0.9l1.7-1l0.5,0.9L220.6,160.2z M224,158.2l-0.5-0.9l1.7-1l0.5,0.9
		L224,158.2z M227.5,156.2l-0.5-0.9l1.7-1l0.5,0.9L227.5,156.2z M231,154.2l-0.5-0.9l1.7-1l0.5,0.9L231,154.2z M234.4,152.2
		l-0.5-0.9l1.2-0.7l0.5,0.9L234.4,152.2z"/>
	<path class="st0" d="M162.6,236.6l-2-1.1l0.5-0.9l1,0.6h0.5V236.6z M158.8,234.4l-1.7-1l0.5-0.9l1.7,1L158.8,234.4z M162.6,233.1
		h-1v-2h1V233.1z M155.4,232.4l-1.7-1l0.5-0.9l1.7,1L155.4,232.4z M151.9,230.4l-1.7-1l0.5-0.9l1.7,1L151.9,230.4z M162.6,229.1h-1
		v-2h1V229.1z M148.4,228.4l-1.7-1l0.5-0.9l1.7,1L148.4,228.4z M145,226.4l-1.7-1l0.5-0.9l1.7,1L145,226.4z M162.6,225.1h-1v-2h1
		V225.1z M141.5,224.4l-1.7-1l0.5-0.9l1.7,1L141.5,224.4z M138.1,222.4l-1.7-1l0.5-0.9l1.7,1L138.1,222.4z M162.6,221.1h-1v-2h1
		V221.1z M134.6,220.4l-1.7-1l0.5-0.9l1.7,1L134.6,220.4z M131.1,218.4l-1.7-1l0.5-0.9l1.7,1L131.1,218.4z M162.6,217.1h-1v-2h1
		V217.1z M127.7,216.4l-1.7-1l0.5-0.9l1.7,1L127.7,216.4z M124.2,214.4l-1.7-1l0.5-0.9l1.7,1L124.2,214.4z M162.6,213.1h-1v-2h1
		V213.1z M120.7,212.4l-1.7-1l0.5-0.9l1.7,1L120.7,212.4z M117.3,210.4l-1.7-1l0.5-0.9l1.7,1L117.3,210.4z M162.6,209.1h-1v-2h1
		V209.1z M113.8,208.4l-1.7-1l0.5-0.9l1.7,1L113.8,208.4z M110.3,206.4l-1.7-1l0.5-0.9l1.7,1L110.3,206.4z M162.6,205.1h-1v-2h1
		V205.1z M106.9,204.4l-1.7-1l0.5-0.9l1.7,1L106.9,204.4z M103.4,202.4l-1.7-1l0.5-0.9l1.7,1L103.4,202.4z M162.6,201.1h-1v-2h1
		V201.1z M99.9,200.4l-1.7-1l0.5-0.9l1.7,1L99.9,200.4z M96.5,198.4l-1.7-1l0.5-0.9l1.7,1L96.5,198.4z M162.6,197.1h-1v-2h1V197.1z
		 M93,196.4l-1.7-1l0.5-0.9l1.7,1L93,196.4z M89.6,194.4l-1.7-1l0.5-0.9l1.7,1L89.6,194.4z M162.6,193.1h-1v-2h1V193.1z M86.1,192.4
		l-1.7-1l0.5-0.9l1.7,1L86.1,192.4z M82.6,190.4l-1.7-1l0.5-0.9l1.7,1L82.6,190.4z M162.6,189.1h-1v-2h1V189.1z M79.2,188.4l-1.7-1
		l0.5-0.9l1.7,1L79.2,188.4z M75.7,186.4l-1.7-1l0.5-0.9l1.7,1L75.7,186.4z M162.6,185.1h-1v-2h1V185.1z M72.2,184.4l-1.7-1l0.5-0.9
		l1.7,1L72.2,184.4z M68.8,182.4l-1.7-1l0.5-0.9l1.7,1L68.8,182.4z M162.6,181.1h-1v-2h1V181.1z M65.3,180.4l-1.7-1l0.5-0.9l1.7,1
		L65.3,180.4z M61.8,178.4l-1.7-1l0.5-0.9l1.7,1L61.8,178.4z M162.6,177.1h-1v-2h1V177.1z M58.4,176.4l-1.7-1l0.5-0.9l1.7,1
		L58.4,176.4z M54.9,174.4l-1.7-1l0.5-0.9l1.7,1L54.9,174.4z M162.6,173.1h-1v-2h1V173.1z M51.5,172.4l-1.7-1l0.5-0.9l1.7,1
		L51.5,172.4z M48,170.4l-1.7-1l0.5-0.9l1.7,1L48,170.4z M162.6,169.1h-1v-2h1V169.1z M44.5,168.4l-1.7-1l0.5-0.9l1.7,1L44.5,168.4z
		 M41.1,166.4l-1.7-1l0.5-0.9l1.7,1L41.1,166.4z M162.6,165.1h-1v-2h1V165.1z M37.6,164.4l-1.7-1l0.5-0.9l1.7,1L37.6,164.4z
		 M34.1,162.4l-1.7-1l0.5-0.9l1.7,1L34.1,162.4z M162.6,161.1h-1v-2h1V161.1z M30.7,160.4l-1.7-1l0.5-0.9l1.7,1L30.7,160.4z
		 M27.2,158.4l-1.7-1l0.5-0.9l1.7,1L27.2,158.4z M162.6,157.1h-1v-2h1V157.1z M23.7,156.4l-1.7-1l0.5-0.9l1.7,1L23.7,156.4z
		 M20.3,154.4l-1.7-1l0.5-0.9l1.7,1L20.3,154.4z M162.6,153.1h-1v-2h1V153.1z M16.8,152.4l-1.7-1l0.5-0.9l1.7,1L16.8,152.4z
		 M162.6,149.1h-1v-2h1V149.1z M162.6,145.1h-1v-2h1V145.1z M162.6,141.1h-1v-2h1V141.1z M162.6,137.1h-1v-2h1V137.1z M162.6,133.1
		h-1v-2h1V133.1z M162.6,129.1h-1v-2h1V129.1z M162.6,125.1h-1v-2h1V125.1z M162.6,121.1h-1v-2h1V121.1z M162.6,117.1h-1v-2h1V117.1
		z M162.6,113.1h-1v-2h1V113.1z M162.6,109.1h-1v-2h1V109.1z M162.6,105.1h-1v-2h1V105.1z M162.6,101.1h-1v-2h1V101.1z M162.6,97.1
		h-1v-2h1V97.1z M162.6,93.1h-1v-2h1V93.1z M162.6,89.1h-1v-2h1V89.1z M162.6,85.1h-1v-2h1V85.1z M162.6,81.1h-1v-2h1V81.1z
		 M162.6,77.1h-1v-2h1V77.1z M162.6,73.1h-1v-2h1V73.1z M162.6,69.1h-1v-2h1V69.1z M162.6,65.1h-1v-2h1V65.1z M162.6,61.1h-1v-2h1
		V61.1z M162.6,57.1h-1v-2h1V57.1z M162.6,53.1h-1v-2h1V53.1z M162.6,49.1h-1v-2h1V49.1z M162.6,45.1h-1v-2h1V45.1z M162.6,41.1h-1
		v-2h1V41.1z M162.6,37.1h-1v-2h1V37.1z M162.6,33.1h-1v-2h1V33.1z M162.6,29.1h-1v-2h1V29.1z M162.6,25.1h-1v-1.2h1V25.1z"/>
	<path class="st0" d="M52.5,214.5h-1v-2h1V214.5z M52.5,210.5h-1v-2h1V210.5z M52.5,206.5h-1v-2h1V206.5z M52.5,202.5h-1v-2h1V202.5
		z M52.5,198.5h-1v-2h1V198.5z M52.5,194.5h-1v-2h1V194.5z M52.5,190.5h-1v-2h1V190.5z M52.5,186.5h-1v-2h1V186.5z M52.5,182.5h-1
		v-2h1V182.5z M52.5,178.5h-1v-2h1V178.5z M52.5,174.5h-1v-2h1V174.5z M52.5,170.5h-1v-2h1V170.5z M52.5,166.5h-1v-2h1V166.5z
		 M52.5,162.5h-1v-2h1V162.5z M52.5,158.5h-1v-2h1V158.5z M52.5,154.5h-1v-2h1V154.5z M235.2,151.4l-1-0.6l0.5-0.9l1,0.6
		L235.2,151.4z M52.5,150.5h-1v-2h1V150.5z M232.4,149.8l-1.7-1l0.5-0.9l1.7,1L232.4,149.8z M228.9,147.8l-1.7-1l0.5-0.9l1.7,1
		L228.9,147.8z M52.5,146.5h-1v-2h1V146.5z M225.5,145.8l-1.7-1l0.5-0.9l1.7,1L225.5,145.8z M222,143.8l-1.7-1l0.5-0.9l1.7,1
		L222,143.8z M52.5,142.5h-1v-2h1V142.5z M218.5,141.8l-1.7-1l0.5-0.9l1.7,1L218.5,141.8z M215.1,139.8l-1.7-1l0.5-0.9l1.7,1
		L215.1,139.8z M52.5,138.5h-1v-2h1V138.5z M211.6,137.8l-1.7-1l0.5-0.9l1.7,1L211.6,137.8z M208.1,135.8l-1.7-1l0.5-0.9l1.7,1
		L208.1,135.8z M52.5,134.5h-1v-2h1V134.5z M204.7,133.8l-1.7-1l0.5-0.9l1.7,1L204.7,133.8z M201.2,131.8l-1.7-1l0.5-0.9l1.7,1
		L201.2,131.8z M52.5,130.5h-1v-2h1V130.5z M197.8,129.8l-1.7-1l0.5-0.9l1.7,1L197.8,129.8z M194.3,127.8l-1.7-1l0.5-0.9l1.7,1
		L194.3,127.8z M52.5,126.5h-1v-2h1V126.5z M190.8,125.8l-1.7-1l0.5-0.9l1.7,1L190.8,125.8z M187.4,123.8l-1.7-1l0.5-0.9l1.7,1
		L187.4,123.8z M52.5,122.5h-1v-2h1V122.5z M183.9,121.8l-1.7-1l0.5-0.9l1.7,1L183.9,121.8z M180.4,119.8l-1.7-1l0.5-0.9l1.7,1
		L180.4,119.8z M52.5,118.5h-1v-2h1V118.5z M177,117.8l-1.7-1l0.5-0.9l1.7,1L177,117.8z M173.5,115.8l-1.7-1l0.5-0.9l1.7,1
		L173.5,115.8z M52.5,114.5h-1v-2h1V114.5z M170,113.8l-1.7-1l0.5-0.9l1.7,1L170,113.8z M166.6,111.8l-1.7-1l0.5-0.9l1.7,1
		L166.6,111.8z M52.5,110.5h-1v-2h1V110.5z M163.1,109.8l-1.7-1l0.5-0.9l1.7,1L163.1,109.8z M159.6,107.8l-1.7-1l0.5-0.9l1.7,1
		L159.6,107.8z M52.5,106.5h-1v-2h1V106.5z M156.2,105.8l-1.7-1l0.5-0.9l1.7,1L156.2,105.8z M152.7,103.8l-1.7-1l0.5-0.9l1.7,1
		L152.7,103.8z M52.5,102.5h-1v-2h1V102.5z M149.3,101.8l-1.7-1l0.5-0.9l1.7,1L149.3,101.8z M145.8,99.8l-1.7-1l0.5-0.9l1.7,1
		L145.8,99.8z M52.5,98.5h-1v-2h1V98.5z M142.3,97.8l-1.7-1l0.5-0.9l1.7,1L142.3,97.8z M138.9,95.8l-1.7-1l0.5-0.9l1.7,1L138.9,95.8
		z M52.5,94.5h-1v-2h1V94.5z M135.4,93.8l-1.7-1l0.5-0.9l1.7,1L135.4,93.8z M131.9,91.8l-1.7-1l0.5-0.9l1.7,1L131.9,91.8z
		 M52.5,90.5h-1v-2h1V90.5z M128.5,89.8l-1.7-1l0.5-0.9l1.7,1L128.5,89.8z M125,87.8l-1.7-1l0.5-0.9l1.7,1L125,87.8z M52.5,86.5h-1
		v-2h1V86.5z M121.5,85.8l-1.7-1l0.5-0.9l1.7,1L121.5,85.8z M118.1,83.8l-1.7-1l0.5-0.9l1.7,1L118.1,83.8z M52.5,82.5h-1v-2h1V82.5z
		 M114.6,81.8l-1.7-1l0.5-0.9l1.7,1L114.6,81.8z M111.1,79.8l-1.7-1l0.5-0.9l1.7,1L111.1,79.8z M52.5,78.5h-1v-2h1V78.5z
		 M107.7,77.8l-1.7-1l0.5-0.9l1.7,1L107.7,77.8z M104.2,75.8l-1.7-1L103,74l1.7,1L104.2,75.8z M52.5,74.5h-1v-2h1V74.5z M100.8,73.8
		l-1.7-1l0.5-0.9l1.7,1L100.8,73.8z M97.3,71.8l-1.7-1l0.5-0.9l1.7,1L97.3,71.8z M52.5,70.5h-1v-2h1V70.5z M93.8,69.8l-1.7-1
		l0.5-0.9l1.7,1L93.8,69.8z M90.4,67.8l-1.7-1l0.5-0.9l1.7,1L90.4,67.8z M52.5,66.5h-1v-2h1V66.5z M86.9,65.8l-1.7-1l0.5-0.9l1.7,1
		L86.9,65.8z M83.4,63.8l-1.7-1l0.5-0.9l1.7,1L83.4,63.8z M52.5,62.5h-1v-2h1V62.5z M80,61.8l-1.7-1l0.5-0.9l1.7,1L80,61.8z
		 M76.5,59.8l-1.7-1l0.5-0.9l1.7,1L76.5,59.8z M52.5,58.5h-1v-2h1V58.5z M73,57.8l-1.7-1l0.5-0.9l1.7,1L73,57.8z M69.6,55.8l-1.7-1
		l0.5-0.9l1.7,1L69.6,55.8z M52.5,54.5h-1v-2h1V54.5z M66.1,53.8l-1.7-1l0.5-0.9l1.7,1L66.1,53.8z M62.7,51.8l-1.7-1l0.5-0.9l1.7,1
		L62.7,51.8z M52.5,50.5h-1v-2h1V50.5z M59.2,49.8l-1.7-1L58,48l1.7,1L59.2,49.8z M55.7,47.8l-1.7-1l0.5-0.9l1.7,1L55.7,47.8z
		 M52.5,46.5h-1v-2.3l1.2,0.7l-0.2,0.4V46.5z"/>
	<path class="st0" d="M125.9,256.9h-1v-2h1V256.9z M125.9,252.9h-1v-2h1V252.9z M125.9,248.9h-1v-2h1V248.9z M125.9,244.9h-1v-2h1
		V244.9z M125.9,240.9h-1v-2h1V240.9z M125.9,236.9h-1v-2h1V236.9z M125.9,232.9h-1v-2h1V232.9z M125.9,228.9h-1v-2h1V228.9z
		 M125.9,224.9h-1v-2h1V224.9z M125.9,220.9h-1v-2h1V220.9z M125.9,216.9h-1v-2h1V216.9z M125.9,212.9h-1v-2h1V212.9z M125.9,208.9
		h-1v-2h1V208.9z M125.9,204.9h-1v-2h1V204.9z M125.9,200.9h-1v-2h1V200.9z M125.9,196.9h-1v-2h1V196.9z M125.9,192.9h-1v-2h1V192.9
		z M125.9,188.9h-1v-2h1V188.9z M125.9,184.9h-1v-2h1V184.9z M125.9,180.9h-1v-2h1V180.9z M125.9,176.9h-1v-2h1V176.9z M125.9,172.9
		h-1v-2h1V172.9z M125.9,168.9h-1v-2h1V168.9z M125.9,164.9h-1v-2h1V164.9z M125.9,160.9h-1v-2h1V160.9z M125.9,156.9h-1v-2h1V156.9
		z M125.9,152.9h-1v-2h1V152.9z M125.9,148.9h-1v-2h1V148.9z M125.9,144.9h-1v-2h1V144.9z M125.9,140.9h-1v-2h1V140.9z M125.9,136.9
		h-1v-2h1V136.9z M125.9,132.9h-1v-2h1V132.9z M125.9,128.9h-1v-2h1V128.9z M125.9,124.9h-1v-2h1V124.9z M125.9,120.9h-1v-2h1V120.9
		z M125.9,116.9h-1v-2h1V116.9z M125.9,112.9h-1v-2h1V112.9z M125.9,108.9h-1v-2h1V108.9z M125.9,104.9h-1v-2h1V104.9z M125.9,100.9
		h-1v-2h1V100.9z M125.9,96.9h-1v-2h1V96.9z M125.9,92.9h-1v-2h1V92.9z M125.9,88.9h-1v-2h1V88.9z M125.9,84.9h-1v-2h1V84.9z
		 M125.9,80.9h-1v-2h1V80.9z M125.9,76.9h-1v-2h1V76.9z M125.9,72.9h-1v-2h1V72.9z M125.9,68.9h-1v-2h1V68.9z M125.9,64.9h-1v-2h1
		V64.9z M125.9,60.9h-1v-2h1V60.9z M125.9,56.9h-1v-2h1V56.9z M125.9,52.9h-1v-2h1V52.9z M125.9,48.9h-1v-2h1V48.9z M125.9,44.9h-1
		v-2h1V44.9z M125.9,40.9h-1v-2h1V40.9z M125.9,36.9h-1v-2h1V36.9z M125.9,32.9h-1v-2h1V32.9z M125.9,28.9h-1v-2h1V28.9z
		 M125.9,24.9h-1v-2h1V24.9z M125.9,20.9h-1v-2h1V20.9z M125.9,16.9h-1v-2h1V16.9z M125.9,12.9h-1v-2h1V12.9z M125.9,8.9h-1v-2h1
		V8.9z M125.9,4.9h-1v-2h1V4.9z"/>
	<path class="st0" d="M235.2,193.8l-1.7-1l0.5-0.9l1.7,1L235.2,193.8z M231.7,191.8l-1.7-1l0.5-0.9l1.7,1L231.7,191.8z M228.2,189.8
		l-1.7-1l0.5-0.9l1.7,1L228.2,189.8z M224.8,187.8l-1.7-1l0.5-0.9l1.7,1L224.8,187.8z M221.3,185.8l-1.7-1l0.5-0.9l1.7,1
		L221.3,185.8z M217.8,183.8l-1.7-1l0.5-0.9l1.7,1L217.8,183.8z M214.4,181.8l-1.7-1l0.5-0.9l1.7,1L214.4,181.8z M210.9,179.8
		l-1.7-1l0.5-0.9l1.7,1L210.9,179.8z M207.5,177.8l-1.7-1l0.5-0.9l1.7,1L207.5,177.8z M204,175.8l-1.7-1l0.5-0.9l1.7,1L204,175.8z
		 M200.5,173.8l-1.7-1l0.5-0.9l1.7,1L200.5,173.8z M197.1,171.8l-1.7-1l0.5-0.9l1.7,1L197.1,171.8z M193.6,169.8l-1.7-1l0.5-0.9
		l1.7,1L193.6,169.8z M190.1,167.8l-1.7-1l0.5-0.9l1.7,1L190.1,167.8z M186.7,165.8l-1.7-1l0.5-0.9l1.7,1L186.7,165.8z M183.2,163.8
		l-1.7-1l0.5-0.9l1.7,1L183.2,163.8z M179.7,161.8l-1.7-1l0.5-0.9l1.7,1L179.7,161.8z M176.3,159.8l-1.7-1l0.5-0.9l1.7,1
		L176.3,159.8z M172.8,157.8l-1.7-1l0.5-0.9l1.7,1L172.8,157.8z M169.4,155.8l-1.7-1l0.5-0.9l1.7,1L169.4,155.8z M165.9,153.8
		l-1.7-1l0.5-0.9l1.7,1L165.9,153.8z M162.4,151.8l-1.7-1l0.5-0.9l1.7,1L162.4,151.8z M159,149.8l-1.7-1l0.5-0.9l1.7,1L159,149.8z
		 M155.5,147.8l-1.7-1l0.5-0.9l1.7,1L155.5,147.8z M152,145.8l-1.7-1l0.5-0.9l1.7,1L152,145.8z M148.6,143.8l-1.7-1l0.5-0.9l1.7,1
		L148.6,143.8z M145.1,141.8l-1.7-1l0.5-0.9l1.7,1L145.1,141.8z M141.6,139.8l-1.7-1l0.5-0.9l1.7,1L141.6,139.8z M138.2,137.8
		l-1.7-1l0.5-0.9l1.7,1L138.2,137.8z M134.7,135.8l-1.7-1l0.5-0.9l1.7,1L134.7,135.8z M131.2,133.8l-1.7-1l0.5-0.9l1.7,1
		L131.2,133.8z M127.8,131.8l-1.7-1l0.5-0.9l1.7,1L127.8,131.8z M124.3,129.8l-1.7-1l0.5-0.9l1.7,1L124.3,129.8z M120.9,127.8
		l-1.7-1l0.5-0.9l1.7,1L120.9,127.8z M117.4,125.8l-1.7-1l0.5-0.9l1.7,1L117.4,125.8z M113.9,123.8l-1.7-1l0.5-0.9l1.7,1
		L113.9,123.8z M110.5,121.8l-1.7-1l0.5-0.9l1.7,1L110.5,121.8z M107,119.8l-1.7-1l0.5-0.9l1.7,1L107,119.8z M103.5,117.8l-1.7-1
		l0.5-0.9l1.7,1L103.5,117.8z M100.1,115.8l-1.7-1l0.5-0.9l1.7,1L100.1,115.8z M96.6,113.8l-1.7-1l0.5-0.9l1.7,1L96.6,113.8z
		 M93.1,111.8l-1.7-1l0.5-0.9l1.7,1L93.1,111.8z M89.7,109.8l-1.7-1l0.5-0.9l1.7,1L89.7,109.8z M86.2,107.8l-1.7-1l0.5-0.9l1.7,1
		L86.2,107.8z M82.7,105.8l-1.7-1l0.5-0.9l1.7,1L82.7,105.8z M79.3,103.8l-1.7-1l0.5-0.9l1.7,1L79.3,103.8z M75.8,101.8l-1.7-1
		l0.5-0.9l1.7,1L75.8,101.8z M72.4,99.8l-1.7-1l0.5-0.9l1.7,1L72.4,99.8z M68.9,97.8l-1.7-1l0.5-0.9l1.7,1L68.9,97.8z M65.4,95.8
		l-1.7-1l0.5-0.9l1.7,1L65.4,95.8z M62,93.8l-1.7-1l0.5-0.9l1.7,1L62,93.8z M58.5,91.8l-1.7-1l0.5-0.9l1.7,1L58.5,91.8z M55,89.8
		l-1.7-1l0.5-0.9l1.7,1L55,89.8z M51.6,87.8l-1.7-1l0.5-0.9l1.7,1L51.6,87.8z M48.1,85.8l-1.7-1l0.5-0.9l1.7,1L48.1,85.8z
		 M44.6,83.8l-1.7-1l0.5-0.9l1.7,1L44.6,83.8z M41.2,81.8l-1.7-1l0.5-0.9l1.7,1L41.2,81.8z M37.7,79.8l-1.7-1l0.5-0.9l1.7,1
		L37.7,79.8z M34.3,77.8l-1.7-1l0.5-0.9l1.7,1L34.3,77.8z M30.8,75.8l-1.7-1l0.5-0.9l1.7,1L30.8,75.8z M27.3,73.8l-1.7-1l0.5-0.9
		l1.7,1L27.3,73.8z M23.9,71.8l-1.7-1l0.5-0.9l1.7,1L23.9,71.8z M20.4,69.8l-1.7-1l0.5-0.9l1.7,1L20.4,69.8z M16.9,67.8l-1.7-1
		l0.5-0.9l1.7,1L16.9,67.8z"/>
	<path class="st0" d="M89.2,235.7h-1v-1.2h1V235.7z M89.2,232.5h-1v-2h1V232.5z M89.2,228.5h-1v-2h1V228.5z M89.2,224.5h-1v-2h1
		V224.5z M89.2,220.5h-1v-2h1V220.5z M89.2,216.5h-1v-2h1V216.5z M89.2,212.5h-1v-2h1V212.5z M89.2,208.5h-1v-2h1V208.5z
		 M89.2,204.5h-1v-2h1V204.5z M89.2,200.5h-1v-2h1V200.5z M89.2,196.5h-1v-2h1V196.5z M89.2,192.5h-1v-2h1V192.5z M89.2,188.5h-1v-2
		h1V188.5z M89.2,184.5h-1v-2h1V184.5z M89.2,180.5h-1v-2h1V180.5z M89.2,176.5h-1v-2h1V176.5z M89.2,172.5h-1v-2h1V172.5z
		 M89.2,168.5h-1v-2h1V168.5z M89.2,164.5h-1v-2h1V164.5z M89.2,160.5h-1v-2h1V160.5z M89.2,156.5h-1v-2h1V156.5z M89.2,152.5h-1v-2
		h1V152.5z M89.2,148.5h-1v-2h1V148.5z M89.2,144.5h-1v-2h1V144.5z M89.2,140.5h-1v-2h1V140.5z M89.2,136.5h-1v-2h1V136.5z
		 M89.2,132.5h-1v-2h1V132.5z M89.2,128.5h-1v-2h1V128.5z M89.2,124.5h-1v-2h1V124.5z M89.2,120.5h-1v-2h1V120.5z M89.2,116.5h-1v-2
		h1V116.5z M89.2,112.5h-1v-2h1V112.5z M235.2,109.1l-1.7-1l0.5-0.9l1.7,1L235.2,109.1z M89.2,108.5h-1v-2h1V108.5z M231.7,107.1
		l-1.7-1l0.5-0.9l1.7,1L231.7,107.1z M228.2,105.1l-1.7-1l0.5-0.9l1.7,1L228.2,105.1z M89.2,104.5h-1v-2h1V104.5z M224.8,103.1
		l-1.7-1l0.5-0.9l1.7,1L224.8,103.1z M221.3,101.1l-1.7-1l0.5-0.9l1.7,1L221.3,101.1z M89.2,100.5h-1v-2h1V100.5z M217.8,99.1
		l-1.7-1l0.5-0.9l1.7,1L217.8,99.1z M214.4,97.1l-1.7-1l0.5-0.9l1.7,1L214.4,97.1z M89.2,96.5h-1v-2h1V96.5z M210.9,95.1l-1.7-1
		l0.5-0.9l1.7,1L210.9,95.1z M207.5,93.1l-1.7-1l0.5-0.9l1.7,1L207.5,93.1z M89.2,92.5h-1v-2h1V92.5z M204,91.1l-1.7-1l0.5-0.9
		l1.7,1L204,91.1z M200.5,89.1l-1.7-1l0.5-0.9l1.7,1L200.5,89.1z M89.2,88.5h-1v-2h1V88.5z M197.1,87.1l-1.7-1l0.5-0.9l1.7,1
		L197.1,87.1z M193.6,85.1l-1.7-1l0.5-0.9l1.7,1L193.6,85.1z M89.2,84.5h-1v-2h1V84.5z M190.1,83.1l-1.7-1l0.5-0.9l1.7,1L190.1,83.1
		z M186.7,81.1l-1.7-1l0.5-0.9l1.7,1L186.7,81.1z M89.2,80.5h-1v-2h1V80.5z M183.2,79.1l-1.7-1l0.5-0.9l1.7,1L183.2,79.1z
		 M179.7,77.1l-1.7-1l0.5-0.9l1.7,1L179.7,77.1z M89.2,76.5h-1v-2h1V76.5z M176.3,75.1l-1.7-1l0.5-0.9l1.7,1L176.3,75.1z
		 M172.8,73.1l-1.7-1l0.5-0.9l1.7,1L172.8,73.1z M89.2,72.5h-1v-2h1V72.5z M169.4,71.1l-1.7-1l0.5-0.9l1.7,1L169.4,71.1z
		 M165.9,69.1l-1.7-1l0.5-0.9l1.7,1L165.9,69.1z M89.2,68.5h-1v-2h1V68.5z M162.4,67.1l-1.7-1l0.5-0.9l1.7,1L162.4,67.1z M159,65.1
		l-1.7-1l0.5-0.9l1.7,1L159,65.1z M89.2,64.5h-1v-2h1V64.5z M155.5,63.1l-1.7-1l0.5-0.9l1.7,1L155.5,63.1z M152,61.1l-1.7-1l0.5-0.9
		l1.7,1L152,61.1z M89.2,60.5h-1v-2h1V60.5z M148.6,59.1l-1.7-1l0.5-0.9l1.7,1L148.6,59.1z M145.1,57.1l-1.7-1l0.5-0.9l1.7,1
		L145.1,57.1z M89.2,56.5h-1v-2h1V56.5z M141.6,55.1l-1.7-1l0.5-0.9l1.7,1L141.6,55.1z M138.2,53.1l-1.7-1l0.5-0.9l1.7,1L138.2,53.1
		z M89.2,52.5h-1v-2h1V52.5z M134.7,51.1l-1.7-1l0.5-0.9l1.7,1L134.7,51.1z M131.2,49.1l-1.7-1l0.5-0.9l1.7,1L131.2,49.1z
		 M89.2,48.5h-1v-2h1V48.5z M127.8,47.1l-1.7-1l0.5-0.9l1.7,1L127.8,47.1z M124.3,45.1l-1.7-1l0.5-0.9l1.7,1L124.3,45.1z M89.2,44.5
		h-1v-2h1V44.5z M120.9,43.1l-1.7-1l0.5-0.9l1.7,1L120.9,43.1z M117.4,41.1l-1.7-1l0.5-0.9l1.7,1L117.4,41.1z M89.2,40.5h-1v-2h1
		V40.5z M113.9,39.1l-1.7-1l0.5-0.9l1.7,1L113.9,39.1z M110.5,37.1l-1.7-1l0.5-0.9l1.7,1L110.5,37.1z M89.2,36.5h-1v-2h1V36.5z
		 M107,35.1l-1.7-1l0.5-0.9l1.7,1L107,35.1z M103.5,33.1l-1.7-1l0.5-0.9l1.7,1L103.5,33.1z M89.2,32.5h-1v-2h1V32.5z M100.1,31.1
		l-1.7-1l0.5-0.9l1.7,1L100.1,31.1z M96.6,29.1l-1.7-1l0.5-0.9l1.7,1L96.6,29.1z M89.2,28.5h-1v-2h1V28.5z M93.1,27.1l-1.7-1
		l0.5-0.9l1.7,1L93.1,27.1z M89.7,25.1l-1-0.6h-0.5v-1.4l2,1.1L89.7,25.1z"/>
	<path class="st0" d="M15.6,109.1l-0.5-0.9l1.7-1l0.5,0.9L15.6,109.1z M19,107.1l-0.5-0.9l1.7-1l0.5,0.9L19,107.1z M22.5,105.1
		l-0.5-0.9l1.7-1l0.5,0.9L22.5,105.1z M26,103.1l-0.5-0.9l1.7-1l0.5,0.9L26,103.1z M29.4,101.1l-0.5-0.9l1.7-1l0.5,0.9L29.4,101.1z
		 M32.9,99.1l-0.5-0.9l1.7-1l0.5,0.9L32.9,99.1z M36.4,97.1l-0.5-0.9l1.7-1l0.5,0.9L36.4,97.1z M39.8,95.1l-0.5-0.9l1.7-1l0.5,0.9
		L39.8,95.1z M43.3,93.1l-0.5-0.9l1.7-1l0.5,0.9L43.3,93.1z M46.8,91.1l-0.5-0.9l1.7-1l0.5,0.9L46.8,91.1z M50.2,89.1l-0.5-0.9
		l1.7-1l0.5,0.9L50.2,89.1z M53.7,87.1l-0.5-0.9l1.7-1l0.5,0.9L53.7,87.1z M57.1,85.1l-0.5-0.9l1.7-1l0.5,0.9L57.1,85.1z M60.6,83.1
		l-0.5-0.9l1.7-1l0.5,0.9L60.6,83.1z M64.1,81.1l-0.5-0.9l1.7-1l0.5,0.9L64.1,81.1z M67.5,79.1L67,78.2l1.7-1l0.5,0.9L67.5,79.1z
		 M71,77.1l-0.5-0.9l1.7-1l0.5,0.9L71,77.1z M74.5,75.1L74,74.2l1.7-1l0.5,0.9L74.5,75.1z M77.9,73.1l-0.5-0.9l1.7-1l0.5,0.9
		L77.9,73.1z M81.4,71.1l-0.5-0.9l1.7-1l0.5,0.9L81.4,71.1z M84.9,69.1l-0.5-0.9l1.7-1l0.5,0.9L84.9,69.1z M88.3,67.1l-0.5-0.9
		l1.7-1l0.5,0.9L88.3,67.1z M91.8,65.1l-0.5-0.9l1.7-1l0.5,0.9L91.8,65.1z M95.3,63.1l-0.5-0.9l1.7-1l0.5,0.9L95.3,63.1z M98.7,61.1
		l-0.5-0.9l1.7-1l0.5,0.9L98.7,61.1z M102.2,59.1l-0.5-0.9l1.7-1l0.5,0.9L102.2,59.1z M105.6,57.1l-0.5-0.9l1.7-1l0.5,0.9
		L105.6,57.1z M109.1,55.1l-0.5-0.9l1.7-1l0.5,0.9L109.1,55.1z M112.6,53.1l-0.5-0.9l1.7-1l0.5,0.9L112.6,53.1z M116,51.1l-0.5-0.9
		l1.7-1l0.5,0.9L116,51.1z M119.5,49.1l-0.5-0.9l1.7-1l0.5,0.9L119.5,49.1z M123,47.1l-0.5-0.9l1.7-1l0.5,0.9L123,47.1z M126.4,45.1
		l-0.5-0.9l1.7-1l0.5,0.9L126.4,45.1z M129.9,43.1l-0.5-0.9l1.7-1l0.5,0.9L129.9,43.1z M133.4,41.1l-0.5-0.9l1.7-1l0.5,0.9
		L133.4,41.1z M136.8,39.1l-0.5-0.9l1.7-1l0.5,0.9L136.8,39.1z M140.3,37.1l-0.5-0.9l1.7-1l0.5,0.9L140.3,37.1z M143.8,35.1
		l-0.5-0.9l1.7-1l0.5,0.9L143.8,35.1z M147.2,33.1l-0.5-0.9l1.7-1l0.5,0.9L147.2,33.1z M150.7,31.1l-0.5-0.9l1.7-1l0.5,0.9
		L150.7,31.1z M154.1,29.1l-0.5-0.9l1.7-1l0.5,0.9L154.1,29.1z M157.6,27.1l-0.5-0.9l1.7-1l0.5,0.9L157.6,27.1z M161.1,25.1
		l-0.5-0.9l1.2-0.7l0.5,0.9L161.1,25.1z"/>
	<path class="st0" d="M88.9,236.1l-0.5-0.9l1.7-1l0.5,0.9L88.9,236.1z M92.4,234.1l-0.5-0.9l1.7-1l0.5,0.9L92.4,234.1z M95.9,232.1
		l-0.5-0.9l1.7-1l0.5,0.9L95.9,232.1z M99.3,230.1l-0.5-0.9l1.7-1l0.5,0.9L99.3,230.1z M102.8,228.1l-0.5-0.9l1.7-1l0.5,0.9
		L102.8,228.1z M106.3,226.1l-0.5-0.9l1.7-1l0.5,0.9L106.3,226.1z M109.7,224.1l-0.5-0.9l1.7-1l0.5,0.9L109.7,224.1z M113.2,222.1
		l-0.5-0.9l1.7-1l0.5,0.9L113.2,222.1z M116.7,220.1l-0.5-0.9l1.7-1l0.5,0.9L116.7,220.1z M120.1,218.1l-0.5-0.9l1.7-1l0.5,0.9
		L120.1,218.1z M123.6,216.1l-0.5-0.9l1.7-1l0.5,0.9L123.6,216.1z M127,214.1l-0.5-0.9l1.7-1l0.5,0.9L127,214.1z M130.5,212.1
		l-0.5-0.9l1.7-1l0.5,0.9L130.5,212.1z M134,210.1l-0.5-0.9l1.7-1l0.5,0.9L134,210.1z M137.4,208.1l-0.5-0.9l1.7-1l0.5,0.9
		L137.4,208.1z M140.9,206.1l-0.5-0.9l1.7-1l0.5,0.9L140.9,206.1z M144.4,204.1l-0.5-0.9l1.7-1l0.5,0.9L144.4,204.1z M147.8,202.1
		l-0.5-0.9l1.7-1l0.5,0.9L147.8,202.1z M151.3,200.1l-0.5-0.9l1.7-1l0.5,0.9L151.3,200.1z M154.8,198.1l-0.5-0.9l1.7-1l0.5,0.9
		L154.8,198.1z M158.2,196.1l-0.5-0.9l1.7-1l0.5,0.9L158.2,196.1z M161.7,194.1l-0.5-0.9l1.7-1l0.5,0.9L161.7,194.1z M165.2,192.1
		l-0.5-0.9l1.7-1l0.5,0.9L165.2,192.1z M168.6,190.1l-0.5-0.9l1.7-1l0.5,0.9L168.6,190.1z M172.1,188.1l-0.5-0.9l1.7-1l0.5,0.9
		L172.1,188.1z M175.5,186.1l-0.5-0.9l1.7-1l0.5,0.9L175.5,186.1z M179,184.1l-0.5-0.9l1.7-1l0.5,0.9L179,184.1z M182.5,182.1
		l-0.5-0.9l1.7-1l0.5,0.9L182.5,182.1z M185.9,180.1l-0.5-0.9l1.7-1l0.5,0.9L185.9,180.1z M189.4,178.1l-0.5-0.9l1.7-1l0.5,0.9
		L189.4,178.1z M192.9,176.2l-0.5-0.9l1.7-1l0.5,0.9L192.9,176.2z M196.3,174.2l-0.5-0.9l1.7-1l0.5,0.9L196.3,174.2z M199.8,172.2
		l-0.5-0.9l1.7-1l0.5,0.9L199.8,172.2z M203.3,170.2l-0.5-0.9l1.7-1l0.5,0.9L203.3,170.2z M206.7,168.2l-0.5-0.9l1.7-1l0.5,0.9
		L206.7,168.2z M210.2,166.2l-0.5-0.9l1.7-1l0.5,0.9L210.2,166.2z M213.7,164.2l-0.5-0.9l1.7-1l0.5,0.9L213.7,164.2z M217.1,162.2
		l-0.5-0.9l1.7-1l0.5,0.9L217.1,162.2z M220.6,160.2l-0.5-0.9l1.7-1l0.5,0.9L220.6,160.2z M224,158.2l-0.5-0.9l1.7-1l0.5,0.9
		L224,158.2z M227.5,156.2l-0.5-0.9l1.7-1l0.5,0.9L227.5,156.2z M231,154.2l-0.5-0.9l1.7-1l0.5,0.9L231,154.2z M234.4,152.2
		l-0.5-0.9l1.2-0.7l0.5,0.9L234.4,152.2z"/>
</g>
<path class="st0" d="M200.3,169.6L200.3,169.6L200.3,169.6C200.3,169.6,200.3,169.6,200.3,169.6
	C200.3,169.6,200.3,169.6,200.3,169.6L128.6,128l0-40.5c0-1.1-0.6-2.2-1.6-2.8h0L90.3,63.5c-1-0.6-2.2-0.6-3.2,0L50.4,84.7l0,0
	c-1,0.6-1.6,1.6-1.6,2.8l0,40.5l-35.1,20.3c0,0,0,0,0,0c-1,0.6-1.6,1.6-1.6,2.8v42.4c0,1.1,0.6,2.2,1.6,2.8l36.7,21.2
	c0.5,0.3,1,0.4,1.6,0.4s1.1-0.1,1.6-0.4l31.9-18.4v36.8c0,1.1,0.6,2.2,1.6,2.8l36.7,21.2c0.5,0.3,1,0.4,1.6,0.4
	c0.5,0,1.1-0.1,1.6-0.4l73.4-42.2c1-0.6,1.6-1.6,1.6-2.8v-42.4C201.9,171.2,201.3,170.2,200.3,169.6z M125.4,168.5L95.1,151
	l30.3-17.5l30.4,17.6L125.4,168.5z M122.2,128l-30.4,17.5l-0.4-34.7L122.2,93L122.2,128z M165.2,156.6l27.1,15.7L165.2,188V156.6z
	 M88.7,70L119,87.5l-30.8,17.8L58.3,87.5L88.7,70z M55.2,177.7l27.1,15.7L55.2,209V177.7z M48.8,166.7L21.7,151l27.1-15.7V166.7z
	 M48.8,209l-30.3-17.5v-35L48.8,174V209z M90.3,190.6l-35.1-20.3v-40.5h-2.1h2.1l0-36.8L85,110.8l0.5,40.3c0,1.1,0.6,2.2,1.6,2.7
	l35.1,20.3v77.4l-30.3-17.5v-40.5C91.9,192.2,91.3,191.2,90.3,190.6z M195.6,212.9l-67,38.5V174l30.3-17.4v36.9
	c0,1.1,0.6,2.2,1.6,2.8c1,0.6,2.2,0.6,3.2,0l31.9-18.4V212.9z"/>
<path class="st0" d="M10.9,235.3l-0.3-0.4l0.7-0.4l0.3,0.4L10.9,235.3z M13.4,233.9l-0.3-0.4l1.7-1l0.3,0.4L13.4,233.9z M16.8,231.9
	l-0.2-0.4l1.7-1l0.3,0.4L16.8,231.9z M20.3,229.9l-0.3-0.4l1.7-1l0.2,0.4L20.3,229.9z M23.7,227.8l-0.2-0.4l1.7-1l0.3,0.4
	L23.7,227.8z M27.2,225.8l-0.3-0.4l1.7-1l0.3,0.4L27.2,225.8z M30.7,223.8l-0.3-0.4l1.7-1l0.3,0.4L30.7,223.8z M34.1,221.8l-0.3-0.4
	l1.7-1l0.3,0.4L34.1,221.8z M37.6,219.8l-0.3-0.4l1.7-1l0.3,0.4L37.6,219.8z M41.1,217.8l-0.3-0.4l1.7-1l0.3,0.4L41.1,217.8z
	 M44.5,215.8l-0.3-0.4l1.7-1l0.3,0.4L44.5,215.8z M48,213.8l-0.3-0.4l1.7-1l0.3,0.4L48,213.8z M51.4,211.8l-0.3-0.4l1.7-1l0.3,0.4
	L51.4,211.8z M54.9,209.8l-0.3-0.4l1.7-1l0.3,0.4L54.9,209.8z M58.4,207.8l-0.3-0.4l1.7-1l0.3,0.4L58.4,207.8z M61.8,205.8l-0.3-0.4
	l1.7-1l0.3,0.4L61.8,205.8z M65.3,203.8l-0.3-0.4l1.7-1l0.3,0.4L65.3,203.8z M68.7,201.8l-0.3-0.4l1.7-1l0.3,0.4L68.7,201.8z"/>
<path class="st0" d="M14.4,240.4l-0.3-0.4l1.7-1l0.3,0.4L14.4,240.4z M17.9,238.4l-0.3-0.4l1.7-1l0.3,0.4L17.9,238.4z M21.4,236.4
	l-0.3-0.4l1.7-1l0.3,0.4L21.4,236.4z M24.8,234.4l-0.3-0.4l1.7-1l0.3,0.4L24.8,234.4z M28.3,232.4l-0.3-0.4l1.7-1l0.3,0.4
	L28.3,232.4z M31.7,230.4l-0.2-0.4l1.7-1l0.2,0.4L31.7,230.4z M35.2,228.4l-0.3-0.4l1.7-1l0.3,0.4L35.2,228.4z M38.7,226.4l-0.3-0.4
	l1.7-1l0.2,0.4L38.7,226.4z M42.1,224.4l-0.3-0.4l1.7-1l0.3,0.4L42.1,224.4z M45.6,222.4l-0.3-0.4l1.7-1l0.3,0.4L45.6,222.4z
	 M49,220.4l-0.3-0.4l1.7-1l0.3,0.4L49,220.4z M52.5,218.3l-0.3-0.4l1.7-1l0.3,0.4L52.5,218.3z M56,216.3l-0.3-0.4l1.7-1l0.3,0.4
	L56,216.3z M59.4,214.3l-0.3-0.4l1.7-1l0.3,0.4L59.4,214.3z M62.9,212.3l-0.3-0.4l1.7-1l0.3,0.4L62.9,212.3z M66.4,210.3l-0.3-0.4
	l1.7-1l0.3,0.4L66.4,210.3z M69.8,208.3l-0.3-0.4l1.7-1l0.3,0.4L69.8,208.3z M73.3,206.3l-0.3-0.4l1.7-1l0.3,0.4L73.3,206.3z"/>
<g>
	
		<rect x="12.2" y="237.2" transform="matrix(0.8369 -0.5474 0.5474 0.8369 -128.056 45.6082)" class="st0" width="0.5" height="0.8"/>
	<g>
		<polygon class="st0" points="14,236.5 14.2,240.3 10.9,238.6 		"/>
	</g>
	<g>
		<polygon class="st0" points="14.1,236.7 10.8,235.1 11,238.8 		"/>
	</g>
</g>
<g>
	<path class="st0" d="M7.5,240.8c0.2,0,0.4,0.1,0.5,0.2c0.1,0.1,0.3,0.3,0.3,0.4s0.1,0.4,0.1,0.6c0,0.3-0.1,0.5-0.2,0.7
		s-0.3,0.4-0.5,0.5c-0.2,0.1-0.5,0.2-0.8,0.2c-0.3,0-0.6-0.1-0.9-0.2s-0.5-0.3-0.6-0.6l0.3-0.3c0.1,0.2,0.2,0.3,0.4,0.5
		s0.4,0.2,0.7,0.2c0.3,0,0.6-0.1,0.8-0.2c0.2-0.2,0.3-0.4,0.3-0.7c0-0.3-0.1-0.6-0.3-0.7c-0.2-0.2-0.5-0.3-0.9-0.3H6.7v-0.4h0.2
		c0.3,0,0.6-0.1,0.8-0.2c0.2-0.2,0.3-0.4,0.3-0.6c0-0.2,0-0.3-0.1-0.4s-0.2-0.2-0.3-0.3c-0.1-0.1-0.3-0.1-0.5-0.1
		c-0.3,0-0.5,0.1-0.7,0.2c-0.2,0.1-0.3,0.3-0.4,0.5l-0.3-0.3c0.1-0.2,0.2-0.3,0.3-0.4c0.1-0.1,0.3-0.2,0.5-0.3
		c0.2-0.1,0.4-0.1,0.6-0.1c0.3,0,0.5,0.1,0.7,0.2c0.2,0.1,0.4,0.2,0.5,0.4c0.1,0.2,0.2,0.4,0.2,0.6c0,0.2,0,0.3-0.1,0.5
		c-0.1,0.2-0.2,0.3-0.3,0.4S7.7,240.8,7.5,240.8z"/>
</g>
<g>
	<path class="st0" d="M218.6,252.9c-0.2,0.2-0.4,0.4-0.6,0.6c-0.3,0.1-0.5,0.2-0.9,0.2c-0.3,0-0.6-0.1-0.9-0.2
		c-0.3-0.2-0.5-0.4-0.6-0.7c-0.1-0.3-0.2-0.7-0.2-1.1c0-0.6,0.1-1.2,0.2-1.6c0.1-0.4,0.4-0.7,0.6-1c0.3-0.2,0.6-0.3,0.9-0.3
		c0.3,0,0.6,0.1,0.8,0.2c0.3,0.2,0.4,0.4,0.6,0.6l-0.3,0.3c-0.1-0.2-0.2-0.4-0.4-0.5c-0.2-0.1-0.4-0.2-0.7-0.2
		c-0.3,0-0.5,0.1-0.7,0.2s-0.3,0.4-0.5,0.7c-0.1,0.3-0.2,0.7-0.2,1.1c0.1-0.2,0.2-0.3,0.3-0.4c0.1-0.1,0.3-0.2,0.5-0.3
		c0.2-0.1,0.4-0.1,0.6-0.1c0.3,0,0.6,0.1,0.8,0.2s0.4,0.3,0.6,0.6c0.1,0.2,0.2,0.5,0.2,0.8S218.8,252.6,218.6,252.9z M217.8,253.1
		c0.2-0.1,0.3-0.3,0.4-0.4c0.1-0.2,0.2-0.4,0.2-0.6c0-0.2-0.1-0.4-0.2-0.6s-0.3-0.3-0.4-0.4c-0.2-0.1-0.4-0.2-0.6-0.2
		c-0.2,0-0.4,0.1-0.6,0.2c-0.2,0.1-0.3,0.3-0.4,0.4c-0.1,0.2-0.2,0.4-0.2,0.6c0,0.2,0.1,0.4,0.2,0.6c0.1,0.2,0.3,0.3,0.4,0.4
		s0.4,0.2,0.6,0.2S217.6,253.2,217.8,253.1z"/>
	<path class="st0" d="M222.9,251.7c0,0.4-0.1,0.7-0.2,1c-0.1,0.3-0.3,0.5-0.6,0.7c-0.3,0.2-0.5,0.3-0.9,0.3c-0.3,0-0.6-0.1-0.9-0.3
		s-0.5-0.4-0.6-0.7c-0.1-0.3-0.2-0.6-0.2-1c0-0.4,0.1-0.7,0.2-1c0.1-0.3,0.3-0.5,0.6-0.7s0.5-0.3,0.9-0.3c0.3,0,0.6,0.1,0.9,0.3
		c0.3,0.2,0.5,0.4,0.6,0.7C222.8,250.9,222.9,251.3,222.9,251.7z M222.4,251.7c0-0.3-0.1-0.6-0.2-0.8c-0.1-0.2-0.2-0.4-0.4-0.6
		c-0.2-0.1-0.4-0.2-0.6-0.2s-0.4,0.1-0.6,0.2c-0.2,0.1-0.3,0.3-0.4,0.6c-0.1,0.2-0.2,0.5-0.2,0.8c0,0.3,0.1,0.6,0.2,0.8
		s0.2,0.4,0.4,0.5s0.4,0.2,0.6,0.2s0.4-0.1,0.6-0.2s0.3-0.3,0.4-0.5C222.3,252.3,222.4,252,222.4,251.7z"/>
</g>
<g>
	<path class="st0" d="M26.8,6.8c0.2,0,0.4,0.1,0.5,0.2c0.1,0.1,0.3,0.3,0.3,0.4c0.1,0.2,0.1,0.4,0.1,0.6c0,0.3-0.1,0.5-0.2,0.7
		s-0.3,0.4-0.5,0.5s-0.5,0.2-0.8,0.2c-0.3,0-0.6-0.1-0.9-0.2s-0.5-0.3-0.6-0.6l0.3-0.3c0.1,0.2,0.2,0.3,0.4,0.5
		c0.2,0.1,0.4,0.2,0.7,0.2c0.3,0,0.6-0.1,0.8-0.2c0.2-0.2,0.3-0.4,0.3-0.7c0-0.3-0.1-0.6-0.3-0.7C26.8,7.1,26.5,7,26.2,7H26V6.6h0.2
		c0.3,0,0.6-0.1,0.8-0.2c0.2-0.2,0.3-0.4,0.3-0.6c0-0.2,0-0.3-0.1-0.4S26.9,5,26.8,5c-0.1-0.1-0.3-0.1-0.5-0.1
		c-0.3,0-0.5,0.1-0.7,0.2c-0.2,0.1-0.3,0.3-0.4,0.5l-0.3-0.3c0.1-0.2,0.2-0.3,0.3-0.4c0.1-0.1,0.3-0.2,0.5-0.3
		c0.2-0.1,0.4-0.1,0.6-0.1c0.3,0,0.5,0.1,0.7,0.2c0.2,0.1,0.4,0.2,0.5,0.4c0.1,0.2,0.2,0.4,0.2,0.6c0,0.2,0,0.3-0.1,0.5
		c-0.1,0.2-0.2,0.3-0.3,0.4C27.2,6.7,27,6.7,26.8,6.8z"/>
	<path class="st0" d="M31.9,6.5c0,0.4-0.1,0.7-0.2,1c-0.1,0.3-0.3,0.5-0.6,0.7c-0.3,0.2-0.5,0.3-0.9,0.3s-0.6-0.1-0.9-0.3
		c-0.3-0.2-0.5-0.4-0.6-0.7c-0.1-0.3-0.2-0.6-0.2-1c0-0.4,0.1-0.7,0.2-1c0.1-0.3,0.3-0.5,0.6-0.7c0.3-0.2,0.5-0.3,0.9-0.3
		s0.6,0.1,0.9,0.3c0.3,0.2,0.5,0.4,0.6,0.7C31.8,5.7,31.9,6.1,31.9,6.5z M31.4,6.5c0-0.3-0.1-0.6-0.2-0.8c-0.1-0.2-0.2-0.4-0.4-0.6
		c-0.2-0.1-0.4-0.2-0.6-0.2c-0.2,0-0.4,0.1-0.6,0.2c-0.2,0.1-0.3,0.3-0.4,0.6C29,5.9,29,6.1,29,6.5C29,6.8,29,7,29.1,7.3
		s0.2,0.4,0.4,0.5S30,8,30.2,8c0.2,0,0.4-0.1,0.6-0.2c0.2-0.1,0.3-0.3,0.4-0.5S31.4,6.8,31.4,6.5z"/>
</g>
</svg>
