<?xml version="1.0" encoding="utf-8"?>
<!-- Generator: Adobe Illustrator 24.0.2, SVG Export Plug-In . SVG Version: 6.00 Build 0)  -->
<svg version="1.1" id="Calque_1" xmlns="http://www.w3.org/2000/svg" xmlns:xlink="http://www.w3.org/1999/xlink" x="0px" y="0px"
	 viewBox="0 0 113.3 127.6" style="enable-background:new 0 0 113.3 127.6;" xml:space="preserve">
<style type="text/css">
	.st0{fill:#FCC857;}
</style>
<path class="st0" d="M107,74.5L107,74.5L107,74.5C107,74.5,107,74.5,107,74.5C107,74.5,107,74.5,107,74.5L68.3,52.1l0-21.8
	c0-0.6-0.3-1.2-0.9-1.5l0,0L47.6,17.3c-0.5-0.3-1.2-0.3-1.7,0L26.1,28.8l0,0c-0.5,0.3-0.9,0.9-0.9,1.5l0,21.8L6.4,63
	c-0.5,0.3-0.9,0.9-0.9,1.5l0,22.8c0,0.6,0.3,1.2,0.9,1.5l19.8,11.4c0.3,0.2,0.6,0.2,0.9,0.2s0.6-0.1,0.9-0.2l17.2-9.9l0,19.9
	c0,0.6,0.3,1.2,0.9,1.5l19.8,11.4c0.3,0.2,0.6,0.2,0.9,0.2c0.3,0,0.6-0.1,0.9-0.2l39.6-22.8c0.5-0.3,0.9-0.9,0.9-1.5V76
	C107.8,75.4,107.5,74.8,107,74.5z M66.6,73.9l-16.4-9.4l16.4-9.4l16.4,9.5L66.6,73.9z M64.8,52.1l-16.4,9.5l-0.2-18.7l16.6-9.6
	L64.8,52.1z M88,67.5l14.6,8.5L88,84.4V67.5z M46.8,20.8l16.4,9.4l-16.6,9.6l-16.1-9.6L46.8,20.8z M25.3,72.9l-14.6-8.5L25.3,56
	V72.9z M28.7,78.9l14.6,8.5l-14.6,8.5V78.9z M25.3,95.8L8.9,86.3l0-18.9l16.4,9.4V95.8z M47.6,85.8L28.7,74.9V53.1h0l0-19.8
	l16.1,9.6l0.3,21.7c0,0.6,0.3,1.2,0.9,1.5l18.9,10.9v41.7l-16.4-9.4l0-21.8C48.5,86.7,48.2,86.2,47.6,85.8z M104.4,97.8l-36.1,20.8
	V76.9l16.4-9.4v19.9c0,0.6,0.3,1.2,0.9,1.5c0.5,0.3,1.2,0.3,1.7,0l17.2-9.9V97.8z"/>
</svg>
