<svg version="1.0" id="Calque_1" xmlns="http://www.w3.org/2000/svg" xmlns:xlink="http://www.w3.org/1999/xlink" x="0px" y="0px"
	 viewBox="0 0 487.1 675.6" style="enable-background:new 0 0 487.1 675.6;" xml:space="preserve">
<style type="text/css">
	.st0{fill:#EC6585;}
</style>
<g id="HTa2DF.tif">
	<g>
		<path class="st0" d="M297.7,569.6c-1.8,9.1-4.1,10.7-14.2,9.7c-6.3-0.6-9.6,1.2-9.5,7.5c0,11.1,0.5,22.1,0.6,33.2
			c0,4-0.5,7.9-0.5,11.9c0,5.8,1.8,7.7,7.8,7.8c8.8,0.1,17.6-0.1,26.3,0.1c3.9,0.1,5.7-1.8,6.4-5.5c0.7-3.7-1.6-5.7-4.4-6.1
			c-5-0.8-10.2-0.6-15.3-0.9c-3-0.1-6.9,2.2-7.7-3.3c-0.9-6.5,0.9-10.2,6.3-10.6c8.4-0.6,16.8-0.6,25.2-0.9c1.2,0,2.3,0,3.5-0.2
			c6.4-1.6,6.1-1.6,6.5,4.7c0.4,5.7,0.9,11.7,2.8,16.9c3.9,10.3,17.5,17,30.6,10.1c7-3.7,10.7-9.3,10.3-17.5c-0.1-2.5,0.6-5,0.6-7.4
			c0-3.4,0-7-0.8-10.3c-0.4-1.5-2.7-3.3-4.2-3.4c-1.4-0.1-3.9,1.7-4.2,3.1c-1.1,4.8-1.8,9.7-2.1,14.6c-0.4,5.5-3.5,9.6-8.7,10.6
			c-4.3,0.9-9.3-1.1-10.1-5.3c-1-5-0.7-10.4-0.1-15.6c0.1-1.2,3.3-2.7,5.3-3.1c3.7-0.6,6.7-1.4,6.6-5.8c-0.1-3.4-3.4-5.8-7.7-4.8
			c-4.9,1.1-6.9-0.4-6.4-5.4c0.1-1.1,0.2-2.5-0.3-3.4c-0.8-1.6-2-3.8-3.3-4.1c-1.5-0.3-3.6,0.9-5.1,2c-0.8,0.7-1.1,2.4-1.2,3.6
			c-0.6,8.3-2.5,9.9-11.2,9.9c-9.7,0-19.4,0.5-29,0.4c-1.3,0-3.5-1.9-3.6-3c-0.3-3.2-0.5-7.1,4.3-7.5c6.6-0.5,13.2-1,19.9-1.1
			c3.7,0,6.5-1.1,7.1-4.7c0.7-4-2.3-5.4-5.7-6.1c-1.7-0.3-3.4-1-5.1-1.4c2.2-8,4.3-10,11.2-10.1c13.8-0.2,27.5,0.1,41.3-0.1
			c3.8,0,7.6-0.7,11.4-1.2c14.2-1.6,27.6-0.6,41.1,6.1c9.3,4.6,14.4,10.9,18.1,19.6c5.3,12.7,8.7,25.5,1.2,38.8
			c-2.9,5.2-4.2,11.3-7.4,16.3c-7.6,11.9-19.9,17.2-33.1,17.7c-22.2,0.9-44.5,0.1-66.8-0.2c-17.8-0.2-35.6-1.5-53.3-1.1
			c-18.6,0.4-37.3,3-55.9,3.3c-28.9,0.6-57.8,0.7-86.6-0.1c-12.2-0.3-24.7-2.1-36.2-5.7c-13.4-4.3-25.1-12.7-31-26.4
			c-3.5-8.1-4.6-16.9-1.6-25.8c1.1-3.4,1.6-7.1,2.4-10.7c1.8-9.3,6.8-17.1,14.5-21.9c6.1-3.7,13.5-6,20.5-7.1
			c11.3-1.7,22.8-2.2,34.2-2.5c17.7-0.4,35.5-0.2,53.3,0c3,0,6.1,1.2,9.1,1.9c1.8,0.4,3.5,1.4,5.3,1.3c11.5-0.2,23.1-0.6,34.6-0.9
			c2.7-0.1,3.6-1.2,3.6-4.1c-0.1-8,0.2-16,0.2-23.9c0.1-8.3,1.6-16.8-0.1-24.8c-3.1-14.7-0.1-29.1-0.6-43.7c-0.1-3.1-1-5.1-3.7-6.9
			c-5.4-3.6-7.4-8.9-5.7-15.2c0.9-3.1,0.1-4.8-2.3-6.7c-7.4-6.1-14.6-12.6-21.8-18.8c-6.1,3.8-6.6,5.2-4.2,11.5
			c3.3,8.9,2,17.2-4.6,24c-6.4,6.7-14.5,8.6-23.4,5.5c-8.8-3.1-14.2-9.6-14.8-18.8c-0.4-5.4-3.3-7.1-7.4-8.5
			c-1.4-0.5-3.1-0.5-4.3-1.3c-3.3-2.1-5.3-1.4-7.7,1.8c-4,5.4-10.3,6.4-16,3.3c-5.3-2.9-8.1-9.2-5.6-14.9c1.4-3.2,5-5.3,7.4-8.1
			c1.1-1.3,2.4-3,2.4-4.4c0-3.5-0.4-7-1.3-10.4c-0.4-1.6-1.9-3.6-3.4-4.2c-16.2-6.9-24.8-18.9-25.4-36.6c-0.1-2.9-1.2-4.1-4.1-4.6
			c-3.7-0.6-8.4-3.2-10.9-1.8c-3.4,2-5.3,6.9-7.6,10.7c-0.4,0.7-0.2,1.9,0,2.8c1.8,5.7,3.4,11.5,5.7,17c0.9,2.1,3.1,4.2,5.2,5
			c4.3,1.5,6.8,4,6.9,8.6c0.1,4.1-1.9,7.2-5.7,8.5c-3.9,1.3-7.7,0.8-10.2-2.9c-2.5-3.7-2.6-7.8,0.4-11.1c2.3-2.5,2.4-4.7,1.4-7.6
			c-1.6-4.7-2.9-9.6-4.4-14.3c-0.9-2.8-2.5-3.7-5.7-2.8c-10,2.8-19.2-0.9-23.6-9c-4.6-8.7-2.5-18.1,5.3-25.2c1.3-1.2,2-4,1.7-5.8
			c-0.5-3.4-2.1-6.6-2.9-10c-1-4.4-3.3-6.7-8-5.7c-1.3,0.3-3.6,0.6-3.8,1.3c-0.4,1.8-0.1,3.9,0.5,5.6c0.7,1.8,2.4,3.2,3.2,5
			c1.9,4.3,0.6,7.9-3,9.9c-4.3,2.3-9.7,0.9-12.2-3.2c-2.4-3.9-0.9-7,2.3-9.6c0.8-0.6,1.6-1.2,2.4-1.8c4.5-3.4,4.3-7.5-0.5-10.5
			c-12.8-8-15.6-23.6-6.6-35.5c1.2-1.6,2.5-4.5,1.8-5.8c-1.8-3.5-3.1-7.8-8.4-8.3c-2.7-0.2-5.6-0.8-7.9-2.1C2.8,259,0.3,255.1,2,251
			c1.4-3.3,4.2-7,7.3-8.5c4.1-1.9,8.3,1,10.6,4.6c2.2,3.4,4.5,3.7,7.9,3c3.5-0.8,5.3-2.4,4.3-6.2c-0.4-1.6-0.8-3.3-0.8-4.9
			c-0.1-6.5-2.1-10.2-9.6-11.6c-10.6-2-17.5-13.3-16.4-23.2c1.3-12,9.8-20.3,21.5-21.2c8.6-0.7,12.9-8.1,9-15.8
			c-1.9-3.9-2.6-7.8,0.9-11c3.4-3.1,7.8-3.2,11.7-1.3c4.2,2.1,5.4,6.3,4.6,10.7c-0.8,4.4-4,6.9-8.5,7c-6.6,0.2-5.2,6-6.5,9.6
			c-0.4,1.1,2.8,3.7,4.7,5.2c0.6,0.5,2.8-0.3,3.7-1.1c4.3-3.9,9.6-7.3,12.4-12.1c3.2-5.5,4.5-12.2,5.6-18.6c0.4-2.1-2.5-4.8-4-7.3
			c-2.2-3.6-5-1.1-7.6-0.8c-11.3,1.6-21.1-6.1-21.8-17.3c-0.7-10.6,7.9-19.2,19.1-19.1c6.4,0.1,8.9-1.7,10.3-7.8
			c0.3-1.3-0.5-3.1-1.3-4.4c-4.2-6.1-4.3-11.5-0.1-16.5c3.6-4.2,9.8-5.6,15-3.3c5.4,2.4,8.2,7.7,6.8,14.5c-1.3,6.5,3.9,5.5,7.1,7.7
			c0.9-2.2,1.7-3.8,2.4-5.5c2.3-5.3,6.1-9,11.3-11.5c1.8-0.9,4.6-2.7,4.5-3.9c-0.3-3.3-0.3-7.1-5.2-8.4c-6.1-1.6-8.6-7.6-6.1-13
			c2.3-5,8-7.1,13-4.6c5.3,2.7,7.1,8.6,3.5,13.9c-2.9,4.3-1.3,8.4-0.7,12.5c0.5,3.3,10.5,4.6,12.7,1.9c1.6-1.9,2.9-4,4.5-6
			c3.3-4.2,4.5-8.1,2.3-14c-5.9-15.4,7.1-30,24.2-28.3c1.9,0.2,4.5-0.4,5.9-1.7c2.2-2.1,2.9-4.7,1-8c-2.8-4.9-1.4-10.6,2.7-14
			c3.9-3.2,9.9-3.2,13.9-0.2c4,3,5.5,8.2,3.7,13c-1.8,5-6.7,7.9-12.4,7c-2.8-0.5-5.1-0.9-6.7,2.3c-1.1,2.2-1.2,3.6,0.8,5.6
			c2.7,2.6,5.8,5.5,7,8.8c1.7,4.7,4.7,6.7,9.1,8c7.9,2.5,15.6,5.4,23.8,8.3c1.6-5.9,3.3-11.4,4.4-17.1c0.2-1.1-2-3-3.5-3.9
			c-10-6.2-12.1-19.2-4.5-27.5c5.2-5.7,11.6-7,18.7-5.2c7.1,1.9,11.4,7.1,12.4,14.2c0.6,4.3,2.5,6.1,6.2,7c1,0.2,1.9,0.6,2.8,1
			c7.9,3.6,8.2,3.6,13.7-2.9c0.8-0.9,0.7-3.1,0.2-4.3c-1.5-3.5-3.2-7-5.4-10.1c-1.3-1.8-3.7-2.8-5.5-4.4c-1.8-1.6-4.2-3.4-4.7-5.4
			c-0.3-1.4,1.9-4.9,3.3-5c2.1-0.2,4.5,1.5,6.8,2.5c2,0.9,3.8,2.5,5.8,2.9c3.2,0.6,6.6,0.3,9.9,0.6c3.7,0.4,6.5,0,9.2-3.2
			c3.6-4.3,10.1-3.2,12.3,2.1c1.9,4.6,6.1,4.7,9.5,6.5c3.7,1.9,7,2.4,10.9-0.6c5.1-3.9,12.5-1.3,15.1,4.5c2.6,5.6,0,12.6-6.1,14.1
			c-4.5,1.1-5.5,3.8-5.6,7.4c-0.2,9.1-0.3,18.3-0.2,27.4c0,2.9,3.9,5.4,6.8,4.8c3.5-0.7,5.8-4,5-7c-2.8-9.8,1.6-16.6,11.5-17.6
			c4.4-0.5,7.3-3.6,7.2-8.3c-0.1-4.2,0.3-8,4.8-9.9c3.7-1.6,7.1-0.8,9.5,2.1c2.9,3.5,3.9,7.5,1.7,12.1c-0.7,1.4-0.8,3.6-0.2,5
			c3.4,8.1,7.2,16.1,10.8,24.1c1.1,2.4,2.3,4.2,5.6,3.4c3.3-0.8,3.6-2.9,3.4-5.6c-0.2-2.2-0.4-4.3-0.5-6.5c-0.1-3.5-1.5-5.7-5.1-7
			c-4.6-1.7-6.9-6.5-6-10.9c0.9-4.5,5-8,9.5-8.2c4.5-0.2,8.8,2.9,10.1,7.4c1.2,4.3-0.2,8.1-3.8,10.5c-2.6,1.8-3.5,3.7-2.8,6.6
			c0.3,1.4,0.3,3,0.2,4.5c-0.5,5.5,1.2,8.6,7.2,10.3c4.3,1.3,7.7,5.4,11.5,8.2c1.6,1.2,3.8,3.5,4.7,3.1c2.6-1.3,5.7-3.2,6.6-5.6
			c1.4-3.8,2.9-6.9,7.1-7.3c4.2-0.5,6.6,2.5,8.5,5.8c1.9,3.5,1.9,7.4-1.5,9.3c-2.4,1.4-6.5,1.8-9.1,0.8c-7.1-2.9-12-0.3-12,7.3
			c0,8.6,0,8.6,8.1,11.4c1.1,0.4,2.3,0.7,3.3,1.2c4.4,2.4,7.8,2.6,11.5-2c4.7-5.8,13.2-6.4,19.6-2.5c6,3.6,9,11.2,7.1,18.3
			c-1.7,6.6-8.5,11.4-15.8,11.5c-2.2,0-5.6-0.5-6.4,0.7c-2.1,2.9-3.1,6.6-4.2,10c-0.2,0.8,1.1,2.3,2.1,3c6.3,5.1,9.3,11.7,8.5,19.7
			c-0.4,4.3,1.6,5.9,5.2,7.1c3.7,1.3,4.5-1.4,6-3.6c5.4-8.3,14.5-12.1,23.7-10.1c8.9,2,15.7,8.9,17.1,17.5
			c1.7,10.1-2.4,19-11.6,23.8c-3.5,1.9-3.8,3.8-2.6,7.2c1.7,4.7,2.4,9.3,9.2,9.8c4.2,0.3,7.1,4.6,6.7,8.7c-0.3,3.3-2.1,7.1-4.4,9.3
			c-3.2,3.1-7.5,2.8-11.6,0.5c-1.9-1-4.5-1.6-6.6-1.3c-3,0.5-3.9,2.5-3.4,5.9c1.5,9.3-0.7,17.9-7.2,25c-2.4,2.6-2.5,4.7-0.8,7.5
			c1,1.7,1.8,3.6,2.5,5.4c1.4,3.9,3.4,6.3,8.3,6.1c4.6-0.2,8.4,3.8,9.4,8.3c0.9,4.4-1.5,9.2-5.5,11.3c-4.2,2.1-9.7,1.8-12.2-2
			c-3.1-4.6-6.6-4.7-11.1-3.6c-2.6,0.7-5.3,0.7-7.8,1.7c-1.8,0.7-3.4,2.4-4.9,3.9c-2.5,2.6-4.4,5.9-7.2,7.9
			c-2.7,1.9-3.4,3.6-2.5,6.6c1,3.2,1.9,5.6,6.1,5.8c12.9,0.5,21.3,9.4,21.4,21.6c0.1,8.4-3.5,14.9-10.6,19.1
			c-7.5,4.4-15.3,4.4-22.7-0.3c-3-1.9-4.9-2.2-7.7,0.4c-2.6,2.5-6.3,3.7-9.1,6c-1.2,1-2.1,3.9-1.6,5.2c7.3,18-7.4,38-28.9,32.3
			c-2.8-0.7-4.4,0.2-5.6,2.6c-1.9,3.7-4.3,7.2-5.8,11c-0.9,2.5-1.2,5.7-0.6,8.3c1,4.9-0.1,9.8-3.7,12.6c-3.8,2.8-8.6,2.8-12.6,0
			c-4.1-2.9-6.1-8-3.8-12.8c1.7-3.7,1-6.6-0.5-9.9c-2.6-5.6-5.1-11.2-7.2-17c-1.7-4.6-5.5-3.1-8.4-3.2c-1.5-0.1-3.7,1.8-4.6,3.3
			c-2.4,4.1-4.7,8.5-6.4,13c-0.7,1.8-0.5,4.6,0.5,6.1c6.7,10.3,5.4,22.3-3.6,29.5c-8.7,7-21.3,5.7-29.6-3.1c-1-1-2.5-2.6-3.5-2.4
			c-5.9,0.8-11.7,1.9-17.5,3.3c-0.9,0.2-1.2,2.8-1.9,4.2c-1.5,3.2-2.4,7.6-4.9,9.3c-5.3,3.5-4.3,8-4,12.7c0.6,8.9,1.5,17.8,1.6,26.7
			c0.1,11.3-0.7,22.6-0.9,33.9c-0.1,8.7,0,17.3,0.1,26c0.1,5.3,0.9,5.7,6.3,5.5c13.6-0.6,27.2-0.9,40.8-1.3
			C294.6,568.7,296.2,569.3,297.7,569.6z M187.5,622.7c0.1,0,0.3,0,0.4,0c-0.1-1.5,0-3-0.3-4.5c-0.9-3.9,1.3-5.2,4.5-5.5
			c3.6-0.3,3.9,2.3,3.9,5c0,1-0.1,2,0,3c0.7,7.3,2,14.4,10,17.5c6.4,2.5,19-0.8,23.5-6.2c0.8-1,1.7-2.3,1.7-3.5
			c0.2-8.1,0.7-16.2,0.1-24.2c-0.3-4.6-6.1-6.9-8.8-3.8c-1.5,1.7-1.7,4.8-1.9,7.3c-0.4,4.8,0,9.6-0.6,14.3c-0.4,3.5-6.3,7.3-9,6.3
			c-3.7-1.4-3.6-4.5-3.3-7.9c0.3-4.8,0.3-9.6-0.1-14.3c-0.3-3.6-2.8-5.7-6.6-5.1c-3.1,0.4-6.2,1-9.3,1.8c-4,1.1-5.9,0.3-5.9-4.3
			c0-5.4-3.5-9.6-6.8-8.7c-4.8,1.3-4.7,5.5-4.1,9.4c0.5,3-0.7,4.4-3.4,5c-3.7,0.8-7.4,2-11.1,2.5c-5.8,0.9-6.8,2.3-6.4,8.1
			c0.3,4.6,0.2,9.4-1.1,13.7c-0.6,2.2-4.3,5-6.3,4.8c-2.1-0.2-4.8-3.4-5.6-5.8c-1.3-3.7-1.6-7.8-1.6-11.7c0-4.4-2.5-4.8-5.8-4.7
			c-7.3,0.3-14.6,0.6-21.9,0.8c-1.6,0-3.5-0.2-4.6-1.1c-2.8-2.2-3.1-16.5-0.7-19c0.4-0.5,1-0.9,1.6-1.2c6-3.2,13.7-3.6,17.6,3.1
			c1.8,3.1,5.3,5.6,8.8,3.2c3.6-2.5,1.6-6.3,0-9.4c-0.5-1-1.4-1.8-2.1-2.7c-3.9-4.7-9.3-6.2-14.9-7.3c-10.6-2-23,5.9-25,16.3
			c-0.7,3.9,0,8.2,0.2,12.3c0.3,3.9-0.1,6.8-5.1,7.3c-1.5,0.2-3.7,2.8-3.7,4.4c-0.1,1.3,2.4,2.9,4,4c1,0.7,2.6,0.9,3.8,0.7
			c2.9-0.3,3.7,1.2,4.1,3.7c0.9,5.2,1.8,10.5,2.9,15.6c0.7,3.3,2.4,6.3,6.4,5.5c3.7-0.8,4.6-4,4-7.5c-0.7-3.7-1.6-7.5-2.4-11.2
			c-1-4.8,0.2-6.4,5.3-6.5c2.5-0.1,5,0.1,7.5,0c10.3-0.4,10.3-0.5,11,10c0.1,1.2-0.2,2.5,0.3,3.5c0.8,1.8,1.6,3.9,3,4.9
			c10.3,6.7,24.1,5.8,29.6-8.1c1.3-3.3,1.6-7,1.9-10.6c0.4-4.3,2.7-6.7,7.4-6.9c4.1-0.2,3.5,3.4,3.8,5.7c0.7,4.9,1,9.9,1.5,14.8
			c0.4,3.9,2.9,6.3,6.6,5.8c4.1-0.5,5-3.8,4.5-7.6C188.3,629.9,187.9,626.3,187.5,622.7z M306.6,35.1c1.2-7-4.1-11.1-10.6-8.5
			c-5.4,2.2-10.6,4.7-15.9,7.1c-2.9,1.3-4.1,3.2-3.5,6.7c0.5,2.8-0.8,5.8-0.8,8.8c0,1.8,0.2,4.3,1.4,5.4c5.4,4.8,11.2,9.3,16.9,13.9
			c3.3,2.6,12.2-0.9,12.3-5.1C306.8,53.9,306.6,44.5,306.6,35.1z M386.8,332.8c-0.8,0.5-1.6,1-2.4,1.6c-2.7,2.2-5.4,4.3-8.1,6.6
			c-0.7,0.6-1.8,1.6-1.7,2.2c0.8,6.2,1.3,12.6,3.1,18.5c0.7,2.1,5.4,2.5,7.5,4.5c6.5,6,11.4,3.1,17.2-1.5c4.1-3.2,7.3-5.2,4.2-10.8
			c-1-1.7-0.3-4.3-0.8-6.3c-0.5-1.7-1.4-3.8-2.7-4.8c-4.2-3-8.6-5.6-13-8.2C389.2,333.8,388.1,333.4,386.8,332.8z M441.8,218.9
			c0.3-0.3,1.9-0.9,2.6-2.1c2.2-3.3,3.9-7,6-10.3c1.8-2.9,1.7-4.9-1.2-7.1c-5.1-4-8.2-9.6-7.7-16c0.4-5.7-3.2-6.4-6.8-8
			c-3.9-1.8-4.1,2.3-5.9,3.7c-2.2,1.7-4.1,4-6.5,5.3c-2.7,1.5-3.3,3.3-2.4,6.1c2.9,8.1,5.6,16.3,8.7,24.4c0.5,1.3,2.5,2.5,4.1,2.9
			C435.2,218.4,437.9,218.4,441.8,218.9z M383.8,629.8c4.8,7.9,11.5,11.8,20.4,11.7c5.1,0,7.7-2.1,7.9-6.3c0.2-3.9-2.5-6-7.8-6.3
			c-7.5-0.4-13.5-8.6-11.3-15.8c0.5-1.7,2.5-3.6,4.2-4.2c3.1-1,6.5-1,9.8-1.7c3.3-0.7,5.9-3,5-6.2c-0.6-2.1-3.4-4.3-5.7-5
			c-2.9-0.9-6.3-0.4-9.4-0.2c-8.3,0.6-14.8,5.3-15.9,12.7c-1.1,7.6-0.7,15.5-0.9,23.2c0,0.2,0.4,0.4,1,0.9
			C381.8,632,382.5,631.2,383.8,629.8z M423.3,217c-0.1-0.3-0.1-0.7-0.2-1c-3.5-8.9-6.8-17.9-10.6-26.8c-1.4-3.3-9.6-4-11-1.1
			c-3.3,6.9-6.4,13.8-9.3,20.8c-0.5,1.1-0.3,3.3,0.5,4c5.1,4.2,10.3,8.2,15.7,12.1c1.7,1.2,14.5-5.4,14.8-7.5
			C423.4,217.4,423.3,217.2,423.3,217z M282.8,396.3c1.6,6.2,3,11.3,4.3,16.5c0.7,2.9,2.4,3.9,5.4,4c3.4,0.1,6.8,1.2,10.2,1.6
			c1.2,0.2,3.1,0.2,3.5-0.5c3-5.4,6.1-10.7,8.1-16.5c0.6-1.7-2.4-4.6-3.7-6.9c-0.2-0.3-0.4-0.6-0.4-0.9c-1.5-8.4-9.6-9.7-14.5-8.6
			C290.7,386,286.9,392.5,282.8,396.3z M314.1,98.2c-5.9-0.3-9.5,2.5-10.6,7.9c-0.9,4.4-1.8,8.8-2.3,13.2c-0.2,1.5,0.4,3.7,1.5,4.7
			c4.7,4.6,9.5,9,14.6,13.1c1.3,1.1,3.9,1.2,5.7,0.7c1.2-0.3,2.4-2.3,2.9-3.7c1.3-3.8,2.4-7.7,3.3-11.7c0.3-1.4,0.8-3.4,0.1-4.4
			c-4-6.1-8.3-11.9-12.6-17.8C315.8,99.2,314.6,98.6,314.1,98.2z M246.2,126.5c1.6-5.1,3.2-9.9,4.3-14.8c0.2-1-1-2.8-2-3.5
			c-8.1-5.6-11-13.3-9.7-22.9c0.2-1.3-0.7-3.4-1.7-3.9c-2.9-1.5-6.1-3.4-9.2-3.3c-2.3,0-4.8,2.5-6.7,4.4c-0.7,0.7-0.7,3.3,0,4.1
			c6.4,7.8,8.1,16.4,5.7,26.1c-0.3,1.2,0.5,3.5,1.5,4C233.9,120.2,239.7,123,246.2,126.5z M344.4,390.5c-2.5,1-5.7,1.3-7.4,3.1
			c-6.7,6.8-6.5,7-2.4,15.9c1.2,2.7,2.5,5.4,3.7,8.1c1.9,4.3,3.3,9.2,9.8,7.7c0.8-0.2,2,0.9,2.8,0.7c1.6-0.4,3.8-0.8,4.6-1.9
			c2.3-3.8,4-8,6.1-11.9c1.4-2.6,1.1-4.3-1.1-6.4c-2.4-2.4-5-5.2-6-8.3C352.9,392.1,349.2,391.3,344.4,390.5z M216.9,267.6
			c-0.7-0.7-1.4-1.4-2.1-2.1c0-6.9-3.1-10-9.6-11.1c-3.7-0.6-7.2-2.3-10.9-3.2c-1.2-0.3-3.3-0.4-3.9,0.3
			c-4.7,5.4-9.4,10.8-13.5,16.6c-3,4.3,1.6,7.2,3.3,10.5c0.5,0.9,3.8,1.1,5.4,0.6c9-3.2,18-6.9,27-10.3
			C213.9,268.3,215.5,268,216.9,267.6z M256.1,593.6c-0.2,0.4-0.4,0.8-0.7,1.2C243,594,237,601.1,236.2,612
			c-0.5,6.1-0.2,12.2,0.1,18.3c0.2,3.4,0.9,7,5.1,7.5c4.1,0.5,6.7-2.1,7.3-6c0.4-2.7-0.2-5.5-0.2-8.3c-0.1-4.4-0.3-8.9,0.1-13.3
			c0.2-1.8,2.1-4.9,3.2-4.9c1.8,0,3.8,1.9,5.5,3.3c1,0.8,1.5,2.2,2.5,3c3.9,3.1,9.3,1.1,9.6-3.8c0.1-2.7-0.8-6.3-2.6-8
			C263.8,597,259.7,595.6,256.1,593.6z M411.6,143.6c1.8-0.5,4.5-0.5,5.3-1.7c2.2-3.3,4-7,5-10.7c0.4-1.7-1.8-4-2.4-6.2
			c-0.8-2.8-1-5.8-1.9-8.7c-0.5-1.6-1.4-3.8-2.7-4.3c-4.4-1.9-9-3.3-13.6-4.5c-1.4-0.4-3.9,0.2-4.5,1.2c-1.6,2.5-5.7,4.2-3.5,8.4
			c3.7,7.2,7.3,14.5,10.9,21.8C405.7,142,407.7,144,411.6,143.6z M350.9,213.9c-5-1.6-6.9,1.3-8.2,5.7c-1.5,4.9-3.6,9.6-5.3,14.4
			c-3.3,9.1-3.3,9.1,6,10.5c0.3,0,0.7,0.1,1,0.2c6.8,2.3,11,0.6,16.1-5.6c5.1-6.2,4.4-10.3,1.2-15.9c-0.8-1.4-1.6-2.9-2.2-4.5
			C357.9,215,355.5,212.6,350.9,213.9z M75.8,309.3c1.7-4.1-0.7-5.2-3.9-5.7c-2.4-0.4-4.9-0.9-7.3-1.1c-1.2-0.1-2.9-0.1-3.7,0.7
			c-3.6,3.3-8.8,6.4-9.9,10.6c-1.1,4.1,1.8,9.4,3.1,14.2c0.3,1.3,0.8,2.6,1.5,3.7c0.6,0.9,1.5,1.9,2.4,2.2
			c8.1,2.7,10.6,1.7,15.6-5.5c0.4-0.5,0.8-1.1,1.2-1.6c2.7-3.7,4.8-7.4,2-12.2C75.8,313,76,311,75.8,309.3z M385.1,119.1
			c-4.2,0.5-7.4,0.7-10.5,1.4c-1.1,0.3-2.5,1.6-2.8,2.8c-1.4,4.8-2.5,9.6-3.4,14.5c-0.2,1.2,0.7,3.3,1.8,3.8c6.5,3.6,13.2,7,20,10.1
			c1.1,0.5,3.6-0.3,4.5-1.3c1.7-1.9,4.3-5,3.7-6.5c-3-7.7-6.9-15.1-10.7-22.5C387.1,120.3,385.6,119.5,385.1,119.1z M288.3,196.2
			c0,0,0.1,0,0.1,0c0-0.5,0-1,0-1.5c0.3-11.9,0.3-12-10.6-16.2c-1.1-0.4-2.8-0.6-3.6-0.1c-4,2.9-7.9,6-11.6,9.3
			c-0.9,0.8-1.3,3.3-0.7,4.2c4.6,6.6,9.5,13.1,14.5,19.5c0.7,0.9,2.6,1.6,3.7,1.5c7.2-1,8.1-2.1,8.1-9.3
			C288.4,201.2,288.3,198.7,288.3,196.2z M390.5,156.1c-0.3-0.3-1.1-1.8-2.5-2.6c-3.6-2.1-7.3-3.9-11-5.7c-10.4-5.1-10.5-5.1-14.1,6
			c-1,3.1-3.4,6.7-2.7,9.3c0.7,2.7,5.1,4.2,6.8,6.9c4.6,7.1,9.8,5.4,15.5,2.1c1.4-0.8,3.1-1.2,4.4-2.2c1-0.7,2-1.9,2.2-3
			C389.8,163.8,390,160.6,390.5,156.1z M269.9,338.5c-9.8-0.1-11.9,1.4-15.3,9.9c-0.5,1.2-1,2.5-1.5,3.7
			c-5.1,11.2-5.2,11.3,6.3,15.9c1.3,0.5,3.3-0.1,4.7-0.7c4.2-1.7,8.5-3.2,12.3-5.6c2.4-1.5,4.3-4.1,5.5-6.7c0.6-1.2-0.8-3.7-1.9-5.2
			c-2.2-3.1-4.8-5.9-7.3-8.7C271.7,340,270.4,339,269.9,338.5z M369.2,273.1c-2.1-1.7-4.8-4.2-7.8-6c-1-0.6-3.5,0.1-4.7,1
			c-3.7,3-7.4,6.2-10.7,9.6c-8.1,8.5-7.9,8.4-0.5,17.1c3.2,3.7,5.9,5.8,10.7,2.5c1.9-1.3,4.8-1.1,7-2.2c1.5-0.7,3.4-2.3,3.7-3.7
			C367.9,285.8,368.4,280.2,369.2,273.1z M335.6,284.8c2.5-2.7,3.7-4,5-5.2c4.5-4.4,9.1-8.7,13.5-13.2c1.4-1.4,3.5-3.7,3.1-4.8
			c-0.8-2.1-2.8-4.5-4.9-5.3c-5.1-1.8-10.4-2.9-15.7-3.7c-2-0.3-5.4,0.2-6.2,1.5c-2.7,4.5-4.6,9.5-6.6,14.4c-0.3,0.9,0,2.4,0.6,3.2
			C327.9,276.1,331.6,280.2,335.6,284.8z M170.4,396.4c-2.7,2.2-5.5,4.6-8.3,6.8c-2.2,1.7-2.4,3.6-1,6c2.1,3.9,4.1,8,5.9,12
			c1.1,2.4,2.4,3.5,5.3,2.8c6.1-1.3,12.3-1,17.7,2.6c3.7,2.4,4.9-0.8,6.7-2.7c2.2-2.2,0.7-3.8-1-5.4c-7.6-6.9-15.3-13.7-22.9-20.5
			C172.3,397.6,171.6,397.2,170.4,396.4z M185.4,330.2c-4.8-5-9.3-9.2-13.2-13.8c-3.4-4-6.5-6.4-11.5-2.6c-1.2,0.9-3.1,1.3-4.7,1.4
			c-5,0.4-4.6,4.6-5.4,7.8c-0.7,2.9-0.8,5.7,2.3,7.9c4,2.9,7.5,6.4,11.4,9.5c1,0.8,2.9,1.8,3.6,1.4
			C173.6,338.3,179.1,334.4,185.4,330.2z M233.8,339.7c6.7-1.3,12.4-2.3,18.1-3.7c1.6-0.4,3.5-1.5,4.3-2.9c2.2-3.7,4.3-7.6,5.7-11.6
			c0.5-1.4-0.4-4.8-1.4-5.1c-3.2-1-6.5-6-10-1.5c-6.4,8.1-14.4,10.3-23.9,7.7c-2.6-0.7-4.2-0.3-5.2,2.2c-1,2.5-1.3,4.6,1.6,6.4
			c2.4,1.4,4.2,3.8,6.3,5.5C230.8,338,232.6,338.9,233.8,339.7z M288.8,122c7.5-0.5,7.5-0.5,8.7-7.2c0.7-4.2,1.7-8.5,2.3-12.7
			c0.2-1.4-0.4-3.2-1.2-4.3c-2.4-3.1-4.8-6.3-7.8-8.8c-1.6-1.4-4.4-2.1-6.5-1.9c-1.1,0.1-2.3,2.5-3,4.1c-1.3,3.4-1.3,7.6-3.5,10.2
			c-4,4.7-3.3,8.4,0.3,12.6c1,1.1,1.8,2.4,2.4,3.8C282.4,121.3,285.1,123.2,288.8,122z M62.6,206.4c-10.2,0-10.2,0-13.2,8.9
			c-0.1,0.3-0.4,0.6-0.3,0.9c0.1,1,0,2.5,0.6,3.1c5.9,5.5,11.8,11.2,18.2,16.1c1.6,1.2,5.5,0.2,8-0.7c1.1-0.4,1.8-3.3,1.7-5
			c-0.2-3.8-1.2-7.5-1.4-11.3C75.4,205.3,75.3,206.5,62.6,206.4z M182.4,83.1c-1.4-1.2-3.5-2.6-5.2-4.4c-5.9-6.5-12.2-8.7-19.4-2
			c-1.2,1.1-2.6,2.7-2.6,4.1c0,6.1,0.4,12.2,1.1,18.3c0.1,1.1,2,2.7,3.1,2.8c4.3,0.1,8.6-0.1,12.9-0.5c0.9-0.1,1.9-1.1,2.3-2
			C177.2,94.2,179.6,89,182.4,83.1z M210.6,298.6c0.7-0.6,2.3-1.7,3.5-3.2c1.1-1.4,1.5-3.6,2.8-4.6c6-4.5,3.9-9.6,1.7-14.9
			c-1.1-2.8-2.5-3.4-5.3-2.3c-8.1,3.3-16.3,6.4-24.4,9.7c-1.6,0.7-4.2,2.9-4,3.3c1.4,3,2.9,7.3,5.4,8.1
			C196.3,296.8,202.8,297.2,210.6,298.6z M201.7,171.4c0.3-2.4,0.6-3.7,0.5-4.9c-0.4-4.4-0.9-8.8-1.6-13.2c-1-6.4-1.9-12.8-3.7-19
			c-0.6-2-3.8-3.6-6.2-4.4c-1.1-0.4-3.4,1.2-4.5,2.4c-3.4,4-6.7,8.2-9.7,12.6c-0.8,1.1-1.2,3.8-0.5,4.4
			C184.1,156.5,192.4,163.5,201.7,171.4z M389.1,325.7c0.4,0.5,1.1,2.1,2.3,2.8c3.9,2.4,8.1,4.5,12.1,6.8c3,1.7,5.2,1.8,7.5-1.4
			c1.6-2.2,4.4-3.5,6.4-5.4c1.5-1.4,3.9-3.3,3.6-4.7c-0.6-3.4-0.2-7.6-5.7-8.5c-3.7-0.6-6.9-3.3-10.4-5c-1.3-0.7-3-1.8-4.2-1.5
			c-7.8,1.8-10.6,5.3-11.2,13.4C389.5,323,389.3,323.8,389.1,325.7z M102.6,303.3c8.2-2.3,15.5-4.4,22.9-6.3
			c3.2-0.8,4.5-2.5,5.1-5.7c0.7-3.7,2.5-7.1,3.4-10.8c0.4-1.8,0.4-4-0.3-5.6c-1.1-2.5-3.2-2.8-5.8-1.7c-1.9,0.8-4.2,0.7-6.3,1.1
			c-1.4,0.3-3.2,0.4-3.9,1.4c-5.8,7.2-11.5,14.6-17.1,22c-0.7,0.9-1,2.6-0.6,3.5C100.5,302.2,102,302.9,102.6,303.3z M179.8,385.1
			c-2.1,2.5-4.3,4.5-5.6,6.9c-0.6,1.1,0.5,3.8,1.6,4.9c6.7,6.4,13.6,12.6,20.6,18.7c1.4,1.2,4.8,2.6,5.4,2.1c2.4-2.3,6.3-4,5-8.8
			c-1-3.6-1.3-7.4-2.1-11.1c-0.3-1.2-0.8-2.9-1.6-3.3C195.6,391.3,188.1,388.4,179.8,385.1z M67.9,157.1c3.2-2,5.5-3,7.1-4.7
			c2.3-2.4,4-5.3,6-7.9c7.7-10.4,7.7-10.4,1.2-21.6c-1.4-2.4-2.6-5.6-6.3-3.5c-3.2,1.8-8.7,1.3-7.8,7.7c0.8,5.9-1.5,11-5.2,15.6
			c-1,1.2-1.8,3.7-1.2,4.9C63.2,150.7,65.5,153.5,67.9,157.1z M206.4,62.5c1.3,1.3,2.4,3.2,4,3.9c4.4,1.8,9,3.3,13.6,4.6
			c1.3,0.4,3.1,0.5,4.3-0.1c8.1-3.9,9.1-8.1,3.9-15.5c-1.2-1.8-2.6-3.5-3.6-5.3c-2.8-5.2-6.2-9-12.7-5.4c-1.7,0.9-4.5,1.4-5.1,2.8
			C209,52,207.9,56.8,206.4,62.5z M223.4,168.4c-5.2-7.6-5.8-14.4-1-21.2c0.5-0.7,0.5-2.3,0.1-3.2c-2.4-4.4-4.8-8.8-7.5-12.9
			c-2.5-3.7-5.5-0.5-8,0.2c-1.2,0.3-2.6,2.6-2.6,3.9c0.7,11.2,1.7,22.4,2.7,33.6c0.1,1.2,0.7,2.4,1.2,4.2
			C213.4,171.5,218,170.1,223.4,168.4z M432.3,277.3c-0.2-0.5-0.5-1.1-0.7-1.6c-2.2,1.2-5.3,1.8-6.5,3.6c-2.2,3.5-1.2,6.9,2.6,9.2
			c1.1,0.7,2.3,1.9,2.5,3c1.7,9.8,8,8.9,15,6.7c0.9-0.3,2-0.2,2.9-0.4c3.9-0.8,7.6-7.9,6-11.6c-1.4-3.3-3.1-6.6-4.6-9.9
			c-1.2-2.8-2.7-3-5.5-2C440.4,275.6,436.3,276.3,432.3,277.3z M122.6,242.7c1.4-5-1.2-7-5.9-8.1c-2.4-0.5-4.6-1.8-6.8-3
			c-5.7-3.1-8.4-2.6-12.3,2.9c-0.7,0.9-1.2,2-1.9,2.9c-4.9,6-2.5,13.2,5,15.4c6.1,1.9,11.5,4.2,17.7-1.5
			C121.4,248.6,123.4,246.9,122.6,242.7z M45.7,249.2c4.5-0.4,9.6-0.6,14.7-1.4c1.6-0.2,3.4-1.9,4.2-3.4c0.6-1.1,0.1-3.4-0.7-4.3
			c-5.2-5.4-10.5-10.6-16-15.6c-1-0.9-3.1-1.5-4.2-1c-10.3,4.6-10.2,4.7-8.2,15.7c0.2,0.8,0.3,1.6,0.5,2.4
			C37.4,249.2,37.4,249.2,45.7,249.2z M339,357.1c3.8-6,7.3-11.4,10.7-16.8c0.4-0.7,0.4-1.9,0-2.7c-4.8-9.4-7.8-10.8-18.1-8.7
			c-0.8,0.2-1.6,0.2-2.5,0.4c-2.8,0.4-8.9,13.4-7.4,15.8c0.3,0.5,0.9,1,1.4,1.4C328.2,349.8,333.3,353.2,339,357.1z M134.7,72.9
			c-2.4,3.5-4.9,7.1-7.4,10.8c-0.5,0.7-1.2,1.4-1.3,2.1c-0.1,1.3-0.2,2.9,0.3,4c3.2,7.1,7.5,12.7,16.7,10.7c0.9-0.2,2,0.2,2.9,0.5
			c3.9,1.1,5.7-0.6,5.6-4.5c-0.2-4.8-0.4-9.6-0.9-14.4c-0.2-1.5-1.1-3.5-2.2-4C144.1,76.1,139.5,74.7,134.7,72.9z M272.3,445.7
			c0.5-5.8,1-10.7,1.2-15.6c0-1.2-0.6-3-1.6-3.7c-3.2-2.4-6.6-4.3-9.9-6.5c-2.3-1.5-3.9-1.2-5,1.4c-2.7,6-5.6,12-8.2,18.1
			c-0.5,1.2-0.6,3.1,0.1,4.1c2.7,3.8,5.8,7,11.4,5C264.3,447.1,268.6,446.5,272.3,445.7z M330.9,172.5c0.4-0.2,1.2-0.5,1.8-1.1
			c4.9-4.7,10.6-7.1,17.4-7.7c1.6-0.1,3.6-2.2,4.3-3.9c2-4.9,3.5-10,4.8-15.1c0.4-1.6-0.6-3.6-0.9-5.5c-1.8,0.6-4.1,0.8-5.2,2
			c-3.4,3.9-7.2,6.2-12.4,6.4c-1.5,0.1-3.7,1-4.5,2.3c-3.4,5.5-6.5,11.2-9.5,16.9C325.3,169.5,327.6,172.6,330.9,172.5z
			 M369.4,360.6c-0.5-5.1-0.5-9.3-1.4-13.3c-0.3-1.6-2.3-3.2-4-3.9c-7.2-3.1-12.2-0.7-15,6.6c-0.3,0.7-1,1.3-1.4,2
			c-4.9,9.4-5.6,7.3,2.5,14.1c5.2,4.4,9.3,6,15.1,1C367.9,364.8,370,363.3,369.4,360.6z M388.6,209.5c3.2-8.5,6.3-16.1,8.9-23.9
			c1-2.8-5.4-11.3-7.6-10.6c-4.5,1.5-11.4,2.6-12.7,5.8c-2.2,5.6-2.4,13-0.7,18.7C377.6,203.4,383.7,205.8,388.6,209.5z
			 M309.1,216.7c1-0.4,1.7-0.6,2.1-1c5.2-4.9,10.4-9.8,15.5-14.7c0.6-0.6,0.8-1.9,0.6-2.8c-2-7.1-1.8-14.1,1-21
			c0.3-0.8-0.6-2.9-1.6-3.4c-0.9-0.5-3-0.1-3.6,0.7c-1.8,2.1-3.3,4.6-4.7,7.1c-4.8,8.9-9.6,17.9-14.2,26.9c-0.7,1.4-1.6,4-0.9,4.8
			C304.9,214.9,307.3,215.7,309.1,216.7z M340.2,93.1c0.9,7.5,1.8,14.8,2.8,22.1c0.1,0.8,1.1,1.8,1.9,2.1c7.2,3,11,8.1,11.1,16.1
			c0,1.2,2,3,3.5,3.4c0.8,0.2,2.9-1.5,3.3-2.7c1.2-3.9,2.2-8,2.5-12.1c0.1-1.8-1.2-4.4-2.7-5.6c-4.9-3.9-8.4-8.5-9.9-14.6
			C350.9,94.4,349.8,93.5,340.2,93.1z M260.5,64.3c1.8,2.1,2.8,4.3,4.3,4.8c7.1,2.2,12,6.5,15.4,13.2c0.8,1.7,4.2,2.7,6.4,2.8
			c1.2,0,2.7-2.5,3.6-4.2c1-1.9,1.2-4.2,2.3-6c1.8-2.8,1-4.4-1.4-6.2c-5-3.8-10.2-7.4-14.8-11.7c-4.6-4.2-7.7,0.2-11.1,1.4
			C263.4,59,262.4,61.8,260.5,64.3z M471.8,217.6c-1.4-4.1-2.2-8.2-4.4-11.4c-1-1.5-4.7-1.3-7.2-1.9c-1-0.2-2-0.8-2.9-0.6
			c-1.4,0.4-3.2,0.9-3.9,2c-2.5,3.7-4.7,7.6-6.6,11.7c-0.5,1.2,0.2,3.6,1.2,4.8c2.5,2.9,5.3,5.4,8.2,7.9c1.4,1.3,3.9,3.5,4.6,3.1
			c2.1-1.3,3.9-3.4,5.4-5.5c1.5-2.1,2.3-4.6,3.5-6.9C470.3,219.7,471,218.7,471.8,217.6z M297,354.7c-2.8,0.9-6.5,0.9-8.1,2.7
			c-2.5,2.9-4,6.9,0.6,10.2c1.4,1,2.5,2.9,2.8,4.6c1,5.9,5.3,7.6,10,9.7c4.8,2.1,7.9,1.2,9.7-3.6c0.6-1.5,0.9-3.5,0.4-5
			c-1.2-3.6-3.2-6.9-4.4-10.5C306.1,357.4,303.8,353.5,297,354.7z M340.2,213c-1.6-1.5-3.2-3.5-5.3-4.6c-1.4-0.7-4.1-0.9-5.2,0
			c-3.7,3-6.9,6.7-10.4,10c-3.1,2.8-4.1,5.4-1.8,9.5c1.7,2.9,1.9,6.7,3.1,9.9c0.6,1.7,1.8,3.8,3.3,4.3c2.8,1.1,4.9-0.2,6-3.4
			c1.7-5,3.9-9.9,5.9-14.8C337.2,220.6,338.4,217.4,340.2,213z M180.3,230c-1.5-3.7-2.1-7.8-4.4-10c-2.8-2.6-7-3.6-10.8-4.9
			c-1.2-0.4-3.5,0.3-4.4,1.3c-2.9,3.4-5.4,7.1-8,10.7c-1.7,2.3,3.4,13.4,6.1,13.7c0.5,0,1-0.2,1.4-0.4c5.4-2.1,10.8-4.2,16.1-6.5
			C177.8,233.3,178.7,231.6,180.3,230z M328.1,321c0.3-0.3,0.6-0.6,1-1c3.1-0.3,6.3-0.6,9.4-1c0.9-0.1,2.3-0.5,2.5-1.1
			c1.5-3.9,3.2-7.7,3.8-11.8c0.2-1.7-2-4-3.5-5.7c-8.9-10-6.8-10.5-15.9-0.2c-6.6,7.4-6.7,7.6-2.1,16.2
			C324.1,318.2,326.4,319.5,328.1,321z M181.2,379.8c0.8-0.4,2.6-0.9,3.9-2c2.2-1.8,4-4,6-5.9c7-6.7,7.1-6.8,1.9-14.9
			c-0.6-1-2-2.4-2.8-2.3c-5.7,0.8-11.7,1.3-16.9,3.5c-1.6,0.7-0.8,6.7-1.1,10.3c0,0.3,0,0.7-0.1,1
			C171.5,377,173.1,378.9,181.2,379.8z M86.8,208.6c-7.9,0-8.1,0.1-7.6,7c0.4,5.6,0.8,11.4,2.5,16.7c0.8,2.5,4.6,4.3,7.5,5.5
			c1.1,0.5,3.4-1.3,4.8-2.5c2.3-2.1,4.6-4.3,6.3-6.8c0.7-1,0.7-3.2,0.1-4.4c-1.7-3.4-4.5-6.3-5.7-9.8
			C93.2,209.6,91,207.3,86.8,208.6z M163.9,198.1c0.7,4.8-1.6,9.4,4.2,11.1c3.8,1.1,8.7,4.8,10.9,3.5c4.1-2.4,7.1-7.3,9.5-11.7
			c1.3-2.4-7.2-13.9-9.3-13.4c-4.8,1.2-9.7,2.2-14.1,4.4C163.7,192.6,164.1,196.7,163.9,198.1z M133.1,324.7
			c6.9,1.1,6.5,0.9,9.1-4.5c2.1-4.2,1.7-6.6-2.5-8.7c-1.3-0.6-2.4-1.8-3.3-3c-2.4-2.9-4.6-2.3-7.2-0.2c-6.4,5.2-12.8,10.4-19.3,15.6
			c-1.8,1.4-3.4,2.6-1.6,5.2c1.7,2.5,3.1,2.9,6.1,1.7C120.6,328.4,126.9,326.8,133.1,324.7z M258.8,110.8c-5.5,0.5-8.5,5.6-9,15.6
			c-0.1,2.8,10,11,13.4,9.3c4.5-2.2,9.4-6.5,10.8-10.9c1-3.3-2.4-8.9-5.4-12.2C266.8,110.7,262.1,111.3,258.8,110.8z M184,381.8
			c7.9,2.9,14.8,5.4,21.8,7.8c0.6,0.2,1.7-0.7,2.4-1.4c2.7-2.4,5.6-4.7,8-7.4c1.1-1.2,1.5-3.5,1.2-5.2c-0.3-1.9-1.3-4.7-2.7-5.2
			c-4.1-1.5-8.6-2.2-12.9-3.1c-0.9-0.2-2.1,0.1-2.7,0.6C194.3,372.2,189.6,376.6,184,381.8z M372.7,294.5c-0.2,2.9,4,3.2,6.7,4.6
			c1.1,0.5,3.6-0.7,4.8-1.8c2.2-2,3.8-4.6,5.8-6.8c8.7-9.3,8.7-9.5-0.2-18.2c-1-1-3.1-1.2-4.7-1.1c-1.9,0.1-3.9,0.7-5.7,1.5
			c-1.3,0.6-3.2,1.7-3.4,2.9C374.7,281.3,373.9,287.1,372.7,294.5z M73.2,200.1c-0.6-7.5-0.9-13.7-1.8-19.9c-0.5-3.2-6.4-4.9-9-2.6
			c-4.4,3.8-8.7,7.8-12.7,11.9c-1,1-1.6,3.5-1,4.6c1.2,2.3,3.2,5.5,5.2,5.7C60,200.5,66.4,200.1,73.2,200.1z M363,75.3
			c-0.5-1.5-0.7-2.3-1.1-3c-2.8-6.4-5.7-12.8-8.5-19.1c-1.1-2.4-1.6-5.7-3.5-7c-2.3-1.7-6.3-3.1-8.6-2.2c-3.5,1.3-0.6,4,0.7,6
			c2.9,4.4,3,8.9,0.6,13.7c-0.6,1.2-0.7,3.8,0.1,4.5c4,3.7,8.3,7.2,12.7,10.5c0.9,0.7,2.9,1,3.9,0.4C360.8,78.1,361.9,76.4,363,75.3
			z M256.2,231.3c6.1,0.4,7-0.3,8.7-4.4c1.5-3.8-1.8-4.6-3.6-6.1c-4.6-3.8-9.2-7.6-14.1-11c-1.5-1.1-4.4-1.6-6-0.9
			c-2.7,1.2-4.7,3.5-3.3,7.2c0.9,2.3,1.2,4.9,1.1,7.3c-0.1,4.3,2,6.1,5.8,6.5C249,230.5,253.1,231,256.2,231.3z M261.6,246.2
			c0.1-6.1-0.4-6.8-5-7.8c-4.8-1.1-9.7-2.1-14.6-2.8c-1.5-0.2-3.8-0.2-4.5,0.7c-2.5,3.2-6.1,6.8-6.2,10.3c-0.1,2.8,4.2,5.9,6.9,8.5
			c0.9,0.8,3.1,1,4.4,0.5c5.5-2.1,11-4.4,16.4-6.8C260.3,248.1,261.2,246.6,261.6,246.2z M173,59.8c-4.7,7.9-4.7,8.3,2.4,13.7
			c1.4,1.1,3.2,2,4.3,3.4c3.8,4.8,8,5.5,13.3,2.4c1.5-0.9,3.5-1,5.3-1.1c3.3-0.1,5.2-1.9,4.8-4.9c-0.2-1.8-1.7-4.4-3.3-5
			C190.9,65.2,181.9,62.6,173,59.8z M295.7,196.3c0,0,0.1,0,0.1,0c0,3.8-0.1,7.6,0.1,11.5c0.1,1.2,0.9,2.3,1.4,3.4
			c1-0.6,2.2-1.1,3.1-1.9c0.7-0.6,1.1-1.7,1.6-2.5c6.1-11,12.2-22.1,18.2-33.1c0.5-0.9,0-2.3,0-3.5c-1.4,0.3-3.1,0.1-4.2,0.9
			c-3.9,2.8-7.2,7.6-11.4,8.5c-8.9,1.9-9.7,7.3-9,14.4C295.8,194.7,295.7,195.5,295.7,196.3z M230.5,445.9c1.2-2.4,3.4-4.7,3.1-6.6
			c-0.6-4-2.6-7.8-3.6-11.8c-1-4.2-3-6.5-7.7-6.8c-2.8-0.2-5.8-1.6-8.2-3.3c-4.2-3-5.4,0.8-7.5,2.7c-2.4,2.2-1.4,4,0.5,5.8
			c6.3,5.7,12.5,11.4,18.8,17C227,443.8,228.2,444.4,230.5,445.9z M250.9,187.3c-0.6-1.1-1.1-2.2-1.7-3.2c-2.2-3.5-4.3-7.1-6.8-10.4
			c-0.9-1.2-2.9-2.7-4-2.4c-2.2,0.4-5.2,1.5-6,3.2c-2.3,4.5-4,9.4-5.2,14.4c-0.4,1.6,1,4.4,2.5,5.6c2.3,1.8,6,4.2,7.9,3.4
			c4.4-1.9,8.2-5.5,12.1-8.5C250.3,189,250.5,188.1,250.9,187.3z M272.2,295.6c3.3-9.6,6.2-17.9,9.2-26.5c-2.9-1.7-5.9-3.6-9.1-5.3
			c-0.7-0.4-2.1-0.3-2.7,0.2c-3.8,3.4-7.6,6.9-11,10.7c-0.9,1-1.1,3.8-0.3,4.7C262.3,284.6,266.8,289.4,272.2,295.6z M281.8,418.7
			c-1.7-7.6-2.9-14.1-4.9-20.4c-0.5-1.5-3.6-2.5-5.7-2.9c-1-0.2-2.8,1.3-3.5,2.5c-2,3.6-3.6,7.5-5.3,11.2c-3.5,7.7-3.6,6.5,3.1,10.6
			c2,1.2,3.8,2.7,5.8,3.8c1.5,0.7,3.8,1.8,4.7,1.1C278.5,422.9,280.3,420.4,281.8,418.7z M234.8,142c5.9,2.9,7.2-1.4,8.7-5.4
			c0.5-1.4,1.2-2.9,1.2-4.3c0-1.4-0.4-3.6-1.3-4.2c-5-3.2-10.2-6.1-15.5-8.9c-1-0.5-3-0.3-3.9,0.5c-5.2,4.2-5.4,6.2-1.9,12
			c0.9,1.4,1.6,2.9,2.5,4.3C226.8,139.8,229,144.1,234.8,142z M74.5,181.1c0.3,2.7,0.6,5,0.8,7.4C76,199,76,199,86,200.7
			c0.2,0,0.3,0.1,0.5,0.1c3.4,0.9,5.5,0,5.6-4c0-1.3,0.5-2.6,0.8-3.9c0.6-3.7,2.8-8.3,1.4-10.9c-1.6-3-6.5-4.3-9.9-6.3
			c-0.1-0.1-0.3-0.2-0.4-0.2C80.3,174,74.6,177.6,74.5,181.1z M38.4,256.2c0.6,3.7,0.7,6.5,1.5,9.2c0.4,1.3,1.7,2.8,3,3.5
			c7.5,3.9,14.6,5.2,19.6-3.8c0.2-0.4,0.7-0.7,1.1-1c2.3-1.9,3.2-3.8,1.7-6.9c-1.4-3-2.9-4.9-6.6-4.5c-5.9,0.7-11.8,1-17.7,1.7
			C39.9,254.5,39,255.8,38.4,256.2z M176.6,298.5c-0.2,0.2-2.4,0.9-2.9,2.3c-0.9,2.2-1.9,5.8-0.8,7.1c5.1,5.9,10.7,11.3,16.6,16.4
			c1.1,0.9,4.8-0.4,6.7-1.5c0.9-0.5,1.2-3.5,0.6-4.9c-1.5-3.8-4.1-7.3-5.5-11.2C189.1,300.2,184.4,298.3,176.6,298.5z M113.2,270.1
			c-0.3-0.4-0.5-0.7-0.8-1.1c-7.8,2.6-15.5,5.1-23.2,7.8c-6.6,2.3-6.8,2.8-4.8,9.7c0.4,1.4,0.4,3,1,4.3c0.8,2,1.8,5.5,2.8,5.6
			c2.4,0.1,5.8-0.8,7.3-2.5c4.7-5.5,8.7-11.6,13-17.5C109.9,274.3,111.6,272.2,113.2,270.1z M155.7,439.9c2-3.3,4.1-6.3,5.8-9.4
			c0.5-1,0.7-2.6,0.3-3.6c-1.7-4-3.7-7.8-5.6-11.7c-1.3-2.7-2.9-2.8-5-0.7c-3,2.9-6.2,5.5-9.2,8.4c-5,4.8-3.9,10.6,2.5,13.3
			C148.1,437.6,152,438.6,155.7,439.9z M158.2,249.7c-4.3,2.3-8.1,4.2-11.8,6.3c-0.5,0.3-0.7,1.8-0.5,2.7c0.9,3.8,1.3,8.1,3.3,11.3
			c1.2,1.8,5.3,1.7,8.1,2.6c1.3,0.4,2.5,1.4,3.7,1.4c1.6,0,3.9-0.2,4.8-1.3c1.7-2,5.2-3.6,2.7-7.4c-2.6-4-4.9-8.2-7.4-12.3
			C160.5,251.7,159.4,250.9,158.2,249.7z M200.5,174.3c-1.1-1.3-1.8-2.2-2.6-2.9c-7.3-6.2-14.6-12.4-22.1-18.5
			c-1.2-1-3.2-0.9-4.9-1.4c-0.1,1.9-1,4.2-0.3,5.7c3.5,6.8,7.2,13.4,11.3,19.9c0.8,1.3,3.6,2.2,5.2,1.8
			C191.4,177.8,195.5,176,200.5,174.3z M306.1,265.7c-2,1.5-7.2,3.5-7.4,5.9c-0.8,8.2,0.1,16.6,0.7,24.8c0.1,1.2,1.7,3.1,2.8,3.3
			c1.1,0.1,3-1.3,3.5-2.5c3-7,5.7-14.2,8.3-21.3C315.2,273,310.3,265.7,306.1,265.7z M130.8,165.1c4,0.6,6-1.2,7.5-4.2
			c2.1-4.1,4.2-8.3,6.5-12.3c2.3-4-1-7.8-2.9-7.2c-6.8,2-13.1,5.4-19.6,8.4c0.9,4.2,1.4,8.5,3,12.4
			C125.9,163.6,128.9,164.1,130.8,165.1z M255.5,416c-3.4-1.7-6.8-3.5-10.3-5.2c-0.2-0.1-0.8,0.5-1.1,0.9c-10.2,8.6-10.2,8.6-6.5,22
			c0.4,1.3,0.4,2.7,1.1,3.8c0.7,1.3,2,3.2,3,3.2c1.4-0.1,3.3-1.3,4-2.6c3.1-6,5.8-12.3,8.6-18.4C254.5,418.8,254.7,418,255.5,416z
			 M138.6,125.7c-2.1-2.1-5-5.4-8.5-8c-0.8-0.6-3.6,1.4-5.4,2.4c-1.4,0.8-2.6,2.2-4.1,2.8c-3.7,1.4-4.2,3.9-3.5,7.4
			c2.7,13.1,2.5,12.8,14.7,7.4C137,135.6,138.3,132.1,138.6,125.7z M115,144.1c-0.9-5-1.5-8.7-2.2-12.5c-0.5-2.5-0.6-5.5-4.2-5.8
			c-3.7-0.3-7.3-2.6-10.5,2.1c-4.4,6.6-4.8,6.4-0.7,13.3c0.6,1,1.2,2,1.7,3c3.9,6.7,4,6.8,11,3.4C112,146.7,113.6,145.1,115,144.1z
			 M377.2,232.2c2.2-1.4,4.2-2,4.8-3.3c1.7-3.2,2.9-6.7,3.9-10.2c0.3-1.1-0.4-3.1-1.4-3.8c-3.9-3.1-7.9-6.1-12.1-8.7
			c-3.9-2.4-5.2,2.3-7.7,3.8c-0.8,0.5-1,3.2-0.4,4.4c2.2,4.5,4.5,8.9,7.3,13.1C372.8,229.3,375.1,230.5,377.2,232.2z M248.7,131.3
			c-1.5,3.3-3,6-4.1,8.9c-0.6,1.6-1.2,3.7-0.6,5.2c1.9,4.8,4.3,9.3,6.6,14.3c2.5-1.1,5.8-2.2,8.9-3.8c1-0.5,1.8-1.9,2-3.1
			c0.7-3.9,1.3-7.8,1.6-11.8c0.1-1.1-0.5-2.8-1.3-3.2C257.6,135.6,253.3,133.6,248.7,131.3z M301.1,18.8c-1.1-1.6-1.5-2.9-2.3-3.3
			c-3.6-1.7-7.3-3.5-11.1-4.3c-1.4-0.3-3.4,2-5.2,3.1c-0.6,0.3-1.2,0.8-1.8,0.8c-7.3-0.3-8.4,5.9-10.9,10.4c-0.6,1-0.2,3.5,0.6,4.1
			c1.5,1.1,4,2.2,5.4,1.7c7.3-2.7,14.4-5.9,21.5-9.1C298.8,21.7,299.8,20.1,301.1,18.8z M337.3,111.6c-0.3-4-0.7-7.9-1-11.9
			c-0.8-8.6-2.8-10.5-11.5-11.7c-4.1-0.5-4.4,3-5.8,5c-0.8,1.2-1.4,3.7-0.8,4.6c4.2,6.3,8.8,12.5,13.4,18.6c0.7,0.9,2.5,1.8,3.2,1.5
			c1.1-0.5,1.9-2,2.5-3.2C337.6,113.8,337.3,112.6,337.3,111.6z M78.6,344c0.4-0.2,1.1-0.3,1.6-0.7c6-4.1,12.1-8.1,17.8-12.4
			c1.1-0.8,1.8-3.9,1.1-4.9c-1-1.3-3.3-2-5.1-2.3c-3.3-0.5-6.8-0.6-10.1-0.6c-1.4,0-3.6-0.1-4.2,0.7c-2.6,3.6-4.9,7.5-7,11.4
			C71.3,337.6,75.7,344,78.6,344z M247.5,8c2.9,5.4,5.4,10.3,8,15c2.1,3.9,8.3,6,11.3,4.1c2.9-1.9,6.9-12.1,5.4-14.4
			c-1.1-1.7-2.6-4.4-4.1-4.5C261.6,7.7,255.1,8,247.5,8z M102.7,331c-7.4,5.1-14.3,9.9-21.3,14.7c-3.6,2.5-3.6,7.2,0.4,9.2
			c2.6,1.3,5.6,2,8.4,2.8c3.3,0.9,4.9-0.2,6.2-3.6c1.9-4.9,4.1-9.9,7.4-13.9C107.2,335.9,106.2,333.5,102.7,331z M260,372.5
			c0,0-0.6-1.5-1.7-2.1c-2.4-1.5-4.9-2.9-7.6-3.6c-1.3-0.3-3.8,0.8-4.5,2c-1.8,3.1-2.5,6.8-4.2,10c-2.9,5.3,0.8,8.6,3.7,11.6
			c1,1,4.9-0.6,7.4-1.3c1.7-0.5,3.5-1.2,4.9-2.3c1-0.8,1.8-2.3,1.9-3.5C260.2,380.1,260,377,260,372.5z M128,405.5
			c0.9,4.9,1.4,8.7,2.4,12.4c0.9,3.5,6.3,6.1,8.4,4.3c4.2-3.5,8.5-7,11.9-11.1c1.2-1.4,0.1-5-0.6-7.4c-0.3-1-2.4-2.3-3.6-2.2
			c-5.1,0.4-10.1,1.1-15.1,2C130.1,403.7,128.9,404.9,128,405.5z M240.6,59.4c3.9-4.3,9.3-7.1,5.4-13.6c-0.4-0.6-0.4-1.7-0.3-2.4
			c1.3-5.4-1.6-7.8-6.3-9.1c-1.9-0.5-3.7-1.6-5.6-1.8c-1.3-0.1-3.5,0.3-4,1.2c-1.3,2.4-3.4,6.1-2.4,7.6
			C231,47.5,235.8,53.1,240.6,59.4z M244.2,205.4c7.2,5.8,13.4,10.9,19.8,15.8c1,0.7,3.8,0.7,4.4-0.1c1.3-1.5,2.8-4.5,2.1-5.6
			c-4.3-7-9.1-13.6-14.1-20.9C251.9,198.6,248.4,201.7,244.2,205.4z M165.3,159.2c-2.3,3.2-4.1,5.5-5.6,7.9
			c-5.5,8.6-5.5,8.6,0.7,16.7c0.7,0.9,2.2,2,3.1,1.8c4.6-1.1,9.1-2.5,14.3-4C173.4,174,169.6,167,165.3,159.2z M84.5,294.7
			c-0.9-3.4-1.7-6.7-2.6-10.1c-0.8-2.9-2.4-3.7-5.1-2.3c-2.8,1.4-5.5,3.2-8.5,4c-5.7,1.6-5.7,6.3-5.2,10.2c0.2,1.7,4.2,3,6.7,4.1
			c1.8,0.8,3.8,1,5.8,1.4C79.3,302.8,84.1,298.7,84.5,294.7z M83.4,168.2c0.4,1.3,0.4,2.7,1,3.1c4.2,2.6,8.5,5.1,12.8,7.5
			c0.4,0.2,1.3-0.1,1.8-0.4c8.5-4.7,9.9-10.1,4.7-18c-0.3-0.4-0.5-1.1-0.8-1.2c-1.1-0.4-2.5-1.2-3.4-0.9c-4.6,1.8-9.2,3.8-13.6,6.1
			C84.7,165.1,84.2,167,83.4,168.2z M139.1,165.1c7.7,5.3,7.8,5.3,13.8-0.5c2.5-2.4,4.8-5.1,7-7.7c2.4-2.8,1.3-8.4-2-10.7
			c-2.5-1.7-8.9-0.7-10.3,1.9C144.7,153.6,142,159.2,139.1,165.1z M268.9,303.1c-0.5-1.1-1-2.5-1.9-3.5c-3.9-4.7-7.9-9.4-11.8-14
			c-1.3-1.6-2.5-3.9-5.1-1.6c-2.1,1.9-2.5,3.4-1,6.3c2.2,4.3,3.8,9,4.6,13.8c0.8,4.5,5.2,9.4,9.7,8.9c0.7-0.1,1.7-0.6,1.9-1.2
			C266.6,309.2,267.6,306.4,268.9,303.1z M288.2,270.5c-0.6-0.1-1.2-0.3-1.7-0.4c-0.8,1.3-1.7,2.6-2.3,4c-2.7,6.7-5.1,13.6-8.1,20.2
			c-1.8,4,0.2,6.4,2.7,8.5c1.1,0.9,3.6,0.8,5.1,0.3c3-1,6.2-2,5.7-6.7c-0.6-6.1-0.4-12.2-0.7-18.3
			C288.8,275.5,288.4,273,288.2,270.5z M256.8,414.1c3.2-6.7,6.3-12.9,8.9-19.2c1.3-3.1-2.7-6.7-5.9-5.4c-3.5,1.4-6.9,3.2-10.3,4.9
			c-0.8,0.4-1.6,1.3-2,2.1c-2.5,6-0.5,11.9,5.2,15.4C253.7,412.4,254.7,412.9,256.8,414.1z M389.6,219.6c-1.5,4-2.9,7.4-3.9,10.8
			c-0.3,0.9,0.6,2.4,1.3,3.3c3.1,4,6.1,8,9.5,11.8c1,1.1,2.8,1.5,4.2,2.2c1.4-5.7,2.8-11.3,4.1-17c0.1-0.2-0.6-0.7-1-1
			C399.4,226.5,395,223.4,389.6,219.6z M186.6,246.1c-0.3-3.3-4-5.8-6.8-4.8c-4.5,1.6-8.9,3.5-13.4,5.1c-3.7,1.3-3.9,3.3-1.9,6.3
			c1.9,2.9,3.5,6,5.3,9c1.9,3.2,3.5,3.4,5.7,0.1c3.1-4.6,6.6-9,9.9-13.6C185.8,247.4,186.3,246.6,186.6,246.1z M221.9,370.9
			c1.6,2.7,2.6,6.6,4.7,7.4c9.1,3.6,9.7,3.1,13.5-5.9c0.8-1.8,1.8-3.6,2.1-5.5c0.2-1.3-0.3-3.3-1.2-4c-6.6-4.9-8.3-4.7-13.9,1
			c-0.7,0.7-1.6,1.3-2.1,2.1C224,367.3,223.2,368.8,221.9,370.9z M240.3,283.6c0.2,0.3,0.4,0.6,0.7,1c2.2-2,4.8-3.7,6.4-6.1
			c0.5-0.7-1.1-3.4-2.2-4.8c-1.6-2.1-3.7-3.8-5.5-5.7c-4.4-4.4-5.6-4.4-12.1-0.7c-4.4,2.4-1.4,5.4-1,8.2c0.7,5.1,3.1,8.2,8.9,7.4
			C236.9,282.7,238.6,283.3,240.3,283.6z M139.2,102.5c-0.1-0.3-0.3-0.6-0.4-0.9c-2.3,1.1-5.7,1.6-6.7,3.4c-2,3.6-1.8,7.7,2.6,10.3
			c1.5,0.9,2.7,2.4,4.2,3.5c3.3,2.7,12.2-0.9,12.9-5.2c1.3-8.2,0-9.9-8.1-10.9C142.2,102.6,140.7,102.6,139.2,102.5z M245.3,166.2
			c1.8,3.4,3.4,6,4.5,8.6c3.5,8.2,5.4,8.7,12,3c7.6-6.5,7.7-6.6,1.9-14.8c-0.8-1.1-3.1-2.1-4.4-1.7
			C254.9,162.5,250.5,164.3,245.3,166.2z M132.9,302.6c-2.4,0.2-3.3,0.1-4.2,0.3c-5.5,1.4-10.8,3.5-16.3,4.3
			c-6,0.8-9.2,3.3-10.6,9.4c-0.8,3.4,0.6,4.9,2.5,6.1c1.1,0.7,3.5,0.3,4.6-0.5c6.4-4.4,12.6-9.1,18.8-13.8
			C129.4,307,130.6,305.1,132.9,302.6z M389.2,310.8c4.1-2.3,7.6-4.2,10.9-6.3c0.7-0.4,0.8-1.7,1.1-2.6c0.9-3.6,2.1-7.3,2.5-11
			c0.2-1.6-0.9-3.6-2-4.9c-0.5-0.6-3-0.5-3.6,0.2c-4.5,4.9-8.9,9.8-12.8,15.2c-0.8,1.1,0.6,4.1,1.4,6
			C387.2,308.7,388.3,309.6,389.2,310.8z M325,373.6c5.7,0.2,7-4.2,8.6-7.3c0.6-1.1-1-4.1-2.4-5.4c-4.1-3.6-8.5-6.8-13-9.9
			c-1.1-0.7-3.4-0.9-4.2-0.2c-0.8,0.7-0.9,3-0.4,4.2c2.1,5,4.4,10,7,14.8C321.4,371.5,323.5,372.4,325,373.6z M319.8,277.3
			c-3.2,8.4-6.1,15.6-8.7,22.8c-0.4,1,0.7,3.3,1.7,3.9c1.2,0.7,3.9,0.9,4.7,0.1c4.7-4.6,9-9.6,13.5-14.5
			C327.3,285.5,324,281.9,319.8,277.3z M192.1,299.8c0,1.4-0.2,2,0,2.4c1.6,3.3,3.2,6.6,4.8,9.9c4.2,8.3,4.9,8.5,12.7,3.2
			c1-0.6,1.9-1.3,2.8-2.1c2-2,1.3-9.6-1.3-10.1C204.9,301.6,198.5,300.9,192.1,299.8z M172.9,351.4c4.4-0.9,7.8-2.2,11.2-2.2
			c6.1,0,8.7-3.5,9.2-8.6c0.2-1.9-1.5-4.4-3.1-5.8c-1-0.9-3.8-1.1-5-0.3c-4.8,2.9-9.4,6.2-13.8,9.7c-1.2,0.9-2,3.3-1.7,4.8
			C169.8,350,172,350.8,172.9,351.4z M399.2,278.9c1.1-0.5,1.7-0.6,2-0.9c2.9-3,5.8-5.9,8.5-9c0.4-0.4,0-1.9-0.5-2.6
			c-1.6-2.9-3.1-5.9-5.2-8.4c-1.1-1.3-3.2-2.1-5-2.4c-0.8-0.1-2,1.7-2.7,2.9c-1,1.7-1.4,3.9-2.8,5.2c-3.6,3.6-2.8,6.5,0.5,9.6
			C396,275,397.6,277.1,399.2,278.9z M344.2,388.1c0.2-0.4,0.5-0.7,0.7-1.1c1.5-0.1,3.2,0.3,4.4-0.3c1.4-0.7,3-2,3.4-3.4
			c0.6-2,1.2-5.3,0.1-6.3c-3.6-3.4-7.8-6.1-11.9-8.7c-0.8-0.5-2.9-0.1-3.7,0.6c-5.6,5.1-2.4,10.3,0.6,14.9
			C339.1,385.8,342,386.7,344.2,388.1z M169.7,143.7c0.2-0.2,0.9-0.5,1.2-0.9c4.1-4.9,8.3-9.9,12.2-14.9c0.5-0.6,0.2-2.2-0.2-3
			c-3.7-6-5.8-6.1-12-2.2c-3.7,2.3-5.5,4.7-4.6,9.2c0.3,1.8-0.6,3.8-1.2,5.7C164.3,140.1,166.7,143.8,169.7,143.7z M80.4,272.6
			c-0.2-5.3-8.8-11.2-11.9-8.8c-3.9,3-7.2,6.8-10.3,10.6c-0.7,0.9,0.4,3.6,1.3,5.1c0.6,0.9,2.6,1.8,3.5,1.4c5.1-1.8,10.2-3.8,15.2-6
			C79.3,274.5,80,273,80.4,272.6z M338.4,68.2c-0.6,0.4-1.2,0.9-1.8,1.3c0.7,4,1.4,8,2.1,12c1.3,8,1.3,8.1,9.2,9.8
			c1.5,0.3,4.2,0,4.6-0.8c1.3-2.7,3.3-7.2,2.2-8.4C349.7,77,343.9,72.8,338.4,68.2z M111.8,259.7c-5.9-1.6-10.8-3-15.8-4.1
			c-0.8-0.2-2,0.9-2.8,1.6c-3.3,2.7-6.7,5.2-9.6,8.2c-1.1,1-1.7,3.3-1.3,4.7c0.2,0.9,2.7,2.4,3.7,2c7.8-2.8,15.4-6,23.1-9.2
			C109.7,262.6,110.2,261.5,111.8,259.7z M242.4,260c3.6,4.4,6.3,7.7,9.1,10.9c0.5,0.5,2.1,0.9,2.5,0.5c4-3.9,8.3-7.5,11.5-11.9
			c2.1-2.8-1.3-7.7-4.2-6.7C255.3,254.8,249.4,257.3,242.4,260z M253.2,342.1c-7.2,1.1-12.7,1.9-18.2,2.8c-0.6,0.1-1.5,0.7-1.5,1.1
			c0,3.2-1.1,7.4,0.5,9.4c2.1,2.7,6.4,3.7,9.8,5.2c0.3,0.1,1.2-0.6,1.5-1.1C247.8,354.3,250.2,348.9,253.2,342.1z M156.2,110
			c0,1,0,1.8,0,2.6c0.4,6.3,3.6,8.1,9.3,5.2c1.6-0.8,3.2-1.8,4.9-2.3c4.6-1.1,4.8-4,4.1-7.9c-0.7-4.2-3.4-4.2-6.6-4.1
			c-1.8,0.1-3.6,0.1-5.4,0C158.1,103.6,155.4,105.2,156.2,110z M334.2,87.1c1.3-11.7-0.8-16.9-8.8-19.4c-1.9-0.6-4.7,1.1-6.8,2.2
			c-0.4,0.2,0.4,3,0.9,4.5c0.5,1.4,1.4,2.6,1.9,4C323.5,85.2,326.2,87.1,334.2,87.1z M186.2,184.7c1.7,2.9,2.9,5,4.2,7.1
			c4,6.5,5,6.8,11.7,3.3c1-0.5,2.1-2.3,2-3.3c-0.6-4-1.7-7.8-2.7-11.7c0-0.1-1.3-0.1-1.9,0.1C195.3,181.6,191.1,183,186.2,184.7z
			 M327.5,140.9c-3,1.7-6.9,0.4-6.7,5.3c0.2,5.8-0.6,11.7-0.8,17.5c0,1.2,0.8,2.5,1.2,3.8c1-0.7,2.3-1.1,2.9-2
			c2.9-5,5.7-10,8.4-15.2c0.7-1.4,1.4-3.8,0.7-4.7C331.7,143.6,329.3,142.3,327.5,140.9z M90.6,137.9c-4.5,5.8-8.2,10.5-11.8,15.2
			c-0.6,0.8-1,2.8-0.4,3.4c0.9,1,2.8,1.9,3.8,1.6c5.3-1.8,10.4-4,16.3-6.3C95.9,147.1,93.6,143,90.6,137.9z M27.9,255.3
			c-4.3-0.1-9.3,3.7-8.1,6.9c1.3,3.6,4,7.3,7.2,9.4c2.2,1.5,8.5-3.3,8.5-5.5C35.6,257.6,34,255.4,27.9,255.3z M76.6,114
			c-3.6-9.6-7.7-13.5-11.1-10.4C63,106,60.3,111,61.1,114C62.6,119.9,68.2,119.6,76.6,114z M257.6,62.2c0.1-2.8-5.3-8.7-7.9-7.7
			c-2.8,1.2-7,5.2-6.6,6.8c1.1,3.4,4.1,7.5,7.4,8.7C254.7,71.6,257.3,67.9,257.6,62.2z M419.2,278.4c0.4-4.1-5-9-7-7.4
			c-3.5,3-6.3,6.7-9.3,10.3c-0.3,0.4,0.3,2.1,0.9,2.5c1.6,1,3.8,2.6,5.3,2.2C413.7,284.7,419.5,284.2,419.2,278.4z M125.2,244
			c1.3,2.4,2.1,5.9,4.2,6.9c2,1,6.1,0.3,7.6-1.2c1.2-1.2,0.1-4.9-0.1-7.5c-0.1-1.1-0.3-2.4-1-3.3c-0.8-1-2-2.3-3.1-2.4
			C127.7,235.7,126.2,237.4,125.2,244z M206,328.4c7.1,0.7,11.4-0.9,12.5-6.6c0.3-1.7-0.5-4-1.6-5.4c-0.6-0.7-3.1-0.3-4.5,0.3
			c-2.4,1-4.9,2.3-6.9,3.9c-1.2,0.9-2.5,3-2.2,4C203.8,326.4,205.6,327.9,206,328.4z M147.5,229.4c-3.2,3.5-6.8,5.8-6.8,8
			c0.1,3.2,2.1,7.5,4.6,9.1c2.5,1.5,9.4-3.5,8.6-5.2C152.4,237.7,150.3,234.3,147.5,229.4z M362.7,589.1c-0.1,3.9,2.8,7.3,6.2,6.9
			c3.9-0.4,5.9-2.9,6.2-6.6c0.3-3.5-2.8-7.1-6.1-7.3C365.6,582,362.8,585.2,362.7,589.1z M120.8,163.5c-2.2-4.6-3.9-8-5.5-11.5
			c-2.8,1.7-5.5,3.4-8.3,5.1c2.4,3.2,4.6,6.7,7.5,9.5C115,167.2,118.2,164.9,120.8,163.5z M222.9,188.3c2.1-5.5,3.8-10.1,6-16.1
			c-6.8,2.1-12,3.8-18.8,5.9C215.1,182.1,218.6,184.9,222.9,188.3z M143.9,269c-0.6-2.1-1.2-5.3-2.4-8.2c-0.4-1.1-2.1-2.4-3-2.3
			c-1.1,0.1-2.5,1.5-3,2.7c-0.9,2.5-2.1,5.3-1.6,7.6c0.5,2.3,2.6,5.5,4.6,6C140.7,275.3,144.1,273.8,143.9,269z M83.1,117.3
			c2.7,4.4,5.2,8.4,8.4,13.7c1.6-4.6,7.2-6.1,3.9-10.8C90.2,113,89.8,113,83.1,117.3z M78,98.6c-1,2.3-2.7,4.3-2.3,5.7
			c0.6,2.4,2,5.4,4,6.6c1.9,1,5.1,0.4,7.4-0.4c0.8-0.3,1.5-4.1,0.8-4.8C85.3,103.2,82.1,101.5,78,98.6z M210.1,180.8
			c-0.5,0.2-1.1,0.4-1.6,0.7c1.2,4,1.8,8.2,3.7,11.8c0.9,1.6,4.2,2,6.5,2.5c0.6,0.1,2.2-1.8,2.2-2.6c-0.2-1.9-0.6-4.2-1.9-5.4
			C216.4,185.1,213.1,183.1,210.1,180.8z M223.4,76.1c-5.8-1.8-9.9-3.3-14.2-4.3c-2.1-0.5-4.5,3.9-2.7,5.2c2.9,2.2,6.5,4.2,10,4.7
			C218.2,82,220.4,78.7,223.4,76.1z M232.2,260.9c-2.8-3.4-4.6-6-6.7-8.1c-0.7-0.7-2.4-0.7-3.4-0.4c-0.9,0.3-2.1,1.7-2,2.3
			c0.9,2.9,1.6,6.5,3.6,8.3C224.8,263.9,228.6,261.8,232.2,260.9z M230.2,73c4.5,1.3,7.5,2.4,10.5,3c1.1,0.2,2.9-0.4,3.5-1.2
			c0.5-0.7,0-2.5-0.6-3.4c-1.3-2-3.1-3.8-5-6C235.9,67.7,233.7,69.8,230.2,73z M159,402.5c2.6-2,5.2-3.6,7.2-5.7
			c0.8-0.8,0.9-3.2,0.3-4.2c-2.1-3-4.2-1.5-6.5,0.4C156.7,395.9,154.6,398.4,159,402.5z M317.2,264.7c0.7-0.1,1.4-0.3,2.2-0.4
			c1.8-4.3,3.6-8.5,5.7-13.3c-7.1-1.3-8.1,4.1-9.9,7.5C314.4,259.8,316.4,262.6,317.2,264.7z M260.5,333.3c4.1-0.1,7.7,1.2,8.8-3.1
			c0.6-2.5,0.4-5.3,0.2-7.9c0-0.8-0.9-1.9-1.6-2.1c-0.6-0.1-1.8,0.7-2.1,1.4C264.1,325.2,262.6,328.8,260.5,333.3z M173.4,273.1
			c-5.6,4.2-5.8,5.5-2.4,9.7c1.9,2.5,4.2,2.7,5.6,0.4C179.4,278.8,174.8,276.5,173.4,273.1z M177.3,383.9c-3.4-0.9-5.8-2.2-8.1-2
			c-1.2,0.1-3.1,3.3-2.7,4.7c0.5,2,2.6,3.6,4.5,6C173.2,389.6,174.8,387.4,177.3,383.9z M224.7,193.4c0.2,2.7-0.3,4.6,0.4,5.3
			c2,1.8,4.5,3,6.8,4.4c0.3-1.2,1.3-3.2,0.9-3.6C230.7,197.5,228.2,195.9,224.7,193.4z M174.7,290.3c0,0.8,0,1.5,0,2.3
			c3,0.5,5.9,1.1,8.9,1.6c0.3-0.5,0.6-1,0.9-1.5c-1.1-1.7-2.1-4.6-3.4-4.7C179.1,287.8,176.9,289.4,174.7,290.3z M193.9,328.1
			c2.5,2.8,4.2,5.9,7.6,2.9c0.8-0.7,0.6-3.8-0.3-4.8C198,322.7,196.6,326.8,193.9,328.1z M271.4,306.2c-1.1,2.8-2.1,5.1-2.7,7.4
			c-0.2,0.7,0.3,1.8,0.8,2.5c0.2,0.3,1.3,0.3,1.8,0C274.4,314.7,274.9,309.4,271.4,306.2z"/>
		<path class="st0" d="M429.4,388.3c0.1,4.1-3.3,7.6-7.4,7.8c-4.5,0.2-7.9-3.1-8-7.5c-0.1-4.5,2.8-7.5,7.2-7.7
			C425.7,380.7,429.3,384,429.4,388.3z"/>
		<path class="st0" d="M456,145.7c-3.2,2.6-5.4,5.5-6.6,5.1c-2.1-0.7-4.5-3.1-5.1-5.3c-0.9-2.9,1.4-5.5,4.4-5
			C450.7,140.9,452.6,143.2,456,145.7z"/>
	</g>
</g>
<g>
</g>
<g>
</g>
<g>
</g>
<g>
</g>
<g>
</g>
<g>
</g>
</svg>
