<svg id="Calque_1" data-name="Calque 1" xmlns="http://www.w3.org/2000/svg" viewBox="0 0 124.64 94.25"><defs><style>.cls-1{fill:#c452b4;}.cls-2{fill:#00a990;}</style></defs><title>logo-LAB</title><path class="cls-1" d="M73.59,42.34a3.63,3.63,0,0,1-2.34-1L69.32,39.7a6.63,6.63,0,0,1-2.52-.52,5.64,5.64,0,0,1-2.1-1.55,7.07,7.07,0,0,1-1.3-2.45A11.06,11.06,0,0,1,63,31.93a11.37,11.37,0,0,1,.42-3.22,6.74,6.74,0,0,1,1.28-2.47,5.67,5.67,0,0,1,2.11-1.57,7.11,7.11,0,0,1,2.81-.53,7,7,0,0,1,2.81.54,5.57,5.57,0,0,1,2.11,1.59,6.92,6.92,0,0,1,1.27,2.46,11.28,11.28,0,0,1,.42,3.2,12.93,12.93,0,0,1-.2,2.29,8.74,8.74,0,0,1-.61,2,5.48,5.48,0,0,1-1,1.54,4.27,4.27,0,0,1-.56.49,3.81,3.81,0,0,0,2,.7.59.59,0,0,1,.4.17.56.56,0,0,1,.15.41,3,3,0,0,1-.76,2A2.57,2.57,0,0,1,73.59,42.34Zm-4-17.09a6,6,0,0,0-2.37.44A4.53,4.53,0,0,0,65.51,27,5.77,5.77,0,0,0,64.44,29a10.16,10.16,0,0,0-.37,2.9,9.83,9.83,0,0,0,.39,2.92,5.83,5.83,0,0,0,1.09,2.07,4.45,4.45,0,0,0,1.69,1.25,5.92,5.92,0,0,0,2.29.43.55.55,0,0,1,.37.14L72,40.54a2.57,2.57,0,0,0,1.62.7,1.52,1.52,0,0,0,1.2-.46,1.75,1.75,0,0,0,.41-.8A5.87,5.87,0,0,1,73,39l-.53-.37a.53.53,0,0,1-.23-.52.56.56,0,0,1,.36-.45,2.67,2.67,0,0,0,1-.67,4.69,4.69,0,0,0,.82-1.24A7.91,7.91,0,0,0,74.9,34a11.49,11.49,0,0,0,.19-2.08,10.15,10.15,0,0,0-.38-2.88A5.83,5.83,0,0,0,73.65,27,4.48,4.48,0,0,0,72,25.7,5.86,5.86,0,0,0,69.58,25.25ZM84.23,39.71a6.08,6.08,0,0,1-4.45-1.57,5.94,5.94,0,0,1-1.59-4.4V25a.55.55,0,0,1,.16-.39l.14-.15a.59.59,0,0,1,.39-.16h1.2a2.3,2.3,0,0,1,2.48,2.62v6.86a3,3,0,0,0,.4,1.78,1.5,1.5,0,0,0,1.28.46,1.47,1.47,0,0,0,1.27-.46,3,3,0,0,0,.4-1.78V25a.57.57,0,0,1,.45-.55,10,10,0,0,1,1.72-.13,10.18,10.18,0,0,1,1.71.13.55.55,0,0,1,.45.55v8.74a6,6,0,0,1-1.58,4.4A6,6,0,0,1,84.23,39.71Zm-4.94-14.3v8.33a4.87,4.87,0,0,0,1.27,3.61,5,5,0,0,0,3.67,1.25,5,5,0,0,0,3.65-1.25,4.86,4.86,0,0,0,1.26-3.61V25.48c-.31,0-.66-.05-1.06-.05a8.37,8.37,0,0,0-1.06.05v8.3a4.09,4.09,0,0,1-.61,2.44,2.55,2.55,0,0,1-2.17.91,2.5,2.5,0,0,1-2.17-.92,4,4,0,0,1-.62-2.43V26.92c0-1.07-.4-1.51-1.37-1.51ZM51.79,39.58A2,2,0,0,1,50.26,39a4.36,4.36,0,0,1-.88-1.66l-.73-2.12a1.68,1.68,0,0,0-.43-.7,1.26,1.26,0,0,0-.77-.19h-.28v4.52a.56.56,0,0,1-.45.54,9.27,9.27,0,0,1-1.72.13,9.08,9.08,0,0,1-1.71-.13.56.56,0,0,1-.45-.54V25.1a.55.55,0,0,1,.16-.39l.15-.14a.58.58,0,0,1,.38-.17l3-.06,1.9,0a7.53,7.53,0,0,1,2.19.3,4.74,4.74,0,0,1,1.75.93,4.28,4.28,0,0,1,1.15,1.58h0a5.57,5.57,0,0,1,.4,2.15,4.31,4.31,0,0,1-.24,1.44A4.5,4.5,0,0,1,53,31.94a4.27,4.27,0,0,1-.9.95L52,33a3.93,3.93,0,0,1,1,1.64l.61,1.72a2.42,2.42,0,0,0,.82,1.24.55.55,0,0,1,.22.36.62.62,0,0,1-.1.42,2.88,2.88,0,0,1-1.13.85A3.74,3.74,0,0,1,51.79,39.58Zm-5.17-6.35h.83a2.23,2.23,0,0,1,1.49.45,2.76,2.76,0,0,1,.75,1.17L50.43,37a3.33,3.33,0,0,0,.62,1.24,1,1,0,0,0,.74.25,2.65,2.65,0,0,0,1.11-.23,2.55,2.55,0,0,0,.33-.17,4.18,4.18,0,0,1-.73-1.32L51.9,35a2.23,2.23,0,0,0-1.23-1.53.55.55,0,0,1-.36-.52.54.54,0,0,1,.35-.52,2.84,2.84,0,0,0,.8-.46,3.27,3.27,0,0,0,.68-.71,3.86,3.86,0,0,0,.47-.93,3.55,3.55,0,0,0,.17-1.09,4.46,4.46,0,0,0-.31-1.71h0a3.12,3.12,0,0,0-.85-1.18,3.69,3.69,0,0,0-1.35-.71,6.36,6.36,0,0,0-1.87-.25l-1.88,0L44,25.5V38.37c.3,0,.65.05,1,.05s.76,0,1.07-.05V33.78A.54.54,0,0,1,46.62,33.23Zm11.92,6.29a9.05,9.05,0,0,1-1.72-.13.56.56,0,0,1-.45-.54V25a.56.56,0,0,1,.45-.55,10,10,0,0,1,1.72-.13,10.52,10.52,0,0,1,1.75.13.56.56,0,0,1,.45.55V38.85a.56.56,0,0,1-.45.54A9.55,9.55,0,0,1,58.54,39.52Zm-1.07-1.15c.31,0,.67.05,1.07.05s.78,0,1.09-.05V25.48c-.31,0-.68-.05-1.09-.05s-.76,0-1.07.05ZM35,39.52c-.5,0-1.17,0-2,0l-3-.06a.55.55,0,0,1-.38-.16l-.14-.14a.59.59,0,0,1-.16-.39V25.1a.55.55,0,0,1,.16-.39l.14-.14A.6.6,0,0,1,30,24.4l2.81-.06,1.89,0a6.39,6.39,0,0,1,3.8,1A3.76,3.76,0,0,1,40,28.57a3.48,3.48,0,0,1-.6,2,4,4,0,0,1-.65.76,1.33,1.33,0,0,1,.19.14,4.27,4.27,0,0,1,.9,1,4.91,4.91,0,0,1,.58,1.17,4,4,0,0,1,.22,1.32,4.19,4.19,0,0,1-1.54,3.54A6.7,6.7,0,0,1,35,39.52Zm-4.58-1.18,2.6.06,2,0a5.59,5.59,0,0,0,3.43-.9,3.07,3.07,0,0,0,1.11-2.65,3.17,3.17,0,0,0-.16-1A4.54,4.54,0,0,0,39,33a3.42,3.42,0,0,0-.67-.7,2.45,2.45,0,0,0-.79-.43.56.56,0,0,1-.38-.5.55.55,0,0,1,.33-.53,2.56,2.56,0,0,0,1.47-2.27,2.66,2.66,0,0,0-1-2.32,5.27,5.27,0,0,0-3.15-.82l-1.87,0-2.41.05Zm70.38,1.12H95.45a2.34,2.34,0,0,1-1.76-.67A2.41,2.41,0,0,1,93,37V25.14a.55.55,0,0,1,.16-.39l.15-.14a.52.52,0,0,1,.39-.17h8.74a.56.56,0,0,1,.54.45,6.7,6.7,0,0,1,.13,1.39,4.67,4.67,0,0,1-.32,1.63.54.54,0,0,1-.51.36h-5V30h3.91a.57.57,0,0,1,.53.39,4.72,4.72,0,0,1,.21,1.46,5.13,5.13,0,0,1-.21,1.5.55.55,0,0,1-.53.39H97.36v1.9c.37,0,.68,0,.93,0H103a.56.56,0,0,1,.56.55,8,8,0,0,1-.07,1.24A2.34,2.34,0,0,1,100.84,39.46Zm-6.7-13.91V37a1.32,1.32,0,0,0,.34,1,1.28,1.28,0,0,0,1,.35h5.39c1.2,0,1.44-.56,1.53-1.1,0-.13,0-.31,0-.51H98.28l-1.47,0a.5.5,0,0,1-.4-.15.54.54,0,0,1-.17-.4l0-1.49V33.21a.55.55,0,0,1,.55-.55h4a4,4,0,0,0,.07-.79,4.35,4.35,0,0,0-.06-.74H98.18c-.55,0-1,0-1.35,0a.5.5,0,0,1-.4-.16.53.53,0,0,1-.17-.4V29.18l0-1.46a.52.52,0,0,1,.15-.39.56.56,0,0,1,.4-.17h5.12a3.54,3.54,0,0,0,.13-.88c0-.26,0-.5,0-.73ZM34.5,37.26H33.16a.55.55,0,0,1-.58-.55v-4a.56.56,0,0,1,.56-.55h1.67a2.48,2.48,0,0,1,2,.79h0a2.62,2.62,0,0,1,.62,1.73,2.52,2.52,0,0,1-.51,1.65,2.22,2.22,0,0,1-1.26.78A5.34,5.34,0,0,1,34.5,37.26Zm-.81-1.12h.64a4.72,4.72,0,0,0,1.09-.09,1.19,1.19,0,0,0,.64-.4,1.5,1.5,0,0,0,.25-.95,1.53,1.53,0,0,0-.36-1h0a1.43,1.43,0,0,0-1.14-.39H33.69v2.84Zm35.89,1.07c-1.51,0-3.3-.91-3.3-5.28s1.79-5.29,3.3-5.29c2.15,0,3.25,1.78,3.25,5.29S71.73,37.21,69.58,37.21Zm0-9.47c-.54,0-2.19,0-2.19,4.19s1.65,4.18,2.19,4.18,2.14,0,2.14-4.18S70.11,27.74,69.58,27.74Zm-23,4.1a.55.55,0,0,1-.55-.56v-4a.58.58,0,0,1,.17-.41.6.6,0,0,1,.42-.14l.62,0h.84a2.25,2.25,0,0,1,2.46,2.53,2.92,2.92,0,0,1-.27,1.37,2,2,0,0,1-.82.84,3.09,3.09,0,0,1-1.28.31C47.77,31.83,47.23,31.84,46.62,31.84Zm.55-4v2.87l1,0a2,2,0,0,0,.8-.18.83.83,0,0,0,.37-.37,1.81,1.81,0,0,0,.14-.86c0-1-.39-1.43-1.35-1.43h-.95ZM34.57,31H33.14a.56.56,0,0,1-.56-.56V27.17a.55.55,0,0,1,.6-.55l.57,0h.82a2.23,2.23,0,0,1,1.76.64,2.2,2.2,0,0,1,.54,1.51,2.3,2.3,0,0,1-.52,1.52A2.19,2.19,0,0,1,34.57,31Zm-.88-1.11h.88a1.27,1.27,0,0,0,.93-.28,1.2,1.2,0,0,0,.27-.81A1.12,1.12,0,0,0,35.5,28a1.34,1.34,0,0,0-.93-.27h-.88Z" transform="translate(-4.9 -3.56)"/><path class="cls-1" d="M80.05,93.47H81.2a.7.7,0,0,0,0-.27.77.77,0,0,0,0-.27H80.05v-.85h1.4a.77.77,0,0,0,0-.29,1.1,1.1,0,0,0,0-.26h-2l0,0V94.5a.39.39,0,0,0,.1.29.37.37,0,0,0,.28.1h1.38a.37.37,0,0,0,.42-.31,1.63,1.63,0,0,0,0-.24H80.05v-.88Zm-2.51.87V91.93a.42.42,0,0,0-.1-.32.37.37,0,0,0-.29-.1h-.24l0,0v3a.44.44,0,0,0,.1.29.39.39,0,0,0,.28.1h1.19c.25,0,.39-.1.43-.32a1.57,1.57,0,0,0,0-.25H78l-.44,0M74.88,92a1.26,1.26,0,0,1,.3,0,.37.37,0,0,1,.2.13.44.44,0,0,1,.08.28c0,.3-.17.45-.5.45h-.43V92h.35m.4,1.42a.57.57,0,0,1,.18.12.48.48,0,0,1,.1.17.65.65,0,0,1,0,.2.54.54,0,0,1-.06.27.55.55,0,0,1-.13.17.5.5,0,0,1-.2.08l-.23,0h-.45V93.37H75a.73.73,0,0,1,.27,0m-1.4-1.85v3.3l0,0,.69,0h.46a1.35,1.35,0,0,0,.89-.25.88.88,0,0,0,.31-.73.9.9,0,0,0,0-.28,2.1,2.1,0,0,0-.13-.26,1.19,1.19,0,0,0-.2-.19.6.6,0,0,0-.24-.12.73.73,0,0,0,.33-.27.69.69,0,0,0,.13-.41.79.79,0,0,0-.29-.66,1.28,1.28,0,0,0-.83-.23h-.42l-.66,0Zm-3.8,3.35a1.47,1.47,0,0,0,.31,0l.09-1.57c0-.31,0-.66,0-1.07h0l.58,2.14.33,0,.34,0,.57-2.14h0c0,.31,0,.66,0,1.07l.1,1.57a1.32,1.32,0,0,0,.3,0,1.45,1.45,0,0,0,.32,0l-.26-3.34a3,3,0,0,0-.43,0,2.9,2.9,0,0,0-.43,0l-.37,1.36a7.67,7.67,0,0,0-.19.84h0q0-.22-.18-.84l-.38-1.36a2.77,2.77,0,0,0-.42,0,3,3,0,0,0-.44,0l-.26,3.34a1.51,1.51,0,0,0,.32,0M67.7,93.47h1.15a.7.7,0,0,0,0-.27.77.77,0,0,0,0-.27H67.7v-.85h1.4a.79.79,0,0,0,.06-.29,1.09,1.09,0,0,0,0-.26h-2l0,0V94.5a.44.44,0,0,0,.1.29.37.37,0,0,0,.28.1h1.38a.37.37,0,0,0,.42-.31,1.63,1.63,0,0,0,0-.24H67.7v-.88ZM65.22,95a1.89,1.89,0,0,0,.56-.08,1,1,0,0,0,.39-.21.78.78,0,0,0,.24-.33,1.07,1.07,0,0,0,.08-.41.86.86,0,0,0-.19-.55,1.36,1.36,0,0,0-.55-.39l-.58-.24c-.23-.1-.35-.22-.35-.37a.32.32,0,0,1,.13-.27.53.53,0,0,1,.36-.1,2.05,2.05,0,0,1,.87.23.73.73,0,0,0,.23-.5,2.29,2.29,0,0,0-1.06-.27,1.43,1.43,0,0,0-.48.07,1.24,1.24,0,0,0-.38.2.87.87,0,0,0-.25.32,1,1,0,0,0-.08.4.79.79,0,0,0,.17.51,1.21,1.21,0,0,0,.51.37l.58.24a.55.55,0,0,1,.38.45.37.37,0,0,1-.14.28.58.58,0,0,1-.37.11,1.82,1.82,0,0,1-1-.33.86.86,0,0,0-.17.23.72.72,0,0,0-.09.27,2.13,2.13,0,0,0,1.18.37m-1.95-3.45a.38.38,0,0,0-.28.09.46.46,0,0,0-.08.32v.89c0,.42,0,.87.05,1.34h0l-.32-.73-.88-1.89a2.46,2.46,0,0,0-.41,0,1.26,1.26,0,0,0-.37,0v3.34l.3,0,.32,0V93.64c0-.43,0-.87-.06-1.33h0c.07.17.16.4.29.69l.9,1.9.4,0a2.13,2.13,0,0,0,.39,0V91.54l0,0Zm-4.46,2H60a1,1,0,0,0,0-.27,1.1,1.1,0,0,0,0-.27H58.81v-.85h1.41a1,1,0,0,0,0-.29,2.11,2.11,0,0,0,0-.26H58.19l0,0V94.5a.39.39,0,0,0,.1.29.35.35,0,0,0,.27.1h1.38c.25,0,.39-.1.42-.31a1.44,1.44,0,0,0,0-.24H58.8v-.88Zm-4.34,0h1.15a.7.7,0,0,0,0-.27.77.77,0,0,0,0-.27H54.47v-.85h1.4a.79.79,0,0,0,.06-.29,1.09,1.09,0,0,0,0-.26h-2l0,0V94.5a.39.39,0,0,0,.1.29.37.37,0,0,0,.28.1h1.38a.37.37,0,0,0,.42-.31,1.63,1.63,0,0,0,0-.24H54.47v-.88ZM51.69,92H52a.53.53,0,0,1,0,1.06l-.45,0V92h.19m1.15-.24a1.3,1.3,0,0,0-.84-.26h-.45l-.67,0,0,0v3.33l.31,0h.34V93.6h.3a.4.4,0,0,1,.29.09.61.61,0,0,1,.16.26l.21.59a.82.82,0,0,0,.16.3.32.32,0,0,0,.24.09.6.6,0,0,0,.27-.06.37.37,0,0,0,.18-.14.64.64,0,0,1-.13-.15,1,1,0,0,1-.1-.21l-.18-.5a.92.92,0,0,0-.15-.28.51.51,0,0,0-.21-.15.7.7,0,0,0,.24-.13.9.9,0,0,0,.19-.2.79.79,0,0,0,.13-.26.81.81,0,0,0,0-.31,1,1,0,0,0-.31-.77M49.68,94.9l.34,0V91.53a1.72,1.72,0,0,0-.34,0,1.47,1.47,0,0,0-.32,0v3.35l.32,0M47.15,93c.12-.42.19-.69.22-.83h0c.06.26.15.58.26,1l.15.5H47Zm1,1.59a.52.52,0,0,0,.15.27.41.41,0,0,0,.28.08.62.62,0,0,0,.34-.09l-1.07-3.3a2.05,2.05,0,0,0-.37,0,2.38,2.38,0,0,0-.39,0l-1.1,3.3,0,0a.87.87,0,0,0,.31,0,1.12,1.12,0,0,0,.29,0l.23-.76H48Zm-3.45-1.1h1.12a1.14,1.14,0,0,0,0-.28,1,1,0,0,0,0-.26H44.65V92.1h1.07A.46.46,0,0,0,46,92a.29.29,0,0,0,.09-.23,1,1,0,0,0,0-.26H44l0,0v3.32l.33,0,.32,0Zm-3.29-2a1.55,1.55,0,0,0-.33,0v2.14q0,.75-.63.75c-.41,0-.62-.25-.62-.75V91.93a.47.47,0,0,0-.09-.32.37.37,0,0,0-.29-.1h-.25l0,0v2.14a1.23,1.23,0,0,0,.34.94,1.48,1.48,0,0,0,1.89,0,1.27,1.27,0,0,0,.34-.94V91.54a1.69,1.69,0,0,0-.33,0m-3.52,1.28a2.42,2.42,0,0,1,0,.39c0,.13,0,.25,0,.36a1.61,1.61,0,0,1-.06.33.71.71,0,0,1-.13.26.55.55,0,0,1-.21.19.58.58,0,0,1-.17.05l-.23,0H36.6V92h.53a.59.59,0,0,1,.61.39,1.7,1.7,0,0,1,.1.37m.59,1.27a2.7,2.7,0,0,0,.11-.85,3.52,3.52,0,0,0-.06-.66,1.47,1.47,0,0,0-.23-.54,1.07,1.07,0,0,0-.44-.37,1.5,1.5,0,0,0-.68-.13h-.59l-.57,0,0,0v3.3l0,0,.71,0h.41a2.24,2.24,0,0,0,.52-.06,1,1,0,0,0,.4-.18,1.21,1.21,0,0,0,.42-.61m-6.18-.59h1.14a.7.7,0,0,0,0-.27.77.77,0,0,0,0-.27H32.25v-.85h1.41a1,1,0,0,0,.05-.29,2.11,2.11,0,0,0,0-.26H31.63l0,0V94.5a.4.4,0,0,0,.11.29.33.33,0,0,0,.27.1h1.38c.25,0,.39-.1.42-.31a1.44,1.44,0,0,0,0-.24H32.24v-.88ZM29.46,92h.26a.53.53,0,0,1,0,1.06l-.45,0V92h.19m1.15-.24a1.26,1.26,0,0,0-.84-.26h-.44l-.68,0,0,0v3.33l.32,0h.33V93.6h.3a.45.45,0,0,1,.3.09A.72.72,0,0,1,30,94l.2.59a.82.82,0,0,0,.17.3.29.29,0,0,0,.23.09.6.6,0,0,0,.27-.06.45.45,0,0,0,.19-.14.5.5,0,0,1-.14-.15l-.09-.21-.19-.5a.92.92,0,0,0-.15-.28.41.41,0,0,0-.21-.15.7.7,0,0,0,.24-.13,1,1,0,0,0,.2-.2.9.9,0,0,0,.17-.57,1,1,0,0,0-.31-.77m-3.09-.26a1.61,1.61,0,0,0-.33,0v2.14c0,.5-.21.75-.62.75s-.62-.25-.62-.75V91.93a.42.42,0,0,0-.1-.32.37.37,0,0,0-.29-.1h-.24l0,0v2.14a1.27,1.27,0,0,0,.33.94,1.5,1.5,0,0,0,1.9,0,1.27,1.27,0,0,0,.33-.94V91.54a1.55,1.55,0,0,0-.33,0M24,92.08h.53a.41.41,0,0,0,.27-.07.26.26,0,0,0,.08-.21,1.09,1.09,0,0,0,0-.26H22.53a1.83,1.83,0,0,0,0,.54h.85v2.81l.33,0,.34,0V92.08Zm-2.54,2.26V91.93a.47.47,0,0,0-.09-.32.37.37,0,0,0-.29-.1h-.25l0,0v3a.39.39,0,0,0,.1.29.37.37,0,0,0,.28.1H22.4c.25,0,.39-.1.43-.32a1.57,1.57,0,0,0,0-.25h-.91l-.45,0m-1.76-2.83a1.55,1.55,0,0,0-.33,0v2.14c0,.5-.21.75-.62.75s-.63-.25-.63-.75V91.93a.47.47,0,0,0-.09-.32.37.37,0,0,0-.29-.1h-.24l0,0v2.14a1.27,1.27,0,0,0,.33.94,1.31,1.31,0,0,0,1,.34,1.29,1.29,0,0,0,.94-.34,1.23,1.23,0,0,0,.34-.94V91.54a1.55,1.55,0,0,0-.33,0m-3.24,1.3h.11a.33.33,0,0,0,.38-.37.79.79,0,0,0-.09-.38,1,1,0,0,0-.25-.32,1.17,1.17,0,0,0-.4-.21,1.67,1.67,0,0,0-.52-.08,1.36,1.36,0,0,0-.53.11,1.21,1.21,0,0,0-.43.33,1.59,1.59,0,0,0-.29.55,2.55,2.55,0,0,0-.11.77,3.62,3.62,0,0,0,.07.67,1.93,1.93,0,0,0,.23.55,1.35,1.35,0,0,0,.41.38,1.29,1.29,0,0,0,.62.14,2.2,2.2,0,0,0,.36,0l.35-.11.31-.16a1.29,1.29,0,0,0,.25-.2.47.47,0,0,0-.12-.23.73.73,0,0,0-.19-.2,2,2,0,0,1-.46.28,1.18,1.18,0,0,1-.39.08.63.63,0,0,1-.55-.29,1.41,1.41,0,0,1-.19-.8,2.26,2.26,0,0,1,.16-1,.55.55,0,0,1,.52-.32.54.54,0,0,1,.27.06.58.58,0,0,1,.19.15.66.66,0,0,1,.11.24,1.36,1.36,0,0,1,0,.3v0a.35.35,0,0,0,.14,0M10.83,93c.12-.42.19-.69.22-.83h0c.06.26.15.58.26,1l.15.5h-.85Zm.95,1.59a.52.52,0,0,0,.15.27.41.41,0,0,0,.28.08.62.62,0,0,0,.34-.09l-1.07-3.3a2.05,2.05,0,0,0-.37,0,2.38,2.38,0,0,0-.39,0l-1.1,3.3,0,0a.85.85,0,0,0,.3,0,1.15,1.15,0,0,0,.3,0l.23-.76h1.16Zm-3.69-.24V91.93A.47.47,0,0,0,8,91.61a.38.38,0,0,0-.29-.1H7.46l0,0v3a.4.4,0,0,0,.11.29.37.37,0,0,0,.28.1H9c.25,0,.39-.1.42-.32a.9.9,0,0,0,0-.25H8.53l-.44,0" transform="translate(-4.9 -3.56)"/><path class="cls-1" d="M40.3,21.09a6.08,6.08,0,0,1-4.45-1.57,5.91,5.91,0,0,1-1.59-4.4V6.38A.57.57,0,0,1,34.42,6l.14-.14A.59.59,0,0,1,35,5.69h1.2a2.3,2.3,0,0,1,2.48,2.62v6.85a3,3,0,0,0,.4,1.78,1.47,1.47,0,0,0,1.28.47,1.44,1.44,0,0,0,1.27-.47,3,3,0,0,0,.4-1.78V6.38a.56.56,0,0,1,.45-.54,11.38,11.38,0,0,1,3.43,0,.55.55,0,0,1,.46.54v8.74a6,6,0,0,1-1.58,4.4A6.07,6.07,0,0,1,40.3,21.09ZM35.36,6.79v8.33a4.85,4.85,0,0,0,1.27,3.61A5,5,0,0,0,40.3,20,5,5,0,0,0,44,18.74a4.89,4.89,0,0,0,1.26-3.62V6.86c-.31,0-.66-.05-1.06-.05s-.76,0-1.06.05v8.3a4.07,4.07,0,0,1-.61,2.44,2.53,2.53,0,0,1-2.17.92,2.5,2.5,0,0,1-2.17-.92,4,4,0,0,1-.62-2.44V8.31c0-1.08-.39-1.52-1.37-1.52ZM69.43,21a2.06,2.06,0,0,1-1.53-.58A4.3,4.3,0,0,1,67,18.73l-.73-2.13a1.61,1.61,0,0,0-.44-.69,1.16,1.16,0,0,0-.76-.19h-.28v4.51a.56.56,0,0,1-.45.55,10.44,10.44,0,0,1-1.73.13,9.8,9.8,0,0,1-1.7-.13.56.56,0,0,1-.45-.55V6.48a.59.59,0,0,1,.16-.39L60.78,6a.55.55,0,0,1,.38-.16l3-.06,1.9,0a7.53,7.53,0,0,1,2.19.3A4.59,4.59,0,0,1,70,6.94a4.18,4.18,0,0,1,1.14,1.58h0a5.34,5.34,0,0,1,.4,2.14,4.63,4.63,0,0,1-.23,1.45,4.91,4.91,0,0,1-.61,1.21,4.51,4.51,0,0,1-.9.95l-.19.14a4,4,0,0,1,1,1.65l.61,1.72A2.37,2.37,0,0,0,72,19a.55.55,0,0,1,.22.37.49.49,0,0,1-.1.41,2.81,2.81,0,0,1-1.13.86A3.82,3.82,0,0,1,69.43,21Zm-5.17-6.36h.83a2.17,2.17,0,0,1,1.48.46,2.7,2.7,0,0,1,.76,1.16l.73,2.14a3.2,3.2,0,0,0,.63,1.24,1,1,0,0,0,.74.25,2.68,2.68,0,0,0,1.11-.22l.33-.18a3.81,3.81,0,0,1-.73-1.32l-.61-1.72a2.21,2.21,0,0,0-1.23-1.53.56.56,0,0,1,0-1,3.06,3.06,0,0,0,.8-.45,3.27,3.27,0,0,0,.68-.71,3.91,3.91,0,0,0,.46-.94,3.23,3.23,0,0,0,.17-1.09A4.28,4.28,0,0,0,70.1,9a3.06,3.06,0,0,0-.84-1.17,3.56,3.56,0,0,0-1.35-.72A6.72,6.72,0,0,0,66,6.81l-1.89,0-2.56.06V19.75a8.14,8.14,0,0,0,1,.05,8.64,8.64,0,0,0,1.07-.05V15.16A.56.56,0,0,1,64.26,14.61ZM30.7,21a2.74,2.74,0,0,1-1.84-.5A3.38,3.38,0,0,1,28,18.81l-.26-.93H24l-.75,2.53a.57.57,0,0,1-.4.38,6.47,6.47,0,0,1-1.49.14,5.21,5.21,0,0,1-1.77-.26.52.52,0,0,1-.28-.22l-.1-.17a.54.54,0,0,1-.06-.46L23.64,6.21a.54.54,0,0,1,.44-.37A12.2,12.2,0,0,1,26,5.71a11,11,0,0,1,2,.15.55.55,0,0,1,.41.37l4.38,13.63a.55.55,0,0,1-.26.66A3.85,3.85,0,0,1,30.7,21Zm-2.6-4.21a.56.56,0,0,1,.53.4L29,18.5a2.41,2.41,0,0,0,.55,1.13,1.81,1.81,0,0,0,1.13.23,2.73,2.73,0,0,0,.92-.14L27.49,6.89A12,12,0,0,0,26,6.81a12.17,12.17,0,0,0-1.43.08L20.37,19.74a6,6,0,0,0,1,.08,6.12,6.12,0,0,0,.92-.05l.78-2.61a.55.55,0,0,1,.57-.4l.77,0h2.88l.75,0Zm25.2,4.15a10.05,10.05,0,0,1-1.7-.13.56.56,0,0,1-.45-.55V9.64H48.32a.54.54,0,0,1-.54-.44,7.19,7.19,0,0,1-.14-1.47,7.27,7.27,0,0,1,.14-1.47.54.54,0,0,1,.54-.44h10a.55.55,0,0,1,.53.39,4.81,4.81,0,0,1,.19,1.45,1.85,1.85,0,0,1-.61,1.52,2.5,2.5,0,0,1-1.65.46H55.47V20.23a.56.56,0,0,1-.46.55A10.58,10.58,0,0,1,53.3,20.91Zm-1-1.16a8.14,8.14,0,0,0,1,.05c.39,0,.75,0,1.07-.05V10.58l0-1.49a.55.55,0,0,1,.56-.56h0l1.85,0a1.49,1.49,0,0,0,1-.21.89.89,0,0,0,.2-.67,4,4,0,0,0,0-.73h-9.1a6.58,6.58,0,0,0,0,.8,6.86,6.86,0,0,0,0,.81h1.62l1.29,0a.49.49,0,0,1,.39.16.52.52,0,0,1,.17.39Zm29.5,1.1h-5.4a2.34,2.34,0,0,1-1.76-.68,2.38,2.38,0,0,1-.66-1.76V6.52a.56.56,0,0,1,.17-.39L74.25,6a.55.55,0,0,1,.39-.16h8.74a.55.55,0,0,1,.54.44,6.84,6.84,0,0,1,.13,1.39,4.54,4.54,0,0,1-.32,1.64.54.54,0,0,1-.51.35h-5v1.76h3.91a.55.55,0,0,1,.53.38,4.79,4.79,0,0,1,.21,1.47,5.06,5.06,0,0,1-.21,1.49.55.55,0,0,1-.53.4H78.27V17l.94,0h4.69a.56.56,0,0,1,.55.56,7.89,7.89,0,0,1-.07,1.23A2.34,2.34,0,0,1,81.76,20.85ZM75.05,6.94V18.41a1.34,1.34,0,0,0,.34,1,1.27,1.27,0,0,0,1,.34h5.4c1.19,0,1.43-.55,1.52-1.09,0-.14,0-.31,0-.52H79.2c-.37,0-.86,0-1.48,0a.55.55,0,0,1-.57-.55l0-1.49V14.6a.56.56,0,0,1,.55-.56h4a4.84,4.84,0,0,0,.06-.78,4.38,4.38,0,0,0-.06-.75H79.09l-1.35,0a.54.54,0,0,1-.4-.15.56.56,0,0,1-.17-.4V10.56l0-1.45a.55.55,0,0,1,.55-.56h5.12A3.61,3.61,0,0,0,83,7.66c0-.25,0-.49,0-.72ZM13,20.85H8.45a2.41,2.41,0,0,1-1.77-.67A2.43,2.43,0,0,1,6,18.41v-12A.59.59,0,0,1,6.17,6l.14-.14a.59.59,0,0,1,.4-.16H7.89c1.58,0,2.45.93,2.45,2.62V17c.44,0,.89,0,1.36,0h3.52a.56.56,0,0,1,.56.56A9,9,0,0,1,15.67,19a2.17,2.17,0,0,1-.86,1.34A2.87,2.87,0,0,1,13,20.85ZM7.12,6.79V18.41a1.35,1.35,0,0,0,.34,1,1.34,1.34,0,0,0,1,.34H13a1.83,1.83,0,0,0,1.11-.3,1.09,1.09,0,0,0,.44-.65c0-.22.06-.47.08-.74h-3c-.66,0-1.28,0-1.86.08A.57.57,0,0,1,9.42,18a.55.55,0,0,1-.18-.41V8.31c0-1.33-.65-1.52-1.35-1.52Zm17.25,8.54a.54.54,0,0,1-.44-.22.54.54,0,0,1-.09-.49l.46-1.55c.54-2,.86-3.26,1-3.83a.56.56,0,0,1,.55-.45h.12a.56.56,0,0,1,.54.42c.41,1.62.78,3,1.11,4.16l.34,1.26a.55.55,0,0,1-.53.7H25.18l-.8,0Zm1.52-3.93c-.14.55-.32,1.2-.52,2v0l-.24.83h1.54l-.15-.53C26.32,13,26.11,12.24,25.89,11.4Zm38.37,1.82a.56.56,0,0,1-.56-.55v-4a.55.55,0,0,1,.18-.4.53.53,0,0,1,.42-.15,5.73,5.73,0,0,0,.62,0h.84a2.25,2.25,0,0,1,2.46,2.53A2.94,2.94,0,0,1,68,12.05a1.9,1.9,0,0,1-.83.83,2.87,2.87,0,0,1-1.28.31C65.4,13.21,64.87,13.22,64.26,13.22Zm.55-4v2.86l1,0a2,2,0,0,0,.81-.18.88.88,0,0,0,.37-.37,2,2,0,0,0,.14-.87c0-1-.39-1.42-1.35-1.42h-1ZM16.07,10.93a.59.59,0,0,1-.23,0,1.68,1.68,0,0,1-.79-.77,2,2,0,0,1-.24-1.06V8.92a.57.57,0,0,1,.41-.54,2.47,2.47,0,0,0,.49-.19,2.51,2.51,0,0,0,.46-.32,1.13,1.13,0,0,0,.23-.26,2.27,2.27,0,0,1-.5-.23.61.61,0,0,1-.21-.24,3.36,3.36,0,0,1-.26-.81,6.11,6.11,0,0,1,0-.64,2.92,2.92,0,0,1,.31-1.47A.49.49,0,0,1,15.93,4a3.29,3.29,0,0,1,1-.36,4.65,4.65,0,0,1,.87-.07A3.42,3.42,0,0,1,19.59,4a.51.51,0,0,1,.22.26,5,5,0,0,1,.31,1.81,4.81,4.81,0,0,1-1,3,5.28,5.28,0,0,1-2.89,1.83Zm-.14-1.62a.94.94,0,0,0,.1.28.7.7,0,0,0,.13.19,4.14,4.14,0,0,0,2.07-1.37A3.74,3.74,0,0,0,19,6.08a4.06,4.06,0,0,0-.16-1.22,2.65,2.65,0,0,0-1.09-.2,3.51,3.51,0,0,0-.68.06,1.58,1.58,0,0,0-.46.16,2.15,2.15,0,0,0-.11.8,3.79,3.79,0,0,0,0,.51,1.82,1.82,0,0,0,.1.33,1.37,1.37,0,0,0,.52.12.55.55,0,0,1,.51.55,1.66,1.66,0,0,1-.24.88,2.43,2.43,0,0,1-.52.63,3.33,3.33,0,0,1-.67.46Z" transform="translate(-4.9 -3.56)"/><path class="cls-2" d="M24.46,69.94" transform="translate(-4.9 -3.56)"/><path class="cls-2" d="M83.81,88.4H5.64a.74.74,0,0,1-.74-.74V62.58a.74.74,0,0,1,.74-.73H83.81a.74.74,0,0,1,.74.73V87.66A.74.74,0,0,1,83.81,88.4ZM6.38,86.92H83.07V63.32H6.38Z" transform="translate(-4.9 -3.56)"/><rect class="cls-2" x="80.29" y="78.07" width="25.84" height="1.47" transform="translate(-33.58 81.77) rotate(-43.28)"/><rect class="cls-2" x="80.39" y="52.9" width="25.84" height="1.47" transform="translate(-16.3 74.99) rotate(-43.28)"/><rect class="cls-2" x="2.21" y="52.9" width="25.84" height="1.47" transform="translate(-37.56 21.4) rotate(-43.28)"/><path class="cls-2" d="M6.26,87.6a.55.55,0,0,1-.41-.18.54.54,0,0,1,0-.78l3.6-3.38a.55.55,0,1,1,.75.81l-3.6,3.38A.53.53,0,0,1,6.26,87.6Zm7.2-6.76a.55.55,0,0,1-.41-.18.54.54,0,0,1,0-.78l3.6-3.38a.55.55,0,1,1,.75.81l-3.6,3.38A.53.53,0,0,1,13.46,80.84Zm7.19-6.76a.55.55,0,0,1-.37-1l3.6-3.38a.55.55,0,1,1,.75.81L21,73.93A.54.54,0,0,1,20.65,74.08Z" transform="translate(-4.9 -3.56)"/><path class="cls-2" d="M24.46,70.17a.56.56,0,0,1-.56-.55V64.76a.56.56,0,0,1,1.11,0v4.86A.55.55,0,0,1,24.46,70.17Zm0-9.71a.56.56,0,0,1-.56-.55V55.05a.56.56,0,0,1,1.11,0v4.86A.55.55,0,0,1,24.46,60.46Zm0-9.71a.56.56,0,0,1-.56-.56V45.34a.56.56,0,0,1,1.11,0v4.85A.56.56,0,0,1,24.46,50.75Z" transform="translate(-4.9 -3.56)"/><path class="cls-2" d="M102.62,70.68a.74.74,0,0,1-.73-.74V45.61H24.46a.74.74,0,1,1,0-1.48h78.16a.74.74,0,0,1,.74.74V69.94A.74.74,0,0,1,102.62,70.68Z" transform="translate(-4.9 -3.56)"/><path class="cls-2" d="M102.62,70.5H98a.56.56,0,0,1,0-1.11h4.6a.56.56,0,1,1,0,1.11Zm-9.19,0h-4.6a.56.56,0,0,1,0-1.11h4.6a.56.56,0,0,1,0,1.11Zm-9.2,0h-4.6a.56.56,0,0,1,0-1.11h4.6a.56.56,0,0,1,0,1.11Zm-9.2,0H70.44a.56.56,0,1,1,0-1.11H75a.56.56,0,1,1,0,1.11Zm-9.19,0h-4.6a.56.56,0,0,1,0-1.11h4.6a.56.56,0,0,1,0,1.11Zm-9.2,0H52a.56.56,0,0,1,0-1.11h4.6a.56.56,0,1,1,0,1.11Zm-9.19,0h-4.6a.56.56,0,0,1,0-1.11h4.6a.56.56,0,0,1,0,1.11Zm-9.2,0h-4.6a.56.56,0,0,1,0-1.11h4.6a.56.56,0,0,1,0,1.11Zm-9.2,0H24.46a.56.56,0,1,1,0-1.11h4.59a.56.56,0,1,1,0,1.11Z" transform="translate(-4.9 -3.56)"/><path class="cls-2" d="M97.18,96.24a32.26,32.26,0,0,1-10-1.61.74.74,0,0,1,.46-1.4,30,30,0,0,0,23.67-2,32,32,0,0,0,15.24-18.54A31.7,31.7,0,0,0,106.1,32.82a.75.75,0,0,1-.48-.93.74.74,0,0,1,.93-.47A33.42,33.42,0,0,1,112,92.51,31.17,31.17,0,0,1,97.18,96.24Z" transform="translate(-4.9 -3.56)"/><path class="cls-2" d="M89.13,97.81a.76.76,0,0,1-.65-.38l-1.74-3.14a.76.76,0,0,1-.06-.59.73.73,0,0,1,.39-.44l3.26-1.51A.74.74,0,1,1,91,93.09l-2.54,1.18,1.36,2.45a.74.74,0,0,1-.28,1A.8.8,0,0,1,89.13,97.81Z" transform="translate(-4.9 -3.56)"/></svg>