

<svg version="1.1"  xmlns="http://www.w3.org/2000/svg" xmlns:xlink="http://www.w3.org/1999/xlink" x="0px" y="0px"
	 viewBox="0 0 160.6 118.4" style="enable-background:new 0 0 160.6 118.4;" xml:space="preserve">
<style type="text/css">
	.st0{fill:#F2F2F2;}
	.st1{fill:#73C7D3;}
</style>
<g>
	<g>
		<g>
			<path class="st0" d="M85.7,49.2c-0.9,0-1.9-0.4-2.8-1.1l-2.3-2c-1.1,0-2.1-0.2-3-0.6c-1-0.4-1.8-1-2.5-1.8
				c-0.7-0.8-1.2-1.8-1.6-2.9c-0.3-1.1-0.5-2.4-0.5-3.9c0-1.4,0.2-2.7,0.5-3.8c0.3-1.1,0.9-2.1,1.5-2.9c0.7-0.8,1.5-1.4,2.5-1.9
				c1-0.4,2.1-0.6,3.3-0.6c1.2,0,2.4,0.2,3.4,0.6c1,0.4,1.8,1.1,2.5,1.9c0.7,0.8,1.2,1.8,1.5,2.9c0.3,1.1,0.5,2.4,0.5,3.8
				c0,1-0.1,1.9-0.2,2.7c-0.2,0.9-0.4,1.7-0.7,2.3c-0.3,0.7-0.7,1.3-1.2,1.8c-0.2,0.2-0.4,0.4-0.7,0.6c0.9,0.6,1.7,0.8,2.4,0.8
				c0.2,0,0.4,0.1,0.5,0.2c0.1,0.1,0.2,0.3,0.2,0.5c0,1-0.3,1.8-0.9,2.4C87.5,48.8,86.7,49.2,85.7,49.2z M80.9,28.8
				c-1.1,0-2,0.2-2.8,0.5c-0.8,0.3-1.5,0.9-2,1.5c-0.6,0.7-1,1.5-1.3,2.5c-0.3,1-0.4,2.2-0.4,3.5c0,1.3,0.2,2.5,0.5,3.5
				c0.3,1,0.7,1.8,1.3,2.5c0.5,0.6,1.2,1.1,2,1.5c0.8,0.3,1.7,0.5,2.7,0.5c0.2,0,0.3,0.1,0.4,0.2l2.5,2.1c0.7,0.5,1.3,0.8,1.9,0.8
				c0.6,0,1.1-0.2,1.4-0.5c0.2-0.3,0.4-0.6,0.5-1c-0.9-0.1-1.7-0.5-2.7-1.2l-0.6-0.4c-0.2-0.1-0.3-0.4-0.3-0.6
				c0-0.2,0.2-0.5,0.4-0.5c0.5-0.2,0.8-0.4,1.2-0.8c0.4-0.4,0.7-0.9,1-1.5c0.3-0.6,0.5-1.3,0.6-2c0.1-0.8,0.2-1.6,0.2-2.5
				c0-1.3-0.1-2.4-0.4-3.4c-0.3-1-0.7-1.8-1.3-2.5c-0.5-0.7-1.2-1.2-2-1.5C82.9,29,82,28.8,80.9,28.8z M98.3,46
				c-2.3,0-4-0.6-5.3-1.9c-1.3-1.2-1.9-3-1.9-5.2V28.5c0-0.2,0.1-0.3,0.2-0.5l0.2-0.2c0.1-0.1,0.3-0.2,0.5-0.2h1.4
				c1.9,0,3,1.1,3,3.1V39c0,1,0.2,1.7,0.5,2.1c0.3,0.4,0.8,0.6,1.5,0.6c0.8,0,1.2-0.2,1.5-0.6c0.3-0.4,0.5-1.1,0.5-2.1V28.5
				c0-0.3,0.2-0.6,0.5-0.6c0.5-0.1,1.2-0.2,2-0.2c0.8,0,1.5,0.1,2,0.2c0.3,0.1,0.5,0.3,0.5,0.6v10.4c0,2.2-0.6,4-1.9,5.2
				C102.4,45.4,100.6,46,98.3,46z M92.5,29v9.9c0,1.9,0.5,3.3,1.5,4.3c1,1,2.5,1.5,4.4,1.5c1.9,0,3.4-0.5,4.4-1.5
				c1-1,1.5-2.4,1.5-4.3v-9.8c-0.4,0-0.8-0.1-1.3-0.1c-0.5,0-0.9,0-1.3,0.1V39c0,1.3-0.2,2.2-0.7,2.9c-0.5,0.7-1.4,1.1-2.6,1.1
				c-1.2,0-2.1-0.4-2.6-1.1C95.3,41.2,95,40.3,95,39v-8.2c0-1.3-0.5-1.8-1.6-1.8H92.5z M59.7,45.9c-0.8,0-1.4-0.2-1.8-0.7
				c-0.4-0.4-0.7-1.1-1-2L56,40.7c-0.1-0.4-0.3-0.6-0.5-0.8c-0.2-0.1-0.5-0.2-0.9-0.2h-0.3V45c0,0.3-0.2,0.6-0.5,0.6
				c-0.6,0.1-1.2,0.2-2.1,0.2c-0.8,0-1.5-0.1-2-0.2c-0.3-0.1-0.5-0.3-0.5-0.6V28.6c0-0.2,0.1-0.3,0.2-0.5l0.2-0.2
				c0.1-0.1,0.3-0.2,0.5-0.2c1.4,0,2.6-0.1,3.5-0.1c1,0,1.7,0,2.3,0c0.9,0,1.8,0.1,2.6,0.4c0.8,0.2,1.5,0.6,2.1,1.1
				c0.6,0.5,1,1.1,1.4,1.9c0,0,0,0,0,0c0.3,0.7,0.5,1.6,0.5,2.6c0,0.6-0.1,1.2-0.3,1.7c-0.2,0.5-0.4,1-0.7,1.4
				c-0.3,0.4-0.7,0.8-1.1,1.1C60.1,38,60,38,59.9,38.1c0.5,0.5,0.9,1.1,1.2,2l0.7,2c0.2,0.7,0.6,1.2,1,1.5c0.1,0.1,0.2,0.3,0.3,0.4
				c0,0.2,0,0.4-0.1,0.5c-0.3,0.4-0.8,0.8-1.3,1C61,45.8,60.4,45.9,59.7,45.9z M53.6,38.3h1c0.8,0,1.3,0.2,1.8,0.5
				c0.4,0.3,0.7,0.8,0.9,1.4l0.9,2.5c0.3,0.9,0.6,1.3,0.7,1.5c0.2,0.2,0.5,0.3,0.9,0.3c0.5,0,0.9-0.1,1.3-0.3
				c0.1-0.1,0.3-0.1,0.4-0.2c-0.4-0.4-0.7-0.9-0.9-1.6l-0.7-2c-0.3-1-0.8-1.6-1.5-1.8C58.1,38.6,58,38.3,58,38
				c0-0.3,0.2-0.5,0.4-0.6c0.3-0.1,0.6-0.3,0.9-0.5c0.3-0.2,0.6-0.5,0.8-0.8c0.2-0.3,0.4-0.7,0.6-1.1c0.1-0.4,0.2-0.8,0.2-1.3
				c0-0.8-0.1-1.5-0.4-2l0,0c-0.2-0.6-0.6-1-1-1.4c-0.4-0.4-1-0.7-1.6-0.8c-0.7-0.2-1.4-0.3-2.2-0.3c-0.5,0-1.3,0-2.2,0
				c-0.8,0-1.9,0-3.1,0.1v15.3c0.4,0,0.8,0.1,1.2,0.1c0.5,0,0.9,0,1.3-0.1V39C52.9,38.6,53.2,38.3,53.6,38.3z M67.8,45.8
				c-0.8,0-1.5-0.1-2.1-0.2c-0.3-0.1-0.5-0.3-0.5-0.6V28.5c0-0.3,0.2-0.6,0.5-0.6c0.5-0.1,1.2-0.2,2.1-0.2c0.8,0,1.5,0.1,2.1,0.2
				c0.3,0.1,0.5,0.3,0.5,0.6V45c0,0.3-0.2,0.6-0.5,0.6C69.3,45.8,68.6,45.8,67.8,45.8z M66.5,44.4c0.4,0,0.8,0.1,1.3,0.1
				c0.5,0,0.9,0,1.3-0.1V29.1c-0.4,0-0.8-0.1-1.3-0.1c-0.5,0-0.9,0-1.3,0.1V44.4z M39.8,45.8c-0.6,0-1.4,0-2.4,0c-1,0-2.2,0-3.6-0.1
				c-0.2,0-0.3-0.1-0.5-0.2l-0.2-0.2c-0.1-0.1-0.2-0.3-0.2-0.5V28.6c0-0.2,0.1-0.3,0.2-0.5l0.2-0.2c0.1-0.1,0.3-0.2,0.4-0.2
				c1.3,0,2.4-0.1,3.3-0.1c0.9,0,1.7,0,2.2,0c1.9,0,3.4,0.4,4.5,1.2c1.2,0.9,1.8,2.1,1.8,3.8c0,0.8-0.2,1.6-0.7,2.3
				c-0.2,0.3-0.5,0.6-0.8,0.9c0.1,0.1,0.2,0.1,0.2,0.2c0.4,0.3,0.8,0.7,1.1,1.1c0.3,0.4,0.5,0.9,0.7,1.4c0.2,0.5,0.3,1,0.3,1.6
				c0,1.9-0.6,3.3-1.8,4.2C43.5,45.4,41.9,45.8,39.8,45.8z M34.3,44.4c1.2,0,2.2,0,3.1,0.1c1,0,1.8,0,2.4,0c1.8,0,3.1-0.4,4.1-1.1
				c0.9-0.7,1.3-1.7,1.3-3.2c0-0.4-0.1-0.8-0.2-1.1c-0.1-0.4-0.3-0.7-0.5-1.1c-0.2-0.3-0.5-0.6-0.8-0.8c-0.3-0.2-0.6-0.4-0.9-0.5
				c-0.3-0.1-0.4-0.3-0.5-0.6c0-0.3,0.1-0.5,0.4-0.6c0.5-0.2,0.9-0.6,1.3-1.1c0.3-0.5,0.5-1,0.5-1.6c0-1.3-0.4-2.2-1.2-2.8
				c-0.9-0.6-2.1-1-3.8-1c-0.6,0-1.3,0-2.2,0c-0.8,0-1.8,0-2.9,0.1V44.4z M118.1,45.7h-6.4c-0.9,0-1.6-0.3-2.1-0.8
				c-0.5-0.5-0.8-1.2-0.8-2.1V28.7c0-0.2,0.1-0.3,0.2-0.5l0.2-0.2c0.1-0.1,0.3-0.2,0.5-0.2h10.4c0.3,0,0.6,0.2,0.6,0.5
				c0.1,0.5,0.2,1.1,0.2,1.7c0,0.6-0.1,1.3-0.4,1.9c-0.1,0.3-0.3,0.4-0.6,0.4H114l0,2.1c0.3,0,0.6,0,1,0h3.7c0.3,0,0.5,0.2,0.6,0.5
				c0.2,0.5,0.2,1.1,0.2,1.7c0,0.6-0.1,1.2-0.2,1.8c-0.1,0.3-0.3,0.5-0.6,0.5H114l0,2.3c0.4,0,0.8,0,1.1,0h5.6
				c0.4,0,0.7,0.3,0.7,0.7c0,0.6,0,1.1-0.1,1.5C121,44.9,119.9,45.7,118.1,45.7z M110.1,29.2v13.7c0,0.5,0.1,0.9,0.4,1.2
				c0.3,0.3,0.6,0.4,1.2,0.4h6.4c1.4,0,1.7-0.7,1.8-1.3c0-0.2,0-0.4,0.1-0.6h-4.9c-0.4,0-1,0-1.8,0c-0.2,0-0.4-0.1-0.5-0.2
				c-0.1-0.1-0.2-0.3-0.2-0.5l0-1.8v-1.8c0-0.4,0.3-0.7,0.7-0.7h4.8c0.1-0.3,0.1-0.6,0.1-0.9c0-0.3,0-0.6-0.1-0.9H115
				c-0.7,0-1.2,0-1.6,0c-0.2,0-0.4-0.1-0.5-0.2c-0.1-0.1-0.2-0.3-0.2-0.5v-1.7l0-1.7c0-0.2,0.1-0.3,0.2-0.5c0.1-0.1,0.3-0.2,0.5-0.2
				h6.1c0.1-0.4,0.2-0.7,0.2-1.1c0-0.3,0-0.6,0-0.9H110.1z M39.1,43.1c-0.1,0-0.2,0-0.2,0c-0.5,0-1,0-1.4,0c-0.2,0-0.4-0.1-0.5-0.2
				c-0.1-0.1-0.2-0.3-0.2-0.5v-4.7c0-0.4,0.3-0.7,0.7-0.7h2c1,0,1.8,0.3,2.4,0.9l0,0c0.5,0.6,0.7,1.3,0.7,2.1c0,0.8-0.2,1.5-0.6,2
				c-0.4,0.5-0.9,0.8-1.5,0.9C40.1,43.1,39.6,43.1,39.1,43.1z M38.2,41.8c0.2,0,0.5,0,0.8,0c0.5,0,0.9,0,1.3-0.1
				c0.3-0.1,0.5-0.2,0.8-0.5c0.2-0.2,0.3-0.6,0.3-1.1c0-0.5-0.1-0.9-0.4-1.2c0,0,0,0,0,0c-0.3-0.3-0.7-0.5-1.4-0.5h-1.3L38.2,41.8
				C38.2,41.8,38.2,41.8,38.2,41.8z M80.9,43.1c-1.8,0-3.9-1.1-3.9-6.3c0-5.2,2.1-6.3,3.9-6.3c2.6,0,3.9,2.1,3.9,6.3
				C84.8,41,83.5,43.1,80.9,43.1z M80.9,31.8c-0.6,0-2.6,0-2.6,5c0,5,2,5,2.6,5c0.6,0,2.6,0,2.6-5C83.5,31.8,81.5,31.8,80.9,31.8z
				 M53.6,36.7c-0.4,0-0.7-0.3-0.7-0.7v-4.8c0-0.2,0.1-0.4,0.2-0.5c0.1-0.1,0.3-0.2,0.5-0.2c0.2,0,0.5,0,0.7,0h1
				c1.9,0,2.9,1.1,2.9,3c0,0.7-0.1,1.2-0.3,1.6c-0.2,0.4-0.6,0.8-1,1c-0.4,0.2-0.9,0.3-1.5,0.4C54.9,36.7,54.3,36.7,53.6,36.7z
				 M54.2,31.9v3.4c0.4,0,0.8,0,1.2,0c0.4,0,0.7-0.1,1-0.2c0.2-0.1,0.3-0.3,0.4-0.4c0.1-0.1,0.2-0.4,0.2-1c0-1.2-0.5-1.7-1.6-1.7h-1
				C54.3,31.9,54.3,31.9,54.2,31.9z M39.2,35.7h-1.7c-0.4,0-0.7-0.3-0.7-0.7v-3.9c0-0.2,0.1-0.4,0.2-0.5c0.1-0.1,0.3-0.2,0.5-0.2
				c0.2,0,0.4,0,0.7,0h1c0.9,0,1.7,0.3,2.1,0.8c0.4,0.5,0.6,1.1,0.6,1.8c0,0.7-0.2,1.3-0.6,1.8C40.9,35.4,40.2,35.7,39.2,35.7z
				 M38.2,34.3h1c0.4,0,0.9-0.1,1.1-0.3c0.2-0.3,0.3-0.6,0.3-1c0-0.4-0.1-0.7-0.3-0.9c-0.2-0.3-0.7-0.3-1.1-0.3h-1c0,0,0,0-0.1,0
				V34.3z"/>
			<path class="st0" d="M93.4,110h1.4c0-0.1,0-0.2,0-0.3c0-0.1,0-0.2,0-0.3h-1l-0.4,0v-0.6l0-0.4H95c0-0.1,0.1-0.2,0.1-0.3
				c0-0.1,0-0.2,0-0.3h-2.4l0,0v3.5c0,0.1,0,0.3,0.1,0.3c0.1,0.1,0.2,0.1,0.3,0.1h1.6c0.3,0,0.5-0.1,0.5-0.4c0-0.1,0-0.2,0-0.3h-1.4
				l-0.4,0l0-0.4V110z M90.4,111.1v-2.9c0-0.2,0-0.3-0.1-0.4c-0.1-0.1-0.2-0.1-0.3-0.1h-0.3l0,0v3.5c0,0.1,0,0.3,0.1,0.3
				c0.1,0.1,0.2,0.1,0.3,0.1h1.4c0.3,0,0.5-0.1,0.5-0.4c0-0.1,0-0.2,0-0.3h-1.1C90.7,111.1,90.5,111.1,90.4,111.1 M87.2,108.3
				c0.1,0,0.3,0,0.4,0c0.1,0,0.2,0.1,0.2,0.2c0.1,0.1,0.1,0.2,0.1,0.3c0,0.4-0.2,0.5-0.6,0.5h-0.5v-1.1
				C86.9,108.3,87.1,108.3,87.2,108.3 M87.7,110c0.1,0,0.2,0.1,0.2,0.1c0.1,0.1,0.1,0.1,0.1,0.2c0,0.1,0,0.2,0,0.2
				c0,0.1,0,0.2-0.1,0.3c0,0.1-0.1,0.1-0.2,0.2c-0.1,0.1-0.1,0.1-0.2,0.1c-0.1,0-0.2,0-0.3,0c-0.1,0-0.2,0-0.3,0c-0.1,0-0.2,0-0.3,0
				v-1.3h0.6C87.5,109.9,87.6,109.9,87.7,110 M86,107.8v3.9l0,0c0.3,0,0.6,0,0.8,0c0.2,0,0.4,0,0.6,0c0.5,0,0.8-0.1,1.1-0.3
				c0.2-0.2,0.4-0.5,0.4-0.9c0-0.1,0-0.2-0.1-0.3c0-0.1-0.1-0.2-0.2-0.3c-0.1-0.1-0.1-0.2-0.2-0.2c-0.1-0.1-0.2-0.1-0.3-0.1
				c0.2-0.1,0.3-0.2,0.4-0.3c0.1-0.1,0.1-0.3,0.1-0.5c0-0.3-0.1-0.6-0.3-0.8c-0.2-0.2-0.6-0.3-1-0.3c-0.1,0-0.3,0-0.5,0
				C86.6,107.7,86.4,107.7,86,107.8L86,107.8z M81.5,111.8c0.1,0,0.3,0,0.4,0l0.1-1.9c0-0.4,0-0.8,0-1.3h0l0.7,2.5
				c0.1,0,0.3,0,0.4,0c0.1,0,0.3,0,0.4,0l0.7-2.5h0c0,0.4,0,0.8,0,1.3l0.1,1.9c0.1,0,0.2,0,0.4,0c0.1,0,0.3,0,0.4,0l-0.3-4
				c-0.2,0-0.3,0-0.5,0c-0.2,0-0.4,0-0.5,0l-0.4,1.6c-0.1,0.5-0.2,0.8-0.2,1h0c0-0.2-0.1-0.5-0.2-1l-0.4-1.6c-0.2,0-0.3,0-0.5,0
				c-0.2,0-0.4,0-0.5,0l-0.3,4C81.2,111.7,81.4,111.8,81.5,111.8 M78.7,110H80c0-0.1,0-0.2,0-0.3c0-0.1,0-0.2,0-0.3h-1l-0.4,0v-0.6
				l0-0.4h1.7c0-0.1,0.1-0.2,0.1-0.3c0-0.1,0-0.2,0-0.3h-2.4l0,0v3.5c0,0.1,0,0.3,0.1,0.3c0.1,0.1,0.2,0.1,0.3,0.1H80
				c0.3,0,0.5-0.1,0.5-0.4c0-0.1,0-0.2,0-0.3h-1.4l-0.4,0l0-0.4V110z M75.7,111.8c0.3,0,0.5,0,0.7-0.1c0.2-0.1,0.3-0.1,0.5-0.3
				c0.1-0.1,0.2-0.2,0.3-0.4c0.1-0.1,0.1-0.3,0.1-0.5c0-0.2-0.1-0.5-0.2-0.7c-0.2-0.2-0.4-0.3-0.6-0.5l-0.7-0.3
				c-0.3-0.1-0.4-0.3-0.4-0.4c0-0.1,0-0.2,0.1-0.3c0.1-0.1,0.2-0.1,0.4-0.1c0.3,0,0.6,0.1,1,0.3c0.2-0.2,0.3-0.4,0.3-0.6
				c-0.4-0.2-0.8-0.3-1.3-0.3c-0.2,0-0.4,0-0.6,0.1c-0.2,0.1-0.3,0.1-0.4,0.2c-0.1,0.1-0.2,0.2-0.3,0.4c-0.1,0.1-0.1,0.3-0.1,0.5
				c0,0.2,0.1,0.4,0.2,0.6c0.1,0.2,0.3,0.3,0.6,0.4l0.7,0.3c0.3,0.1,0.4,0.3,0.4,0.5c0,0.1-0.1,0.2-0.2,0.3
				c-0.1,0.1-0.3,0.1-0.4,0.1c-0.4,0-0.8-0.1-1.2-0.4c-0.1,0.1-0.1,0.2-0.2,0.3c-0.1,0.1-0.1,0.2-0.1,0.3
				C74.7,111.7,75.2,111.8,75.7,111.8 M73.4,107.7c-0.2,0-0.3,0-0.3,0.1c-0.1,0.1-0.1,0.2-0.1,0.4v1.1c0,0.5,0,1,0.1,1.6l0,0
				l-0.4-0.9l-1.1-2.3c-0.1,0-0.3,0-0.5,0s-0.3,0-0.4,0v4c0.1,0,0.2,0,0.4,0c0.1,0,0.3,0,0.4,0v-1.5c0-0.5,0-1-0.1-1.6l0,0
				c0.1,0.2,0.2,0.5,0.3,0.8l1.1,2.3c0.1,0,0.3,0,0.5,0c0.2,0,0.3,0,0.5,0v-4l0,0H73.4z M68.1,110h1.4c0-0.1,0-0.2,0-0.3
				c0-0.1,0-0.2,0-0.3h-1l-0.4,0v-0.6l0-0.4h1.7c0-0.1,0.1-0.2,0.1-0.3c0-0.1,0-0.2,0-0.3h-2.4l0,0v3.5c0,0.1,0,0.3,0.1,0.3
				c0.1,0.1,0.2,0.1,0.3,0.1h1.6c0.3,0,0.5-0.1,0.5-0.4c0-0.1,0-0.2,0-0.3h-1.4l-0.4,0l0-0.4V110z M62.9,110h1.4c0-0.1,0-0.2,0-0.3
				c0-0.1,0-0.2,0-0.3h-1l-0.4,0v-0.6l0-0.4h1.7c0-0.1,0.1-0.2,0.1-0.3c0-0.1,0-0.2,0-0.3h-2.4l0,0v3.5c0,0.1,0,0.3,0.1,0.3
				c0.1,0.1,0.2,0.1,0.3,0.1h1.6c0.3,0,0.5-0.1,0.5-0.4c0-0.1,0-0.2,0-0.3h-1.4l-0.4,0l0-0.4V110z M59.6,108.3h0.3
				c0.4,0,0.6,0.2,0.6,0.6c0,0.4-0.2,0.6-0.6,0.6c-0.2,0-0.3,0-0.5,0v-1.3C59.4,108.3,59.5,108.3,59.6,108.3 M61,108
				c-0.2-0.2-0.6-0.3-1-0.3c-0.1,0-0.3,0-0.5,0c-0.2,0-0.5,0-0.8,0l0,0v4c0.1,0,0.2,0,0.4,0c0.1,0,0.1,0,0.2,0c0.1,0,0.1,0,0.2,0
				v-1.5h0.4c0.2,0,0.3,0,0.4,0.1c0.1,0.1,0.1,0.2,0.2,0.3l0.2,0.7c0.1,0.2,0.1,0.3,0.2,0.4c0.1,0.1,0.2,0.1,0.3,0.1
				c0.1,0,0.2,0,0.3-0.1c0.1,0,0.2-0.1,0.2-0.2c-0.1,0-0.1-0.1-0.2-0.2c0-0.1-0.1-0.2-0.1-0.3l-0.2-0.6c-0.1-0.1-0.1-0.2-0.2-0.3
				c-0.1-0.1-0.2-0.1-0.3-0.2c0.1,0,0.2-0.1,0.3-0.2c0.1-0.1,0.2-0.1,0.2-0.2c0.1-0.1,0.1-0.2,0.2-0.3c0-0.1,0.1-0.2,0.1-0.4
				C61.3,108.5,61.2,108.2,61,108 M57.2,111.7c0.2,0,0.3,0,0.4,0v-4c-0.1,0-0.2,0-0.4,0c-0.2,0-0.3,0-0.4,0v4
				C56.9,111.7,57.1,111.7,57.2,111.7 M54.2,109.5c0.1-0.5,0.2-0.8,0.3-1h0c0.1,0.3,0.2,0.7,0.3,1.1l0.2,0.6l-0.2,0h-0.5l-0.3,0
				L54.2,109.5z M55.3,111.4c0,0.2,0.1,0.3,0.2,0.3c0.1,0.1,0.2,0.1,0.3,0.1c0.2,0,0.3,0,0.4-0.1l-1.3-3.9c-0.1,0-0.3,0-0.4,0
				c-0.2,0-0.3,0-0.5,0l-1.3,3.9l0,0c0.1,0,0.2,0.1,0.4,0.1c0.1,0,0.3,0,0.3,0l0.3-0.9l0.3,0h0.8l0.3,0L55.3,111.4z M51.2,110h1.3
				c0-0.1,0-0.2,0-0.3c0-0.1,0-0.2,0-0.3h-1.3V109l0-0.6h1.3c0.1,0,0.3,0,0.3-0.1c0.1-0.1,0.1-0.1,0.1-0.3c0-0.1,0-0.2,0-0.3h-2.4
				l0,0v4c0.1,0,0.2,0,0.4,0c0.2,0,0.3,0,0.4,0V110z M47.3,107.7c-0.2,0-0.3,0-0.4,0v2.6c0,0.6-0.2,0.9-0.7,0.9
				c-0.5,0-0.7-0.3-0.7-0.9v-2.1c0-0.2,0-0.3-0.1-0.4c-0.1-0.1-0.2-0.1-0.3-0.1h-0.3l0,0v2.5c0,0.5,0.1,0.9,0.4,1.1
				c0.3,0.3,0.6,0.4,1.1,0.4c0.5,0,0.9-0.1,1.1-0.4c0.3-0.3,0.4-0.6,0.4-1.1v-2.6C47.6,107.7,47.5,107.7,47.3,107.7 M43.1,109.2
				c0,0.1,0,0.3,0,0.5c0,0.1,0,0.3,0,0.4c0,0.1,0,0.3-0.1,0.4c0,0.1-0.1,0.2-0.1,0.3c-0.1,0.1-0.1,0.2-0.2,0.2c-0.1,0-0.1,0-0.2,0.1
				c-0.1,0-0.2,0-0.3,0c-0.1,0-0.2,0-0.3,0c-0.1,0-0.2,0-0.3,0v-2.8c0.1,0,0.2,0,0.3,0h0.4c0.4,0,0.6,0.2,0.7,0.5
				C43.1,108.9,43.1,109.1,43.1,109.2 M43.8,110.7c0.1-0.3,0.1-0.6,0.1-1c0-0.3,0-0.5-0.1-0.8c-0.1-0.2-0.1-0.5-0.3-0.6
				c-0.1-0.2-0.3-0.3-0.5-0.4c-0.2-0.1-0.5-0.2-0.8-0.2c-0.2,0-0.5,0-0.7,0c-0.2,0-0.5,0-0.7,0l0,0v3.9l0,0c0.3,0,0.6,0,0.8,0
				c0.2,0,0.4,0,0.5,0c0.2,0,0.4,0,0.6-0.1c0.2,0,0.4-0.1,0.5-0.2C43.6,111.3,43.7,111,43.8,110.7 M36.5,110h1.4c0-0.1,0-0.2,0-0.3
				c0-0.1,0-0.2,0-0.3h-1l-0.4,0v-0.6l0-0.4h1.7c0-0.1,0.1-0.2,0.1-0.3c0-0.1,0-0.2,0-0.3h-2.4l0,0v3.5c0,0.1,0,0.3,0.1,0.3
				c0.1,0.1,0.2,0.1,0.3,0.1h1.6c0.3,0,0.5-0.1,0.5-0.4c0-0.1,0-0.2,0-0.3h-1.4l-0.4,0l0-0.4V110z M33.1,108.3h0.3
				c0.4,0,0.6,0.2,0.6,0.6c0,0.4-0.2,0.6-0.6,0.6c-0.2,0-0.3,0-0.5,0v-1.3C33,108.3,33.1,108.3,33.1,108.3 M34.5,108
				c-0.2-0.2-0.6-0.3-1-0.3c-0.1,0-0.3,0-0.5,0c-0.2,0-0.5,0-0.8,0l0,0v4c0.1,0,0.2,0,0.4,0c0.1,0,0.1,0,0.2,0c0.1,0,0.1,0,0.2,0
				v-1.5h0.4c0.2,0,0.3,0,0.4,0.1c0.1,0.1,0.1,0.2,0.2,0.3l0.2,0.7c0.1,0.2,0.1,0.3,0.2,0.4c0.1,0.1,0.2,0.1,0.3,0.1
				c0.1,0,0.2,0,0.3-0.1c0.1,0,0.2-0.1,0.2-0.2c-0.1,0-0.1-0.1-0.2-0.2c0-0.1-0.1-0.2-0.1-0.3l-0.2-0.6c-0.1-0.1-0.1-0.2-0.2-0.3
				c-0.1-0.1-0.2-0.1-0.3-0.2c0.1,0,0.2-0.1,0.3-0.2c0.1-0.1,0.2-0.1,0.2-0.2c0.1-0.1,0.1-0.2,0.2-0.3c0-0.1,0.1-0.2,0.1-0.4
				C34.9,108.5,34.8,108.2,34.5,108 M30.8,107.7c-0.2,0-0.3,0-0.4,0v2.6c0,0.6-0.2,0.9-0.7,0.9c-0.5,0-0.7-0.3-0.7-0.9v-2.1
				c0-0.2,0-0.3-0.1-0.4c-0.1-0.1-0.2-0.1-0.3-0.1h-0.3l0,0v2.5c0,0.5,0.1,0.9,0.4,1.1c0.3,0.3,0.6,0.4,1.1,0.4
				c0.5,0,0.9-0.1,1.1-0.4c0.3-0.3,0.4-0.6,0.4-1.1v-2.6C31.1,107.7,31,107.7,30.8,107.7 M26.7,108.4l0.4,0h0.3c0.1,0,0.3,0,0.3-0.1
				c0.1-0.1,0.1-0.1,0.1-0.3c0-0.1,0-0.2,0-0.3h-2.8c0,0.1,0,0.2,0,0.3c0,0.1,0,0.2,0,0.3h0.6l0.4,0l0,0.4v2.9c0.1,0,0.2,0,0.4,0
				c0.2,0,0.3,0,0.4,0v-2.9L26.7,108.4z M23.7,111.1v-2.9c0-0.2,0-0.3-0.1-0.4c-0.1-0.1-0.2-0.1-0.3-0.1h-0.3l0,0v3.5
				c0,0.1,0,0.3,0.1,0.3c0.1,0.1,0.2,0.1,0.3,0.1h1.4c0.3,0,0.5-0.1,0.5-0.4c0-0.1,0-0.2,0-0.3h-1.1C24,111.1,23.8,111.1,23.7,111.1
				 M21.6,107.7c-0.2,0-0.3,0-0.4,0v2.6c0,0.6-0.2,0.9-0.7,0.9c-0.5,0-0.7-0.3-0.7-0.9v-2.1c0-0.2,0-0.3-0.1-0.4
				c-0.1-0.1-0.2-0.1-0.3-0.1h-0.3l0,0v2.5c0,0.5,0.1,0.9,0.4,1.1c0.3,0.3,0.6,0.4,1.1,0.4c0.5,0,0.9-0.1,1.1-0.4
				c0.3-0.3,0.4-0.6,0.4-1.1v-2.6C21.8,107.7,21.7,107.7,21.6,107.7 M17.7,109.3c0.1,0,0.1,0,0.1,0c0.3,0,0.4-0.1,0.4-0.4
				c0-0.2,0-0.3-0.1-0.5c-0.1-0.1-0.2-0.3-0.3-0.4c-0.1-0.1-0.3-0.2-0.5-0.3c-0.2-0.1-0.4-0.1-0.6-0.1c-0.2,0-0.4,0-0.6,0.1
				c-0.2,0.1-0.4,0.2-0.5,0.4c-0.1,0.2-0.3,0.4-0.3,0.7c-0.1,0.3-0.1,0.6-0.1,0.9c0,0.3,0,0.5,0.1,0.8c0.1,0.2,0.1,0.5,0.3,0.7
				c0.1,0.2,0.3,0.3,0.5,0.4c0.2,0.1,0.4,0.2,0.7,0.2c0.1,0,0.3,0,0.4,0c0.1,0,0.3-0.1,0.4-0.1c0.1-0.1,0.3-0.1,0.4-0.2
				c0.1-0.1,0.2-0.2,0.3-0.2c0-0.1-0.1-0.2-0.1-0.3c-0.1-0.1-0.2-0.2-0.2-0.2c-0.2,0.1-0.4,0.3-0.5,0.3c-0.2,0.1-0.3,0.1-0.5,0.1
				c-0.3,0-0.5-0.1-0.6-0.3c-0.2-0.2-0.2-0.5-0.2-1c0-0.5,0.1-0.9,0.2-1.2c0.1-0.3,0.3-0.4,0.6-0.4c0.1,0,0.2,0,0.3,0.1
				c0.1,0,0.2,0.1,0.2,0.2c0.1,0.1,0.1,0.2,0.1,0.3c0,0.1,0,0.2,0,0.4v0.1C17.6,109.2,17.7,109.2,17.7,109.3 M11,109.5
				c0.1-0.5,0.2-0.8,0.3-1h0c0.1,0.3,0.2,0.7,0.3,1.1l0.2,0.6l-0.2,0H11l-0.3,0L11,109.5z M12.1,111.4c0,0.2,0.1,0.3,0.2,0.3
				c0.1,0.1,0.2,0.1,0.3,0.1c0.2,0,0.3,0,0.4-0.1l-1.3-3.9c-0.1,0-0.3,0-0.4,0c-0.2,0-0.3,0-0.5,0l-1.3,3.9l0,0
				c0.1,0,0.2,0.1,0.4,0.1c0.2,0,0.3,0,0.3,0l0.3-0.9l0.3,0h0.8l0.3,0L12.1,111.4z M7.7,111.1v-2.9c0-0.2,0-0.3-0.1-0.4
				c-0.1-0.1-0.2-0.1-0.3-0.1H7l0,0v3.5c0,0.1,0,0.3,0.1,0.3c0.1,0.1,0.2,0.1,0.3,0.1h1.4c0.3,0,0.5-0.1,0.5-0.4c0-0.1,0-0.2,0-0.3
				H8.2C8.1,111.1,7.9,111.1,7.7,111.1"/>
			<path class="st0" d="M46,23.9c-2.3,0-4-0.6-5.3-1.9c-1.3-1.2-1.9-3-1.9-5.2V6.4c0-0.2,0.1-0.3,0.2-0.5l0.2-0.2
				c0.1-0.1,0.3-0.2,0.5-0.2h1.4c1.9,0,3,1.1,3,3.1v8.2c0,1,0.2,1.7,0.5,2.1c0.3,0.4,0.8,0.6,1.5,0.6c0.8,0,1.2-0.2,1.5-0.6
				c0.3-0.4,0.5-1.1,0.5-2.1V6.4c0-0.3,0.2-0.6,0.5-0.6c0.5-0.1,1.2-0.2,2-0.2c0.8,0,1.5,0.1,2,0.2c0.3,0.1,0.5,0.3,0.5,0.6v10.4
				c0,2.2-0.6,4-1.9,5.2C50.1,23.2,48.3,23.9,46,23.9z M40.2,6.9v9.9c0,1.9,0.5,3.3,1.5,4.3c1,1,2.5,1.5,4.4,1.5
				c1.9,0,3.4-0.5,4.4-1.5c1-1,1.5-2.4,1.5-4.3V6.9c-0.4,0-0.8-0.1-1.3-0.1c-0.5,0-0.9,0-1.3,0.1v9.9c0,1.3-0.2,2.2-0.7,2.9
				c-0.5,0.7-1.4,1.1-2.6,1.1c-1.2,0-2.1-0.4-2.6-1.1c-0.5-0.7-0.7-1.6-0.7-2.9V8.7c0-1.3-0.5-1.8-1.6-1.8H40.2z M80.7,23.7
				c-0.8,0-1.4-0.2-1.8-0.7c-0.4-0.4-0.7-1.1-1-2L77,18.5c-0.1-0.4-0.3-0.6-0.5-0.8c-0.2-0.1-0.5-0.2-0.9-0.2h-0.3v5.4
				c0,0.3-0.2,0.6-0.5,0.6c-0.6,0.1-1.2,0.2-2.1,0.2c-0.8,0-1.5-0.1-2-0.2c-0.3-0.1-0.5-0.3-0.5-0.6V6.5c0-0.2,0.1-0.3,0.2-0.5
				l0.2-0.2c0.1-0.1,0.3-0.2,0.5-0.2c1.4,0,2.6-0.1,3.5-0.1c1,0,1.7,0,2.3,0c0.9,0,1.8,0.1,2.6,0.4c0.8,0.2,1.5,0.6,2.1,1.1
				c0.6,0.5,1,1.1,1.4,1.9c0,0,0,0,0,0c0.3,0.7,0.5,1.6,0.5,2.6c0,0.6-0.1,1.2-0.3,1.7c-0.2,0.5-0.4,1-0.7,1.4
				c-0.3,0.4-0.7,0.8-1.1,1.1c-0.1,0.1-0.2,0.1-0.2,0.2c0.5,0.5,0.9,1.1,1.2,2l0.7,2c0.2,0.7,0.6,1.2,1,1.5c0.1,0.1,0.2,0.3,0.3,0.4
				c0,0.2,0,0.4-0.1,0.5c-0.3,0.4-0.8,0.8-1.3,1C82,23.6,81.4,23.7,80.7,23.7z M74.6,16.2h1c0.8,0,1.3,0.2,1.8,0.5
				c0.4,0.3,0.7,0.8,0.9,1.4l0.9,2.5c0.3,0.9,0.6,1.3,0.7,1.5c0.2,0.2,0.5,0.3,0.9,0.3c0.5,0,0.9-0.1,1.3-0.3
				c0.1-0.1,0.3-0.1,0.4-0.2c-0.4-0.4-0.7-0.9-0.9-1.6l-0.7-2c-0.3-1-0.8-1.6-1.5-1.8c-0.3-0.1-0.4-0.3-0.4-0.6
				c0-0.3,0.2-0.5,0.4-0.6c0.3-0.1,0.6-0.3,0.9-0.5c0.3-0.2,0.6-0.5,0.8-0.8c0.2-0.3,0.4-0.7,0.6-1.1c0.1-0.4,0.2-0.8,0.2-1.3
				c0-0.8-0.1-1.5-0.4-2c-0.2-0.6-0.6-1-1-1.4c-0.4-0.4-1-0.7-1.6-0.8c-0.7-0.2-1.4-0.3-2.2-0.3c-0.5,0-1.3,0-2.2,0
				c-0.8,0-1.9,0-3.1,0.1v15.3c0.4,0,0.8,0.1,1.2,0.1c0.5,0,0.9,0,1.3-0.1v-5.5C73.9,16.5,74.2,16.2,74.6,16.2z M34.6,23.7
				c-1,0-1.7-0.2-2.2-0.6c-0.4-0.4-0.8-1-1.1-2L31,20.1c-0.1,0-0.3,0-0.5,0h-3.4c-0.2,0-0.3,0-0.5,0l-0.9,3
				c-0.1,0.2-0.2,0.4-0.5,0.5c-0.4,0.1-1,0.2-1.8,0.2c-0.9,0-1.5-0.1-2.1-0.3c-0.1-0.1-0.3-0.1-0.3-0.3L21,22.9
				c-0.1-0.2-0.1-0.4-0.1-0.6l5.3-16.2c0.1-0.2,0.3-0.4,0.5-0.4c0.7-0.1,1.4-0.2,2.3-0.2c1,0,1.8,0.1,2.4,0.2c0.2,0,0.4,0.2,0.5,0.4
				l5.2,16.2c0.1,0.3,0,0.6-0.3,0.8C36.2,23.6,35.4,23.7,34.6,23.7z M31.5,18.7c0.3,0,0.6,0.2,0.6,0.5l0.5,1.6
				c0.3,0.9,0.5,1.2,0.7,1.3c0.1,0.1,0.5,0.3,1.3,0.3c0.4,0,0.8-0.1,1.1-0.2L30.8,7c-0.5-0.1-1.1-0.1-1.8-0.1c-0.6,0-1.2,0-1.7,0.1
				l-5,15.3c0.3,0.1,0.7,0.1,1.2,0.1c0.4,0,0.8,0,1.1-0.1l0.9-3.1c0.1-0.3,0.4-0.5,0.7-0.5c0.2,0,0.5,0,0.9,0h3.4
				C31,18.7,31.3,18.7,31.5,18.7C31.5,18.7,31.5,18.7,31.5,18.7z M61.5,23.7c-0.8,0-1.5-0.1-2-0.2c-0.3-0.1-0.5-0.3-0.5-0.6V10.2
				l-0.9,0h-2.5c-0.3,0-0.6-0.2-0.6-0.5c-0.1-0.5-0.2-1.1-0.2-1.7c0-0.6,0.1-1.2,0.2-1.7c0.1-0.3,0.3-0.5,0.6-0.5h11.9
				c0.3,0,0.5,0.2,0.6,0.5c0.1,0.5,0.2,1.1,0.2,1.7c0,0.8-0.2,1.4-0.7,1.8c-0.4,0.4-1.1,0.6-2,0.6l-1.6,0l0,1.1v11.5
				c0,0.3-0.2,0.6-0.5,0.6C63,23.6,62.3,23.7,61.5,23.7z M60.3,22.3c0.4,0,0.8,0.1,1.2,0.1c0.5,0,0.9,0,1.3-0.1V11.4l0-1.8
				c0-0.2,0.1-0.3,0.2-0.5c0.1-0.1,0.3-0.2,0.5-0.2c0,0,0,0,0,0l2.2,0c0.7,0,1-0.2,1.1-0.2c0.2-0.1,0.2-0.4,0.2-0.8
				c0-0.3,0-0.6-0.1-0.9H56.2c0,0.3,0,0.6,0,1c0,0.3,0,0.7,0,1h1.9l1.5,0c0.2,0,0.3,0.1,0.5,0.2c0.1,0.1,0.2,0.3,0.2,0.5V22.3z
				 M95.4,23.6H89c-0.9,0-1.6-0.3-2.1-0.8c-0.5-0.5-0.8-1.2-0.8-2.1V6.5c0-0.2,0.1-0.3,0.2-0.5l0.2-0.2c0.1-0.1,0.3-0.2,0.5-0.2
				h10.4c0.3,0,0.6,0.2,0.6,0.5c0.1,0.5,0.2,1.1,0.2,1.7c0,0.6-0.1,1.3-0.4,1.9c-0.1,0.3-0.3,0.4-0.6,0.4h-5.9l0,2.1
				c0.3,0,0.6,0,1,0h3.7c0.3,0,0.5,0.2,0.6,0.5c0.2,0.5,0.2,1.1,0.2,1.7c0,0.6-0.1,1.2-0.2,1.8c-0.1,0.3-0.3,0.5-0.6,0.5h-4.7l0,2.3
				c0.4,0,0.8,0,1.1,0h5.6c0.4,0,0.7,0.3,0.7,0.7c0,0.6,0,1.1-0.1,1.5C98.3,22.7,97.2,23.6,95.4,23.6z M87.4,7v13.7
				c0,0.5,0.1,0.9,0.4,1.2c0.3,0.3,0.6,0.4,1.2,0.4h6.4c1.4,0,1.7-0.7,1.8-1.3c0-0.2,0-0.4,0.1-0.6h-4.9c-0.4,0-1,0-1.8,0
				c-0.2,0-0.4-0.1-0.5-0.2c-0.1-0.1-0.2-0.3-0.2-0.5l0-1.8v-1.8c0-0.4,0.3-0.7,0.7-0.7h4.8c0.1-0.3,0.1-0.6,0.1-0.9
				c0-0.3,0-0.6-0.1-0.9h-3.2c-0.7,0-1.2,0-1.6,0c-0.2,0-0.4-0.1-0.5-0.2s-0.2-0.3-0.2-0.5v-1.7l0-1.7c0-0.2,0.1-0.3,0.2-0.5
				c0.1-0.1,0.3-0.2,0.5-0.2h6.1c0.1-0.4,0.2-0.7,0.2-1.1c0-0.3,0-0.6,0-0.9H87.4z M13.6,23.6H8.1c-0.9,0-1.6-0.3-2.1-0.8
				c-0.5-0.5-0.8-1.2-0.8-2.1V6.4c0-0.2,0.1-0.3,0.2-0.5l0.2-0.2c0.1-0.1,0.3-0.2,0.5-0.2h1.4c1.9,0,2.9,1.1,2.9,3.1V19
				c0.5,0,1.1,0,1.6,0h4.2c0.4,0,0.7,0.3,0.7,0.7c0,0.7,0,1.3-0.1,1.8c-0.1,0.6-0.5,1.2-1,1.6C15.2,23.4,14.4,23.6,13.6,23.6z
				 M6.6,6.9v13.8c0,0.5,0.1,0.9,0.4,1.2c0.3,0.3,0.7,0.4,1.2,0.4h5.5c0.6,0,1-0.1,1.3-0.4c0.3-0.2,0.5-0.5,0.5-0.8
				c0-0.3,0.1-0.6,0.1-0.9H12c-0.8,0-1.5,0-2.2,0.1c-0.2,0-0.4,0-0.5-0.2c-0.1-0.1-0.2-0.3-0.2-0.5v-11c0-1.6-0.8-1.8-1.6-1.8H6.6z
				 M27.1,17c-0.2,0-0.4-0.1-0.5-0.3c-0.1-0.2-0.2-0.4-0.1-0.6l0.6-1.9c0.6-2.3,1-3.9,1.1-4.6c0.1-0.3,0.3-0.5,0.6-0.5h0.1
				c0.3,0,0.6,0.2,0.6,0.5c0.5,1.9,0.9,3.6,1.3,5l0.4,1.5c0.1,0.2,0,0.4-0.1,0.6S30.9,17,30.7,17c-0.1,0-0.3,0-0.5,0
				c-0.2,0-0.3,0-0.4,0h-1.8L27.1,17C27.1,17,27.1,17,27.1,17z M28.9,12.3c-0.2,0.7-0.4,1.4-0.6,2.3c0,0,0,0,0,0l-0.3,1l0.1,0l1.8,0
				L29.6,15C29.4,14.2,29.2,13.3,28.9,12.3z M74.6,14.5c-0.4,0-0.7-0.3-0.7-0.7V9.1c0-0.2,0.1-0.4,0.2-0.5c0.1-0.1,0.3-0.2,0.5-0.2
				c0.2,0,0.5,0,0.7,0h1c1.9,0,2.9,1.1,2.9,3c0,0.7-0.1,1.2-0.3,1.6c-0.2,0.4-0.6,0.8-1,1c-0.4,0.2-0.9,0.3-1.5,0.4
				C75.9,14.5,75.3,14.5,74.6,14.5z M75.2,9.8v3.4c0.4,0,0.8,0,1.2,0c0.4,0,0.7-0.1,1-0.2c0.2-0.1,0.3-0.3,0.4-0.4
				c0.1-0.1,0.2-0.4,0.2-1c0-1.2-0.5-1.7-1.6-1.7h-1C75.3,9.8,75.3,9.8,75.2,9.8z M17.2,11.8c-0.1,0-0.2,0-0.3-0.1
				c-0.4-0.2-0.7-0.5-0.9-0.9c-0.2-0.4-0.3-0.8-0.3-1.3l0-0.2c0-0.3,0.2-0.6,0.5-0.6c0.2-0.1,0.4-0.1,0.6-0.2
				c0.2-0.1,0.4-0.2,0.5-0.4c0.1-0.1,0.2-0.2,0.3-0.3c-0.2-0.1-0.4-0.2-0.6-0.3c-0.1-0.1-0.2-0.2-0.2-0.3c-0.2-0.4-0.3-0.7-0.3-1
				c0-0.2,0-0.5,0-0.8c0-0.7,0.1-1.3,0.4-1.8c0.1-0.1,0.2-0.2,0.3-0.3c0.4-0.2,0.8-0.4,1.1-0.4C18.5,3,18.8,3,19.2,3
				c0.9,0,1.6,0.2,2.2,0.5c0.1,0.1,0.2,0.2,0.3,0.3C21.9,4.5,22,5.2,22,6c0,1.3-0.4,2.5-1.2,3.6c-0.8,1-2,1.8-3.4,2.2
				C17.3,11.8,17.3,11.8,17.2,11.8z M17,9.9c0,0.1,0.1,0.2,0.1,0.3c0,0.1,0.1,0.2,0.2,0.2c1.1-0.3,1.9-0.9,2.5-1.6
				C20.4,8,20.7,7.1,20.7,6c0-0.6-0.1-1-0.2-1.4c-0.3-0.2-0.8-0.2-1.3-0.2c-0.3,0-0.6,0-0.8,0.1c-0.2,0-0.3,0.1-0.6,0.2
				c-0.1,0.3-0.1,0.6-0.1,0.9c0,0.2,0,0.4,0,0.6c0,0.1,0,0.2,0.1,0.4c0.2,0.1,0.4,0.1,0.6,0.1c0.3,0,0.6,0.3,0.6,0.7
				c0,0.4-0.1,0.7-0.3,1c-0.2,0.3-0.4,0.5-0.6,0.7c-0.2,0.2-0.5,0.4-0.8,0.5C17.3,9.7,17.2,9.8,17,9.9z"/>
		</g>
		<g>
			<path class="st1" d="M27.2,82"/>
			<g>
				<path class="st1" d="M97.8,104h-93c-0.5,0-0.9-0.4-0.9-0.9V73.3c0-0.5,0.4-0.9,0.9-0.9h93c0.5,0,0.9,0.4,0.9,0.9v29.8
					C98.7,103.6,98.3,104,97.8,104z M5.7,102.2H97V74.1H5.7V102.2z"/>
			</g>
			
				<rect x="93.7" y="91.7" transform="matrix(0.7281 -0.6855 0.6855 0.7281 -33.8151 99.9181)" class="st1" width="30.8" height="1.8"/>
			
				<rect x="93.8" y="61.7" transform="matrix(0.7281 -0.6855 0.6855 0.7281 -13.2423 91.8515)" class="st1" width="30.8" height="1.8"/>
			<g>
				
					<rect x="0.7" y="61.7" transform="matrix(0.7281 -0.6855 0.6855 0.7281 -38.5498 28.0548)" class="st1" width="30.8" height="1.8"/>
				<path class="st1" d="M5.5,103c-0.2,0-0.4-0.1-0.5-0.2c-0.2-0.3-0.2-0.7,0-0.9l4.3-4c0.3-0.2,0.7-0.2,0.9,0
					c0.2,0.3,0.2,0.7,0,0.9l-4.3,4C5.8,103,5.7,103,5.5,103z M14.1,95c-0.2,0-0.4-0.1-0.5-0.2c-0.2-0.3-0.2-0.7,0-0.9l4.3-4
					c0.3-0.2,0.7-0.2,0.9,0c0.2,0.3,0.2,0.7,0,0.9l-4.3,4C14.4,94.9,14.3,95,14.1,95z M22.7,87c-0.2,0-0.4-0.1-0.5-0.2
					c-0.2-0.3-0.2-0.7,0-0.9l4.3-4c0.3-0.2,0.7-0.2,0.9,0c0.2,0.3,0.2,0.7,0,0.9l-4.3,4C23,86.9,22.8,87,22.7,87z"/>
			</g>
			<path class="st1" d="M27.2,82.3c-0.4,0-0.7-0.3-0.7-0.7v-5.8c0-0.4,0.3-0.7,0.7-0.7c0.4,0,0.7,0.3,0.7,0.7v5.8
				C27.8,82,27.6,82.3,27.2,82.3z M27.2,70.7c-0.4,0-0.7-0.3-0.7-0.7v-5.8c0-0.4,0.3-0.7,0.7-0.7c0.4,0,0.7,0.3,0.7,0.7v5.8
				C27.8,70.4,27.6,70.7,27.2,70.7z M27.2,59.2c-0.4,0-0.7-0.3-0.7-0.7v-5.8c0-0.4,0.3-0.7,0.7-0.7c0.4,0,0.7,0.3,0.7,0.7v5.8
				C27.8,58.9,27.6,59.2,27.2,59.2z"/>
			<path class="st1" d="M120.2,82.9c-0.5,0-0.9-0.4-0.9-0.9v-29H27.2c-0.5,0-0.9-0.4-0.9-0.9s0.4-0.9,0.9-0.9h93
				c0.5,0,0.9,0.4,0.9,0.9V82C121.1,82.5,120.7,82.9,120.2,82.9z"/>
			<path class="st1" d="M120.2,82.7h-5.5c-0.4,0-0.7-0.3-0.7-0.7s0.3-0.7,0.7-0.7h5.5c0.4,0,0.7,0.3,0.7,0.7S120.6,82.7,120.2,82.7z
				 M109.3,82.7h-5.5c-0.4,0-0.7-0.3-0.7-0.7s0.3-0.7,0.7-0.7h5.5c0.4,0,0.7,0.3,0.7,0.7S109.7,82.7,109.3,82.7z M98.3,82.7h-5.5
				c-0.4,0-0.7-0.3-0.7-0.7s0.3-0.7,0.7-0.7h5.5c0.4,0,0.7,0.3,0.7,0.7S98.7,82.7,98.3,82.7z M87.4,82.7h-5.5
				c-0.4,0-0.7-0.3-0.7-0.7s0.3-0.7,0.7-0.7h5.5c0.4,0,0.7,0.3,0.7,0.7S87.8,82.7,87.4,82.7z M76.5,82.7H71c-0.4,0-0.7-0.3-0.7-0.7
				s0.3-0.7,0.7-0.7h5.5c0.4,0,0.7,0.3,0.7,0.7S76.8,82.7,76.5,82.7z M65.5,82.7H60c-0.4,0-0.7-0.3-0.7-0.7s0.3-0.7,0.7-0.7h5.5
				c0.4,0,0.7,0.3,0.7,0.7S65.9,82.7,65.5,82.7z M54.6,82.7h-5.5c-0.4,0-0.7-0.3-0.7-0.7s0.3-0.7,0.7-0.7h5.5c0.4,0,0.7,0.3,0.7,0.7
				S54.9,82.7,54.6,82.7z M43.6,82.7h-5.5c-0.4,0-0.7-0.3-0.7-0.7s0.3-0.7,0.7-0.7h5.5c0.4,0,0.7,0.3,0.7,0.7S44,82.7,43.6,82.7z
				 M32.7,82.7h-5.5c-0.4,0-0.7-0.3-0.7-0.7s0.3-0.7,0.7-0.7h5.5c0.4,0,0.7,0.3,0.7,0.7S33,82.7,32.7,82.7z"/>
			<path class="st1" d="M113.8,113.3c-4,0-8-0.6-11.9-1.9c-0.5-0.1-0.7-0.6-0.6-1.1c0.2-0.5,0.6-0.7,1.1-0.6
				c9.5,3.1,19.5,2.2,28.2-2.4c8.6-4.6,15-12.4,18.1-22.1c6.4-19.7-4.5-41-24.3-47.4c-0.5-0.1-0.7-0.6-0.6-1.1
				c0.2-0.5,0.6-0.7,1.1-0.6c20.7,6.7,32.1,29,25.4,49.6c-3.3,10.1-10,18.3-19,23.1C125.9,111.8,119.9,113.3,113.8,113.3z"/>
			<path class="st1" d="M104.2,115.2c-0.3,0-0.6-0.2-0.8-0.5l-2.1-3.7c-0.1-0.2-0.1-0.5-0.1-0.7c0.1-0.2,0.2-0.4,0.5-0.5l3.9-1.8
				c0.4-0.2,1,0,1.2,0.4c0.2,0.4,0,1-0.4,1.2l-3,1.4l1.6,2.9c0.2,0.4,0.1,1-0.3,1.2C104.5,115.2,104.3,115.2,104.2,115.2z"/>
		</g>
	</g>
</g>
</svg>
